%TF.GenerationSoftware,KiCad,Pcbnew,8.0.5*%
%TF.CreationDate,2024-10-13T22:09:49+02:00*%
%TF.ProjectId,s3Basic,73334261-7369-4632-9e6b-696361645f70,rev?*%
%TF.SameCoordinates,Original*%
%TF.FileFunction,Drillmap*%
%TF.FilePolarity,Positive*%
%FSLAX45Y45*%
G04 Gerber Fmt 4.5, Leading zero omitted, Abs format (unit mm)*
G04 Created by KiCad (PCBNEW 8.0.5) date 2024-10-13 22:09:49*
%MOMM*%
%LPD*%
G01*
G04 APERTURE LIST*
%ADD10C,0.050000*%
%ADD11C,0.100000*%
%ADD12C,0.200000*%
%ADD13C,0.220000*%
G04 APERTURE END LIST*
D10*
X24017500Y-6293299D02*
X24017500Y-5450000D01*
X11000000Y-8300000D02*
X11000000Y-5750000D01*
X24017500Y-7893299D02*
X23900000Y-7893299D01*
X24017500Y-8323299D02*
X24017500Y-7893299D01*
X11000000Y-8300000D02*
X11300000Y-8623299D01*
X23900000Y-6293299D02*
X24017500Y-6293299D01*
X11300000Y-8623299D02*
X23617500Y-8623299D01*
X23900000Y-7893299D02*
X23900000Y-6293299D01*
X11300000Y-5450000D02*
X24017500Y-5450000D01*
X11000000Y-5750000D02*
X11300000Y-5450000D01*
X24017500Y-8323299D02*
X23617500Y-8623299D01*
D11*
X19330000Y-6108583D02*
X19330000Y-5968015D01*
X19420555Y-5888299D02*
X19579445Y-5888299D01*
X19579445Y-6188299D02*
X19420555Y-6188299D01*
X19670000Y-5968015D02*
X19670000Y-6108583D01*
X19325052Y-5946327D02*
G75*
G02*
X19330002Y-5968015I-45052J-21692D01*
G01*
X19325052Y-5946327D02*
G75*
G02*
X19395329Y-5881469I45051J21688D01*
G01*
X19330000Y-6108583D02*
G75*
G02*
X19325051Y-6130271I-49999J0D01*
G01*
X19395329Y-6195129D02*
G75*
G02*
X19325052Y-6130271I-25226J43170D01*
G01*
X19395329Y-6195129D02*
G75*
G02*
X19420555Y-6188299I25226J-43171D01*
G01*
X19420555Y-5888299D02*
G75*
G02*
X19395329Y-5881469I0J50001D01*
G01*
X19579445Y-6188299D02*
G75*
G02*
X19604671Y-6195129I0J-50001D01*
G01*
X19604671Y-5881469D02*
G75*
G02*
X19579445Y-5888299I-25226J43171D01*
G01*
X19604671Y-5881469D02*
G75*
G02*
X19674948Y-5946327I25226J-43170D01*
G01*
X19670000Y-5968015D02*
G75*
G02*
X19674948Y-5946327I49999J0D01*
G01*
X19674948Y-6130271D02*
G75*
G02*
X19604671Y-6195129I-45052J-21688D01*
G01*
X19674948Y-6130271D02*
G75*
G02*
X19670000Y-6108583I45051J21688D01*
G01*
X14930000Y-6108583D02*
X14930000Y-5968015D01*
X15020555Y-5888299D02*
X15179445Y-5888299D01*
X15179445Y-6188299D02*
X15020555Y-6188299D01*
X15270000Y-5968015D02*
X15270000Y-6108583D01*
X14925052Y-5946327D02*
G75*
G02*
X14930002Y-5968015I-45052J-21692D01*
G01*
X14925052Y-5946327D02*
G75*
G02*
X14995329Y-5881469I45051J21688D01*
G01*
X14930000Y-6108583D02*
G75*
G02*
X14925051Y-6130271I-49999J0D01*
G01*
X14995329Y-6195129D02*
G75*
G02*
X14925052Y-6130271I-25226J43170D01*
G01*
X14995329Y-6195129D02*
G75*
G02*
X15020555Y-6188299I25226J-43171D01*
G01*
X15020555Y-5888299D02*
G75*
G02*
X14995329Y-5881469I0J50001D01*
G01*
X15179445Y-6188299D02*
G75*
G02*
X15204671Y-6195129I0J-50001D01*
G01*
X15204671Y-5881469D02*
G75*
G02*
X15179445Y-5888299I-25226J43171D01*
G01*
X15204671Y-5881469D02*
G75*
G02*
X15274948Y-5946327I25226J-43170D01*
G01*
X15270000Y-5968015D02*
G75*
G02*
X15274948Y-5946327I49999J0D01*
G01*
X15274948Y-6130271D02*
G75*
G02*
X15204671Y-6195129I-45052J-21688D01*
G01*
X15274948Y-6130271D02*
G75*
G02*
X15270000Y-6108583I45051J21688D01*
G01*
X17080000Y-6108583D02*
X17080000Y-5968015D01*
X17170555Y-5888299D02*
X17329445Y-5888299D01*
X17329445Y-6188299D02*
X17170555Y-6188299D01*
X17420000Y-5968015D02*
X17420000Y-6108583D01*
X17075052Y-5946327D02*
G75*
G02*
X17080002Y-5968015I-45052J-21692D01*
G01*
X17075052Y-5946327D02*
G75*
G02*
X17145329Y-5881469I45051J21688D01*
G01*
X17080000Y-6108583D02*
G75*
G02*
X17075051Y-6130271I-49999J0D01*
G01*
X17145329Y-6195129D02*
G75*
G02*
X17075052Y-6130271I-25226J43170D01*
G01*
X17145329Y-6195129D02*
G75*
G02*
X17170555Y-6188299I25226J-43171D01*
G01*
X17170555Y-5888299D02*
G75*
G02*
X17145329Y-5881469I0J50001D01*
G01*
X17329445Y-6188299D02*
G75*
G02*
X17354671Y-6195129I0J-50001D01*
G01*
X17354671Y-5881469D02*
G75*
G02*
X17329445Y-5888299I-25226J43171D01*
G01*
X17354671Y-5881469D02*
G75*
G02*
X17424948Y-5946327I25226J-43170D01*
G01*
X17420000Y-5968015D02*
G75*
G02*
X17424948Y-5946327I49999J0D01*
G01*
X17424948Y-6130271D02*
G75*
G02*
X17354671Y-6195129I-45052J-21688D01*
G01*
X17424948Y-6130271D02*
G75*
G02*
X17420000Y-6108583I45051J21688D01*
G01*
X13780000Y-6108583D02*
X13780000Y-5968015D01*
X13870555Y-5888299D02*
X14029445Y-5888299D01*
X14029445Y-6188299D02*
X13870555Y-6188299D01*
X14120000Y-5968015D02*
X14120000Y-6108583D01*
X13775052Y-5946327D02*
G75*
G02*
X13780002Y-5968015I-45052J-21692D01*
G01*
X13775052Y-5946327D02*
G75*
G02*
X13845329Y-5881469I45051J21688D01*
G01*
X13780000Y-6108583D02*
G75*
G02*
X13775051Y-6130271I-49999J0D01*
G01*
X13845329Y-6195129D02*
G75*
G02*
X13775052Y-6130271I-25226J43170D01*
G01*
X13845329Y-6195129D02*
G75*
G02*
X13870555Y-6188299I25226J-43171D01*
G01*
X13870555Y-5888299D02*
G75*
G02*
X13845329Y-5881469I0J50001D01*
G01*
X14029445Y-6188299D02*
G75*
G02*
X14054671Y-6195129I0J-50001D01*
G01*
X14054671Y-5881469D02*
G75*
G02*
X14029445Y-5888299I-25226J43171D01*
G01*
X14054671Y-5881469D02*
G75*
G02*
X14124948Y-5946327I25226J-43170D01*
G01*
X14120000Y-5968015D02*
G75*
G02*
X14124948Y-5946327I49999J0D01*
G01*
X14124948Y-6130271D02*
G75*
G02*
X14054671Y-6195129I-45052J-21688D01*
G01*
X14124948Y-6130271D02*
G75*
G02*
X14120000Y-6108583I45051J21688D01*
G01*
X12730000Y-6108583D02*
X12730000Y-5968015D01*
X12820555Y-5888299D02*
X12979445Y-5888299D01*
X12979445Y-6188299D02*
X12820555Y-6188299D01*
X13070000Y-5968015D02*
X13070000Y-6108583D01*
X12725052Y-5946327D02*
G75*
G02*
X12730002Y-5968015I-45052J-21692D01*
G01*
X12725052Y-5946327D02*
G75*
G02*
X12795329Y-5881469I45051J21688D01*
G01*
X12730000Y-6108583D02*
G75*
G02*
X12725051Y-6130271I-49999J0D01*
G01*
X12795329Y-6195129D02*
G75*
G02*
X12725052Y-6130271I-25226J43170D01*
G01*
X12795329Y-6195129D02*
G75*
G02*
X12820555Y-6188299I25226J-43171D01*
G01*
X12820555Y-5888299D02*
G75*
G02*
X12795329Y-5881469I0J50001D01*
G01*
X12979445Y-6188299D02*
G75*
G02*
X13004671Y-6195129I0J-50001D01*
G01*
X13004671Y-5881469D02*
G75*
G02*
X12979445Y-5888299I-25226J43171D01*
G01*
X13004671Y-5881469D02*
G75*
G02*
X13074948Y-5946327I25226J-43170D01*
G01*
X13070000Y-5968015D02*
G75*
G02*
X13074948Y-5946327I49999J0D01*
G01*
X13074948Y-6130271D02*
G75*
G02*
X13004671Y-6195129I-45052J-21688D01*
G01*
X13074948Y-6130271D02*
G75*
G02*
X13070000Y-6108583I45051J21688D01*
G01*
X18230000Y-6108583D02*
X18230000Y-5968015D01*
X18320555Y-5888299D02*
X18479445Y-5888299D01*
X18479445Y-6188299D02*
X18320555Y-6188299D01*
X18570000Y-5968015D02*
X18570000Y-6108583D01*
X18225052Y-5946327D02*
G75*
G02*
X18230002Y-5968015I-45052J-21692D01*
G01*
X18225052Y-5946327D02*
G75*
G02*
X18295329Y-5881469I45051J21688D01*
G01*
X18230000Y-6108583D02*
G75*
G02*
X18225051Y-6130271I-49999J0D01*
G01*
X18295329Y-6195129D02*
G75*
G02*
X18225052Y-6130271I-25226J43170D01*
G01*
X18295329Y-6195129D02*
G75*
G02*
X18320555Y-6188299I25226J-43171D01*
G01*
X18320555Y-5888299D02*
G75*
G02*
X18295329Y-5881469I0J50001D01*
G01*
X18479445Y-6188299D02*
G75*
G02*
X18504671Y-6195129I0J-50001D01*
G01*
X18504671Y-5881469D02*
G75*
G02*
X18479445Y-5888299I-25226J43171D01*
G01*
X18504671Y-5881469D02*
G75*
G02*
X18574948Y-5946327I25226J-43170D01*
G01*
X18570000Y-5968015D02*
G75*
G02*
X18574948Y-5946327I49999J0D01*
G01*
X18574948Y-6130271D02*
G75*
G02*
X18504671Y-6195129I-45052J-21688D01*
G01*
X18574948Y-6130271D02*
G75*
G02*
X18570000Y-6108583I45051J21688D01*
G01*
X15980000Y-6108583D02*
X15980000Y-5968015D01*
X16070555Y-5888299D02*
X16229445Y-5888299D01*
X16229445Y-6188299D02*
X16070555Y-6188299D01*
X16320000Y-5968015D02*
X16320000Y-6108583D01*
X15975052Y-5946327D02*
G75*
G02*
X15980002Y-5968015I-45052J-21692D01*
G01*
X15975052Y-5946327D02*
G75*
G02*
X16045329Y-5881469I45051J21688D01*
G01*
X15980000Y-6108583D02*
G75*
G02*
X15975051Y-6130271I-49999J0D01*
G01*
X16045329Y-6195129D02*
G75*
G02*
X15975052Y-6130271I-25226J43170D01*
G01*
X16045329Y-6195129D02*
G75*
G02*
X16070555Y-6188299I25226J-43171D01*
G01*
X16070555Y-5888299D02*
G75*
G02*
X16045329Y-5881469I0J50001D01*
G01*
X16229445Y-6188299D02*
G75*
G02*
X16254671Y-6195129I0J-50001D01*
G01*
X16254671Y-5881469D02*
G75*
G02*
X16229445Y-5888299I-25226J43171D01*
G01*
X16254671Y-5881469D02*
G75*
G02*
X16324948Y-5946327I25226J-43170D01*
G01*
X16320000Y-5968015D02*
G75*
G02*
X16324948Y-5946327I49999J0D01*
G01*
X16324948Y-6130271D02*
G75*
G02*
X16254671Y-6195129I-45052J-21688D01*
G01*
X16324948Y-6130271D02*
G75*
G02*
X16320000Y-6108583I45051J21688D01*
G01*
X11571640Y-6108583D02*
X11571640Y-5968015D01*
X11662195Y-5888299D02*
X11821085Y-5888299D01*
X11821085Y-6188299D02*
X11662195Y-6188299D01*
X11911640Y-5968015D02*
X11911640Y-6108583D01*
X11566692Y-5946327D02*
G75*
G02*
X11571642Y-5968015I-45052J-21692D01*
G01*
X11566692Y-5946327D02*
G75*
G02*
X11636969Y-5881469I45051J21688D01*
G01*
X11571640Y-6108583D02*
G75*
G02*
X11566691Y-6130271I-49999J0D01*
G01*
X11636969Y-6195129D02*
G75*
G02*
X11566692Y-6130271I-25226J43170D01*
G01*
X11636969Y-6195129D02*
G75*
G02*
X11662195Y-6188299I25226J-43171D01*
G01*
X11662195Y-5888299D02*
G75*
G02*
X11636969Y-5881469I0J50001D01*
G01*
X11821085Y-6188299D02*
G75*
G02*
X11846311Y-6195129I0J-50001D01*
G01*
X11846311Y-5881469D02*
G75*
G02*
X11821085Y-5888299I-25226J43171D01*
G01*
X11846311Y-5881469D02*
G75*
G02*
X11916588Y-5946327I25226J-43170D01*
G01*
X11911640Y-5968015D02*
G75*
G02*
X11916588Y-5946327I49999J0D01*
G01*
X11916588Y-6130271D02*
G75*
G02*
X11846311Y-6195129I-45052J-21688D01*
G01*
X11916588Y-6130271D02*
G75*
G02*
X11911640Y-6108583I45051J21688D01*
G01*
D12*
D11*
X21467600Y-5922399D02*
X21542600Y-5997399D01*
X21542600Y-5922399D02*
X21467600Y-5997399D01*
X22047600Y-5922399D02*
X22122600Y-5997399D01*
X22122600Y-5922399D02*
X22047600Y-5997399D01*
D13*
X12440000Y-8370000D02*
G75*
G02*
X12220000Y-8370000I-110000J0D01*
G01*
X12220000Y-8370000D02*
G75*
G02*
X12440000Y-8370000I110000J0D01*
G01*
X13517500Y-6978299D02*
G75*
G02*
X13297500Y-6978299I-110000J0D01*
G01*
X13297500Y-6978299D02*
G75*
G02*
X13517500Y-6978299I110000J0D01*
G01*
X14626240Y-959698D02*
G75*
G02*
X14406240Y-959698I-110000J0D01*
G01*
X14406240Y-959698D02*
G75*
G02*
X14626240Y-959698I110000J0D01*
G01*
X14654180Y-8370000D02*
G75*
G02*
X14434180Y-8370000I-110000J0D01*
G01*
X14434180Y-8370000D02*
G75*
G02*
X14654180Y-8370000I110000J0D01*
G01*
X16822500Y-6838299D02*
G75*
G02*
X16602500Y-6838299I-110000J0D01*
G01*
X16602500Y-6838299D02*
G75*
G02*
X16822500Y-6838299I110000J0D01*
G01*
X16828420Y-969340D02*
G75*
G02*
X16608420Y-969340I-110000J0D01*
G01*
X16608420Y-969340D02*
G75*
G02*
X16828420Y-969340I110000J0D01*
G01*
X16856360Y-8370000D02*
G75*
G02*
X16636360Y-8370000I-110000J0D01*
G01*
X16636360Y-8370000D02*
G75*
G02*
X16856360Y-8370000I110000J0D01*
G01*
X17923160Y-963299D02*
G75*
G02*
X17703160Y-963299I-110000J0D01*
G01*
X17703160Y-963299D02*
G75*
G02*
X17923160Y-963299I110000J0D01*
G01*
X19010000Y-963299D02*
G75*
G02*
X18790000Y-963299I-110000J0D01*
G01*
X18790000Y-963299D02*
G75*
G02*
X19010000Y-963299I110000J0D01*
G01*
X19010000Y-7500000D02*
G75*
G02*
X18790000Y-7500000I-110000J0D01*
G01*
X18790000Y-7500000D02*
G75*
G02*
X19010000Y-7500000I110000J0D01*
G01*
D12*
X11258277Y-8937283D02*
X11258277Y-8737283D01*
X11258277Y-8737283D02*
X11305896Y-8737283D01*
X11305896Y-8737283D02*
X11334467Y-8746807D01*
X11334467Y-8746807D02*
X11353515Y-8765854D01*
X11353515Y-8765854D02*
X11363039Y-8784902D01*
X11363039Y-8784902D02*
X11372562Y-8822997D01*
X11372562Y-8822997D02*
X11372562Y-8851569D01*
X11372562Y-8851569D02*
X11363039Y-8889664D01*
X11363039Y-8889664D02*
X11353515Y-8908711D01*
X11353515Y-8908711D02*
X11334467Y-8927759D01*
X11334467Y-8927759D02*
X11305896Y-8937283D01*
X11305896Y-8937283D02*
X11258277Y-8937283D01*
X11458277Y-8937283D02*
X11458277Y-8803949D01*
X11458277Y-8842045D02*
X11467801Y-8822997D01*
X11467801Y-8822997D02*
X11477324Y-8813473D01*
X11477324Y-8813473D02*
X11496372Y-8803949D01*
X11496372Y-8803949D02*
X11515420Y-8803949D01*
X11582086Y-8937283D02*
X11582086Y-8803949D01*
X11582086Y-8737283D02*
X11572562Y-8746807D01*
X11572562Y-8746807D02*
X11582086Y-8756330D01*
X11582086Y-8756330D02*
X11591610Y-8746807D01*
X11591610Y-8746807D02*
X11582086Y-8737283D01*
X11582086Y-8737283D02*
X11582086Y-8756330D01*
X11705896Y-8937283D02*
X11686848Y-8927759D01*
X11686848Y-8927759D02*
X11677324Y-8908711D01*
X11677324Y-8908711D02*
X11677324Y-8737283D01*
X11810658Y-8937283D02*
X11791610Y-8927759D01*
X11791610Y-8927759D02*
X11782086Y-8908711D01*
X11782086Y-8908711D02*
X11782086Y-8737283D01*
X12039229Y-8937283D02*
X12039229Y-8737283D01*
X12039229Y-8737283D02*
X12105896Y-8880140D01*
X12105896Y-8880140D02*
X12172562Y-8737283D01*
X12172562Y-8737283D02*
X12172562Y-8937283D01*
X12353515Y-8937283D02*
X12353515Y-8832521D01*
X12353515Y-8832521D02*
X12343991Y-8813473D01*
X12343991Y-8813473D02*
X12324943Y-8803949D01*
X12324943Y-8803949D02*
X12286848Y-8803949D01*
X12286848Y-8803949D02*
X12267801Y-8813473D01*
X12353515Y-8927759D02*
X12334467Y-8937283D01*
X12334467Y-8937283D02*
X12286848Y-8937283D01*
X12286848Y-8937283D02*
X12267801Y-8927759D01*
X12267801Y-8927759D02*
X12258277Y-8908711D01*
X12258277Y-8908711D02*
X12258277Y-8889664D01*
X12258277Y-8889664D02*
X12267801Y-8870616D01*
X12267801Y-8870616D02*
X12286848Y-8861092D01*
X12286848Y-8861092D02*
X12334467Y-8861092D01*
X12334467Y-8861092D02*
X12353515Y-8851569D01*
X12448753Y-8803949D02*
X12448753Y-9003949D01*
X12448753Y-8813473D02*
X12467801Y-8803949D01*
X12467801Y-8803949D02*
X12505896Y-8803949D01*
X12505896Y-8803949D02*
X12524943Y-8813473D01*
X12524943Y-8813473D02*
X12534467Y-8822997D01*
X12534467Y-8822997D02*
X12543991Y-8842045D01*
X12543991Y-8842045D02*
X12543991Y-8899188D01*
X12543991Y-8899188D02*
X12534467Y-8918235D01*
X12534467Y-8918235D02*
X12524943Y-8927759D01*
X12524943Y-8927759D02*
X12505896Y-8937283D01*
X12505896Y-8937283D02*
X12467801Y-8937283D01*
X12467801Y-8937283D02*
X12448753Y-8927759D01*
X12629705Y-8918235D02*
X12639229Y-8927759D01*
X12639229Y-8927759D02*
X12629705Y-8937283D01*
X12629705Y-8937283D02*
X12620182Y-8927759D01*
X12620182Y-8927759D02*
X12629705Y-8918235D01*
X12629705Y-8918235D02*
X12629705Y-8937283D01*
X12629705Y-8813473D02*
X12639229Y-8822997D01*
X12639229Y-8822997D02*
X12629705Y-8832521D01*
X12629705Y-8832521D02*
X12620182Y-8822997D01*
X12620182Y-8822997D02*
X12629705Y-8813473D01*
X12629705Y-8813473D02*
X12629705Y-8832521D01*
D11*
X10922500Y-9228299D02*
X10997500Y-9303299D01*
X10997500Y-9228299D02*
X10922500Y-9303299D01*
D12*
X11296372Y-9157283D02*
X11315420Y-9157283D01*
X11315420Y-9157283D02*
X11334467Y-9166807D01*
X11334467Y-9166807D02*
X11343991Y-9176330D01*
X11343991Y-9176330D02*
X11353515Y-9195378D01*
X11353515Y-9195378D02*
X11363039Y-9233473D01*
X11363039Y-9233473D02*
X11363039Y-9281092D01*
X11363039Y-9281092D02*
X11353515Y-9319188D01*
X11353515Y-9319188D02*
X11343991Y-9338235D01*
X11343991Y-9338235D02*
X11334467Y-9347759D01*
X11334467Y-9347759D02*
X11315420Y-9357283D01*
X11315420Y-9357283D02*
X11296372Y-9357283D01*
X11296372Y-9357283D02*
X11277324Y-9347759D01*
X11277324Y-9347759D02*
X11267801Y-9338235D01*
X11267801Y-9338235D02*
X11258277Y-9319188D01*
X11258277Y-9319188D02*
X11248753Y-9281092D01*
X11248753Y-9281092D02*
X11248753Y-9233473D01*
X11248753Y-9233473D02*
X11258277Y-9195378D01*
X11258277Y-9195378D02*
X11267801Y-9176330D01*
X11267801Y-9176330D02*
X11277324Y-9166807D01*
X11277324Y-9166807D02*
X11296372Y-9157283D01*
X11448753Y-9338235D02*
X11458277Y-9347759D01*
X11458277Y-9347759D02*
X11448753Y-9357283D01*
X11448753Y-9357283D02*
X11439229Y-9347759D01*
X11439229Y-9347759D02*
X11448753Y-9338235D01*
X11448753Y-9338235D02*
X11448753Y-9357283D01*
X11524943Y-9157283D02*
X11658277Y-9157283D01*
X11658277Y-9157283D02*
X11572562Y-9357283D01*
X11829705Y-9157283D02*
X11734467Y-9157283D01*
X11734467Y-9157283D02*
X11724943Y-9252521D01*
X11724943Y-9252521D02*
X11734467Y-9242997D01*
X11734467Y-9242997D02*
X11753515Y-9233473D01*
X11753515Y-9233473D02*
X11801134Y-9233473D01*
X11801134Y-9233473D02*
X11820182Y-9242997D01*
X11820182Y-9242997D02*
X11829705Y-9252521D01*
X11829705Y-9252521D02*
X11839229Y-9271569D01*
X11839229Y-9271569D02*
X11839229Y-9319188D01*
X11839229Y-9319188D02*
X11829705Y-9338235D01*
X11829705Y-9338235D02*
X11820182Y-9347759D01*
X11820182Y-9347759D02*
X11801134Y-9357283D01*
X11801134Y-9357283D02*
X11753515Y-9357283D01*
X11753515Y-9357283D02*
X11734467Y-9347759D01*
X11734467Y-9347759D02*
X11724943Y-9338235D01*
X11963039Y-9157283D02*
X11982086Y-9157283D01*
X11982086Y-9157283D02*
X12001134Y-9166807D01*
X12001134Y-9166807D02*
X12010658Y-9176330D01*
X12010658Y-9176330D02*
X12020182Y-9195378D01*
X12020182Y-9195378D02*
X12029705Y-9233473D01*
X12029705Y-9233473D02*
X12029705Y-9281092D01*
X12029705Y-9281092D02*
X12020182Y-9319188D01*
X12020182Y-9319188D02*
X12010658Y-9338235D01*
X12010658Y-9338235D02*
X12001134Y-9347759D01*
X12001134Y-9347759D02*
X11982086Y-9357283D01*
X11982086Y-9357283D02*
X11963039Y-9357283D01*
X11963039Y-9357283D02*
X11943991Y-9347759D01*
X11943991Y-9347759D02*
X11934467Y-9338235D01*
X11934467Y-9338235D02*
X11924943Y-9319188D01*
X11924943Y-9319188D02*
X11915420Y-9281092D01*
X11915420Y-9281092D02*
X11915420Y-9233473D01*
X11915420Y-9233473D02*
X11924943Y-9195378D01*
X11924943Y-9195378D02*
X11934467Y-9176330D01*
X11934467Y-9176330D02*
X11943991Y-9166807D01*
X11943991Y-9166807D02*
X11963039Y-9157283D01*
X12115420Y-9357283D02*
X12115420Y-9223949D01*
X12115420Y-9242997D02*
X12124943Y-9233473D01*
X12124943Y-9233473D02*
X12143991Y-9223949D01*
X12143991Y-9223949D02*
X12172563Y-9223949D01*
X12172563Y-9223949D02*
X12191610Y-9233473D01*
X12191610Y-9233473D02*
X12201134Y-9252521D01*
X12201134Y-9252521D02*
X12201134Y-9357283D01*
X12201134Y-9252521D02*
X12210658Y-9233473D01*
X12210658Y-9233473D02*
X12229705Y-9223949D01*
X12229705Y-9223949D02*
X12258277Y-9223949D01*
X12258277Y-9223949D02*
X12277324Y-9233473D01*
X12277324Y-9233473D02*
X12286848Y-9252521D01*
X12286848Y-9252521D02*
X12286848Y-9357283D01*
X12382086Y-9357283D02*
X12382086Y-9223949D01*
X12382086Y-9242997D02*
X12391610Y-9233473D01*
X12391610Y-9233473D02*
X12410658Y-9223949D01*
X12410658Y-9223949D02*
X12439229Y-9223949D01*
X12439229Y-9223949D02*
X12458277Y-9233473D01*
X12458277Y-9233473D02*
X12467801Y-9252521D01*
X12467801Y-9252521D02*
X12467801Y-9357283D01*
X12467801Y-9252521D02*
X12477324Y-9233473D01*
X12477324Y-9233473D02*
X12496372Y-9223949D01*
X12496372Y-9223949D02*
X12524943Y-9223949D01*
X12524943Y-9223949D02*
X12543991Y-9233473D01*
X12543991Y-9233473D02*
X12553515Y-9252521D01*
X12553515Y-9252521D02*
X12553515Y-9357283D01*
X12943991Y-9147759D02*
X12772563Y-9404902D01*
X13201134Y-9157283D02*
X13220182Y-9157283D01*
X13220182Y-9157283D02*
X13239229Y-9166807D01*
X13239229Y-9166807D02*
X13248753Y-9176330D01*
X13248753Y-9176330D02*
X13258277Y-9195378D01*
X13258277Y-9195378D02*
X13267801Y-9233473D01*
X13267801Y-9233473D02*
X13267801Y-9281092D01*
X13267801Y-9281092D02*
X13258277Y-9319188D01*
X13258277Y-9319188D02*
X13248753Y-9338235D01*
X13248753Y-9338235D02*
X13239229Y-9347759D01*
X13239229Y-9347759D02*
X13220182Y-9357283D01*
X13220182Y-9357283D02*
X13201134Y-9357283D01*
X13201134Y-9357283D02*
X13182086Y-9347759D01*
X13182086Y-9347759D02*
X13172563Y-9338235D01*
X13172563Y-9338235D02*
X13163039Y-9319188D01*
X13163039Y-9319188D02*
X13153515Y-9281092D01*
X13153515Y-9281092D02*
X13153515Y-9233473D01*
X13153515Y-9233473D02*
X13163039Y-9195378D01*
X13163039Y-9195378D02*
X13172563Y-9176330D01*
X13172563Y-9176330D02*
X13182086Y-9166807D01*
X13182086Y-9166807D02*
X13201134Y-9157283D01*
X13353515Y-9338235D02*
X13363039Y-9347759D01*
X13363039Y-9347759D02*
X13353515Y-9357283D01*
X13353515Y-9357283D02*
X13343991Y-9347759D01*
X13343991Y-9347759D02*
X13353515Y-9338235D01*
X13353515Y-9338235D02*
X13353515Y-9357283D01*
X13486848Y-9157283D02*
X13505896Y-9157283D01*
X13505896Y-9157283D02*
X13524944Y-9166807D01*
X13524944Y-9166807D02*
X13534467Y-9176330D01*
X13534467Y-9176330D02*
X13543991Y-9195378D01*
X13543991Y-9195378D02*
X13553515Y-9233473D01*
X13553515Y-9233473D02*
X13553515Y-9281092D01*
X13553515Y-9281092D02*
X13543991Y-9319188D01*
X13543991Y-9319188D02*
X13534467Y-9338235D01*
X13534467Y-9338235D02*
X13524944Y-9347759D01*
X13524944Y-9347759D02*
X13505896Y-9357283D01*
X13505896Y-9357283D02*
X13486848Y-9357283D01*
X13486848Y-9357283D02*
X13467801Y-9347759D01*
X13467801Y-9347759D02*
X13458277Y-9338235D01*
X13458277Y-9338235D02*
X13448753Y-9319188D01*
X13448753Y-9319188D02*
X13439229Y-9281092D01*
X13439229Y-9281092D02*
X13439229Y-9233473D01*
X13439229Y-9233473D02*
X13448753Y-9195378D01*
X13448753Y-9195378D02*
X13458277Y-9176330D01*
X13458277Y-9176330D02*
X13467801Y-9166807D01*
X13467801Y-9166807D02*
X13486848Y-9157283D01*
X13629706Y-9176330D02*
X13639229Y-9166807D01*
X13639229Y-9166807D02*
X13658277Y-9157283D01*
X13658277Y-9157283D02*
X13705896Y-9157283D01*
X13705896Y-9157283D02*
X13724944Y-9166807D01*
X13724944Y-9166807D02*
X13734467Y-9176330D01*
X13734467Y-9176330D02*
X13743991Y-9195378D01*
X13743991Y-9195378D02*
X13743991Y-9214426D01*
X13743991Y-9214426D02*
X13734467Y-9242997D01*
X13734467Y-9242997D02*
X13620182Y-9357283D01*
X13620182Y-9357283D02*
X13743991Y-9357283D01*
X13839229Y-9357283D02*
X13877325Y-9357283D01*
X13877325Y-9357283D02*
X13896372Y-9347759D01*
X13896372Y-9347759D02*
X13905896Y-9338235D01*
X13905896Y-9338235D02*
X13924944Y-9309664D01*
X13924944Y-9309664D02*
X13934467Y-9271569D01*
X13934467Y-9271569D02*
X13934467Y-9195378D01*
X13934467Y-9195378D02*
X13924944Y-9176330D01*
X13924944Y-9176330D02*
X13915420Y-9166807D01*
X13915420Y-9166807D02*
X13896372Y-9157283D01*
X13896372Y-9157283D02*
X13858277Y-9157283D01*
X13858277Y-9157283D02*
X13839229Y-9166807D01*
X13839229Y-9166807D02*
X13829706Y-9176330D01*
X13829706Y-9176330D02*
X13820182Y-9195378D01*
X13820182Y-9195378D02*
X13820182Y-9242997D01*
X13820182Y-9242997D02*
X13829706Y-9262045D01*
X13829706Y-9262045D02*
X13839229Y-9271569D01*
X13839229Y-9271569D02*
X13858277Y-9281092D01*
X13858277Y-9281092D02*
X13896372Y-9281092D01*
X13896372Y-9281092D02*
X13915420Y-9271569D01*
X13915420Y-9271569D02*
X13924944Y-9262045D01*
X13924944Y-9262045D02*
X13934467Y-9242997D01*
X14115420Y-9157283D02*
X14020182Y-9157283D01*
X14020182Y-9157283D02*
X14010658Y-9252521D01*
X14010658Y-9252521D02*
X14020182Y-9242997D01*
X14020182Y-9242997D02*
X14039229Y-9233473D01*
X14039229Y-9233473D02*
X14086848Y-9233473D01*
X14086848Y-9233473D02*
X14105896Y-9242997D01*
X14105896Y-9242997D02*
X14115420Y-9252521D01*
X14115420Y-9252521D02*
X14124944Y-9271569D01*
X14124944Y-9271569D02*
X14124944Y-9319188D01*
X14124944Y-9319188D02*
X14115420Y-9338235D01*
X14115420Y-9338235D02*
X14105896Y-9347759D01*
X14105896Y-9347759D02*
X14086848Y-9357283D01*
X14086848Y-9357283D02*
X14039229Y-9357283D01*
X14039229Y-9357283D02*
X14020182Y-9347759D01*
X14020182Y-9347759D02*
X14010658Y-9338235D01*
X14201134Y-9157283D02*
X14201134Y-9195378D01*
X14277325Y-9157283D02*
X14277325Y-9195378D01*
X14572563Y-9433473D02*
X14563039Y-9423949D01*
X14563039Y-9423949D02*
X14543991Y-9395378D01*
X14543991Y-9395378D02*
X14534468Y-9376330D01*
X14534468Y-9376330D02*
X14524944Y-9347759D01*
X14524944Y-9347759D02*
X14515420Y-9300140D01*
X14515420Y-9300140D02*
X14515420Y-9262045D01*
X14515420Y-9262045D02*
X14524944Y-9214426D01*
X14524944Y-9214426D02*
X14534468Y-9185854D01*
X14534468Y-9185854D02*
X14543991Y-9166807D01*
X14543991Y-9166807D02*
X14563039Y-9138235D01*
X14563039Y-9138235D02*
X14572563Y-9128711D01*
X14639229Y-9176330D02*
X14648753Y-9166807D01*
X14648753Y-9166807D02*
X14667801Y-9157283D01*
X14667801Y-9157283D02*
X14715420Y-9157283D01*
X14715420Y-9157283D02*
X14734468Y-9166807D01*
X14734468Y-9166807D02*
X14743991Y-9176330D01*
X14743991Y-9176330D02*
X14753515Y-9195378D01*
X14753515Y-9195378D02*
X14753515Y-9214426D01*
X14753515Y-9214426D02*
X14743991Y-9242997D01*
X14743991Y-9242997D02*
X14629706Y-9357283D01*
X14629706Y-9357283D02*
X14753515Y-9357283D01*
X14991610Y-9357283D02*
X14991610Y-9157283D01*
X15077325Y-9357283D02*
X15077325Y-9252521D01*
X15077325Y-9252521D02*
X15067801Y-9233473D01*
X15067801Y-9233473D02*
X15048753Y-9223949D01*
X15048753Y-9223949D02*
X15020182Y-9223949D01*
X15020182Y-9223949D02*
X15001134Y-9233473D01*
X15001134Y-9233473D02*
X14991610Y-9242997D01*
X15201134Y-9357283D02*
X15182087Y-9347759D01*
X15182087Y-9347759D02*
X15172563Y-9338235D01*
X15172563Y-9338235D02*
X15163039Y-9319188D01*
X15163039Y-9319188D02*
X15163039Y-9262045D01*
X15163039Y-9262045D02*
X15172563Y-9242997D01*
X15172563Y-9242997D02*
X15182087Y-9233473D01*
X15182087Y-9233473D02*
X15201134Y-9223949D01*
X15201134Y-9223949D02*
X15229706Y-9223949D01*
X15229706Y-9223949D02*
X15248753Y-9233473D01*
X15248753Y-9233473D02*
X15258277Y-9242997D01*
X15258277Y-9242997D02*
X15267801Y-9262045D01*
X15267801Y-9262045D02*
X15267801Y-9319188D01*
X15267801Y-9319188D02*
X15258277Y-9338235D01*
X15258277Y-9338235D02*
X15248753Y-9347759D01*
X15248753Y-9347759D02*
X15229706Y-9357283D01*
X15229706Y-9357283D02*
X15201134Y-9357283D01*
X15382087Y-9357283D02*
X15363039Y-9347759D01*
X15363039Y-9347759D02*
X15353515Y-9328711D01*
X15353515Y-9328711D02*
X15353515Y-9157283D01*
X15534468Y-9347759D02*
X15515420Y-9357283D01*
X15515420Y-9357283D02*
X15477325Y-9357283D01*
X15477325Y-9357283D02*
X15458277Y-9347759D01*
X15458277Y-9347759D02*
X15448753Y-9328711D01*
X15448753Y-9328711D02*
X15448753Y-9252521D01*
X15448753Y-9252521D02*
X15458277Y-9233473D01*
X15458277Y-9233473D02*
X15477325Y-9223949D01*
X15477325Y-9223949D02*
X15515420Y-9223949D01*
X15515420Y-9223949D02*
X15534468Y-9233473D01*
X15534468Y-9233473D02*
X15543991Y-9252521D01*
X15543991Y-9252521D02*
X15543991Y-9271569D01*
X15543991Y-9271569D02*
X15448753Y-9290616D01*
X15620182Y-9347759D02*
X15639230Y-9357283D01*
X15639230Y-9357283D02*
X15677325Y-9357283D01*
X15677325Y-9357283D02*
X15696372Y-9347759D01*
X15696372Y-9347759D02*
X15705896Y-9328711D01*
X15705896Y-9328711D02*
X15705896Y-9319188D01*
X15705896Y-9319188D02*
X15696372Y-9300140D01*
X15696372Y-9300140D02*
X15677325Y-9290616D01*
X15677325Y-9290616D02*
X15648753Y-9290616D01*
X15648753Y-9290616D02*
X15629706Y-9281092D01*
X15629706Y-9281092D02*
X15620182Y-9262045D01*
X15620182Y-9262045D02*
X15620182Y-9252521D01*
X15620182Y-9252521D02*
X15629706Y-9233473D01*
X15629706Y-9233473D02*
X15648753Y-9223949D01*
X15648753Y-9223949D02*
X15677325Y-9223949D01*
X15677325Y-9223949D02*
X15696372Y-9233473D01*
X15772563Y-9433473D02*
X15782087Y-9423949D01*
X15782087Y-9423949D02*
X15801134Y-9395378D01*
X15801134Y-9395378D02*
X15810658Y-9376330D01*
X15810658Y-9376330D02*
X15820182Y-9347759D01*
X15820182Y-9347759D02*
X15829706Y-9300140D01*
X15829706Y-9300140D02*
X15829706Y-9262045D01*
X15829706Y-9262045D02*
X15820182Y-9214426D01*
X15820182Y-9214426D02*
X15810658Y-9185854D01*
X15810658Y-9185854D02*
X15801134Y-9166807D01*
X15801134Y-9166807D02*
X15782087Y-9138235D01*
X15782087Y-9138235D02*
X15772563Y-9128711D01*
X16134468Y-9433473D02*
X16124944Y-9423949D01*
X16124944Y-9423949D02*
X16105896Y-9395378D01*
X16105896Y-9395378D02*
X16096372Y-9376330D01*
X16096372Y-9376330D02*
X16086849Y-9347759D01*
X16086849Y-9347759D02*
X16077325Y-9300140D01*
X16077325Y-9300140D02*
X16077325Y-9262045D01*
X16077325Y-9262045D02*
X16086849Y-9214426D01*
X16086849Y-9214426D02*
X16096372Y-9185854D01*
X16096372Y-9185854D02*
X16105896Y-9166807D01*
X16105896Y-9166807D02*
X16124944Y-9138235D01*
X16124944Y-9138235D02*
X16134468Y-9128711D01*
X16210658Y-9223949D02*
X16210658Y-9357283D01*
X16210658Y-9242997D02*
X16220182Y-9233473D01*
X16220182Y-9233473D02*
X16239230Y-9223949D01*
X16239230Y-9223949D02*
X16267801Y-9223949D01*
X16267801Y-9223949D02*
X16286849Y-9233473D01*
X16286849Y-9233473D02*
X16296372Y-9252521D01*
X16296372Y-9252521D02*
X16296372Y-9357283D01*
X16420182Y-9357283D02*
X16401134Y-9347759D01*
X16401134Y-9347759D02*
X16391611Y-9338235D01*
X16391611Y-9338235D02*
X16382087Y-9319188D01*
X16382087Y-9319188D02*
X16382087Y-9262045D01*
X16382087Y-9262045D02*
X16391611Y-9242997D01*
X16391611Y-9242997D02*
X16401134Y-9233473D01*
X16401134Y-9233473D02*
X16420182Y-9223949D01*
X16420182Y-9223949D02*
X16448753Y-9223949D01*
X16448753Y-9223949D02*
X16467801Y-9233473D01*
X16467801Y-9233473D02*
X16477325Y-9242997D01*
X16477325Y-9242997D02*
X16486849Y-9262045D01*
X16486849Y-9262045D02*
X16486849Y-9319188D01*
X16486849Y-9319188D02*
X16477325Y-9338235D01*
X16477325Y-9338235D02*
X16467801Y-9347759D01*
X16467801Y-9347759D02*
X16448753Y-9357283D01*
X16448753Y-9357283D02*
X16420182Y-9357283D01*
X16543992Y-9223949D02*
X16620182Y-9223949D01*
X16572563Y-9157283D02*
X16572563Y-9328711D01*
X16572563Y-9328711D02*
X16582087Y-9347759D01*
X16582087Y-9347759D02*
X16601134Y-9357283D01*
X16601134Y-9357283D02*
X16620182Y-9357283D01*
X16839230Y-9223949D02*
X16839230Y-9423949D01*
X16839230Y-9233473D02*
X16858277Y-9223949D01*
X16858277Y-9223949D02*
X16896373Y-9223949D01*
X16896373Y-9223949D02*
X16915420Y-9233473D01*
X16915420Y-9233473D02*
X16924944Y-9242997D01*
X16924944Y-9242997D02*
X16934468Y-9262045D01*
X16934468Y-9262045D02*
X16934468Y-9319188D01*
X16934468Y-9319188D02*
X16924944Y-9338235D01*
X16924944Y-9338235D02*
X16915420Y-9347759D01*
X16915420Y-9347759D02*
X16896373Y-9357283D01*
X16896373Y-9357283D02*
X16858277Y-9357283D01*
X16858277Y-9357283D02*
X16839230Y-9347759D01*
X17048754Y-9357283D02*
X17029706Y-9347759D01*
X17029706Y-9347759D02*
X17020182Y-9328711D01*
X17020182Y-9328711D02*
X17020182Y-9157283D01*
X17210658Y-9357283D02*
X17210658Y-9252521D01*
X17210658Y-9252521D02*
X17201135Y-9233473D01*
X17201135Y-9233473D02*
X17182087Y-9223949D01*
X17182087Y-9223949D02*
X17143992Y-9223949D01*
X17143992Y-9223949D02*
X17124944Y-9233473D01*
X17210658Y-9347759D02*
X17191611Y-9357283D01*
X17191611Y-9357283D02*
X17143992Y-9357283D01*
X17143992Y-9357283D02*
X17124944Y-9347759D01*
X17124944Y-9347759D02*
X17115420Y-9328711D01*
X17115420Y-9328711D02*
X17115420Y-9309664D01*
X17115420Y-9309664D02*
X17124944Y-9290616D01*
X17124944Y-9290616D02*
X17143992Y-9281092D01*
X17143992Y-9281092D02*
X17191611Y-9281092D01*
X17191611Y-9281092D02*
X17210658Y-9271569D01*
X17277325Y-9223949D02*
X17353515Y-9223949D01*
X17305896Y-9157283D02*
X17305896Y-9328711D01*
X17305896Y-9328711D02*
X17315420Y-9347759D01*
X17315420Y-9347759D02*
X17334468Y-9357283D01*
X17334468Y-9357283D02*
X17353515Y-9357283D01*
X17496373Y-9347759D02*
X17477325Y-9357283D01*
X17477325Y-9357283D02*
X17439230Y-9357283D01*
X17439230Y-9357283D02*
X17420182Y-9347759D01*
X17420182Y-9347759D02*
X17410658Y-9328711D01*
X17410658Y-9328711D02*
X17410658Y-9252521D01*
X17410658Y-9252521D02*
X17420182Y-9233473D01*
X17420182Y-9233473D02*
X17439230Y-9223949D01*
X17439230Y-9223949D02*
X17477325Y-9223949D01*
X17477325Y-9223949D02*
X17496373Y-9233473D01*
X17496373Y-9233473D02*
X17505896Y-9252521D01*
X17505896Y-9252521D02*
X17505896Y-9271569D01*
X17505896Y-9271569D02*
X17410658Y-9290616D01*
X17677325Y-9357283D02*
X17677325Y-9157283D01*
X17677325Y-9347759D02*
X17658277Y-9357283D01*
X17658277Y-9357283D02*
X17620182Y-9357283D01*
X17620182Y-9357283D02*
X17601135Y-9347759D01*
X17601135Y-9347759D02*
X17591611Y-9338235D01*
X17591611Y-9338235D02*
X17582087Y-9319188D01*
X17582087Y-9319188D02*
X17582087Y-9262045D01*
X17582087Y-9262045D02*
X17591611Y-9242997D01*
X17591611Y-9242997D02*
X17601135Y-9233473D01*
X17601135Y-9233473D02*
X17620182Y-9223949D01*
X17620182Y-9223949D02*
X17658277Y-9223949D01*
X17658277Y-9223949D02*
X17677325Y-9233473D01*
X17753516Y-9433473D02*
X17763039Y-9423949D01*
X17763039Y-9423949D02*
X17782087Y-9395378D01*
X17782087Y-9395378D02*
X17791611Y-9376330D01*
X17791611Y-9376330D02*
X17801135Y-9347759D01*
X17801135Y-9347759D02*
X17810658Y-9300140D01*
X17810658Y-9300140D02*
X17810658Y-9262045D01*
X17810658Y-9262045D02*
X17801135Y-9214426D01*
X17801135Y-9214426D02*
X17791611Y-9185854D01*
X17791611Y-9185854D02*
X17782087Y-9166807D01*
X17782087Y-9166807D02*
X17763039Y-9138235D01*
X17763039Y-9138235D02*
X17753516Y-9128711D01*
X10997500Y-9529799D02*
G75*
G02*
X10797500Y-9529799I-100000J0D01*
G01*
X10797500Y-9529799D02*
G75*
G02*
X10997500Y-9529799I100000J0D01*
G01*
X11248753Y-9440330D02*
X11258277Y-9430807D01*
X11258277Y-9430807D02*
X11277324Y-9421283D01*
X11277324Y-9421283D02*
X11324943Y-9421283D01*
X11324943Y-9421283D02*
X11343991Y-9430807D01*
X11343991Y-9430807D02*
X11353515Y-9440330D01*
X11353515Y-9440330D02*
X11363039Y-9459378D01*
X11363039Y-9459378D02*
X11363039Y-9478426D01*
X11363039Y-9478426D02*
X11353515Y-9506997D01*
X11353515Y-9506997D02*
X11239229Y-9621283D01*
X11239229Y-9621283D02*
X11363039Y-9621283D01*
X11448753Y-9602235D02*
X11458277Y-9611759D01*
X11458277Y-9611759D02*
X11448753Y-9621283D01*
X11448753Y-9621283D02*
X11439229Y-9611759D01*
X11439229Y-9611759D02*
X11448753Y-9602235D01*
X11448753Y-9602235D02*
X11448753Y-9621283D01*
X11534467Y-9440330D02*
X11543991Y-9430807D01*
X11543991Y-9430807D02*
X11563039Y-9421283D01*
X11563039Y-9421283D02*
X11610658Y-9421283D01*
X11610658Y-9421283D02*
X11629705Y-9430807D01*
X11629705Y-9430807D02*
X11639229Y-9440330D01*
X11639229Y-9440330D02*
X11648753Y-9459378D01*
X11648753Y-9459378D02*
X11648753Y-9478426D01*
X11648753Y-9478426D02*
X11639229Y-9506997D01*
X11639229Y-9506997D02*
X11524943Y-9621283D01*
X11524943Y-9621283D02*
X11648753Y-9621283D01*
X11772562Y-9421283D02*
X11791610Y-9421283D01*
X11791610Y-9421283D02*
X11810658Y-9430807D01*
X11810658Y-9430807D02*
X11820182Y-9440330D01*
X11820182Y-9440330D02*
X11829705Y-9459378D01*
X11829705Y-9459378D02*
X11839229Y-9497473D01*
X11839229Y-9497473D02*
X11839229Y-9545092D01*
X11839229Y-9545092D02*
X11829705Y-9583188D01*
X11829705Y-9583188D02*
X11820182Y-9602235D01*
X11820182Y-9602235D02*
X11810658Y-9611759D01*
X11810658Y-9611759D02*
X11791610Y-9621283D01*
X11791610Y-9621283D02*
X11772562Y-9621283D01*
X11772562Y-9621283D02*
X11753515Y-9611759D01*
X11753515Y-9611759D02*
X11743991Y-9602235D01*
X11743991Y-9602235D02*
X11734467Y-9583188D01*
X11734467Y-9583188D02*
X11724943Y-9545092D01*
X11724943Y-9545092D02*
X11724943Y-9497473D01*
X11724943Y-9497473D02*
X11734467Y-9459378D01*
X11734467Y-9459378D02*
X11743991Y-9440330D01*
X11743991Y-9440330D02*
X11753515Y-9430807D01*
X11753515Y-9430807D02*
X11772562Y-9421283D01*
X11963039Y-9421283D02*
X11982086Y-9421283D01*
X11982086Y-9421283D02*
X12001134Y-9430807D01*
X12001134Y-9430807D02*
X12010658Y-9440330D01*
X12010658Y-9440330D02*
X12020182Y-9459378D01*
X12020182Y-9459378D02*
X12029705Y-9497473D01*
X12029705Y-9497473D02*
X12029705Y-9545092D01*
X12029705Y-9545092D02*
X12020182Y-9583188D01*
X12020182Y-9583188D02*
X12010658Y-9602235D01*
X12010658Y-9602235D02*
X12001134Y-9611759D01*
X12001134Y-9611759D02*
X11982086Y-9621283D01*
X11982086Y-9621283D02*
X11963039Y-9621283D01*
X11963039Y-9621283D02*
X11943991Y-9611759D01*
X11943991Y-9611759D02*
X11934467Y-9602235D01*
X11934467Y-9602235D02*
X11924943Y-9583188D01*
X11924943Y-9583188D02*
X11915420Y-9545092D01*
X11915420Y-9545092D02*
X11915420Y-9497473D01*
X11915420Y-9497473D02*
X11924943Y-9459378D01*
X11924943Y-9459378D02*
X11934467Y-9440330D01*
X11934467Y-9440330D02*
X11943991Y-9430807D01*
X11943991Y-9430807D02*
X11963039Y-9421283D01*
X12115420Y-9621283D02*
X12115420Y-9487949D01*
X12115420Y-9506997D02*
X12124943Y-9497473D01*
X12124943Y-9497473D02*
X12143991Y-9487949D01*
X12143991Y-9487949D02*
X12172563Y-9487949D01*
X12172563Y-9487949D02*
X12191610Y-9497473D01*
X12191610Y-9497473D02*
X12201134Y-9516521D01*
X12201134Y-9516521D02*
X12201134Y-9621283D01*
X12201134Y-9516521D02*
X12210658Y-9497473D01*
X12210658Y-9497473D02*
X12229705Y-9487949D01*
X12229705Y-9487949D02*
X12258277Y-9487949D01*
X12258277Y-9487949D02*
X12277324Y-9497473D01*
X12277324Y-9497473D02*
X12286848Y-9516521D01*
X12286848Y-9516521D02*
X12286848Y-9621283D01*
X12382086Y-9621283D02*
X12382086Y-9487949D01*
X12382086Y-9506997D02*
X12391610Y-9497473D01*
X12391610Y-9497473D02*
X12410658Y-9487949D01*
X12410658Y-9487949D02*
X12439229Y-9487949D01*
X12439229Y-9487949D02*
X12458277Y-9497473D01*
X12458277Y-9497473D02*
X12467801Y-9516521D01*
X12467801Y-9516521D02*
X12467801Y-9621283D01*
X12467801Y-9516521D02*
X12477324Y-9497473D01*
X12477324Y-9497473D02*
X12496372Y-9487949D01*
X12496372Y-9487949D02*
X12524943Y-9487949D01*
X12524943Y-9487949D02*
X12543991Y-9497473D01*
X12543991Y-9497473D02*
X12553515Y-9516521D01*
X12553515Y-9516521D02*
X12553515Y-9621283D01*
X12943991Y-9411759D02*
X12772563Y-9668902D01*
X13201134Y-9421283D02*
X13220182Y-9421283D01*
X13220182Y-9421283D02*
X13239229Y-9430807D01*
X13239229Y-9430807D02*
X13248753Y-9440330D01*
X13248753Y-9440330D02*
X13258277Y-9459378D01*
X13258277Y-9459378D02*
X13267801Y-9497473D01*
X13267801Y-9497473D02*
X13267801Y-9545092D01*
X13267801Y-9545092D02*
X13258277Y-9583188D01*
X13258277Y-9583188D02*
X13248753Y-9602235D01*
X13248753Y-9602235D02*
X13239229Y-9611759D01*
X13239229Y-9611759D02*
X13220182Y-9621283D01*
X13220182Y-9621283D02*
X13201134Y-9621283D01*
X13201134Y-9621283D02*
X13182086Y-9611759D01*
X13182086Y-9611759D02*
X13172563Y-9602235D01*
X13172563Y-9602235D02*
X13163039Y-9583188D01*
X13163039Y-9583188D02*
X13153515Y-9545092D01*
X13153515Y-9545092D02*
X13153515Y-9497473D01*
X13153515Y-9497473D02*
X13163039Y-9459378D01*
X13163039Y-9459378D02*
X13172563Y-9440330D01*
X13172563Y-9440330D02*
X13182086Y-9430807D01*
X13182086Y-9430807D02*
X13201134Y-9421283D01*
X13353515Y-9602235D02*
X13363039Y-9611759D01*
X13363039Y-9611759D02*
X13353515Y-9621283D01*
X13353515Y-9621283D02*
X13343991Y-9611759D01*
X13343991Y-9611759D02*
X13353515Y-9602235D01*
X13353515Y-9602235D02*
X13353515Y-9621283D01*
X13486848Y-9421283D02*
X13505896Y-9421283D01*
X13505896Y-9421283D02*
X13524944Y-9430807D01*
X13524944Y-9430807D02*
X13534467Y-9440330D01*
X13534467Y-9440330D02*
X13543991Y-9459378D01*
X13543991Y-9459378D02*
X13553515Y-9497473D01*
X13553515Y-9497473D02*
X13553515Y-9545092D01*
X13553515Y-9545092D02*
X13543991Y-9583188D01*
X13543991Y-9583188D02*
X13534467Y-9602235D01*
X13534467Y-9602235D02*
X13524944Y-9611759D01*
X13524944Y-9611759D02*
X13505896Y-9621283D01*
X13505896Y-9621283D02*
X13486848Y-9621283D01*
X13486848Y-9621283D02*
X13467801Y-9611759D01*
X13467801Y-9611759D02*
X13458277Y-9602235D01*
X13458277Y-9602235D02*
X13448753Y-9583188D01*
X13448753Y-9583188D02*
X13439229Y-9545092D01*
X13439229Y-9545092D02*
X13439229Y-9497473D01*
X13439229Y-9497473D02*
X13448753Y-9459378D01*
X13448753Y-9459378D02*
X13458277Y-9440330D01*
X13458277Y-9440330D02*
X13467801Y-9430807D01*
X13467801Y-9430807D02*
X13486848Y-9421283D01*
X13667801Y-9506997D02*
X13648753Y-9497473D01*
X13648753Y-9497473D02*
X13639229Y-9487949D01*
X13639229Y-9487949D02*
X13629706Y-9468902D01*
X13629706Y-9468902D02*
X13629706Y-9459378D01*
X13629706Y-9459378D02*
X13639229Y-9440330D01*
X13639229Y-9440330D02*
X13648753Y-9430807D01*
X13648753Y-9430807D02*
X13667801Y-9421283D01*
X13667801Y-9421283D02*
X13705896Y-9421283D01*
X13705896Y-9421283D02*
X13724944Y-9430807D01*
X13724944Y-9430807D02*
X13734467Y-9440330D01*
X13734467Y-9440330D02*
X13743991Y-9459378D01*
X13743991Y-9459378D02*
X13743991Y-9468902D01*
X13743991Y-9468902D02*
X13734467Y-9487949D01*
X13734467Y-9487949D02*
X13724944Y-9497473D01*
X13724944Y-9497473D02*
X13705896Y-9506997D01*
X13705896Y-9506997D02*
X13667801Y-9506997D01*
X13667801Y-9506997D02*
X13648753Y-9516521D01*
X13648753Y-9516521D02*
X13639229Y-9526045D01*
X13639229Y-9526045D02*
X13629706Y-9545092D01*
X13629706Y-9545092D02*
X13629706Y-9583188D01*
X13629706Y-9583188D02*
X13639229Y-9602235D01*
X13639229Y-9602235D02*
X13648753Y-9611759D01*
X13648753Y-9611759D02*
X13667801Y-9621283D01*
X13667801Y-9621283D02*
X13705896Y-9621283D01*
X13705896Y-9621283D02*
X13724944Y-9611759D01*
X13724944Y-9611759D02*
X13734467Y-9602235D01*
X13734467Y-9602235D02*
X13743991Y-9583188D01*
X13743991Y-9583188D02*
X13743991Y-9545092D01*
X13743991Y-9545092D02*
X13734467Y-9526045D01*
X13734467Y-9526045D02*
X13724944Y-9516521D01*
X13724944Y-9516521D02*
X13705896Y-9506997D01*
X13915420Y-9421283D02*
X13877325Y-9421283D01*
X13877325Y-9421283D02*
X13858277Y-9430807D01*
X13858277Y-9430807D02*
X13848753Y-9440330D01*
X13848753Y-9440330D02*
X13829706Y-9468902D01*
X13829706Y-9468902D02*
X13820182Y-9506997D01*
X13820182Y-9506997D02*
X13820182Y-9583188D01*
X13820182Y-9583188D02*
X13829706Y-9602235D01*
X13829706Y-9602235D02*
X13839229Y-9611759D01*
X13839229Y-9611759D02*
X13858277Y-9621283D01*
X13858277Y-9621283D02*
X13896372Y-9621283D01*
X13896372Y-9621283D02*
X13915420Y-9611759D01*
X13915420Y-9611759D02*
X13924944Y-9602235D01*
X13924944Y-9602235D02*
X13934467Y-9583188D01*
X13934467Y-9583188D02*
X13934467Y-9535569D01*
X13934467Y-9535569D02*
X13924944Y-9516521D01*
X13924944Y-9516521D02*
X13915420Y-9506997D01*
X13915420Y-9506997D02*
X13896372Y-9497473D01*
X13896372Y-9497473D02*
X13858277Y-9497473D01*
X13858277Y-9497473D02*
X13839229Y-9506997D01*
X13839229Y-9506997D02*
X13829706Y-9516521D01*
X13829706Y-9516521D02*
X13820182Y-9535569D01*
X14105896Y-9421283D02*
X14067801Y-9421283D01*
X14067801Y-9421283D02*
X14048753Y-9430807D01*
X14048753Y-9430807D02*
X14039229Y-9440330D01*
X14039229Y-9440330D02*
X14020182Y-9468902D01*
X14020182Y-9468902D02*
X14010658Y-9506997D01*
X14010658Y-9506997D02*
X14010658Y-9583188D01*
X14010658Y-9583188D02*
X14020182Y-9602235D01*
X14020182Y-9602235D02*
X14029706Y-9611759D01*
X14029706Y-9611759D02*
X14048753Y-9621283D01*
X14048753Y-9621283D02*
X14086848Y-9621283D01*
X14086848Y-9621283D02*
X14105896Y-9611759D01*
X14105896Y-9611759D02*
X14115420Y-9602235D01*
X14115420Y-9602235D02*
X14124944Y-9583188D01*
X14124944Y-9583188D02*
X14124944Y-9535569D01*
X14124944Y-9535569D02*
X14115420Y-9516521D01*
X14115420Y-9516521D02*
X14105896Y-9506997D01*
X14105896Y-9506997D02*
X14086848Y-9497473D01*
X14086848Y-9497473D02*
X14048753Y-9497473D01*
X14048753Y-9497473D02*
X14029706Y-9506997D01*
X14029706Y-9506997D02*
X14020182Y-9516521D01*
X14020182Y-9516521D02*
X14010658Y-9535569D01*
X14201134Y-9421283D02*
X14201134Y-9459378D01*
X14277325Y-9421283D02*
X14277325Y-9459378D01*
X14572563Y-9697473D02*
X14563039Y-9687949D01*
X14563039Y-9687949D02*
X14543991Y-9659378D01*
X14543991Y-9659378D02*
X14534468Y-9640330D01*
X14534468Y-9640330D02*
X14524944Y-9611759D01*
X14524944Y-9611759D02*
X14515420Y-9564140D01*
X14515420Y-9564140D02*
X14515420Y-9526045D01*
X14515420Y-9526045D02*
X14524944Y-9478426D01*
X14524944Y-9478426D02*
X14534468Y-9449854D01*
X14534468Y-9449854D02*
X14543991Y-9430807D01*
X14543991Y-9430807D02*
X14563039Y-9402235D01*
X14563039Y-9402235D02*
X14572563Y-9392711D01*
X14753515Y-9621283D02*
X14639229Y-9621283D01*
X14696372Y-9621283D02*
X14696372Y-9421283D01*
X14696372Y-9421283D02*
X14677325Y-9449854D01*
X14677325Y-9449854D02*
X14658277Y-9468902D01*
X14658277Y-9468902D02*
X14639229Y-9478426D01*
X14877325Y-9421283D02*
X14896372Y-9421283D01*
X14896372Y-9421283D02*
X14915420Y-9430807D01*
X14915420Y-9430807D02*
X14924944Y-9440330D01*
X14924944Y-9440330D02*
X14934468Y-9459378D01*
X14934468Y-9459378D02*
X14943991Y-9497473D01*
X14943991Y-9497473D02*
X14943991Y-9545092D01*
X14943991Y-9545092D02*
X14934468Y-9583188D01*
X14934468Y-9583188D02*
X14924944Y-9602235D01*
X14924944Y-9602235D02*
X14915420Y-9611759D01*
X14915420Y-9611759D02*
X14896372Y-9621283D01*
X14896372Y-9621283D02*
X14877325Y-9621283D01*
X14877325Y-9621283D02*
X14858277Y-9611759D01*
X14858277Y-9611759D02*
X14848753Y-9602235D01*
X14848753Y-9602235D02*
X14839229Y-9583188D01*
X14839229Y-9583188D02*
X14829706Y-9545092D01*
X14829706Y-9545092D02*
X14829706Y-9497473D01*
X14829706Y-9497473D02*
X14839229Y-9459378D01*
X14839229Y-9459378D02*
X14848753Y-9440330D01*
X14848753Y-9440330D02*
X14858277Y-9430807D01*
X14858277Y-9430807D02*
X14877325Y-9421283D01*
X15182087Y-9621283D02*
X15182087Y-9421283D01*
X15267801Y-9621283D02*
X15267801Y-9516521D01*
X15267801Y-9516521D02*
X15258277Y-9497473D01*
X15258277Y-9497473D02*
X15239230Y-9487949D01*
X15239230Y-9487949D02*
X15210658Y-9487949D01*
X15210658Y-9487949D02*
X15191610Y-9497473D01*
X15191610Y-9497473D02*
X15182087Y-9506997D01*
X15391610Y-9621283D02*
X15372563Y-9611759D01*
X15372563Y-9611759D02*
X15363039Y-9602235D01*
X15363039Y-9602235D02*
X15353515Y-9583188D01*
X15353515Y-9583188D02*
X15353515Y-9526045D01*
X15353515Y-9526045D02*
X15363039Y-9506997D01*
X15363039Y-9506997D02*
X15372563Y-9497473D01*
X15372563Y-9497473D02*
X15391610Y-9487949D01*
X15391610Y-9487949D02*
X15420182Y-9487949D01*
X15420182Y-9487949D02*
X15439230Y-9497473D01*
X15439230Y-9497473D02*
X15448753Y-9506997D01*
X15448753Y-9506997D02*
X15458277Y-9526045D01*
X15458277Y-9526045D02*
X15458277Y-9583188D01*
X15458277Y-9583188D02*
X15448753Y-9602235D01*
X15448753Y-9602235D02*
X15439230Y-9611759D01*
X15439230Y-9611759D02*
X15420182Y-9621283D01*
X15420182Y-9621283D02*
X15391610Y-9621283D01*
X15572563Y-9621283D02*
X15553515Y-9611759D01*
X15553515Y-9611759D02*
X15543991Y-9592711D01*
X15543991Y-9592711D02*
X15543991Y-9421283D01*
X15724944Y-9611759D02*
X15705896Y-9621283D01*
X15705896Y-9621283D02*
X15667801Y-9621283D01*
X15667801Y-9621283D02*
X15648753Y-9611759D01*
X15648753Y-9611759D02*
X15639230Y-9592711D01*
X15639230Y-9592711D02*
X15639230Y-9516521D01*
X15639230Y-9516521D02*
X15648753Y-9497473D01*
X15648753Y-9497473D02*
X15667801Y-9487949D01*
X15667801Y-9487949D02*
X15705896Y-9487949D01*
X15705896Y-9487949D02*
X15724944Y-9497473D01*
X15724944Y-9497473D02*
X15734468Y-9516521D01*
X15734468Y-9516521D02*
X15734468Y-9535569D01*
X15734468Y-9535569D02*
X15639230Y-9554616D01*
X15810658Y-9611759D02*
X15829706Y-9621283D01*
X15829706Y-9621283D02*
X15867801Y-9621283D01*
X15867801Y-9621283D02*
X15886849Y-9611759D01*
X15886849Y-9611759D02*
X15896372Y-9592711D01*
X15896372Y-9592711D02*
X15896372Y-9583188D01*
X15896372Y-9583188D02*
X15886849Y-9564140D01*
X15886849Y-9564140D02*
X15867801Y-9554616D01*
X15867801Y-9554616D02*
X15839230Y-9554616D01*
X15839230Y-9554616D02*
X15820182Y-9545092D01*
X15820182Y-9545092D02*
X15810658Y-9526045D01*
X15810658Y-9526045D02*
X15810658Y-9516521D01*
X15810658Y-9516521D02*
X15820182Y-9497473D01*
X15820182Y-9497473D02*
X15839230Y-9487949D01*
X15839230Y-9487949D02*
X15867801Y-9487949D01*
X15867801Y-9487949D02*
X15886849Y-9497473D01*
X15963039Y-9697473D02*
X15972563Y-9687949D01*
X15972563Y-9687949D02*
X15991611Y-9659378D01*
X15991611Y-9659378D02*
X16001134Y-9640330D01*
X16001134Y-9640330D02*
X16010658Y-9611759D01*
X16010658Y-9611759D02*
X16020182Y-9564140D01*
X16020182Y-9564140D02*
X16020182Y-9526045D01*
X16020182Y-9526045D02*
X16010658Y-9478426D01*
X16010658Y-9478426D02*
X16001134Y-9449854D01*
X16001134Y-9449854D02*
X15991611Y-9430807D01*
X15991611Y-9430807D02*
X15972563Y-9402235D01*
X15972563Y-9402235D02*
X15963039Y-9392711D01*
X16324944Y-9697473D02*
X16315420Y-9687949D01*
X16315420Y-9687949D02*
X16296372Y-9659378D01*
X16296372Y-9659378D02*
X16286849Y-9640330D01*
X16286849Y-9640330D02*
X16277325Y-9611759D01*
X16277325Y-9611759D02*
X16267801Y-9564140D01*
X16267801Y-9564140D02*
X16267801Y-9526045D01*
X16267801Y-9526045D02*
X16277325Y-9478426D01*
X16277325Y-9478426D02*
X16286849Y-9449854D01*
X16286849Y-9449854D02*
X16296372Y-9430807D01*
X16296372Y-9430807D02*
X16315420Y-9402235D01*
X16315420Y-9402235D02*
X16324944Y-9392711D01*
X16401134Y-9487949D02*
X16401134Y-9621283D01*
X16401134Y-9506997D02*
X16410658Y-9497473D01*
X16410658Y-9497473D02*
X16429706Y-9487949D01*
X16429706Y-9487949D02*
X16458277Y-9487949D01*
X16458277Y-9487949D02*
X16477325Y-9497473D01*
X16477325Y-9497473D02*
X16486849Y-9516521D01*
X16486849Y-9516521D02*
X16486849Y-9621283D01*
X16610658Y-9621283D02*
X16591611Y-9611759D01*
X16591611Y-9611759D02*
X16582087Y-9602235D01*
X16582087Y-9602235D02*
X16572563Y-9583188D01*
X16572563Y-9583188D02*
X16572563Y-9526045D01*
X16572563Y-9526045D02*
X16582087Y-9506997D01*
X16582087Y-9506997D02*
X16591611Y-9497473D01*
X16591611Y-9497473D02*
X16610658Y-9487949D01*
X16610658Y-9487949D02*
X16639230Y-9487949D01*
X16639230Y-9487949D02*
X16658277Y-9497473D01*
X16658277Y-9497473D02*
X16667801Y-9506997D01*
X16667801Y-9506997D02*
X16677325Y-9526045D01*
X16677325Y-9526045D02*
X16677325Y-9583188D01*
X16677325Y-9583188D02*
X16667801Y-9602235D01*
X16667801Y-9602235D02*
X16658277Y-9611759D01*
X16658277Y-9611759D02*
X16639230Y-9621283D01*
X16639230Y-9621283D02*
X16610658Y-9621283D01*
X16734468Y-9487949D02*
X16810658Y-9487949D01*
X16763039Y-9421283D02*
X16763039Y-9592711D01*
X16763039Y-9592711D02*
X16772563Y-9611759D01*
X16772563Y-9611759D02*
X16791611Y-9621283D01*
X16791611Y-9621283D02*
X16810658Y-9621283D01*
X17029706Y-9487949D02*
X17029706Y-9687949D01*
X17029706Y-9497473D02*
X17048754Y-9487949D01*
X17048754Y-9487949D02*
X17086849Y-9487949D01*
X17086849Y-9487949D02*
X17105896Y-9497473D01*
X17105896Y-9497473D02*
X17115420Y-9506997D01*
X17115420Y-9506997D02*
X17124944Y-9526045D01*
X17124944Y-9526045D02*
X17124944Y-9583188D01*
X17124944Y-9583188D02*
X17115420Y-9602235D01*
X17115420Y-9602235D02*
X17105896Y-9611759D01*
X17105896Y-9611759D02*
X17086849Y-9621283D01*
X17086849Y-9621283D02*
X17048754Y-9621283D01*
X17048754Y-9621283D02*
X17029706Y-9611759D01*
X17239230Y-9621283D02*
X17220182Y-9611759D01*
X17220182Y-9611759D02*
X17210658Y-9592711D01*
X17210658Y-9592711D02*
X17210658Y-9421283D01*
X17401135Y-9621283D02*
X17401135Y-9516521D01*
X17401135Y-9516521D02*
X17391611Y-9497473D01*
X17391611Y-9497473D02*
X17372563Y-9487949D01*
X17372563Y-9487949D02*
X17334468Y-9487949D01*
X17334468Y-9487949D02*
X17315420Y-9497473D01*
X17401135Y-9611759D02*
X17382087Y-9621283D01*
X17382087Y-9621283D02*
X17334468Y-9621283D01*
X17334468Y-9621283D02*
X17315420Y-9611759D01*
X17315420Y-9611759D02*
X17305896Y-9592711D01*
X17305896Y-9592711D02*
X17305896Y-9573664D01*
X17305896Y-9573664D02*
X17315420Y-9554616D01*
X17315420Y-9554616D02*
X17334468Y-9545092D01*
X17334468Y-9545092D02*
X17382087Y-9545092D01*
X17382087Y-9545092D02*
X17401135Y-9535569D01*
X17467801Y-9487949D02*
X17543992Y-9487949D01*
X17496373Y-9421283D02*
X17496373Y-9592711D01*
X17496373Y-9592711D02*
X17505896Y-9611759D01*
X17505896Y-9611759D02*
X17524944Y-9621283D01*
X17524944Y-9621283D02*
X17543992Y-9621283D01*
X17686849Y-9611759D02*
X17667801Y-9621283D01*
X17667801Y-9621283D02*
X17629706Y-9621283D01*
X17629706Y-9621283D02*
X17610658Y-9611759D01*
X17610658Y-9611759D02*
X17601135Y-9592711D01*
X17601135Y-9592711D02*
X17601135Y-9516521D01*
X17601135Y-9516521D02*
X17610658Y-9497473D01*
X17610658Y-9497473D02*
X17629706Y-9487949D01*
X17629706Y-9487949D02*
X17667801Y-9487949D01*
X17667801Y-9487949D02*
X17686849Y-9497473D01*
X17686849Y-9497473D02*
X17696373Y-9516521D01*
X17696373Y-9516521D02*
X17696373Y-9535569D01*
X17696373Y-9535569D02*
X17601135Y-9554616D01*
X17867801Y-9621283D02*
X17867801Y-9421283D01*
X17867801Y-9611759D02*
X17848754Y-9621283D01*
X17848754Y-9621283D02*
X17810658Y-9621283D01*
X17810658Y-9621283D02*
X17791611Y-9611759D01*
X17791611Y-9611759D02*
X17782087Y-9602235D01*
X17782087Y-9602235D02*
X17772563Y-9583188D01*
X17772563Y-9583188D02*
X17772563Y-9526045D01*
X17772563Y-9526045D02*
X17782087Y-9506997D01*
X17782087Y-9506997D02*
X17791611Y-9497473D01*
X17791611Y-9497473D02*
X17810658Y-9487949D01*
X17810658Y-9487949D02*
X17848754Y-9487949D01*
X17848754Y-9487949D02*
X17867801Y-9497473D01*
X17943992Y-9697473D02*
X17953516Y-9687949D01*
X17953516Y-9687949D02*
X17972563Y-9659378D01*
X17972563Y-9659378D02*
X17982087Y-9640330D01*
X17982087Y-9640330D02*
X17991611Y-9611759D01*
X17991611Y-9611759D02*
X18001135Y-9564140D01*
X18001135Y-9564140D02*
X18001135Y-9526045D01*
X18001135Y-9526045D02*
X17991611Y-9478426D01*
X17991611Y-9478426D02*
X17982087Y-9449854D01*
X17982087Y-9449854D02*
X17972563Y-9430807D01*
X17972563Y-9430807D02*
X17953516Y-9402235D01*
X17953516Y-9402235D02*
X17943992Y-9392711D01*
M02*
