G04 #@! TF.GenerationSoftware,KiCad,Pcbnew,8.0.5*
G04 #@! TF.CreationDate,2024-10-13T22:09:45+02:00*
G04 #@! TF.ProjectId,s3Basic,73334261-7369-4632-9e6b-696361645f70,rev?*
G04 #@! TF.SameCoordinates,Original*
G04 #@! TF.FileFunction,OtherDrawing,Comment*
%FSLAX46Y46*%
G04 Gerber Fmt 4.6, Leading zero omitted, Abs format (unit mm)*
G04 Created by KiCad (PCBNEW 8.0.5) date 2024-10-13 22:09:45*
%MOMM*%
%LPD*%
G01*
G04 APERTURE LIST*
%ADD10C,0.100000*%
%ADD11C,0.150000*%
%ADD12C,0.120000*%
G04 APERTURE END LIST*
D10*
X236549000Y-63337990D02*
X236549000Y-80547990D01*
D11*
X185475000Y-55937989D02*
X204525000Y-55937989D01*
X185475000Y-74987989D02*
X185475000Y-55937989D01*
D12*
X193400000Y-59482990D02*
X193400000Y-61782990D01*
X193400000Y-59482990D02*
X193900000Y-58982990D01*
X193400000Y-61782990D02*
X196600000Y-61782990D01*
X196600000Y-58982990D02*
X193900000Y-58982990D01*
X196600000Y-61782990D02*
X196600000Y-58982990D01*
D11*
X204525000Y-55937989D02*
X204525000Y-74987989D01*
X204525000Y-74987989D02*
X185475000Y-74987989D01*
X141475000Y-55937989D02*
X160525000Y-55937989D01*
X141475000Y-74987989D02*
X141475000Y-55937989D01*
D12*
X149400000Y-59482990D02*
X149400000Y-61782990D01*
X149400000Y-59482990D02*
X149900000Y-58982990D01*
X149400000Y-61782990D02*
X152600000Y-61782990D01*
X152600000Y-58982990D02*
X149900000Y-58982990D01*
X152600000Y-61782990D02*
X152600000Y-58982990D01*
D11*
X160525000Y-55937989D02*
X160525000Y-74987989D01*
X160525000Y-74987989D02*
X141475000Y-74987989D01*
X162975000Y-55937989D02*
X182025000Y-55937989D01*
X162975000Y-74987989D02*
X162975000Y-55937989D01*
D12*
X170900000Y-59482990D02*
X170900000Y-61782990D01*
X170900000Y-59482990D02*
X171400000Y-58982990D01*
X170900000Y-61782990D02*
X174100000Y-61782990D01*
X174100000Y-58982990D02*
X171400000Y-58982990D01*
X174100000Y-61782990D02*
X174100000Y-58982990D01*
D11*
X182025000Y-55937989D02*
X182025000Y-74987989D01*
X182025000Y-74987989D02*
X162975000Y-74987989D01*
X129975000Y-55937989D02*
X149025000Y-55937989D01*
X129975000Y-74987989D02*
X129975000Y-55937989D01*
D12*
X137900000Y-59482990D02*
X137900000Y-61782990D01*
X137900000Y-59482990D02*
X138400000Y-58982990D01*
X137900000Y-61782990D02*
X141100000Y-61782990D01*
X141100000Y-58982990D02*
X138400000Y-58982990D01*
X141100000Y-61782990D02*
X141100000Y-58982990D01*
D11*
X149025000Y-55937989D02*
X149025000Y-74987989D01*
X149025000Y-74987989D02*
X129975000Y-74987989D01*
X119475000Y-55937989D02*
X138525000Y-55937989D01*
X119475000Y-74987989D02*
X119475000Y-55937989D01*
D12*
X127400000Y-59482990D02*
X127400000Y-61782990D01*
X127400000Y-59482990D02*
X127900000Y-58982990D01*
X127400000Y-61782990D02*
X130600000Y-61782990D01*
X130600000Y-58982990D02*
X127900000Y-58982990D01*
X130600000Y-61782990D02*
X130600000Y-58982990D01*
D11*
X138525000Y-55937989D02*
X138525000Y-74987989D01*
X138525000Y-74987989D02*
X119475000Y-74987989D01*
X174475000Y-55937989D02*
X193525000Y-55937989D01*
X174475000Y-74987989D02*
X174475000Y-55937989D01*
D12*
X182400000Y-59482990D02*
X182400000Y-61782990D01*
X182400000Y-59482990D02*
X182900000Y-58982990D01*
X182400000Y-61782990D02*
X185600000Y-61782990D01*
X185600000Y-58982990D02*
X182900000Y-58982990D01*
X185600000Y-61782990D02*
X185600000Y-58982990D01*
D11*
X193525000Y-55937989D02*
X193525000Y-74987989D01*
X193525000Y-74987989D02*
X174475000Y-74987989D01*
X151975000Y-55937989D02*
X171025000Y-55937989D01*
X151975000Y-74987989D02*
X151975000Y-55937989D01*
D12*
X159900000Y-59482990D02*
X159900000Y-61782990D01*
X159900000Y-59482990D02*
X160400000Y-58982990D01*
X159900000Y-61782990D02*
X163100000Y-61782990D01*
X163100000Y-58982990D02*
X160400000Y-58982990D01*
X163100000Y-61782990D02*
X163100000Y-58982990D01*
D11*
X171025000Y-55937989D02*
X171025000Y-74987989D01*
X171025000Y-74987989D02*
X151975000Y-74987989D01*
X107891400Y-55937989D02*
X126941400Y-55937989D01*
X107891400Y-74987989D02*
X107891400Y-55937989D01*
D12*
X115816400Y-59482990D02*
X115816400Y-61782990D01*
X115816400Y-59482990D02*
X116316400Y-58982990D01*
X115816400Y-61782990D02*
X119016400Y-61782990D01*
X119016400Y-58982990D02*
X116316400Y-58982990D01*
X119016400Y-61782990D02*
X119016400Y-58982990D01*
D11*
X126941400Y-55937989D02*
X126941400Y-74987989D01*
X126941400Y-74987989D02*
X107891400Y-74987989D01*
M02*
