G04 #@! TF.GenerationSoftware,KiCad,Pcbnew,8.0.5*
G04 #@! TF.CreationDate,2024-10-13T22:09:44+02:00*
G04 #@! TF.ProjectId,s3Basic,73334261-7369-4632-9e6b-696361645f70,rev?*
G04 #@! TF.SameCoordinates,Original*
G04 #@! TF.FileFunction,Paste,Top*
G04 #@! TF.FilePolarity,Positive*
%FSLAX46Y46*%
G04 Gerber Fmt 4.6, Leading zero omitted, Abs format (unit mm)*
G04 Created by KiCad (PCBNEW 8.0.5) date 2024-10-13 22:09:44*
%MOMM*%
%LPD*%
G01*
G04 APERTURE LIST*
G04 Aperture macros list*
%AMRoundRect*
0 Rectangle with rounded corners*
0 $1 Rounding radius*
0 $2 $3 $4 $5 $6 $7 $8 $9 X,Y pos of 4 corners*
0 Add a 4 corners polygon primitive as box body*
4,1,4,$2,$3,$4,$5,$6,$7,$8,$9,$2,$3,0*
0 Add four circle primitives for the rounded corners*
1,1,$1+$1,$2,$3*
1,1,$1+$1,$4,$5*
1,1,$1+$1,$6,$7*
1,1,$1+$1,$8,$9*
0 Add four rect primitives between the rounded corners*
20,1,$1+$1,$2,$3,$4,$5,0*
20,1,$1+$1,$4,$5,$6,$7,0*
20,1,$1+$1,$6,$7,$8,$9,0*
20,1,$1+$1,$8,$9,$2,$3,0*%
G04 Aperture macros list end*
%ADD10RoundRect,0.112500X0.237500X-0.112500X0.237500X0.112500X-0.237500X0.112500X-0.237500X-0.112500X0*%
%ADD11RoundRect,0.250000X-0.337500X-0.475000X0.337500X-0.475000X0.337500X0.475000X-0.337500X0.475000X0*%
%ADD12RoundRect,0.250000X0.475000X-0.337500X0.475000X0.337500X-0.475000X0.337500X-0.475000X-0.337500X0*%
%ADD13RoundRect,0.250000X0.337500X0.475000X-0.337500X0.475000X-0.337500X-0.475000X0.337500X-0.475000X0*%
%ADD14RoundRect,0.250000X-0.475000X0.337500X-0.475000X-0.337500X0.475000X-0.337500X0.475000X0.337500X0*%
%ADD15RoundRect,0.225000X0.225000X0.375000X-0.225000X0.375000X-0.225000X-0.375000X0.225000X-0.375000X0*%
%ADD16RoundRect,0.225000X-0.225000X-0.375000X0.225000X-0.375000X0.225000X0.375000X-0.225000X0.375000X0*%
%ADD17RoundRect,0.250000X-1.075000X0.375000X-1.075000X-0.375000X1.075000X-0.375000X1.075000X0.375000X0*%
%ADD18RoundRect,0.250000X-0.350000X-0.450000X0.350000X-0.450000X0.350000X0.450000X-0.350000X0.450000X0*%
%ADD19R,1.100000X0.300000*%
%ADD20R,3.100000X2.300000*%
%ADD21RoundRect,0.250000X-0.450000X0.350000X-0.450000X-0.350000X0.450000X-0.350000X0.450000X0.350000X0*%
%ADD22R,1.500000X0.900000*%
%ADD23RoundRect,0.250000X0.450000X-0.350000X0.450000X0.350000X-0.450000X0.350000X-0.450000X-0.350000X0*%
%ADD24R,2.510000X1.000000*%
%ADD25RoundRect,0.150000X-0.150000X0.512500X-0.150000X-0.512500X0.150000X-0.512500X0.150000X0.512500X0*%
%ADD26R,0.500000X1.500000*%
%ADD27R,1.300000X1.400000*%
%ADD28RoundRect,0.250000X0.350000X0.450000X-0.350000X0.450000X-0.350000X-0.450000X0.350000X-0.450000X0*%
%ADD29RoundRect,0.150000X0.512500X0.150000X-0.512500X0.150000X-0.512500X-0.150000X0.512500X-0.150000X0*%
%ADD30O,1.200000X1.800000*%
%ADD31O,1.200000X2.000000*%
G04 APERTURE END LIST*
D10*
X226675000Y-63215980D03*
X226675000Y-61915980D03*
X224675000Y-62565980D03*
D11*
X226013500Y-80324990D03*
X228088500Y-80324990D03*
X226013500Y-78082990D03*
X228088500Y-78082990D03*
X226013500Y-73832990D03*
X228088500Y-73832990D03*
X226113500Y-69432990D03*
X228188500Y-69432990D03*
D12*
X228076000Y-84353480D03*
X228076000Y-82278480D03*
D11*
X225737500Y-65282990D03*
X227812500Y-65282990D03*
X224788500Y-59565980D03*
X226863500Y-59565980D03*
D13*
X223613500Y-81632990D03*
X221538500Y-81632990D03*
D11*
X226013500Y-75982990D03*
X228088500Y-75982990D03*
X225837500Y-67332990D03*
X227912500Y-67332990D03*
D14*
X216426000Y-81065980D03*
X216426000Y-83140980D03*
D15*
X231826000Y-59565980D03*
X228526000Y-59565980D03*
D16*
X220676000Y-79432990D03*
X223976000Y-79432990D03*
D15*
X223976000Y-77182990D03*
X220676000Y-77182990D03*
D17*
X208586200Y-69393790D03*
X208586200Y-72193790D03*
D18*
X228326000Y-61815980D03*
X230326000Y-61815980D03*
D11*
X226013500Y-71682990D03*
X228088500Y-71682990D03*
D19*
X232449000Y-77692990D03*
X232449000Y-77192990D03*
X232449000Y-76692990D03*
X232449000Y-76192990D03*
X232449000Y-75692990D03*
X232449000Y-75192990D03*
X232449000Y-74692990D03*
X232449000Y-74192990D03*
X232449000Y-73692990D03*
X232449000Y-73192990D03*
X232449000Y-72692990D03*
X232449000Y-72192990D03*
X232449000Y-71692990D03*
X232449000Y-71192990D03*
X232449000Y-70692990D03*
X232449000Y-70192990D03*
X232449000Y-69692990D03*
X232449000Y-69192990D03*
X232449000Y-68692990D03*
X232449000Y-68192990D03*
X232449000Y-67692990D03*
X232449000Y-67192990D03*
X232449000Y-66692990D03*
X232449000Y-66192990D03*
D20*
X234149000Y-79362990D03*
X234149000Y-64522990D03*
D21*
X230225000Y-63732990D03*
X230225000Y-65732990D03*
D22*
X159431800Y-78850000D03*
X159431800Y-82150000D03*
X164331800Y-82150000D03*
X164331800Y-78850000D03*
D23*
X176785400Y-72012990D03*
X176785400Y-70012990D03*
D12*
X203760200Y-71293990D03*
X203760200Y-69218990D03*
D18*
X199382000Y-65535990D03*
X201382000Y-65535990D03*
D11*
X199192100Y-63376990D03*
X201267100Y-63376990D03*
D22*
X126431800Y-78850000D03*
X126431800Y-82150000D03*
X131331800Y-82150000D03*
X131331800Y-78850000D03*
D21*
X203822000Y-65381190D03*
X203822000Y-67381190D03*
D22*
X181431800Y-78718590D03*
X181431800Y-82018590D03*
X186331800Y-82018590D03*
X186331800Y-78718590D03*
D11*
X206308000Y-74502190D03*
X208383000Y-74502190D03*
D24*
X237581000Y-61265980D03*
X234271000Y-58725980D03*
D14*
X203951000Y-57815980D03*
X203951000Y-59890980D03*
D25*
X202017800Y-67497290D03*
X201067800Y-67497290D03*
X200117800Y-67497290D03*
X200117800Y-69772290D03*
X202017800Y-69772290D03*
D23*
X219275000Y-75282990D03*
X219275000Y-73282990D03*
X230201000Y-57565980D03*
X230201000Y-55565980D03*
D11*
X216500000Y-79132990D03*
X218575000Y-79132990D03*
D21*
X218526000Y-81065980D03*
X218526000Y-83065980D03*
D16*
X209147400Y-63416990D03*
X212447400Y-63416990D03*
D23*
X217225000Y-75282990D03*
X217225000Y-73282990D03*
X215275000Y-75782990D03*
X215275000Y-73782990D03*
D26*
X215275000Y-65532990D03*
X216375000Y-65532990D03*
X217475000Y-65532990D03*
X218225000Y-65532990D03*
X219675000Y-65532990D03*
X220775000Y-65532990D03*
X221875000Y-65532990D03*
X222975000Y-65532990D03*
X218925000Y-65532990D03*
D27*
X224225000Y-67282990D03*
X224225000Y-71732990D03*
X214025000Y-71732990D03*
X214025000Y-67282990D03*
D22*
X114989400Y-78850000D03*
X114989400Y-82150000D03*
X119889400Y-82150000D03*
X119889400Y-78850000D03*
D21*
X221225000Y-73282990D03*
X221225000Y-75282990D03*
D23*
X213275000Y-75582990D03*
X213275000Y-73582990D03*
D18*
X232226000Y-61665980D03*
X234226000Y-61665980D03*
D23*
X195530600Y-66621590D03*
X195530600Y-64621590D03*
D21*
X211076000Y-58482990D03*
X211076000Y-60482990D03*
D23*
X179223800Y-72749590D03*
X179223800Y-70749590D03*
D22*
X192431800Y-78718590D03*
X192431800Y-82018590D03*
X197331800Y-82018590D03*
X197331800Y-78718590D03*
D16*
X203837400Y-63681790D03*
X207137400Y-63681790D03*
D21*
X223225000Y-73282990D03*
X223225000Y-75282990D03*
D28*
X226569400Y-57565980D03*
X224569400Y-57565980D03*
D11*
X209788500Y-56632990D03*
X211863500Y-56632990D03*
D22*
X148431800Y-78850000D03*
X148431800Y-82150000D03*
X153331800Y-82150000D03*
X153331800Y-78850000D03*
X170431800Y-78850000D03*
X170431800Y-82150000D03*
X175331800Y-82150000D03*
X175331800Y-78850000D03*
D29*
X208463500Y-60265980D03*
X208463500Y-59315980D03*
X208463500Y-58365980D03*
X206188500Y-58365980D03*
X206188500Y-60265980D03*
D21*
X207011400Y-80731790D03*
X207011400Y-82731790D03*
D22*
X137431800Y-78850000D03*
X137431800Y-82150000D03*
X142331800Y-82150000D03*
X142331800Y-78850000D03*
D30*
X213626000Y-55898990D03*
D31*
X213626000Y-60098990D03*
D30*
X222276000Y-55898990D03*
D31*
X222276000Y-60098990D03*
M02*
