G04 #@! TF.GenerationSoftware,KiCad,Pcbnew,8.0.5*
G04 #@! TF.CreationDate,2024-10-13T22:09:45+02:00*
G04 #@! TF.ProjectId,s3Basic,73334261-7369-4632-9e6b-696361645f70,rev?*
G04 #@! TF.SameCoordinates,Original*
G04 #@! TF.FileFunction,Paste,Bot*
G04 #@! TF.FilePolarity,Positive*
%FSLAX46Y46*%
G04 Gerber Fmt 4.6, Leading zero omitted, Abs format (unit mm)*
G04 Created by KiCad (PCBNEW 8.0.5) date 2024-10-13 22:09:45*
%MOMM*%
%LPD*%
G01*
G04 APERTURE LIST*
G04 Aperture macros list*
%AMRoundRect*
0 Rectangle with rounded corners*
0 $1 Rounding radius*
0 $2 $3 $4 $5 $6 $7 $8 $9 X,Y pos of 4 corners*
0 Add a 4 corners polygon primitive as box body*
4,1,4,$2,$3,$4,$5,$6,$7,$8,$9,$2,$3,0*
0 Add four circle primitives for the rounded corners*
1,1,$1+$1,$2,$3*
1,1,$1+$1,$4,$5*
1,1,$1+$1,$6,$7*
1,1,$1+$1,$8,$9*
0 Add four rect primitives between the rounded corners*
20,1,$1+$1,$2,$3,$4,$5,0*
20,1,$1+$1,$4,$5,$6,$7,0*
20,1,$1+$1,$6,$7,$8,$9,0*
20,1,$1+$1,$8,$9,$2,$3,0*%
G04 Aperture macros list end*
%ADD10C,0.000000*%
%ADD11RoundRect,0.082000X0.718000X-0.328000X0.718000X0.328000X-0.718000X0.328000X-0.718000X-0.328000X0*%
%ADD12R,2.500000X0.350000*%
%ADD13RoundRect,0.250000X0.450000X-0.350000X0.450000X0.350000X-0.450000X0.350000X-0.450000X-0.350000X0*%
%ADD14RoundRect,0.100000X-0.637500X-0.100000X0.637500X-0.100000X0.637500X0.100000X-0.637500X0.100000X0*%
%ADD15RoundRect,0.150000X-0.587500X-0.150000X0.587500X-0.150000X0.587500X0.150000X-0.587500X0.150000X0*%
%ADD16RoundRect,0.165000X-0.385000X-0.435000X0.385000X-0.435000X0.385000X0.435000X-0.385000X0.435000X0*%
%ADD17RoundRect,0.180000X-0.420000X-0.420000X0.420000X-0.420000X0.420000X0.420000X-0.420000X0.420000X0*%
%ADD18RoundRect,0.210000X-0.540000X-0.490000X0.540000X-0.490000X0.540000X0.490000X-0.540000X0.490000X0*%
%ADD19RoundRect,0.200000X0.275000X-0.200000X0.275000X0.200000X-0.275000X0.200000X-0.275000X-0.200000X0*%
%ADD20RoundRect,0.250000X0.337500X0.475000X-0.337500X0.475000X-0.337500X-0.475000X0.337500X-0.475000X0*%
%ADD21RoundRect,0.150000X-0.150000X0.587500X-0.150000X-0.587500X0.150000X-0.587500X0.150000X0.587500X0*%
%ADD22RoundRect,0.250000X0.475000X-0.337500X0.475000X0.337500X-0.475000X0.337500X-0.475000X-0.337500X0*%
%ADD23R,0.600000X0.250000*%
%ADD24R,0.250000X0.600000*%
%ADD25R,1.500000X1.500000*%
%ADD26O,1.200000X1.800000*%
%ADD27O,1.200000X2.000000*%
%ADD28R,0.300000X1.300000*%
%ADD29RoundRect,0.250000X0.350000X0.450000X-0.350000X0.450000X-0.350000X-0.450000X0.350000X-0.450000X0*%
%ADD30RoundRect,0.250000X-0.350000X-0.450000X0.350000X-0.450000X0.350000X0.450000X-0.350000X0.450000X0*%
%ADD31R,0.900000X0.900000*%
%ADD32R,1.500000X0.900000*%
%ADD33R,0.900000X1.500000*%
%ADD34RoundRect,0.100000X0.100000X-0.637500X0.100000X0.637500X-0.100000X0.637500X-0.100000X-0.637500X0*%
%ADD35R,1.000000X0.600000*%
%ADD36RoundRect,0.200000X0.200000X0.275000X-0.200000X0.275000X-0.200000X-0.275000X0.200000X-0.275000X0*%
%ADD37RoundRect,0.243750X-0.243750X-0.456250X0.243750X-0.456250X0.243750X0.456250X-0.243750X0.456250X0*%
G04 APERTURE END LIST*
D10*
G36*
X204413000Y-64465190D02*
G01*
X203813000Y-64465190D01*
X203813000Y-64215190D01*
X204413000Y-64215190D01*
X204413000Y-64465190D01*
G37*
G36*
X204413000Y-64965190D02*
G01*
X203813000Y-64965190D01*
X203813000Y-64715190D01*
X204413000Y-64715190D01*
X204413000Y-64965190D01*
G37*
G36*
X204413000Y-65465190D02*
G01*
X203813000Y-65465190D01*
X203813000Y-65215190D01*
X204413000Y-65215190D01*
X204413000Y-65465190D01*
G37*
G36*
X204413000Y-65965190D02*
G01*
X203813000Y-65965190D01*
X203813000Y-65715190D01*
X204413000Y-65715190D01*
X204413000Y-65965190D01*
G37*
G36*
X204990000Y-66892190D02*
G01*
X204740000Y-66892190D01*
X204740000Y-66292190D01*
X204990000Y-66292190D01*
X204990000Y-66892190D01*
G37*
G36*
X204990000Y-63892190D02*
G01*
X204740000Y-63892190D01*
X204740000Y-63292190D01*
X204990000Y-63292190D01*
X204990000Y-63892190D01*
G37*
G36*
X206213000Y-65692190D02*
G01*
X205013000Y-65692190D01*
X205013000Y-64492190D01*
X206213000Y-64492190D01*
X206213000Y-65692190D01*
G37*
G36*
X205490000Y-66892190D02*
G01*
X205240000Y-66892190D01*
X205240000Y-66292190D01*
X205490000Y-66292190D01*
X205490000Y-66892190D01*
G37*
G36*
X205490000Y-63892190D02*
G01*
X205240000Y-63892190D01*
X205240000Y-63292190D01*
X205490000Y-63292190D01*
X205490000Y-63892190D01*
G37*
G36*
X205990000Y-66892190D02*
G01*
X205740000Y-66892190D01*
X205740000Y-66292190D01*
X205990000Y-66292190D01*
X205990000Y-66892190D01*
G37*
G36*
X205990000Y-63892190D02*
G01*
X205740000Y-63892190D01*
X205740000Y-63292190D01*
X205990000Y-63292190D01*
X205990000Y-63892190D01*
G37*
G36*
X206490000Y-66892190D02*
G01*
X206240000Y-66892190D01*
X206240000Y-66292190D01*
X206490000Y-66292190D01*
X206490000Y-66892190D01*
G37*
G36*
X206490000Y-63892190D02*
G01*
X206240000Y-63892190D01*
X206240000Y-63292190D01*
X206490000Y-63292190D01*
X206490000Y-63892190D01*
G37*
G36*
X207413000Y-64467190D02*
G01*
X206813000Y-64467190D01*
X206813000Y-64217190D01*
X207413000Y-64217190D01*
X207413000Y-64467190D01*
G37*
G36*
X207413000Y-64967190D02*
G01*
X206813000Y-64967190D01*
X206813000Y-64717190D01*
X207413000Y-64717190D01*
X207413000Y-64967190D01*
G37*
G36*
X207413000Y-65467190D02*
G01*
X206813000Y-65467190D01*
X206813000Y-65217190D01*
X207413000Y-65217190D01*
X207413000Y-65467190D01*
G37*
G36*
X207413000Y-65965190D02*
G01*
X206813000Y-65965190D01*
X206813000Y-65715190D01*
X207413000Y-65715190D01*
X207413000Y-65965190D01*
G37*
G36*
X216351000Y-61816990D02*
G01*
X216051000Y-61816990D01*
X216051000Y-60517990D01*
X216351000Y-60517990D01*
X216351000Y-61816990D01*
G37*
G36*
X216851000Y-61816990D02*
G01*
X216551000Y-61816990D01*
X216551000Y-60517990D01*
X216851000Y-60517990D01*
X216851000Y-61816990D01*
G37*
G36*
X217351000Y-61816990D02*
G01*
X217051000Y-61816990D01*
X217051000Y-60517990D01*
X217351000Y-60517990D01*
X217351000Y-61816990D01*
G37*
G36*
X217851000Y-61816990D02*
G01*
X217551000Y-61816990D01*
X217551000Y-60517990D01*
X217851000Y-60517990D01*
X217851000Y-61816990D01*
G37*
G36*
X218351000Y-61816990D02*
G01*
X218051000Y-61816990D01*
X218051000Y-60517990D01*
X218351000Y-60517990D01*
X218351000Y-61816990D01*
G37*
G36*
X218851000Y-61816990D02*
G01*
X218551000Y-61816990D01*
X218551000Y-60517990D01*
X218851000Y-60517990D01*
X218851000Y-61816990D01*
G37*
G36*
X219351000Y-61816990D02*
G01*
X219051000Y-61816990D01*
X219051000Y-60517990D01*
X219351000Y-60517990D01*
X219351000Y-61816990D01*
G37*
G36*
X219851000Y-61816990D02*
G01*
X219551000Y-61816990D01*
X219551000Y-60517990D01*
X219851000Y-60517990D01*
X219851000Y-61816990D01*
G37*
G36*
X215001000Y-61816990D02*
G01*
X214501000Y-61816990D01*
X214501000Y-60539990D01*
X214501000Y-60516990D01*
X215001000Y-60516990D01*
X215001000Y-61816990D01*
G37*
G36*
X215801000Y-61816990D02*
G01*
X215301000Y-61816990D01*
X215301000Y-60539990D01*
X215301000Y-60516990D01*
X215801000Y-60516990D01*
X215801000Y-61816990D01*
G37*
G36*
X220601000Y-61816990D02*
G01*
X220101000Y-61816990D01*
X220101000Y-60539990D01*
X220101000Y-60516990D01*
X220601000Y-60516990D01*
X220601000Y-61816990D01*
G37*
G36*
X221401000Y-61816990D02*
G01*
X220901000Y-61816990D01*
X220901000Y-60539990D01*
X220901000Y-60516990D01*
X221401000Y-60516990D01*
X221401000Y-61816990D01*
G37*
D11*
X197600000Y-61132990D03*
X197600000Y-59632990D03*
X192400000Y-59632990D03*
X192400000Y-61132990D03*
X153600000Y-61132990D03*
X153600000Y-59632990D03*
X148400000Y-59632990D03*
X148400000Y-61132990D03*
X175100000Y-61132990D03*
X175100000Y-59632990D03*
X169900000Y-59632990D03*
X169900000Y-61132990D03*
X142100000Y-61132990D03*
X142100000Y-59632990D03*
X136900000Y-59632990D03*
X136900000Y-61132990D03*
X131600000Y-61132990D03*
X131600000Y-59632990D03*
X126400000Y-59632990D03*
X126400000Y-61132990D03*
X186600000Y-61132990D03*
X186600000Y-59632990D03*
X181400000Y-59632990D03*
X181400000Y-61132990D03*
X164100000Y-61132990D03*
X164100000Y-59632990D03*
X158900000Y-59632990D03*
X158900000Y-61132990D03*
X120016400Y-61132990D03*
X120016400Y-59632990D03*
X114816400Y-59632990D03*
X114816400Y-61132990D03*
D12*
X236450000Y-75415980D03*
X236450000Y-74715980D03*
X236450000Y-74015980D03*
X236450000Y-73315980D03*
X236450000Y-72615980D03*
X236450000Y-71915980D03*
X236450000Y-71215980D03*
X236450000Y-70515980D03*
X236450000Y-69815980D03*
X236450000Y-69115980D03*
X236450000Y-68415980D03*
X236450000Y-67715980D03*
D13*
X201625000Y-57582990D03*
X201625000Y-55582990D03*
D14*
X201288400Y-84854390D03*
X201288400Y-84204390D03*
X201288400Y-83554390D03*
X201288400Y-82904390D03*
X201288400Y-82254390D03*
X201288400Y-81604390D03*
X201288400Y-80954390D03*
X201288400Y-80304390D03*
X207013400Y-80304390D03*
X207013400Y-80954390D03*
X207013400Y-81604390D03*
X207013400Y-82254390D03*
X207013400Y-82904390D03*
X207013400Y-83554390D03*
X207013400Y-84204390D03*
X207013400Y-84854390D03*
D15*
X235875000Y-83082990D03*
X235875000Y-81182990D03*
X237750000Y-82132990D03*
D16*
X203901000Y-57232990D03*
X208001000Y-57232990D03*
D17*
X203751000Y-55632990D03*
D18*
X205951000Y-57857990D03*
D17*
X208151000Y-55632990D03*
D19*
X234075000Y-75857990D03*
X234075000Y-74207990D03*
D16*
X227901000Y-57232990D03*
X232001000Y-57232990D03*
D17*
X227751000Y-55632990D03*
D18*
X229951000Y-57857990D03*
D17*
X232151000Y-55632990D03*
D20*
X234362500Y-62122990D03*
X232287500Y-62122990D03*
D21*
X236176000Y-60065980D03*
X238076000Y-60065980D03*
X237126000Y-61940980D03*
D22*
X225604200Y-61874490D03*
X225604200Y-59799490D03*
D20*
X206575700Y-59922590D03*
X204500700Y-59922590D03*
D14*
X206366400Y-74724990D03*
X206366400Y-74074990D03*
X206366400Y-73424990D03*
X206366400Y-72774990D03*
X206366400Y-72124990D03*
X206366400Y-71474990D03*
X206366400Y-70824990D03*
X212091400Y-70824990D03*
X212091400Y-71474990D03*
X212091400Y-72124990D03*
X212091400Y-72774990D03*
X212091400Y-73424990D03*
X212091400Y-74074990D03*
X212091400Y-74724990D03*
D23*
X204113000Y-65840190D03*
X204113000Y-65341190D03*
X204113000Y-64840190D03*
X204113000Y-64341190D03*
D24*
X204865000Y-63592190D03*
X205365000Y-63592190D03*
X205865000Y-63592190D03*
X206365000Y-63592190D03*
D23*
X207113000Y-64342190D03*
X207113000Y-64842190D03*
X207113000Y-65342190D03*
X207113000Y-65840190D03*
D24*
X206365000Y-66592190D03*
X205865000Y-66592190D03*
X205365000Y-66592190D03*
X204865000Y-66592190D03*
D25*
X205613000Y-65092190D03*
D26*
X213626000Y-55898990D03*
D27*
X213626000Y-60098990D03*
D26*
X222276000Y-55898990D03*
D27*
X222276000Y-60098990D03*
D28*
X214601000Y-61166990D03*
X215401000Y-61166990D03*
X216701000Y-61166990D03*
X217701000Y-61166990D03*
X218201000Y-61166990D03*
X219201000Y-61166990D03*
X220501000Y-61166990D03*
X221301000Y-61166990D03*
X221001000Y-61166990D03*
X220201000Y-61166990D03*
X219701000Y-61166990D03*
X218701000Y-61166990D03*
X217201000Y-61166990D03*
X216201000Y-61166990D03*
X215701000Y-61166990D03*
X214901000Y-61166990D03*
D29*
X226226000Y-57665980D03*
X224226000Y-57665980D03*
D30*
X209826000Y-59065980D03*
X211826000Y-59065980D03*
D29*
X237826000Y-55565980D03*
X235826000Y-55565980D03*
D31*
X220651000Y-72895980D03*
X220651000Y-74295980D03*
X220651000Y-75695980D03*
X222051000Y-72895980D03*
X222051000Y-74295980D03*
X222051000Y-75695980D03*
X223451000Y-72895980D03*
X223451000Y-74295980D03*
X223451000Y-75695980D03*
D32*
X214801000Y-82015980D03*
X214801000Y-80745980D03*
X214801000Y-79475980D03*
X214801000Y-78205980D03*
X214801000Y-76935980D03*
X214801000Y-75665980D03*
X214801000Y-74395980D03*
X214801000Y-73125980D03*
X214801000Y-71855980D03*
X214801000Y-70585980D03*
X214801000Y-69315980D03*
X214801000Y-68045980D03*
X214801000Y-66775980D03*
X214801000Y-65505980D03*
D33*
X216566000Y-64255980D03*
X217836000Y-64255980D03*
X219106000Y-64255980D03*
X220376000Y-64255980D03*
X221646000Y-64255980D03*
X222916000Y-64255980D03*
X224186000Y-64255980D03*
X225456000Y-64255980D03*
X226726000Y-64255980D03*
X227996000Y-64255980D03*
X229266000Y-64255980D03*
X230536000Y-64255980D03*
D32*
X232301000Y-65505980D03*
X232301000Y-66775980D03*
X232301000Y-68045980D03*
X232301000Y-69315980D03*
X232301000Y-70585980D03*
X232301000Y-71855980D03*
X232301000Y-73125980D03*
X232301000Y-74395980D03*
X232301000Y-75665980D03*
X232301000Y-76935980D03*
X232301000Y-78205980D03*
X232301000Y-79475980D03*
X232301000Y-80745980D03*
X232301000Y-82015980D03*
D20*
X206575700Y-62005390D03*
X204500700Y-62005390D03*
D13*
X233926000Y-57365980D03*
X233926000Y-55365980D03*
D19*
X234087800Y-68304590D03*
X234087800Y-66654590D03*
D34*
X204327600Y-75485090D03*
X203677600Y-75485090D03*
X203027600Y-75485090D03*
X202377600Y-75485090D03*
X201727600Y-75485090D03*
X201077600Y-75485090D03*
X200427600Y-75485090D03*
X199777600Y-75485090D03*
X199127600Y-75485090D03*
X198477600Y-75485090D03*
X197827600Y-75485090D03*
X197177600Y-75485090D03*
X196527600Y-75485090D03*
X195877600Y-75485090D03*
X195877600Y-69760090D03*
X196527600Y-69760090D03*
X197177600Y-69760090D03*
X197827600Y-69760090D03*
X198477600Y-69760090D03*
X199127600Y-69760090D03*
X199777600Y-69760090D03*
X200427600Y-69760090D03*
X201077600Y-69760090D03*
X201727600Y-69760090D03*
X202377600Y-69760090D03*
X203027600Y-69760090D03*
X203677600Y-69760090D03*
X204327600Y-69760090D03*
D35*
X230226000Y-59750000D03*
X230226000Y-60700000D03*
X230226000Y-61650000D03*
X227626000Y-61650000D03*
X227626000Y-59750000D03*
D36*
X236150000Y-65232990D03*
X234500000Y-65232990D03*
D30*
X200474200Y-63122990D03*
X202474200Y-63122990D03*
D29*
X234576000Y-59232990D03*
X232576000Y-59232990D03*
D30*
X200169400Y-61141790D03*
X202169400Y-61141790D03*
D37*
X235638500Y-57565980D03*
X237513500Y-57565980D03*
D19*
X234125000Y-84682990D03*
X234125000Y-83032990D03*
M02*
