G04 #@! TF.GenerationSoftware,KiCad,Pcbnew,8.0.5*
G04 #@! TF.CreationDate,2024-10-13T22:09:45+02:00*
G04 #@! TF.ProjectId,s3Basic,73334261-7369-4632-9e6b-696361645f70,rev?*
G04 #@! TF.SameCoordinates,Original*
G04 #@! TF.FileFunction,Profile,NP*
%FSLAX46Y46*%
G04 Gerber Fmt 4.6, Leading zero omitted, Abs format (unit mm)*
G04 Created by KiCad (PCBNEW 8.0.5) date 2024-10-13 22:09:45*
%MOMM*%
%LPD*%
G01*
G04 APERTURE LIST*
G04 #@! TA.AperFunction,Profile*
%ADD10C,0.050000*%
G04 #@! TD*
G04 #@! TA.AperFunction,Profile*
%ADD11C,0.100000*%
G04 #@! TD*
G04 APERTURE END LIST*
D10*
X240175000Y-62932990D02*
X240175000Y-54500000D01*
X110000000Y-83000000D02*
X110000000Y-57500000D01*
X240175000Y-78932990D02*
X239000000Y-78932990D01*
X240175000Y-83232990D02*
X240175000Y-78932990D01*
X110000000Y-83000000D02*
X113000000Y-86232990D01*
X239000000Y-62932990D02*
X240175000Y-62932990D01*
X113000000Y-86232990D02*
X236175000Y-86232990D01*
X239000000Y-78932990D02*
X239000000Y-62932990D01*
X113000000Y-54500000D02*
X240175000Y-54500000D01*
X110000000Y-57500000D02*
X113000000Y-54500000D01*
X240175000Y-83232990D02*
X236175000Y-86232990D01*
D11*
X193300001Y-61085832D02*
X193300001Y-59680148D01*
X194205548Y-58882990D02*
X195794452Y-58882990D01*
X195794452Y-61882989D02*
X194205547Y-61882989D01*
X196699999Y-59680148D02*
X196699999Y-61085832D01*
X193250516Y-59463270D02*
G75*
G02*
X193300019Y-59680148I-450516J-216919D01*
G01*
X193250516Y-59463271D02*
G75*
G02*
X193953289Y-58814691I450514J216880D01*
G01*
X193300001Y-61085833D02*
G75*
G02*
X193250514Y-61302709I-499991J4D01*
G01*
X193953289Y-61951288D02*
G75*
G02*
X193250517Y-61302710I-252259J431699D01*
G01*
X193953289Y-61951288D02*
G75*
G02*
X194205547Y-61882989I252261J-431711D01*
G01*
X194205548Y-58882990D02*
G75*
G02*
X193953289Y-58814691I2J500011D01*
G01*
X195794453Y-61882990D02*
G75*
G02*
X196046711Y-61951289I-3J-500009D01*
G01*
X196046710Y-58814691D02*
G75*
G02*
X195794452Y-58882990I-252261J431710D01*
G01*
X196046711Y-58814693D02*
G75*
G02*
X196749484Y-59463270I252258J-431700D01*
G01*
X196699999Y-59680147D02*
G75*
G02*
X196749484Y-59463270I499990J1D01*
G01*
X196749484Y-61302710D02*
G75*
G02*
X196046711Y-61951289I-450515J-216878D01*
G01*
X196749484Y-61302710D02*
G75*
G02*
X196699999Y-61085832I450505J216876D01*
G01*
X149300001Y-61085832D02*
X149300001Y-59680148D01*
X150205548Y-58882990D02*
X151794452Y-58882990D01*
X151794452Y-61882989D02*
X150205547Y-61882989D01*
X152699999Y-59680148D02*
X152699999Y-61085832D01*
X149250516Y-59463270D02*
G75*
G02*
X149300019Y-59680148I-450516J-216919D01*
G01*
X149250516Y-59463271D02*
G75*
G02*
X149953289Y-58814691I450514J216880D01*
G01*
X149300001Y-61085833D02*
G75*
G02*
X149250514Y-61302709I-499991J4D01*
G01*
X149953289Y-61951288D02*
G75*
G02*
X149250517Y-61302710I-252259J431699D01*
G01*
X149953289Y-61951288D02*
G75*
G02*
X150205547Y-61882989I252261J-431711D01*
G01*
X150205548Y-58882990D02*
G75*
G02*
X149953289Y-58814691I2J500011D01*
G01*
X151794453Y-61882990D02*
G75*
G02*
X152046711Y-61951289I-3J-500009D01*
G01*
X152046710Y-58814691D02*
G75*
G02*
X151794452Y-58882990I-252261J431710D01*
G01*
X152046711Y-58814693D02*
G75*
G02*
X152749484Y-59463270I252258J-431700D01*
G01*
X152699999Y-59680147D02*
G75*
G02*
X152749484Y-59463270I499990J1D01*
G01*
X152749484Y-61302710D02*
G75*
G02*
X152046711Y-61951289I-450515J-216878D01*
G01*
X152749484Y-61302710D02*
G75*
G02*
X152699999Y-61085832I450505J216876D01*
G01*
X170800001Y-61085832D02*
X170800001Y-59680148D01*
X171705548Y-58882990D02*
X173294452Y-58882990D01*
X173294452Y-61882989D02*
X171705547Y-61882989D01*
X174199999Y-59680148D02*
X174199999Y-61085832D01*
X170750516Y-59463270D02*
G75*
G02*
X170800019Y-59680148I-450516J-216919D01*
G01*
X170750516Y-59463271D02*
G75*
G02*
X171453289Y-58814691I450514J216880D01*
G01*
X170800001Y-61085833D02*
G75*
G02*
X170750514Y-61302709I-499991J4D01*
G01*
X171453289Y-61951288D02*
G75*
G02*
X170750517Y-61302710I-252259J431699D01*
G01*
X171453289Y-61951288D02*
G75*
G02*
X171705547Y-61882989I252261J-431711D01*
G01*
X171705548Y-58882990D02*
G75*
G02*
X171453289Y-58814691I2J500011D01*
G01*
X173294453Y-61882990D02*
G75*
G02*
X173546711Y-61951289I-3J-500009D01*
G01*
X173546710Y-58814691D02*
G75*
G02*
X173294452Y-58882990I-252261J431710D01*
G01*
X173546711Y-58814693D02*
G75*
G02*
X174249484Y-59463270I252258J-431700D01*
G01*
X174199999Y-59680147D02*
G75*
G02*
X174249484Y-59463270I499990J1D01*
G01*
X174249484Y-61302710D02*
G75*
G02*
X173546711Y-61951289I-450515J-216878D01*
G01*
X174249484Y-61302710D02*
G75*
G02*
X174199999Y-61085832I450505J216876D01*
G01*
X137800001Y-61085832D02*
X137800001Y-59680148D01*
X138705548Y-58882990D02*
X140294452Y-58882990D01*
X140294452Y-61882989D02*
X138705547Y-61882989D01*
X141199999Y-59680148D02*
X141199999Y-61085832D01*
X137750516Y-59463270D02*
G75*
G02*
X137800019Y-59680148I-450516J-216919D01*
G01*
X137750516Y-59463271D02*
G75*
G02*
X138453289Y-58814691I450514J216880D01*
G01*
X137800001Y-61085833D02*
G75*
G02*
X137750514Y-61302709I-499991J4D01*
G01*
X138453289Y-61951288D02*
G75*
G02*
X137750517Y-61302710I-252259J431699D01*
G01*
X138453289Y-61951288D02*
G75*
G02*
X138705547Y-61882989I252261J-431711D01*
G01*
X138705548Y-58882990D02*
G75*
G02*
X138453289Y-58814691I2J500011D01*
G01*
X140294453Y-61882990D02*
G75*
G02*
X140546711Y-61951289I-3J-500009D01*
G01*
X140546710Y-58814691D02*
G75*
G02*
X140294452Y-58882990I-252261J431710D01*
G01*
X140546711Y-58814693D02*
G75*
G02*
X141249484Y-59463270I252258J-431700D01*
G01*
X141199999Y-59680147D02*
G75*
G02*
X141249484Y-59463270I499990J1D01*
G01*
X141249484Y-61302710D02*
G75*
G02*
X140546711Y-61951289I-450515J-216878D01*
G01*
X141249484Y-61302710D02*
G75*
G02*
X141199999Y-61085832I450505J216876D01*
G01*
X127300001Y-61085832D02*
X127300001Y-59680148D01*
X128205548Y-58882990D02*
X129794452Y-58882990D01*
X129794452Y-61882989D02*
X128205547Y-61882989D01*
X130699999Y-59680148D02*
X130699999Y-61085832D01*
X127250516Y-59463270D02*
G75*
G02*
X127300019Y-59680148I-450516J-216919D01*
G01*
X127250516Y-59463271D02*
G75*
G02*
X127953289Y-58814691I450514J216880D01*
G01*
X127300001Y-61085833D02*
G75*
G02*
X127250514Y-61302709I-499991J4D01*
G01*
X127953289Y-61951288D02*
G75*
G02*
X127250517Y-61302710I-252259J431699D01*
G01*
X127953289Y-61951288D02*
G75*
G02*
X128205547Y-61882989I252261J-431711D01*
G01*
X128205548Y-58882990D02*
G75*
G02*
X127953289Y-58814691I2J500011D01*
G01*
X129794453Y-61882990D02*
G75*
G02*
X130046711Y-61951289I-3J-500009D01*
G01*
X130046710Y-58814691D02*
G75*
G02*
X129794452Y-58882990I-252261J431710D01*
G01*
X130046711Y-58814693D02*
G75*
G02*
X130749484Y-59463270I252258J-431700D01*
G01*
X130699999Y-59680147D02*
G75*
G02*
X130749484Y-59463270I499990J1D01*
G01*
X130749484Y-61302710D02*
G75*
G02*
X130046711Y-61951289I-450515J-216878D01*
G01*
X130749484Y-61302710D02*
G75*
G02*
X130699999Y-61085832I450505J216876D01*
G01*
X182300001Y-61085832D02*
X182300001Y-59680148D01*
X183205548Y-58882990D02*
X184794452Y-58882990D01*
X184794452Y-61882989D02*
X183205547Y-61882989D01*
X185699999Y-59680148D02*
X185699999Y-61085832D01*
X182250516Y-59463270D02*
G75*
G02*
X182300019Y-59680148I-450516J-216919D01*
G01*
X182250516Y-59463271D02*
G75*
G02*
X182953289Y-58814691I450514J216880D01*
G01*
X182300001Y-61085833D02*
G75*
G02*
X182250514Y-61302709I-499991J4D01*
G01*
X182953289Y-61951288D02*
G75*
G02*
X182250517Y-61302710I-252259J431699D01*
G01*
X182953289Y-61951288D02*
G75*
G02*
X183205547Y-61882989I252261J-431711D01*
G01*
X183205548Y-58882990D02*
G75*
G02*
X182953289Y-58814691I2J500011D01*
G01*
X184794453Y-61882990D02*
G75*
G02*
X185046711Y-61951289I-3J-500009D01*
G01*
X185046710Y-58814691D02*
G75*
G02*
X184794452Y-58882990I-252261J431710D01*
G01*
X185046711Y-58814693D02*
G75*
G02*
X185749484Y-59463270I252258J-431700D01*
G01*
X185699999Y-59680147D02*
G75*
G02*
X185749484Y-59463270I499990J1D01*
G01*
X185749484Y-61302710D02*
G75*
G02*
X185046711Y-61951289I-450515J-216878D01*
G01*
X185749484Y-61302710D02*
G75*
G02*
X185699999Y-61085832I450505J216876D01*
G01*
X159800001Y-61085832D02*
X159800001Y-59680148D01*
X160705548Y-58882990D02*
X162294452Y-58882990D01*
X162294452Y-61882989D02*
X160705547Y-61882989D01*
X163199999Y-59680148D02*
X163199999Y-61085832D01*
X159750516Y-59463270D02*
G75*
G02*
X159800019Y-59680148I-450516J-216919D01*
G01*
X159750516Y-59463271D02*
G75*
G02*
X160453289Y-58814691I450514J216880D01*
G01*
X159800001Y-61085833D02*
G75*
G02*
X159750514Y-61302709I-499991J4D01*
G01*
X160453289Y-61951288D02*
G75*
G02*
X159750517Y-61302710I-252259J431699D01*
G01*
X160453289Y-61951288D02*
G75*
G02*
X160705547Y-61882989I252261J-431711D01*
G01*
X160705548Y-58882990D02*
G75*
G02*
X160453289Y-58814691I2J500011D01*
G01*
X162294453Y-61882990D02*
G75*
G02*
X162546711Y-61951289I-3J-500009D01*
G01*
X162546710Y-58814691D02*
G75*
G02*
X162294452Y-58882990I-252261J431710D01*
G01*
X162546711Y-58814693D02*
G75*
G02*
X163249484Y-59463270I252258J-431700D01*
G01*
X163199999Y-59680147D02*
G75*
G02*
X163249484Y-59463270I499990J1D01*
G01*
X163249484Y-61302710D02*
G75*
G02*
X162546711Y-61951289I-450515J-216878D01*
G01*
X163249484Y-61302710D02*
G75*
G02*
X163199999Y-61085832I450505J216876D01*
G01*
X115716401Y-61085832D02*
X115716401Y-59680148D01*
X116621948Y-58882990D02*
X118210852Y-58882990D01*
X118210852Y-61882989D02*
X116621947Y-61882989D01*
X119116399Y-59680148D02*
X119116399Y-61085832D01*
X115666916Y-59463270D02*
G75*
G02*
X115716419Y-59680148I-450516J-216919D01*
G01*
X115666916Y-59463271D02*
G75*
G02*
X116369689Y-58814691I450514J216880D01*
G01*
X115716401Y-61085833D02*
G75*
G02*
X115666914Y-61302709I-499991J4D01*
G01*
X116369689Y-61951288D02*
G75*
G02*
X115666917Y-61302710I-252259J431699D01*
G01*
X116369689Y-61951288D02*
G75*
G02*
X116621947Y-61882989I252261J-431711D01*
G01*
X116621948Y-58882990D02*
G75*
G02*
X116369689Y-58814691I2J500011D01*
G01*
X118210853Y-61882990D02*
G75*
G02*
X118463111Y-61951289I-3J-500009D01*
G01*
X118463110Y-58814691D02*
G75*
G02*
X118210852Y-58882990I-252261J431710D01*
G01*
X118463111Y-58814693D02*
G75*
G02*
X119165884Y-59463270I252258J-431700D01*
G01*
X119116399Y-59680147D02*
G75*
G02*
X119165884Y-59463270I499990J1D01*
G01*
X119165884Y-61302710D02*
G75*
G02*
X118463111Y-61951289I-450515J-216878D01*
G01*
X119165884Y-61302710D02*
G75*
G02*
X119116399Y-61085832I450505J216876D01*
G01*
M02*
