M48
; DRILL file {KiCad 8.0.5} date 2024-10-13T22:09:48+0200
; FORMAT={-:-/ absolute / inch / decimal}
; #@! TF.CreationDate,2024-10-13T22:09:48+02:00
; #@! TF.GenerationSoftware,Kicad,Pcbnew,8.0.5
; #@! TF.FileFunction,Plated,1,2,PTH
FMAT,2
INCH
; #@! TA.AperFunction,Plated,PTH,ViaDrill
T1C0.0118
; #@! TA.AperFunction,Plated,PTH,ViaDrill
T2C0.0157
; #@! TA.AperFunction,Plated,PTH,ComponentDrill
T3C0.0276
; #@! TA.AperFunction,Plated,PTH,ComponentDrill
T4C0.0315
; #@! TA.AperFunction,Plated,PTH,ComponentDrill
T5C0.0374
; #@! TA.AperFunction,Plated,PTH,ComponentDrill
T6C0.0394
; #@! TA.AperFunction,Plated,PTH,ComponentDrill
T7C0.0697
%
G90
G05
T1
X9.2894Y-2.4448
T2
X4.5049Y-3.1667
X4.627Y-2.2907
X4.8415Y-2.5702
X5.0778Y-2.2926
X5.0778Y-2.8044
X5.3002Y-2.5604
X5.4774Y-2.8104
X5.4911Y-2.2907
X5.7116Y-2.582
X5.9321Y-2.2907
X6.2707Y-2.6017
X6.3612Y-2.269
X6.7923Y-2.2848
X6.8809Y-2.6903
X6.9852Y-2.9698
X7.2392Y-2.2887
X7.2841Y-2.9892
X7.2981Y-2.7212
X7.4203Y-2.4127
X7.4262Y-2.7257
X7.6742Y-2.2907
X7.7561Y-2.8952
X7.8041Y-2.8812
X7.8434Y-2.3654
X7.8521Y-2.8512
X7.8741Y-3.3532
X7.9201Y-2.3272
X7.9206Y-2.8417
X7.9793Y-3.1076
X7.9821Y-2.5367
X8.0101Y-2.8092
X8.0109Y-2.4183
X8.0136Y-3.0882
X8.0452Y-3.2809
X8.0703Y-2.9229
X8.0789Y-3.2157
X8.0815Y-3.2657
X8.0881Y-3.0177
X8.0899Y-2.6693
X8.1026Y-2.7452
X8.1481Y-3.1252
X8.1588Y-2.476
X8.1941Y-2.8372
X8.2126Y-3.1732
X8.2241Y-2.4132
X8.2876Y-2.9484
X8.3038Y-2.9126
X8.3117Y-2.4393
X8.3295Y-2.58
X8.3417Y-2.6454
X8.3774Y-2.5834
X8.5099Y-2.6752
X8.51Y-2.7496
X8.5419Y-2.3202
X8.558Y-3.159
X8.5735Y-2.7515
X8.6054Y-2.3254
X8.6401Y-2.4592
X8.6762Y-2.4796
X8.7186Y-2.6336
X8.7234Y-2.4796
X8.7411Y-2.7316
X8.7648Y-2.4805
X8.7727Y-3.1558
X8.8037Y-2.4679
X8.8238Y-2.7336
X8.849Y-2.8836
X8.8521Y-3.0812
X8.8542Y-3.1873
X8.8613Y-3.0043
X8.8742Y-2.2182
X8.9061Y-3.2512
X8.9393Y-2.3973
X9.0376Y-2.7373
X9.0483Y-2.6994
X9.0483Y-2.7796
X9.0581Y-2.8191
X9.0624Y-2.472
X9.063Y-2.1876
X9.068Y-2.8572
X9.0942Y-2.9075
X9.1073Y-2.3057
X9.1262Y-2.4975
X9.1772Y-2.2815
X9.1821Y-2.5131
X9.2185Y-3.1245
X9.2186Y-2.6234
X9.2305Y-2.8986
X9.2641Y-2.6355
X9.2644Y-2.9996
X9.3261Y-2.9912
X9.3396Y-2.6233
X9.3622Y-2.8563
X9.3656Y-2.4458
X9.3841Y-2.2541
X9.4175Y-2.3497
T3
X6.4015Y-2.7515
X6.4644Y-2.6886
X6.5511Y-2.9011
X6.6141Y-2.8382
T4
X8.2401Y-2.5558
X8.2401Y-2.6345
X8.3376Y-3.1411
X8.3376Y-3.2198
T5
X8.0217Y-2.1922
X8.1949Y-2.1922
X8.9666Y-2.1922
X9.1398Y-2.1922
T6
X4.4081Y-2.4852
X4.4081Y-2.5852
X4.4081Y-2.6852
X4.4081Y-2.7852
X4.4081Y-2.8852
X4.4081Y-2.9852
X4.4081Y-3.0852
X4.4081Y-3.1852
X4.8441Y-2.6992
X4.8441Y-2.7992
X4.8441Y-2.8992
X4.8441Y-2.9992
X4.8441Y-3.0992
X5.7141Y-2.6816
X5.7141Y-2.7816
X5.7141Y-2.8816
X5.7141Y-2.9816
X6.1361Y-2.6472
X6.1361Y-2.7472
X6.1361Y-2.8472
X6.1361Y-2.9472
X6.1361Y-3.0472
X7.1014Y-3.3261
X7.2014Y-3.3261
X7.3014Y-3.3261
X7.4014Y-3.3261
X7.5014Y-3.3261
X7.6014Y-3.3261
X7.7014Y-3.3261
X7.8014Y-3.3261
X8.5136Y-2.2422
T7
X4.5Y-2.2283
X4.5669Y-2.7283
X4.5669Y-2.9764
X4.7677Y-2.2283
X4.9331Y-2.2283
X5.0Y-2.7283
X5.0Y-2.9764
X5.2008Y-2.2283
X5.3661Y-2.2283
X5.4331Y-2.7283
X5.4331Y-2.9764
X5.6339Y-2.2283
X5.7992Y-2.2283
X5.8661Y-2.7283
X5.8661Y-2.9764
X6.0669Y-2.2283
X6.2323Y-2.2283
X6.2992Y-2.7283
X6.2992Y-2.9764
X6.5Y-2.2283
X6.6654Y-2.2283
X6.7323Y-2.7283
X6.7323Y-2.9764
X6.9331Y-2.2283
X7.0984Y-2.2283
X7.1654Y-2.7283
X7.1654Y-2.9764
X7.3661Y-2.2283
X7.5315Y-2.2283
X7.5984Y-2.7283
X7.5984Y-2.9764
X7.7992Y-2.2283
T4
G00X8.4105Y-2.1889
M15
G01X8.4105Y-2.2126
M16
G05
G00X8.4105Y-2.3504
M15
G01X8.4105Y-2.3819
M16
G05
G00X8.751Y-2.1889
M15
G01X8.751Y-2.2126
M16
G05
G00X8.751Y-2.3504
M15
G01X8.751Y-2.3819
M16
G05
M30
