G04 #@! TF.GenerationSoftware,KiCad,Pcbnew,8.0.5*
G04 #@! TF.CreationDate,2024-10-13T22:09:45+02:00*
G04 #@! TF.ProjectId,s3Basic,73334261-7369-4632-9e6b-696361645f70,rev?*
G04 #@! TF.SameCoordinates,Original*
G04 #@! TF.FileFunction,AssemblyDrawing,Top*
%FSLAX46Y46*%
G04 Gerber Fmt 4.6, Leading zero omitted, Abs format (unit mm)*
G04 Created by KiCad (PCBNEW 8.0.5) date 2024-10-13 22:09:45*
%MOMM*%
%LPD*%
G01*
G04 APERTURE LIST*
%ADD10C,0.150000*%
%ADD11C,0.075000*%
%ADD12C,0.080000*%
%ADD13C,0.120000*%
%ADD14C,0.060000*%
%ADD15C,0.100000*%
%ADD16C,0.127000*%
G04 APERTURE END LIST*
D10*
X186884046Y-84842570D02*
X186836427Y-84890190D01*
X186836427Y-84890190D02*
X186693570Y-84937809D01*
X186693570Y-84937809D02*
X186598332Y-84937809D01*
X186598332Y-84937809D02*
X186455475Y-84890190D01*
X186455475Y-84890190D02*
X186360237Y-84794951D01*
X186360237Y-84794951D02*
X186312618Y-84699713D01*
X186312618Y-84699713D02*
X186264999Y-84509237D01*
X186264999Y-84509237D02*
X186264999Y-84366380D01*
X186264999Y-84366380D02*
X186312618Y-84175904D01*
X186312618Y-84175904D02*
X186360237Y-84080666D01*
X186360237Y-84080666D02*
X186455475Y-83985428D01*
X186455475Y-83985428D02*
X186598332Y-83937809D01*
X186598332Y-83937809D02*
X186693570Y-83937809D01*
X186693570Y-83937809D02*
X186836427Y-83985428D01*
X186836427Y-83985428D02*
X186884046Y-84033047D01*
X187455475Y-84937809D02*
X187360237Y-84890190D01*
X187360237Y-84890190D02*
X187312618Y-84842570D01*
X187312618Y-84842570D02*
X187264999Y-84747332D01*
X187264999Y-84747332D02*
X187264999Y-84461618D01*
X187264999Y-84461618D02*
X187312618Y-84366380D01*
X187312618Y-84366380D02*
X187360237Y-84318761D01*
X187360237Y-84318761D02*
X187455475Y-84271142D01*
X187455475Y-84271142D02*
X187598332Y-84271142D01*
X187598332Y-84271142D02*
X187693570Y-84318761D01*
X187693570Y-84318761D02*
X187741189Y-84366380D01*
X187741189Y-84366380D02*
X187788808Y-84461618D01*
X187788808Y-84461618D02*
X187788808Y-84747332D01*
X187788808Y-84747332D02*
X187741189Y-84842570D01*
X187741189Y-84842570D02*
X187693570Y-84890190D01*
X187693570Y-84890190D02*
X187598332Y-84937809D01*
X187598332Y-84937809D02*
X187455475Y-84937809D01*
X188217380Y-84271142D02*
X188217380Y-84937809D01*
X188217380Y-84366380D02*
X188264999Y-84318761D01*
X188264999Y-84318761D02*
X188360237Y-84271142D01*
X188360237Y-84271142D02*
X188503094Y-84271142D01*
X188503094Y-84271142D02*
X188598332Y-84318761D01*
X188598332Y-84318761D02*
X188645951Y-84413999D01*
X188645951Y-84413999D02*
X188645951Y-84937809D01*
X188979285Y-84271142D02*
X189360237Y-84271142D01*
X189122142Y-83937809D02*
X189122142Y-84794951D01*
X189122142Y-84794951D02*
X189169761Y-84890190D01*
X189169761Y-84890190D02*
X189264999Y-84937809D01*
X189264999Y-84937809D02*
X189360237Y-84937809D01*
X189693571Y-84937809D02*
X189693571Y-84271142D01*
X189693571Y-84461618D02*
X189741190Y-84366380D01*
X189741190Y-84366380D02*
X189788809Y-84318761D01*
X189788809Y-84318761D02*
X189884047Y-84271142D01*
X189884047Y-84271142D02*
X189979285Y-84271142D01*
X190455476Y-84937809D02*
X190360238Y-84890190D01*
X190360238Y-84890190D02*
X190312619Y-84842570D01*
X190312619Y-84842570D02*
X190265000Y-84747332D01*
X190265000Y-84747332D02*
X190265000Y-84461618D01*
X190265000Y-84461618D02*
X190312619Y-84366380D01*
X190312619Y-84366380D02*
X190360238Y-84318761D01*
X190360238Y-84318761D02*
X190455476Y-84271142D01*
X190455476Y-84271142D02*
X190598333Y-84271142D01*
X190598333Y-84271142D02*
X190693571Y-84318761D01*
X190693571Y-84318761D02*
X190741190Y-84366380D01*
X190741190Y-84366380D02*
X190788809Y-84461618D01*
X190788809Y-84461618D02*
X190788809Y-84747332D01*
X190788809Y-84747332D02*
X190741190Y-84842570D01*
X190741190Y-84842570D02*
X190693571Y-84890190D01*
X190693571Y-84890190D02*
X190598333Y-84937809D01*
X190598333Y-84937809D02*
X190455476Y-84937809D01*
X191360238Y-84937809D02*
X191265000Y-84890190D01*
X191265000Y-84890190D02*
X191217381Y-84794951D01*
X191217381Y-84794951D02*
X191217381Y-83937809D01*
X192265000Y-84937809D02*
X191693572Y-84937809D01*
X191979286Y-84937809D02*
X191979286Y-83937809D01*
X191979286Y-83937809D02*
X191884048Y-84080666D01*
X191884048Y-84080666D02*
X191788810Y-84175904D01*
X191788810Y-84175904D02*
X191693572Y-84223523D01*
D11*
X225950028Y-62613599D02*
X225926219Y-62661218D01*
X225926219Y-62661218D02*
X225878600Y-62708837D01*
X225878600Y-62708837D02*
X225807171Y-62780265D01*
X225807171Y-62780265D02*
X225783361Y-62827884D01*
X225783361Y-62827884D02*
X225783361Y-62875503D01*
X225902409Y-62851694D02*
X225878600Y-62899313D01*
X225878600Y-62899313D02*
X225830980Y-62946932D01*
X225830980Y-62946932D02*
X225735742Y-62970741D01*
X225735742Y-62970741D02*
X225569076Y-62970741D01*
X225569076Y-62970741D02*
X225473838Y-62946932D01*
X225473838Y-62946932D02*
X225426219Y-62899313D01*
X225426219Y-62899313D02*
X225402409Y-62851694D01*
X225402409Y-62851694D02*
X225402409Y-62756456D01*
X225402409Y-62756456D02*
X225426219Y-62708837D01*
X225426219Y-62708837D02*
X225473838Y-62661218D01*
X225473838Y-62661218D02*
X225569076Y-62637408D01*
X225569076Y-62637408D02*
X225735742Y-62637408D01*
X225735742Y-62637408D02*
X225830980Y-62661218D01*
X225830980Y-62661218D02*
X225878600Y-62708837D01*
X225878600Y-62708837D02*
X225902409Y-62756456D01*
X225902409Y-62756456D02*
X225902409Y-62851694D01*
X225902409Y-62161217D02*
X225902409Y-62446931D01*
X225902409Y-62304074D02*
X225402409Y-62304074D01*
X225402409Y-62304074D02*
X225473838Y-62351693D01*
X225473838Y-62351693D02*
X225521457Y-62399312D01*
X225521457Y-62399312D02*
X225545266Y-62446931D01*
D12*
X226967666Y-80504520D02*
X226943857Y-80528330D01*
X226943857Y-80528330D02*
X226872428Y-80552139D01*
X226872428Y-80552139D02*
X226824809Y-80552139D01*
X226824809Y-80552139D02*
X226753381Y-80528330D01*
X226753381Y-80528330D02*
X226705762Y-80480710D01*
X226705762Y-80480710D02*
X226681952Y-80433091D01*
X226681952Y-80433091D02*
X226658143Y-80337853D01*
X226658143Y-80337853D02*
X226658143Y-80266425D01*
X226658143Y-80266425D02*
X226681952Y-80171187D01*
X226681952Y-80171187D02*
X226705762Y-80123568D01*
X226705762Y-80123568D02*
X226753381Y-80075949D01*
X226753381Y-80075949D02*
X226824809Y-80052139D01*
X226824809Y-80052139D02*
X226872428Y-80052139D01*
X226872428Y-80052139D02*
X226943857Y-80075949D01*
X226943857Y-80075949D02*
X226967666Y-80099758D01*
X227443857Y-80552139D02*
X227158143Y-80552139D01*
X227301000Y-80552139D02*
X227301000Y-80052139D01*
X227301000Y-80052139D02*
X227253381Y-80123568D01*
X227253381Y-80123568D02*
X227205762Y-80171187D01*
X227205762Y-80171187D02*
X227158143Y-80194996D01*
X226967666Y-78262520D02*
X226943857Y-78286330D01*
X226943857Y-78286330D02*
X226872428Y-78310139D01*
X226872428Y-78310139D02*
X226824809Y-78310139D01*
X226824809Y-78310139D02*
X226753381Y-78286330D01*
X226753381Y-78286330D02*
X226705762Y-78238710D01*
X226705762Y-78238710D02*
X226681952Y-78191091D01*
X226681952Y-78191091D02*
X226658143Y-78095853D01*
X226658143Y-78095853D02*
X226658143Y-78024425D01*
X226658143Y-78024425D02*
X226681952Y-77929187D01*
X226681952Y-77929187D02*
X226705762Y-77881568D01*
X226705762Y-77881568D02*
X226753381Y-77833949D01*
X226753381Y-77833949D02*
X226824809Y-77810139D01*
X226824809Y-77810139D02*
X226872428Y-77810139D01*
X226872428Y-77810139D02*
X226943857Y-77833949D01*
X226943857Y-77833949D02*
X226967666Y-77857758D01*
X227134333Y-77810139D02*
X227443857Y-77810139D01*
X227443857Y-77810139D02*
X227277190Y-78000615D01*
X227277190Y-78000615D02*
X227348619Y-78000615D01*
X227348619Y-78000615D02*
X227396238Y-78024425D01*
X227396238Y-78024425D02*
X227420047Y-78048234D01*
X227420047Y-78048234D02*
X227443857Y-78095853D01*
X227443857Y-78095853D02*
X227443857Y-78214901D01*
X227443857Y-78214901D02*
X227420047Y-78262520D01*
X227420047Y-78262520D02*
X227396238Y-78286330D01*
X227396238Y-78286330D02*
X227348619Y-78310139D01*
X227348619Y-78310139D02*
X227205762Y-78310139D01*
X227205762Y-78310139D02*
X227158143Y-78286330D01*
X227158143Y-78286330D02*
X227134333Y-78262520D01*
X226967666Y-74012520D02*
X226943857Y-74036330D01*
X226943857Y-74036330D02*
X226872428Y-74060139D01*
X226872428Y-74060139D02*
X226824809Y-74060139D01*
X226824809Y-74060139D02*
X226753381Y-74036330D01*
X226753381Y-74036330D02*
X226705762Y-73988710D01*
X226705762Y-73988710D02*
X226681952Y-73941091D01*
X226681952Y-73941091D02*
X226658143Y-73845853D01*
X226658143Y-73845853D02*
X226658143Y-73774425D01*
X226658143Y-73774425D02*
X226681952Y-73679187D01*
X226681952Y-73679187D02*
X226705762Y-73631568D01*
X226705762Y-73631568D02*
X226753381Y-73583949D01*
X226753381Y-73583949D02*
X226824809Y-73560139D01*
X226824809Y-73560139D02*
X226872428Y-73560139D01*
X226872428Y-73560139D02*
X226943857Y-73583949D01*
X226943857Y-73583949D02*
X226967666Y-73607758D01*
X227420047Y-73560139D02*
X227181952Y-73560139D01*
X227181952Y-73560139D02*
X227158143Y-73798234D01*
X227158143Y-73798234D02*
X227181952Y-73774425D01*
X227181952Y-73774425D02*
X227229571Y-73750615D01*
X227229571Y-73750615D02*
X227348619Y-73750615D01*
X227348619Y-73750615D02*
X227396238Y-73774425D01*
X227396238Y-73774425D02*
X227420047Y-73798234D01*
X227420047Y-73798234D02*
X227443857Y-73845853D01*
X227443857Y-73845853D02*
X227443857Y-73964901D01*
X227443857Y-73964901D02*
X227420047Y-74012520D01*
X227420047Y-74012520D02*
X227396238Y-74036330D01*
X227396238Y-74036330D02*
X227348619Y-74060139D01*
X227348619Y-74060139D02*
X227229571Y-74060139D01*
X227229571Y-74060139D02*
X227181952Y-74036330D01*
X227181952Y-74036330D02*
X227158143Y-74012520D01*
X226829571Y-69612520D02*
X226805762Y-69636330D01*
X226805762Y-69636330D02*
X226734333Y-69660139D01*
X226734333Y-69660139D02*
X226686714Y-69660139D01*
X226686714Y-69660139D02*
X226615286Y-69636330D01*
X226615286Y-69636330D02*
X226567667Y-69588710D01*
X226567667Y-69588710D02*
X226543857Y-69541091D01*
X226543857Y-69541091D02*
X226520048Y-69445853D01*
X226520048Y-69445853D02*
X226520048Y-69374425D01*
X226520048Y-69374425D02*
X226543857Y-69279187D01*
X226543857Y-69279187D02*
X226567667Y-69231568D01*
X226567667Y-69231568D02*
X226615286Y-69183949D01*
X226615286Y-69183949D02*
X226686714Y-69160139D01*
X226686714Y-69160139D02*
X226734333Y-69160139D01*
X226734333Y-69160139D02*
X226805762Y-69183949D01*
X226805762Y-69183949D02*
X226829571Y-69207758D01*
X227305762Y-69660139D02*
X227020048Y-69660139D01*
X227162905Y-69660139D02*
X227162905Y-69160139D01*
X227162905Y-69160139D02*
X227115286Y-69231568D01*
X227115286Y-69231568D02*
X227067667Y-69279187D01*
X227067667Y-69279187D02*
X227020048Y-69302996D01*
X227781952Y-69660139D02*
X227496238Y-69660139D01*
X227639095Y-69660139D02*
X227639095Y-69160139D01*
X227639095Y-69160139D02*
X227591476Y-69231568D01*
X227591476Y-69231568D02*
X227543857Y-69279187D01*
X227543857Y-69279187D02*
X227496238Y-69302996D01*
X228255530Y-83399313D02*
X228279340Y-83423122D01*
X228279340Y-83423122D02*
X228303149Y-83494551D01*
X228303149Y-83494551D02*
X228303149Y-83542170D01*
X228303149Y-83542170D02*
X228279340Y-83613598D01*
X228279340Y-83613598D02*
X228231720Y-83661217D01*
X228231720Y-83661217D02*
X228184101Y-83685027D01*
X228184101Y-83685027D02*
X228088863Y-83708836D01*
X228088863Y-83708836D02*
X228017435Y-83708836D01*
X228017435Y-83708836D02*
X227922197Y-83685027D01*
X227922197Y-83685027D02*
X227874578Y-83661217D01*
X227874578Y-83661217D02*
X227826959Y-83613598D01*
X227826959Y-83613598D02*
X227803149Y-83542170D01*
X227803149Y-83542170D02*
X227803149Y-83494551D01*
X227803149Y-83494551D02*
X227826959Y-83423122D01*
X227826959Y-83423122D02*
X227850768Y-83399313D01*
X228017435Y-83113598D02*
X227993625Y-83161217D01*
X227993625Y-83161217D02*
X227969816Y-83185027D01*
X227969816Y-83185027D02*
X227922197Y-83208836D01*
X227922197Y-83208836D02*
X227898387Y-83208836D01*
X227898387Y-83208836D02*
X227850768Y-83185027D01*
X227850768Y-83185027D02*
X227826959Y-83161217D01*
X227826959Y-83161217D02*
X227803149Y-83113598D01*
X227803149Y-83113598D02*
X227803149Y-83018360D01*
X227803149Y-83018360D02*
X227826959Y-82970741D01*
X227826959Y-82970741D02*
X227850768Y-82946932D01*
X227850768Y-82946932D02*
X227898387Y-82923122D01*
X227898387Y-82923122D02*
X227922197Y-82923122D01*
X227922197Y-82923122D02*
X227969816Y-82946932D01*
X227969816Y-82946932D02*
X227993625Y-82970741D01*
X227993625Y-82970741D02*
X228017435Y-83018360D01*
X228017435Y-83018360D02*
X228017435Y-83113598D01*
X228017435Y-83113598D02*
X228041244Y-83161217D01*
X228041244Y-83161217D02*
X228065054Y-83185027D01*
X228065054Y-83185027D02*
X228112673Y-83208836D01*
X228112673Y-83208836D02*
X228207911Y-83208836D01*
X228207911Y-83208836D02*
X228255530Y-83185027D01*
X228255530Y-83185027D02*
X228279340Y-83161217D01*
X228279340Y-83161217D02*
X228303149Y-83113598D01*
X228303149Y-83113598D02*
X228303149Y-83018360D01*
X228303149Y-83018360D02*
X228279340Y-82970741D01*
X228279340Y-82970741D02*
X228255530Y-82946932D01*
X228255530Y-82946932D02*
X228207911Y-82923122D01*
X228207911Y-82923122D02*
X228112673Y-82923122D01*
X228112673Y-82923122D02*
X228065054Y-82946932D01*
X228065054Y-82946932D02*
X228041244Y-82970741D01*
X228041244Y-82970741D02*
X228017435Y-83018360D01*
X226691666Y-65462520D02*
X226667857Y-65486330D01*
X226667857Y-65486330D02*
X226596428Y-65510139D01*
X226596428Y-65510139D02*
X226548809Y-65510139D01*
X226548809Y-65510139D02*
X226477381Y-65486330D01*
X226477381Y-65486330D02*
X226429762Y-65438710D01*
X226429762Y-65438710D02*
X226405952Y-65391091D01*
X226405952Y-65391091D02*
X226382143Y-65295853D01*
X226382143Y-65295853D02*
X226382143Y-65224425D01*
X226382143Y-65224425D02*
X226405952Y-65129187D01*
X226405952Y-65129187D02*
X226429762Y-65081568D01*
X226429762Y-65081568D02*
X226477381Y-65033949D01*
X226477381Y-65033949D02*
X226548809Y-65010139D01*
X226548809Y-65010139D02*
X226596428Y-65010139D01*
X226596428Y-65010139D02*
X226667857Y-65033949D01*
X226667857Y-65033949D02*
X226691666Y-65057758D01*
X226858333Y-65010139D02*
X227191666Y-65010139D01*
X227191666Y-65010139D02*
X226977381Y-65510139D01*
X225504571Y-59745510D02*
X225480762Y-59769320D01*
X225480762Y-59769320D02*
X225409333Y-59793129D01*
X225409333Y-59793129D02*
X225361714Y-59793129D01*
X225361714Y-59793129D02*
X225290286Y-59769320D01*
X225290286Y-59769320D02*
X225242667Y-59721700D01*
X225242667Y-59721700D02*
X225218857Y-59674081D01*
X225218857Y-59674081D02*
X225195048Y-59578843D01*
X225195048Y-59578843D02*
X225195048Y-59507415D01*
X225195048Y-59507415D02*
X225218857Y-59412177D01*
X225218857Y-59412177D02*
X225242667Y-59364558D01*
X225242667Y-59364558D02*
X225290286Y-59316939D01*
X225290286Y-59316939D02*
X225361714Y-59293129D01*
X225361714Y-59293129D02*
X225409333Y-59293129D01*
X225409333Y-59293129D02*
X225480762Y-59316939D01*
X225480762Y-59316939D02*
X225504571Y-59340748D01*
X225980762Y-59793129D02*
X225695048Y-59793129D01*
X225837905Y-59793129D02*
X225837905Y-59293129D01*
X225837905Y-59293129D02*
X225790286Y-59364558D01*
X225790286Y-59364558D02*
X225742667Y-59412177D01*
X225742667Y-59412177D02*
X225695048Y-59435986D01*
X226290285Y-59293129D02*
X226337904Y-59293129D01*
X226337904Y-59293129D02*
X226385523Y-59316939D01*
X226385523Y-59316939D02*
X226409333Y-59340748D01*
X226409333Y-59340748D02*
X226433142Y-59388367D01*
X226433142Y-59388367D02*
X226456952Y-59483605D01*
X226456952Y-59483605D02*
X226456952Y-59602653D01*
X226456952Y-59602653D02*
X226433142Y-59697891D01*
X226433142Y-59697891D02*
X226409333Y-59745510D01*
X226409333Y-59745510D02*
X226385523Y-59769320D01*
X226385523Y-59769320D02*
X226337904Y-59793129D01*
X226337904Y-59793129D02*
X226290285Y-59793129D01*
X226290285Y-59793129D02*
X226242666Y-59769320D01*
X226242666Y-59769320D02*
X226218857Y-59745510D01*
X226218857Y-59745510D02*
X226195047Y-59697891D01*
X226195047Y-59697891D02*
X226171238Y-59602653D01*
X226171238Y-59602653D02*
X226171238Y-59483605D01*
X226171238Y-59483605D02*
X226195047Y-59388367D01*
X226195047Y-59388367D02*
X226218857Y-59340748D01*
X226218857Y-59340748D02*
X226242666Y-59316939D01*
X226242666Y-59316939D02*
X226290285Y-59293129D01*
X222400666Y-81682520D02*
X222376857Y-81706330D01*
X222376857Y-81706330D02*
X222305428Y-81730139D01*
X222305428Y-81730139D02*
X222257809Y-81730139D01*
X222257809Y-81730139D02*
X222186381Y-81706330D01*
X222186381Y-81706330D02*
X222138762Y-81658710D01*
X222138762Y-81658710D02*
X222114952Y-81611091D01*
X222114952Y-81611091D02*
X222091143Y-81515853D01*
X222091143Y-81515853D02*
X222091143Y-81444425D01*
X222091143Y-81444425D02*
X222114952Y-81349187D01*
X222114952Y-81349187D02*
X222138762Y-81301568D01*
X222138762Y-81301568D02*
X222186381Y-81253949D01*
X222186381Y-81253949D02*
X222257809Y-81230139D01*
X222257809Y-81230139D02*
X222305428Y-81230139D01*
X222305428Y-81230139D02*
X222376857Y-81253949D01*
X222376857Y-81253949D02*
X222400666Y-81277758D01*
X222591143Y-81277758D02*
X222614952Y-81253949D01*
X222614952Y-81253949D02*
X222662571Y-81230139D01*
X222662571Y-81230139D02*
X222781619Y-81230139D01*
X222781619Y-81230139D02*
X222829238Y-81253949D01*
X222829238Y-81253949D02*
X222853047Y-81277758D01*
X222853047Y-81277758D02*
X222876857Y-81325377D01*
X222876857Y-81325377D02*
X222876857Y-81372996D01*
X222876857Y-81372996D02*
X222853047Y-81444425D01*
X222853047Y-81444425D02*
X222567333Y-81730139D01*
X222567333Y-81730139D02*
X222876857Y-81730139D01*
X226967666Y-76162520D02*
X226943857Y-76186330D01*
X226943857Y-76186330D02*
X226872428Y-76210139D01*
X226872428Y-76210139D02*
X226824809Y-76210139D01*
X226824809Y-76210139D02*
X226753381Y-76186330D01*
X226753381Y-76186330D02*
X226705762Y-76138710D01*
X226705762Y-76138710D02*
X226681952Y-76091091D01*
X226681952Y-76091091D02*
X226658143Y-75995853D01*
X226658143Y-75995853D02*
X226658143Y-75924425D01*
X226658143Y-75924425D02*
X226681952Y-75829187D01*
X226681952Y-75829187D02*
X226705762Y-75781568D01*
X226705762Y-75781568D02*
X226753381Y-75733949D01*
X226753381Y-75733949D02*
X226824809Y-75710139D01*
X226824809Y-75710139D02*
X226872428Y-75710139D01*
X226872428Y-75710139D02*
X226943857Y-75733949D01*
X226943857Y-75733949D02*
X226967666Y-75757758D01*
X227396238Y-75876806D02*
X227396238Y-76210139D01*
X227277190Y-75686330D02*
X227158143Y-76043472D01*
X227158143Y-76043472D02*
X227467666Y-76043472D01*
X226791666Y-67512520D02*
X226767857Y-67536330D01*
X226767857Y-67536330D02*
X226696428Y-67560139D01*
X226696428Y-67560139D02*
X226648809Y-67560139D01*
X226648809Y-67560139D02*
X226577381Y-67536330D01*
X226577381Y-67536330D02*
X226529762Y-67488710D01*
X226529762Y-67488710D02*
X226505952Y-67441091D01*
X226505952Y-67441091D02*
X226482143Y-67345853D01*
X226482143Y-67345853D02*
X226482143Y-67274425D01*
X226482143Y-67274425D02*
X226505952Y-67179187D01*
X226505952Y-67179187D02*
X226529762Y-67131568D01*
X226529762Y-67131568D02*
X226577381Y-67083949D01*
X226577381Y-67083949D02*
X226648809Y-67060139D01*
X226648809Y-67060139D02*
X226696428Y-67060139D01*
X226696428Y-67060139D02*
X226767857Y-67083949D01*
X226767857Y-67083949D02*
X226791666Y-67107758D01*
X227029762Y-67560139D02*
X227125000Y-67560139D01*
X227125000Y-67560139D02*
X227172619Y-67536330D01*
X227172619Y-67536330D02*
X227196428Y-67512520D01*
X227196428Y-67512520D02*
X227244047Y-67441091D01*
X227244047Y-67441091D02*
X227267857Y-67345853D01*
X227267857Y-67345853D02*
X227267857Y-67155377D01*
X227267857Y-67155377D02*
X227244047Y-67107758D01*
X227244047Y-67107758D02*
X227220238Y-67083949D01*
X227220238Y-67083949D02*
X227172619Y-67060139D01*
X227172619Y-67060139D02*
X227077381Y-67060139D01*
X227077381Y-67060139D02*
X227029762Y-67083949D01*
X227029762Y-67083949D02*
X227005952Y-67107758D01*
X227005952Y-67107758D02*
X226982143Y-67155377D01*
X226982143Y-67155377D02*
X226982143Y-67274425D01*
X226982143Y-67274425D02*
X227005952Y-67322044D01*
X227005952Y-67322044D02*
X227029762Y-67345853D01*
X227029762Y-67345853D02*
X227077381Y-67369663D01*
X227077381Y-67369663D02*
X227172619Y-67369663D01*
X227172619Y-67369663D02*
X227220238Y-67345853D01*
X227220238Y-67345853D02*
X227244047Y-67322044D01*
X227244047Y-67322044D02*
X227267857Y-67274425D01*
X216605530Y-82424908D02*
X216629340Y-82448717D01*
X216629340Y-82448717D02*
X216653149Y-82520146D01*
X216653149Y-82520146D02*
X216653149Y-82567765D01*
X216653149Y-82567765D02*
X216629340Y-82639193D01*
X216629340Y-82639193D02*
X216581720Y-82686812D01*
X216581720Y-82686812D02*
X216534101Y-82710622D01*
X216534101Y-82710622D02*
X216438863Y-82734431D01*
X216438863Y-82734431D02*
X216367435Y-82734431D01*
X216367435Y-82734431D02*
X216272197Y-82710622D01*
X216272197Y-82710622D02*
X216224578Y-82686812D01*
X216224578Y-82686812D02*
X216176959Y-82639193D01*
X216176959Y-82639193D02*
X216153149Y-82567765D01*
X216153149Y-82567765D02*
X216153149Y-82520146D01*
X216153149Y-82520146D02*
X216176959Y-82448717D01*
X216176959Y-82448717D02*
X216200768Y-82424908D01*
X216653149Y-81948717D02*
X216653149Y-82234431D01*
X216653149Y-82091574D02*
X216153149Y-82091574D01*
X216153149Y-82091574D02*
X216224578Y-82139193D01*
X216224578Y-82139193D02*
X216272197Y-82186812D01*
X216272197Y-82186812D02*
X216296006Y-82234431D01*
X216200768Y-81758241D02*
X216176959Y-81734432D01*
X216176959Y-81734432D02*
X216153149Y-81686813D01*
X216153149Y-81686813D02*
X216153149Y-81567765D01*
X216153149Y-81567765D02*
X216176959Y-81520146D01*
X216176959Y-81520146D02*
X216200768Y-81496337D01*
X216200768Y-81496337D02*
X216248387Y-81472527D01*
X216248387Y-81472527D02*
X216296006Y-81472527D01*
X216296006Y-81472527D02*
X216367435Y-81496337D01*
X216367435Y-81496337D02*
X216653149Y-81782051D01*
X216653149Y-81782051D02*
X216653149Y-81472527D01*
D10*
X229437905Y-62020799D02*
X229437905Y-61020799D01*
X229437905Y-61020799D02*
X229676000Y-61020799D01*
X229676000Y-61020799D02*
X229818857Y-61068418D01*
X229818857Y-61068418D02*
X229914095Y-61163656D01*
X229914095Y-61163656D02*
X229961714Y-61258894D01*
X229961714Y-61258894D02*
X230009333Y-61449370D01*
X230009333Y-61449370D02*
X230009333Y-61592227D01*
X230009333Y-61592227D02*
X229961714Y-61782703D01*
X229961714Y-61782703D02*
X229914095Y-61877941D01*
X229914095Y-61877941D02*
X229818857Y-61973180D01*
X229818857Y-61973180D02*
X229676000Y-62020799D01*
X229676000Y-62020799D02*
X229437905Y-62020799D01*
X230342667Y-61020799D02*
X230961714Y-61020799D01*
X230961714Y-61020799D02*
X230628381Y-61401751D01*
X230628381Y-61401751D02*
X230771238Y-61401751D01*
X230771238Y-61401751D02*
X230866476Y-61449370D01*
X230866476Y-61449370D02*
X230914095Y-61496989D01*
X230914095Y-61496989D02*
X230961714Y-61592227D01*
X230961714Y-61592227D02*
X230961714Y-61830322D01*
X230961714Y-61830322D02*
X230914095Y-61925560D01*
X230914095Y-61925560D02*
X230866476Y-61973180D01*
X230866476Y-61973180D02*
X230771238Y-62020799D01*
X230771238Y-62020799D02*
X230485524Y-62020799D01*
X230485524Y-62020799D02*
X230390286Y-61973180D01*
X230390286Y-61973180D02*
X230342667Y-61925560D01*
X221587905Y-77887809D02*
X221587905Y-76887809D01*
X221587905Y-76887809D02*
X221826000Y-76887809D01*
X221826000Y-76887809D02*
X221968857Y-76935428D01*
X221968857Y-76935428D02*
X222064095Y-77030666D01*
X222064095Y-77030666D02*
X222111714Y-77125904D01*
X222111714Y-77125904D02*
X222159333Y-77316380D01*
X222159333Y-77316380D02*
X222159333Y-77459237D01*
X222159333Y-77459237D02*
X222111714Y-77649713D01*
X222111714Y-77649713D02*
X222064095Y-77744951D01*
X222064095Y-77744951D02*
X221968857Y-77840190D01*
X221968857Y-77840190D02*
X221826000Y-77887809D01*
X221826000Y-77887809D02*
X221587905Y-77887809D01*
X222540286Y-76983047D02*
X222587905Y-76935428D01*
X222587905Y-76935428D02*
X222683143Y-76887809D01*
X222683143Y-76887809D02*
X222921238Y-76887809D01*
X222921238Y-76887809D02*
X223016476Y-76935428D01*
X223016476Y-76935428D02*
X223064095Y-76983047D01*
X223064095Y-76983047D02*
X223111714Y-77078285D01*
X223111714Y-77078285D02*
X223111714Y-77173523D01*
X223111714Y-77173523D02*
X223064095Y-77316380D01*
X223064095Y-77316380D02*
X222492667Y-77887809D01*
X222492667Y-77887809D02*
X223111714Y-77887809D01*
X221587905Y-79637809D02*
X221587905Y-78637809D01*
X221587905Y-78637809D02*
X221826000Y-78637809D01*
X221826000Y-78637809D02*
X221968857Y-78685428D01*
X221968857Y-78685428D02*
X222064095Y-78780666D01*
X222064095Y-78780666D02*
X222111714Y-78875904D01*
X222111714Y-78875904D02*
X222159333Y-79066380D01*
X222159333Y-79066380D02*
X222159333Y-79209237D01*
X222159333Y-79209237D02*
X222111714Y-79399713D01*
X222111714Y-79399713D02*
X222064095Y-79494951D01*
X222064095Y-79494951D02*
X221968857Y-79590190D01*
X221968857Y-79590190D02*
X221826000Y-79637809D01*
X221826000Y-79637809D02*
X221587905Y-79637809D01*
X223111714Y-79637809D02*
X222540286Y-79637809D01*
X222826000Y-79637809D02*
X222826000Y-78637809D01*
X222826000Y-78637809D02*
X222730762Y-78780666D01*
X222730762Y-78780666D02*
X222635524Y-78875904D01*
X222635524Y-78875904D02*
X222540286Y-78923523D01*
D13*
X208950055Y-70927123D02*
X208950055Y-71308075D01*
X208950055Y-71308075D02*
X208150055Y-71308075D01*
X208950055Y-70241409D02*
X208950055Y-70698552D01*
X208950055Y-70469980D02*
X208150055Y-70469980D01*
X208150055Y-70469980D02*
X208264340Y-70546171D01*
X208264340Y-70546171D02*
X208340531Y-70622361D01*
X208340531Y-70622361D02*
X208378626Y-70698552D01*
D12*
X229242666Y-62043129D02*
X229076000Y-61805034D01*
X228956952Y-62043129D02*
X228956952Y-61543129D01*
X228956952Y-61543129D02*
X229147428Y-61543129D01*
X229147428Y-61543129D02*
X229195047Y-61566939D01*
X229195047Y-61566939D02*
X229218857Y-61590748D01*
X229218857Y-61590748D02*
X229242666Y-61638367D01*
X229242666Y-61638367D02*
X229242666Y-61709796D01*
X229242666Y-61709796D02*
X229218857Y-61757415D01*
X229218857Y-61757415D02*
X229195047Y-61781224D01*
X229195047Y-61781224D02*
X229147428Y-61805034D01*
X229147428Y-61805034D02*
X228956952Y-61805034D01*
X229718857Y-62043129D02*
X229433143Y-62043129D01*
X229576000Y-62043129D02*
X229576000Y-61543129D01*
X229576000Y-61543129D02*
X229528381Y-61614558D01*
X229528381Y-61614558D02*
X229480762Y-61662177D01*
X229480762Y-61662177D02*
X229433143Y-61685986D01*
X226967666Y-71862520D02*
X226943857Y-71886330D01*
X226943857Y-71886330D02*
X226872428Y-71910139D01*
X226872428Y-71910139D02*
X226824809Y-71910139D01*
X226824809Y-71910139D02*
X226753381Y-71886330D01*
X226753381Y-71886330D02*
X226705762Y-71838710D01*
X226705762Y-71838710D02*
X226681952Y-71791091D01*
X226681952Y-71791091D02*
X226658143Y-71695853D01*
X226658143Y-71695853D02*
X226658143Y-71624425D01*
X226658143Y-71624425D02*
X226681952Y-71529187D01*
X226681952Y-71529187D02*
X226705762Y-71481568D01*
X226705762Y-71481568D02*
X226753381Y-71433949D01*
X226753381Y-71433949D02*
X226824809Y-71410139D01*
X226824809Y-71410139D02*
X226872428Y-71410139D01*
X226872428Y-71410139D02*
X226943857Y-71433949D01*
X226943857Y-71433949D02*
X226967666Y-71457758D01*
X227396238Y-71410139D02*
X227301000Y-71410139D01*
X227301000Y-71410139D02*
X227253381Y-71433949D01*
X227253381Y-71433949D02*
X227229571Y-71457758D01*
X227229571Y-71457758D02*
X227181952Y-71529187D01*
X227181952Y-71529187D02*
X227158143Y-71624425D01*
X227158143Y-71624425D02*
X227158143Y-71814901D01*
X227158143Y-71814901D02*
X227181952Y-71862520D01*
X227181952Y-71862520D02*
X227205762Y-71886330D01*
X227205762Y-71886330D02*
X227253381Y-71910139D01*
X227253381Y-71910139D02*
X227348619Y-71910139D01*
X227348619Y-71910139D02*
X227396238Y-71886330D01*
X227396238Y-71886330D02*
X227420047Y-71862520D01*
X227420047Y-71862520D02*
X227443857Y-71814901D01*
X227443857Y-71814901D02*
X227443857Y-71695853D01*
X227443857Y-71695853D02*
X227420047Y-71648234D01*
X227420047Y-71648234D02*
X227396238Y-71624425D01*
X227396238Y-71624425D02*
X227348619Y-71600615D01*
X227348619Y-71600615D02*
X227253381Y-71600615D01*
X227253381Y-71600615D02*
X227205762Y-71624425D01*
X227205762Y-71624425D02*
X227181952Y-71648234D01*
X227181952Y-71648234D02*
X227158143Y-71695853D01*
D10*
X234803819Y-72704894D02*
X235613342Y-72704894D01*
X235613342Y-72704894D02*
X235708580Y-72657275D01*
X235708580Y-72657275D02*
X235756200Y-72609656D01*
X235756200Y-72609656D02*
X235803819Y-72514418D01*
X235803819Y-72514418D02*
X235803819Y-72323942D01*
X235803819Y-72323942D02*
X235756200Y-72228704D01*
X235756200Y-72228704D02*
X235708580Y-72181085D01*
X235708580Y-72181085D02*
X235613342Y-72133466D01*
X235613342Y-72133466D02*
X234803819Y-72133466D01*
X234899057Y-71704894D02*
X234851438Y-71657275D01*
X234851438Y-71657275D02*
X234803819Y-71562037D01*
X234803819Y-71562037D02*
X234803819Y-71323942D01*
X234803819Y-71323942D02*
X234851438Y-71228704D01*
X234851438Y-71228704D02*
X234899057Y-71181085D01*
X234899057Y-71181085D02*
X234994295Y-71133466D01*
X234994295Y-71133466D02*
X235089533Y-71133466D01*
X235089533Y-71133466D02*
X235232390Y-71181085D01*
X235232390Y-71181085D02*
X235803819Y-71752513D01*
X235803819Y-71752513D02*
X235803819Y-71133466D01*
D12*
X230452149Y-64816323D02*
X230214054Y-64982989D01*
X230452149Y-65102037D02*
X229952149Y-65102037D01*
X229952149Y-65102037D02*
X229952149Y-64911561D01*
X229952149Y-64911561D02*
X229975959Y-64863942D01*
X229975959Y-64863942D02*
X229999768Y-64840132D01*
X229999768Y-64840132D02*
X230047387Y-64816323D01*
X230047387Y-64816323D02*
X230118816Y-64816323D01*
X230118816Y-64816323D02*
X230166435Y-64840132D01*
X230166435Y-64840132D02*
X230190244Y-64863942D01*
X230190244Y-64863942D02*
X230214054Y-64911561D01*
X230214054Y-64911561D02*
X230214054Y-65102037D01*
X230166435Y-64530608D02*
X230142625Y-64578227D01*
X230142625Y-64578227D02*
X230118816Y-64602037D01*
X230118816Y-64602037D02*
X230071197Y-64625846D01*
X230071197Y-64625846D02*
X230047387Y-64625846D01*
X230047387Y-64625846D02*
X229999768Y-64602037D01*
X229999768Y-64602037D02*
X229975959Y-64578227D01*
X229975959Y-64578227D02*
X229952149Y-64530608D01*
X229952149Y-64530608D02*
X229952149Y-64435370D01*
X229952149Y-64435370D02*
X229975959Y-64387751D01*
X229975959Y-64387751D02*
X229999768Y-64363942D01*
X229999768Y-64363942D02*
X230047387Y-64340132D01*
X230047387Y-64340132D02*
X230071197Y-64340132D01*
X230071197Y-64340132D02*
X230118816Y-64363942D01*
X230118816Y-64363942D02*
X230142625Y-64387751D01*
X230142625Y-64387751D02*
X230166435Y-64435370D01*
X230166435Y-64435370D02*
X230166435Y-64530608D01*
X230166435Y-64530608D02*
X230190244Y-64578227D01*
X230190244Y-64578227D02*
X230214054Y-64602037D01*
X230214054Y-64602037D02*
X230261673Y-64625846D01*
X230261673Y-64625846D02*
X230356911Y-64625846D01*
X230356911Y-64625846D02*
X230404530Y-64602037D01*
X230404530Y-64602037D02*
X230428340Y-64578227D01*
X230428340Y-64578227D02*
X230452149Y-64530608D01*
X230452149Y-64530608D02*
X230452149Y-64435370D01*
X230452149Y-64435370D02*
X230428340Y-64387751D01*
X230428340Y-64387751D02*
X230404530Y-64363942D01*
X230404530Y-64363942D02*
X230356911Y-64340132D01*
X230356911Y-64340132D02*
X230261673Y-64340132D01*
X230261673Y-64340132D02*
X230214054Y-64363942D01*
X230214054Y-64363942D02*
X230190244Y-64387751D01*
X230190244Y-64387751D02*
X230166435Y-64435370D01*
D10*
X161291324Y-80862295D02*
X161291324Y-80062295D01*
X161291324Y-80062295D02*
X161481800Y-80062295D01*
X161481800Y-80062295D02*
X161596086Y-80100390D01*
X161596086Y-80100390D02*
X161672276Y-80176580D01*
X161672276Y-80176580D02*
X161710371Y-80252771D01*
X161710371Y-80252771D02*
X161748467Y-80405152D01*
X161748467Y-80405152D02*
X161748467Y-80519438D01*
X161748467Y-80519438D02*
X161710371Y-80671819D01*
X161710371Y-80671819D02*
X161672276Y-80748009D01*
X161672276Y-80748009D02*
X161596086Y-80824200D01*
X161596086Y-80824200D02*
X161481800Y-80862295D01*
X161481800Y-80862295D02*
X161291324Y-80862295D01*
X162129419Y-80862295D02*
X162281800Y-80862295D01*
X162281800Y-80862295D02*
X162357990Y-80824200D01*
X162357990Y-80824200D02*
X162396086Y-80786104D01*
X162396086Y-80786104D02*
X162472276Y-80671819D01*
X162472276Y-80671819D02*
X162510371Y-80519438D01*
X162510371Y-80519438D02*
X162510371Y-80214676D01*
X162510371Y-80214676D02*
X162472276Y-80138485D01*
X162472276Y-80138485D02*
X162434181Y-80100390D01*
X162434181Y-80100390D02*
X162357990Y-80062295D01*
X162357990Y-80062295D02*
X162205609Y-80062295D01*
X162205609Y-80062295D02*
X162129419Y-80100390D01*
X162129419Y-80100390D02*
X162091324Y-80138485D01*
X162091324Y-80138485D02*
X162053228Y-80214676D01*
X162053228Y-80214676D02*
X162053228Y-80405152D01*
X162053228Y-80405152D02*
X162091324Y-80481342D01*
X162091324Y-80481342D02*
X162129419Y-80519438D01*
X162129419Y-80519438D02*
X162205609Y-80557533D01*
X162205609Y-80557533D02*
X162357990Y-80557533D01*
X162357990Y-80557533D02*
X162434181Y-80519438D01*
X162434181Y-80519438D02*
X162472276Y-80481342D01*
X162472276Y-80481342D02*
X162510371Y-80405152D01*
X143924305Y-10051799D02*
X143924305Y-9051799D01*
X143924305Y-9527989D02*
X144495733Y-9527989D01*
X144495733Y-10051799D02*
X144495733Y-9051799D01*
X145495733Y-10051799D02*
X144924305Y-10051799D01*
X145210019Y-10051799D02*
X145210019Y-9051799D01*
X145210019Y-9051799D02*
X145114781Y-9194656D01*
X145114781Y-9194656D02*
X145019543Y-9289894D01*
X145019543Y-9289894D02*
X144924305Y-9337513D01*
X146114781Y-9051799D02*
X146210019Y-9051799D01*
X146210019Y-9051799D02*
X146305257Y-9099418D01*
X146305257Y-9099418D02*
X146352876Y-9147037D01*
X146352876Y-9147037D02*
X146400495Y-9242275D01*
X146400495Y-9242275D02*
X146448114Y-9432751D01*
X146448114Y-9432751D02*
X146448114Y-9670846D01*
X146448114Y-9670846D02*
X146400495Y-9861322D01*
X146400495Y-9861322D02*
X146352876Y-9956560D01*
X146352876Y-9956560D02*
X146305257Y-10004180D01*
X146305257Y-10004180D02*
X146210019Y-10051799D01*
X146210019Y-10051799D02*
X146114781Y-10051799D01*
X146114781Y-10051799D02*
X146019543Y-10004180D01*
X146019543Y-10004180D02*
X145971924Y-9956560D01*
X145971924Y-9956560D02*
X145924305Y-9861322D01*
X145924305Y-9861322D02*
X145876686Y-9670846D01*
X145876686Y-9670846D02*
X145876686Y-9432751D01*
X145876686Y-9432751D02*
X145924305Y-9242275D01*
X145924305Y-9242275D02*
X145971924Y-9147037D01*
X145971924Y-9147037D02*
X146019543Y-9099418D01*
X146019543Y-9099418D02*
X146114781Y-9051799D01*
D12*
X177012549Y-71334418D02*
X176774454Y-71501084D01*
X177012549Y-71620132D02*
X176512549Y-71620132D01*
X176512549Y-71620132D02*
X176512549Y-71429656D01*
X176512549Y-71429656D02*
X176536359Y-71382037D01*
X176536359Y-71382037D02*
X176560168Y-71358227D01*
X176560168Y-71358227D02*
X176607787Y-71334418D01*
X176607787Y-71334418D02*
X176679216Y-71334418D01*
X176679216Y-71334418D02*
X176726835Y-71358227D01*
X176726835Y-71358227D02*
X176750644Y-71382037D01*
X176750644Y-71382037D02*
X176774454Y-71429656D01*
X176774454Y-71429656D02*
X176774454Y-71620132D01*
X176512549Y-71167751D02*
X176512549Y-70858227D01*
X176512549Y-70858227D02*
X176703025Y-71024894D01*
X176703025Y-71024894D02*
X176703025Y-70953465D01*
X176703025Y-70953465D02*
X176726835Y-70905846D01*
X176726835Y-70905846D02*
X176750644Y-70882037D01*
X176750644Y-70882037D02*
X176798263Y-70858227D01*
X176798263Y-70858227D02*
X176917311Y-70858227D01*
X176917311Y-70858227D02*
X176964930Y-70882037D01*
X176964930Y-70882037D02*
X176988740Y-70905846D01*
X176988740Y-70905846D02*
X177012549Y-70953465D01*
X177012549Y-70953465D02*
X177012549Y-71096322D01*
X177012549Y-71096322D02*
X176988740Y-71143941D01*
X176988740Y-71143941D02*
X176964930Y-71167751D01*
X177012549Y-70382037D02*
X177012549Y-70667751D01*
X177012549Y-70524894D02*
X176512549Y-70524894D01*
X176512549Y-70524894D02*
X176583978Y-70572513D01*
X176583978Y-70572513D02*
X176631597Y-70620132D01*
X176631597Y-70620132D02*
X176655406Y-70667751D01*
X203939730Y-70577918D02*
X203963540Y-70601727D01*
X203963540Y-70601727D02*
X203987349Y-70673156D01*
X203987349Y-70673156D02*
X203987349Y-70720775D01*
X203987349Y-70720775D02*
X203963540Y-70792203D01*
X203963540Y-70792203D02*
X203915920Y-70839822D01*
X203915920Y-70839822D02*
X203868301Y-70863632D01*
X203868301Y-70863632D02*
X203773063Y-70887441D01*
X203773063Y-70887441D02*
X203701635Y-70887441D01*
X203701635Y-70887441D02*
X203606397Y-70863632D01*
X203606397Y-70863632D02*
X203558778Y-70839822D01*
X203558778Y-70839822D02*
X203511159Y-70792203D01*
X203511159Y-70792203D02*
X203487349Y-70720775D01*
X203487349Y-70720775D02*
X203487349Y-70673156D01*
X203487349Y-70673156D02*
X203511159Y-70601727D01*
X203511159Y-70601727D02*
X203534968Y-70577918D01*
X203534968Y-70387441D02*
X203511159Y-70363632D01*
X203511159Y-70363632D02*
X203487349Y-70316013D01*
X203487349Y-70316013D02*
X203487349Y-70196965D01*
X203487349Y-70196965D02*
X203511159Y-70149346D01*
X203511159Y-70149346D02*
X203534968Y-70125537D01*
X203534968Y-70125537D02*
X203582587Y-70101727D01*
X203582587Y-70101727D02*
X203630206Y-70101727D01*
X203630206Y-70101727D02*
X203701635Y-70125537D01*
X203701635Y-70125537D02*
X203987349Y-70411251D01*
X203987349Y-70411251D02*
X203987349Y-70101727D01*
X203987349Y-69625537D02*
X203987349Y-69911251D01*
X203987349Y-69768394D02*
X203487349Y-69768394D01*
X203487349Y-69768394D02*
X203558778Y-69816013D01*
X203558778Y-69816013D02*
X203606397Y-69863632D01*
X203606397Y-69863632D02*
X203630206Y-69911251D01*
X200060571Y-65763139D02*
X199893905Y-65525044D01*
X199774857Y-65763139D02*
X199774857Y-65263139D01*
X199774857Y-65263139D02*
X199965333Y-65263139D01*
X199965333Y-65263139D02*
X200012952Y-65286949D01*
X200012952Y-65286949D02*
X200036762Y-65310758D01*
X200036762Y-65310758D02*
X200060571Y-65358377D01*
X200060571Y-65358377D02*
X200060571Y-65429806D01*
X200060571Y-65429806D02*
X200036762Y-65477425D01*
X200036762Y-65477425D02*
X200012952Y-65501234D01*
X200012952Y-65501234D02*
X199965333Y-65525044D01*
X199965333Y-65525044D02*
X199774857Y-65525044D01*
X200251048Y-65310758D02*
X200274857Y-65286949D01*
X200274857Y-65286949D02*
X200322476Y-65263139D01*
X200322476Y-65263139D02*
X200441524Y-65263139D01*
X200441524Y-65263139D02*
X200489143Y-65286949D01*
X200489143Y-65286949D02*
X200512952Y-65310758D01*
X200512952Y-65310758D02*
X200536762Y-65358377D01*
X200536762Y-65358377D02*
X200536762Y-65405996D01*
X200536762Y-65405996D02*
X200512952Y-65477425D01*
X200512952Y-65477425D02*
X200227238Y-65763139D01*
X200227238Y-65763139D02*
X200536762Y-65763139D01*
X200822476Y-65477425D02*
X200774857Y-65453615D01*
X200774857Y-65453615D02*
X200751047Y-65429806D01*
X200751047Y-65429806D02*
X200727238Y-65382187D01*
X200727238Y-65382187D02*
X200727238Y-65358377D01*
X200727238Y-65358377D02*
X200751047Y-65310758D01*
X200751047Y-65310758D02*
X200774857Y-65286949D01*
X200774857Y-65286949D02*
X200822476Y-65263139D01*
X200822476Y-65263139D02*
X200917714Y-65263139D01*
X200917714Y-65263139D02*
X200965333Y-65286949D01*
X200965333Y-65286949D02*
X200989142Y-65310758D01*
X200989142Y-65310758D02*
X201012952Y-65358377D01*
X201012952Y-65358377D02*
X201012952Y-65382187D01*
X201012952Y-65382187D02*
X200989142Y-65429806D01*
X200989142Y-65429806D02*
X200965333Y-65453615D01*
X200965333Y-65453615D02*
X200917714Y-65477425D01*
X200917714Y-65477425D02*
X200822476Y-65477425D01*
X200822476Y-65477425D02*
X200774857Y-65501234D01*
X200774857Y-65501234D02*
X200751047Y-65525044D01*
X200751047Y-65525044D02*
X200727238Y-65572663D01*
X200727238Y-65572663D02*
X200727238Y-65667901D01*
X200727238Y-65667901D02*
X200751047Y-65715520D01*
X200751047Y-65715520D02*
X200774857Y-65739330D01*
X200774857Y-65739330D02*
X200822476Y-65763139D01*
X200822476Y-65763139D02*
X200917714Y-65763139D01*
X200917714Y-65763139D02*
X200965333Y-65739330D01*
X200965333Y-65739330D02*
X200989142Y-65715520D01*
X200989142Y-65715520D02*
X201012952Y-65667901D01*
X201012952Y-65667901D02*
X201012952Y-65572663D01*
X201012952Y-65572663D02*
X200989142Y-65525044D01*
X200989142Y-65525044D02*
X200965333Y-65501234D01*
X200965333Y-65501234D02*
X200917714Y-65477425D01*
D10*
X166225505Y-84154819D02*
X166225505Y-83154819D01*
X166225505Y-83631009D02*
X166796933Y-83631009D01*
X166796933Y-84154819D02*
X166796933Y-83154819D01*
X167796933Y-84154819D02*
X167225505Y-84154819D01*
X167511219Y-84154819D02*
X167511219Y-83154819D01*
X167511219Y-83154819D02*
X167415981Y-83297676D01*
X167415981Y-83297676D02*
X167320743Y-83392914D01*
X167320743Y-83392914D02*
X167225505Y-83440533D01*
X168130267Y-83154819D02*
X168749314Y-83154819D01*
X168749314Y-83154819D02*
X168415981Y-83535771D01*
X168415981Y-83535771D02*
X168558838Y-83535771D01*
X168558838Y-83535771D02*
X168654076Y-83583390D01*
X168654076Y-83583390D02*
X168701695Y-83631009D01*
X168701695Y-83631009D02*
X168749314Y-83726247D01*
X168749314Y-83726247D02*
X168749314Y-83964342D01*
X168749314Y-83964342D02*
X168701695Y-84059580D01*
X168701695Y-84059580D02*
X168654076Y-84107200D01*
X168654076Y-84107200D02*
X168558838Y-84154819D01*
X168558838Y-84154819D02*
X168273124Y-84154819D01*
X168273124Y-84154819D02*
X168177886Y-84107200D01*
X168177886Y-84107200D02*
X168130267Y-84059580D01*
D12*
X199908171Y-63556520D02*
X199884362Y-63580330D01*
X199884362Y-63580330D02*
X199812933Y-63604139D01*
X199812933Y-63604139D02*
X199765314Y-63604139D01*
X199765314Y-63604139D02*
X199693886Y-63580330D01*
X199693886Y-63580330D02*
X199646267Y-63532710D01*
X199646267Y-63532710D02*
X199622457Y-63485091D01*
X199622457Y-63485091D02*
X199598648Y-63389853D01*
X199598648Y-63389853D02*
X199598648Y-63318425D01*
X199598648Y-63318425D02*
X199622457Y-63223187D01*
X199622457Y-63223187D02*
X199646267Y-63175568D01*
X199646267Y-63175568D02*
X199693886Y-63127949D01*
X199693886Y-63127949D02*
X199765314Y-63104139D01*
X199765314Y-63104139D02*
X199812933Y-63104139D01*
X199812933Y-63104139D02*
X199884362Y-63127949D01*
X199884362Y-63127949D02*
X199908171Y-63151758D01*
X200384362Y-63604139D02*
X200098648Y-63604139D01*
X200241505Y-63604139D02*
X200241505Y-63104139D01*
X200241505Y-63104139D02*
X200193886Y-63175568D01*
X200193886Y-63175568D02*
X200146267Y-63223187D01*
X200146267Y-63223187D02*
X200098648Y-63246996D01*
X200812933Y-63104139D02*
X200717695Y-63104139D01*
X200717695Y-63104139D02*
X200670076Y-63127949D01*
X200670076Y-63127949D02*
X200646266Y-63151758D01*
X200646266Y-63151758D02*
X200598647Y-63223187D01*
X200598647Y-63223187D02*
X200574838Y-63318425D01*
X200574838Y-63318425D02*
X200574838Y-63508901D01*
X200574838Y-63508901D02*
X200598647Y-63556520D01*
X200598647Y-63556520D02*
X200622457Y-63580330D01*
X200622457Y-63580330D02*
X200670076Y-63604139D01*
X200670076Y-63604139D02*
X200765314Y-63604139D01*
X200765314Y-63604139D02*
X200812933Y-63580330D01*
X200812933Y-63580330D02*
X200836742Y-63556520D01*
X200836742Y-63556520D02*
X200860552Y-63508901D01*
X200860552Y-63508901D02*
X200860552Y-63389853D01*
X200860552Y-63389853D02*
X200836742Y-63342234D01*
X200836742Y-63342234D02*
X200812933Y-63318425D01*
X200812933Y-63318425D02*
X200765314Y-63294615D01*
X200765314Y-63294615D02*
X200670076Y-63294615D01*
X200670076Y-63294615D02*
X200622457Y-63318425D01*
X200622457Y-63318425D02*
X200598647Y-63342234D01*
X200598647Y-63342234D02*
X200574838Y-63389853D01*
D10*
X127910371Y-80862295D02*
X127910371Y-80062295D01*
X127910371Y-80062295D02*
X128100847Y-80062295D01*
X128100847Y-80062295D02*
X128215133Y-80100390D01*
X128215133Y-80100390D02*
X128291323Y-80176580D01*
X128291323Y-80176580D02*
X128329418Y-80252771D01*
X128329418Y-80252771D02*
X128367514Y-80405152D01*
X128367514Y-80405152D02*
X128367514Y-80519438D01*
X128367514Y-80519438D02*
X128329418Y-80671819D01*
X128329418Y-80671819D02*
X128291323Y-80748009D01*
X128291323Y-80748009D02*
X128215133Y-80824200D01*
X128215133Y-80824200D02*
X128100847Y-80862295D01*
X128100847Y-80862295D02*
X127910371Y-80862295D01*
X129129418Y-80862295D02*
X128672275Y-80862295D01*
X128900847Y-80862295D02*
X128900847Y-80062295D01*
X128900847Y-80062295D02*
X128824656Y-80176580D01*
X128824656Y-80176580D02*
X128748466Y-80252771D01*
X128748466Y-80252771D02*
X128672275Y-80290866D01*
X129396085Y-80062295D02*
X129891323Y-80062295D01*
X129891323Y-80062295D02*
X129624657Y-80367057D01*
X129624657Y-80367057D02*
X129738942Y-80367057D01*
X129738942Y-80367057D02*
X129815133Y-80405152D01*
X129815133Y-80405152D02*
X129853228Y-80443247D01*
X129853228Y-80443247D02*
X129891323Y-80519438D01*
X129891323Y-80519438D02*
X129891323Y-80709914D01*
X129891323Y-80709914D02*
X129853228Y-80786104D01*
X129853228Y-80786104D02*
X129815133Y-80824200D01*
X129815133Y-80824200D02*
X129738942Y-80862295D01*
X129738942Y-80862295D02*
X129510371Y-80862295D01*
X129510371Y-80862295D02*
X129434180Y-80824200D01*
X129434180Y-80824200D02*
X129396085Y-80786104D01*
D12*
X204049149Y-66702618D02*
X203811054Y-66869284D01*
X204049149Y-66988332D02*
X203549149Y-66988332D01*
X203549149Y-66988332D02*
X203549149Y-66797856D01*
X203549149Y-66797856D02*
X203572959Y-66750237D01*
X203572959Y-66750237D02*
X203596768Y-66726427D01*
X203596768Y-66726427D02*
X203644387Y-66702618D01*
X203644387Y-66702618D02*
X203715816Y-66702618D01*
X203715816Y-66702618D02*
X203763435Y-66726427D01*
X203763435Y-66726427D02*
X203787244Y-66750237D01*
X203787244Y-66750237D02*
X203811054Y-66797856D01*
X203811054Y-66797856D02*
X203811054Y-66988332D01*
X203596768Y-66512141D02*
X203572959Y-66488332D01*
X203572959Y-66488332D02*
X203549149Y-66440713D01*
X203549149Y-66440713D02*
X203549149Y-66321665D01*
X203549149Y-66321665D02*
X203572959Y-66274046D01*
X203572959Y-66274046D02*
X203596768Y-66250237D01*
X203596768Y-66250237D02*
X203644387Y-66226427D01*
X203644387Y-66226427D02*
X203692006Y-66226427D01*
X203692006Y-66226427D02*
X203763435Y-66250237D01*
X203763435Y-66250237D02*
X204049149Y-66535951D01*
X204049149Y-66535951D02*
X204049149Y-66226427D01*
X203549149Y-66059761D02*
X203549149Y-65726428D01*
X203549149Y-65726428D02*
X204049149Y-65940713D01*
D10*
X183291324Y-80730885D02*
X183291324Y-79930885D01*
X183291324Y-79930885D02*
X183481800Y-79930885D01*
X183481800Y-79930885D02*
X183596086Y-79968980D01*
X183596086Y-79968980D02*
X183672276Y-80045170D01*
X183672276Y-80045170D02*
X183710371Y-80121361D01*
X183710371Y-80121361D02*
X183748467Y-80273742D01*
X183748467Y-80273742D02*
X183748467Y-80388028D01*
X183748467Y-80388028D02*
X183710371Y-80540409D01*
X183710371Y-80540409D02*
X183672276Y-80616599D01*
X183672276Y-80616599D02*
X183596086Y-80692790D01*
X183596086Y-80692790D02*
X183481800Y-80730885D01*
X183481800Y-80730885D02*
X183291324Y-80730885D01*
X184472276Y-79930885D02*
X184091324Y-79930885D01*
X184091324Y-79930885D02*
X184053228Y-80311837D01*
X184053228Y-80311837D02*
X184091324Y-80273742D01*
X184091324Y-80273742D02*
X184167514Y-80235647D01*
X184167514Y-80235647D02*
X184357990Y-80235647D01*
X184357990Y-80235647D02*
X184434181Y-80273742D01*
X184434181Y-80273742D02*
X184472276Y-80311837D01*
X184472276Y-80311837D02*
X184510371Y-80388028D01*
X184510371Y-80388028D02*
X184510371Y-80578504D01*
X184510371Y-80578504D02*
X184472276Y-80654694D01*
X184472276Y-80654694D02*
X184434181Y-80692790D01*
X184434181Y-80692790D02*
X184357990Y-80730885D01*
X184357990Y-80730885D02*
X184167514Y-80730885D01*
X184167514Y-80730885D02*
X184091324Y-80692790D01*
X184091324Y-80692790D02*
X184053228Y-80654694D01*
D12*
X207024071Y-74681720D02*
X207000262Y-74705530D01*
X207000262Y-74705530D02*
X206928833Y-74729339D01*
X206928833Y-74729339D02*
X206881214Y-74729339D01*
X206881214Y-74729339D02*
X206809786Y-74705530D01*
X206809786Y-74705530D02*
X206762167Y-74657910D01*
X206762167Y-74657910D02*
X206738357Y-74610291D01*
X206738357Y-74610291D02*
X206714548Y-74515053D01*
X206714548Y-74515053D02*
X206714548Y-74443625D01*
X206714548Y-74443625D02*
X206738357Y-74348387D01*
X206738357Y-74348387D02*
X206762167Y-74300768D01*
X206762167Y-74300768D02*
X206809786Y-74253149D01*
X206809786Y-74253149D02*
X206881214Y-74229339D01*
X206881214Y-74229339D02*
X206928833Y-74229339D01*
X206928833Y-74229339D02*
X207000262Y-74253149D01*
X207000262Y-74253149D02*
X207024071Y-74276958D01*
X207214548Y-74276958D02*
X207238357Y-74253149D01*
X207238357Y-74253149D02*
X207285976Y-74229339D01*
X207285976Y-74229339D02*
X207405024Y-74229339D01*
X207405024Y-74229339D02*
X207452643Y-74253149D01*
X207452643Y-74253149D02*
X207476452Y-74276958D01*
X207476452Y-74276958D02*
X207500262Y-74324577D01*
X207500262Y-74324577D02*
X207500262Y-74372196D01*
X207500262Y-74372196D02*
X207476452Y-74443625D01*
X207476452Y-74443625D02*
X207190738Y-74729339D01*
X207190738Y-74729339D02*
X207500262Y-74729339D01*
X207690738Y-74276958D02*
X207714547Y-74253149D01*
X207714547Y-74253149D02*
X207762166Y-74229339D01*
X207762166Y-74229339D02*
X207881214Y-74229339D01*
X207881214Y-74229339D02*
X207928833Y-74253149D01*
X207928833Y-74253149D02*
X207952642Y-74276958D01*
X207952642Y-74276958D02*
X207976452Y-74324577D01*
X207976452Y-74324577D02*
X207976452Y-74372196D01*
X207976452Y-74372196D02*
X207952642Y-74443625D01*
X207952642Y-74443625D02*
X207666928Y-74729339D01*
X207666928Y-74729339D02*
X207976452Y-74729339D01*
D10*
X235857009Y-61210265D02*
X235904628Y-61067408D01*
X235904628Y-61067408D02*
X235952247Y-61019789D01*
X235952247Y-61019789D02*
X236047485Y-60972170D01*
X236047485Y-60972170D02*
X236190342Y-60972170D01*
X236190342Y-60972170D02*
X236285580Y-61019789D01*
X236285580Y-61019789D02*
X236333200Y-61067408D01*
X236333200Y-61067408D02*
X236380819Y-61162646D01*
X236380819Y-61162646D02*
X236380819Y-61543598D01*
X236380819Y-61543598D02*
X235380819Y-61543598D01*
X235380819Y-61543598D02*
X235380819Y-61210265D01*
X235380819Y-61210265D02*
X235428438Y-61115027D01*
X235428438Y-61115027D02*
X235476057Y-61067408D01*
X235476057Y-61067408D02*
X235571295Y-61019789D01*
X235571295Y-61019789D02*
X235666533Y-61019789D01*
X235666533Y-61019789D02*
X235761771Y-61067408D01*
X235761771Y-61067408D02*
X235809390Y-61115027D01*
X235809390Y-61115027D02*
X235857009Y-61210265D01*
X235857009Y-61210265D02*
X235857009Y-61543598D01*
X236095104Y-60591217D02*
X236095104Y-60115027D01*
X236380819Y-60686455D02*
X235380819Y-60353122D01*
X235380819Y-60353122D02*
X236380819Y-60019789D01*
X235380819Y-59829312D02*
X235380819Y-59257884D01*
X236380819Y-59543598D02*
X235380819Y-59543598D01*
X236380819Y-58400741D02*
X236380819Y-58972169D01*
X236380819Y-58686455D02*
X235380819Y-58686455D01*
X235380819Y-58686455D02*
X235523676Y-58781693D01*
X235523676Y-58781693D02*
X235618914Y-58876931D01*
X235618914Y-58876931D02*
X235666533Y-58972169D01*
D12*
X204130530Y-59174908D02*
X204154340Y-59198717D01*
X204154340Y-59198717D02*
X204178149Y-59270146D01*
X204178149Y-59270146D02*
X204178149Y-59317765D01*
X204178149Y-59317765D02*
X204154340Y-59389193D01*
X204154340Y-59389193D02*
X204106720Y-59436812D01*
X204106720Y-59436812D02*
X204059101Y-59460622D01*
X204059101Y-59460622D02*
X203963863Y-59484431D01*
X203963863Y-59484431D02*
X203892435Y-59484431D01*
X203892435Y-59484431D02*
X203797197Y-59460622D01*
X203797197Y-59460622D02*
X203749578Y-59436812D01*
X203749578Y-59436812D02*
X203701959Y-59389193D01*
X203701959Y-59389193D02*
X203678149Y-59317765D01*
X203678149Y-59317765D02*
X203678149Y-59270146D01*
X203678149Y-59270146D02*
X203701959Y-59198717D01*
X203701959Y-59198717D02*
X203725768Y-59174908D01*
X204178149Y-58698717D02*
X204178149Y-58984431D01*
X204178149Y-58841574D02*
X203678149Y-58841574D01*
X203678149Y-58841574D02*
X203749578Y-58889193D01*
X203749578Y-58889193D02*
X203797197Y-58936812D01*
X203797197Y-58936812D02*
X203821006Y-58984431D01*
X203844816Y-58270146D02*
X204178149Y-58270146D01*
X203654340Y-58389194D02*
X204011482Y-58508241D01*
X204011482Y-58508241D02*
X204011482Y-58198718D01*
D10*
X122538095Y-84154819D02*
X122538095Y-83154819D01*
X122538095Y-83631009D02*
X123109523Y-83631009D01*
X123109523Y-84154819D02*
X123109523Y-83154819D01*
X123538095Y-83250057D02*
X123585714Y-83202438D01*
X123585714Y-83202438D02*
X123680952Y-83154819D01*
X123680952Y-83154819D02*
X123919047Y-83154819D01*
X123919047Y-83154819D02*
X124014285Y-83202438D01*
X124014285Y-83202438D02*
X124061904Y-83250057D01*
X124061904Y-83250057D02*
X124109523Y-83345295D01*
X124109523Y-83345295D02*
X124109523Y-83440533D01*
X124109523Y-83440533D02*
X124061904Y-83583390D01*
X124061904Y-83583390D02*
X123490476Y-84154819D01*
X123490476Y-84154819D02*
X124109523Y-84154819D01*
D14*
X200849727Y-69130027D02*
X201173537Y-69130027D01*
X201173537Y-69130027D02*
X201211632Y-69110980D01*
X201211632Y-69110980D02*
X201230680Y-69091932D01*
X201230680Y-69091932D02*
X201249727Y-69053837D01*
X201249727Y-69053837D02*
X201249727Y-68977646D01*
X201249727Y-68977646D02*
X201230680Y-68939551D01*
X201230680Y-68939551D02*
X201211632Y-68920504D01*
X201211632Y-68920504D02*
X201173537Y-68901456D01*
X201173537Y-68901456D02*
X200849727Y-68901456D01*
X201249727Y-68501456D02*
X201249727Y-68730027D01*
X201249727Y-68615741D02*
X200849727Y-68615741D01*
X200849727Y-68615741D02*
X200906870Y-68653837D01*
X200906870Y-68653837D02*
X200944965Y-68691932D01*
X200944965Y-68691932D02*
X200964013Y-68730027D01*
X201249727Y-68120504D02*
X201249727Y-68349075D01*
X201249727Y-68234789D02*
X200849727Y-68234789D01*
X200849727Y-68234789D02*
X200906870Y-68272885D01*
X200906870Y-68272885D02*
X200944965Y-68310980D01*
X200944965Y-68310980D02*
X200964013Y-68349075D01*
D12*
X219502149Y-74366323D02*
X219264054Y-74532989D01*
X219502149Y-74652037D02*
X219002149Y-74652037D01*
X219002149Y-74652037D02*
X219002149Y-74461561D01*
X219002149Y-74461561D02*
X219025959Y-74413942D01*
X219025959Y-74413942D02*
X219049768Y-74390132D01*
X219049768Y-74390132D02*
X219097387Y-74366323D01*
X219097387Y-74366323D02*
X219168816Y-74366323D01*
X219168816Y-74366323D02*
X219216435Y-74390132D01*
X219216435Y-74390132D02*
X219240244Y-74413942D01*
X219240244Y-74413942D02*
X219264054Y-74461561D01*
X219264054Y-74461561D02*
X219264054Y-74652037D01*
X219049768Y-74175846D02*
X219025959Y-74152037D01*
X219025959Y-74152037D02*
X219002149Y-74104418D01*
X219002149Y-74104418D02*
X219002149Y-73985370D01*
X219002149Y-73985370D02*
X219025959Y-73937751D01*
X219025959Y-73937751D02*
X219049768Y-73913942D01*
X219049768Y-73913942D02*
X219097387Y-73890132D01*
X219097387Y-73890132D02*
X219145006Y-73890132D01*
X219145006Y-73890132D02*
X219216435Y-73913942D01*
X219216435Y-73913942D02*
X219502149Y-74199656D01*
X219502149Y-74199656D02*
X219502149Y-73890132D01*
D10*
X177369695Y-10087809D02*
X177369695Y-9087809D01*
X177369695Y-9563999D02*
X177941123Y-9563999D01*
X177941123Y-10087809D02*
X177941123Y-9087809D01*
X178560171Y-9516380D02*
X178464933Y-9468761D01*
X178464933Y-9468761D02*
X178417314Y-9421142D01*
X178417314Y-9421142D02*
X178369695Y-9325904D01*
X178369695Y-9325904D02*
X178369695Y-9278285D01*
X178369695Y-9278285D02*
X178417314Y-9183047D01*
X178417314Y-9183047D02*
X178464933Y-9135428D01*
X178464933Y-9135428D02*
X178560171Y-9087809D01*
X178560171Y-9087809D02*
X178750647Y-9087809D01*
X178750647Y-9087809D02*
X178845885Y-9135428D01*
X178845885Y-9135428D02*
X178893504Y-9183047D01*
X178893504Y-9183047D02*
X178941123Y-9278285D01*
X178941123Y-9278285D02*
X178941123Y-9325904D01*
X178941123Y-9325904D02*
X178893504Y-9421142D01*
X178893504Y-9421142D02*
X178845885Y-9468761D01*
X178845885Y-9468761D02*
X178750647Y-9516380D01*
X178750647Y-9516380D02*
X178560171Y-9516380D01*
X178560171Y-9516380D02*
X178464933Y-9563999D01*
X178464933Y-9563999D02*
X178417314Y-9611618D01*
X178417314Y-9611618D02*
X178369695Y-9706856D01*
X178369695Y-9706856D02*
X178369695Y-9897332D01*
X178369695Y-9897332D02*
X178417314Y-9992570D01*
X178417314Y-9992570D02*
X178464933Y-10040190D01*
X178464933Y-10040190D02*
X178560171Y-10087809D01*
X178560171Y-10087809D02*
X178750647Y-10087809D01*
X178750647Y-10087809D02*
X178845885Y-10040190D01*
X178845885Y-10040190D02*
X178893504Y-9992570D01*
X178893504Y-9992570D02*
X178941123Y-9897332D01*
X178941123Y-9897332D02*
X178941123Y-9706856D01*
X178941123Y-9706856D02*
X178893504Y-9611618D01*
X178893504Y-9611618D02*
X178845885Y-9563999D01*
X178845885Y-9563999D02*
X178750647Y-9516380D01*
D12*
X230428149Y-56887408D02*
X230190054Y-57054074D01*
X230428149Y-57173122D02*
X229928149Y-57173122D01*
X229928149Y-57173122D02*
X229928149Y-56982646D01*
X229928149Y-56982646D02*
X229951959Y-56935027D01*
X229951959Y-56935027D02*
X229975768Y-56911217D01*
X229975768Y-56911217D02*
X230023387Y-56887408D01*
X230023387Y-56887408D02*
X230094816Y-56887408D01*
X230094816Y-56887408D02*
X230142435Y-56911217D01*
X230142435Y-56911217D02*
X230166244Y-56935027D01*
X230166244Y-56935027D02*
X230190054Y-56982646D01*
X230190054Y-56982646D02*
X230190054Y-57173122D01*
X230428149Y-56411217D02*
X230428149Y-56696931D01*
X230428149Y-56554074D02*
X229928149Y-56554074D01*
X229928149Y-56554074D02*
X229999578Y-56601693D01*
X229999578Y-56601693D02*
X230047197Y-56649312D01*
X230047197Y-56649312D02*
X230071006Y-56696931D01*
X229928149Y-55958837D02*
X229928149Y-56196932D01*
X229928149Y-56196932D02*
X230166244Y-56220741D01*
X230166244Y-56220741D02*
X230142435Y-56196932D01*
X230142435Y-56196932D02*
X230118625Y-56149313D01*
X230118625Y-56149313D02*
X230118625Y-56030265D01*
X230118625Y-56030265D02*
X230142435Y-55982646D01*
X230142435Y-55982646D02*
X230166244Y-55958837D01*
X230166244Y-55958837D02*
X230213863Y-55935027D01*
X230213863Y-55935027D02*
X230332911Y-55935027D01*
X230332911Y-55935027D02*
X230380530Y-55958837D01*
X230380530Y-55958837D02*
X230404340Y-55982646D01*
X230404340Y-55982646D02*
X230428149Y-56030265D01*
X230428149Y-56030265D02*
X230428149Y-56149313D01*
X230428149Y-56149313D02*
X230404340Y-56196932D01*
X230404340Y-56196932D02*
X230380530Y-56220741D01*
X217216071Y-79312520D02*
X217192262Y-79336330D01*
X217192262Y-79336330D02*
X217120833Y-79360139D01*
X217120833Y-79360139D02*
X217073214Y-79360139D01*
X217073214Y-79360139D02*
X217001786Y-79336330D01*
X217001786Y-79336330D02*
X216954167Y-79288710D01*
X216954167Y-79288710D02*
X216930357Y-79241091D01*
X216930357Y-79241091D02*
X216906548Y-79145853D01*
X216906548Y-79145853D02*
X216906548Y-79074425D01*
X216906548Y-79074425D02*
X216930357Y-78979187D01*
X216930357Y-78979187D02*
X216954167Y-78931568D01*
X216954167Y-78931568D02*
X217001786Y-78883949D01*
X217001786Y-78883949D02*
X217073214Y-78860139D01*
X217073214Y-78860139D02*
X217120833Y-78860139D01*
X217120833Y-78860139D02*
X217192262Y-78883949D01*
X217192262Y-78883949D02*
X217216071Y-78907758D01*
X217692262Y-79360139D02*
X217406548Y-79360139D01*
X217549405Y-79360139D02*
X217549405Y-78860139D01*
X217549405Y-78860139D02*
X217501786Y-78931568D01*
X217501786Y-78931568D02*
X217454167Y-78979187D01*
X217454167Y-78979187D02*
X217406548Y-79002996D01*
X217858928Y-78860139D02*
X218168452Y-78860139D01*
X218168452Y-78860139D02*
X218001785Y-79050615D01*
X218001785Y-79050615D02*
X218073214Y-79050615D01*
X218073214Y-79050615D02*
X218120833Y-79074425D01*
X218120833Y-79074425D02*
X218144642Y-79098234D01*
X218144642Y-79098234D02*
X218168452Y-79145853D01*
X218168452Y-79145853D02*
X218168452Y-79264901D01*
X218168452Y-79264901D02*
X218144642Y-79312520D01*
X218144642Y-79312520D02*
X218120833Y-79336330D01*
X218120833Y-79336330D02*
X218073214Y-79360139D01*
X218073214Y-79360139D02*
X217930357Y-79360139D01*
X217930357Y-79360139D02*
X217882738Y-79336330D01*
X217882738Y-79336330D02*
X217858928Y-79312520D01*
X218753149Y-82149313D02*
X218515054Y-82315979D01*
X218753149Y-82435027D02*
X218253149Y-82435027D01*
X218253149Y-82435027D02*
X218253149Y-82244551D01*
X218253149Y-82244551D02*
X218276959Y-82196932D01*
X218276959Y-82196932D02*
X218300768Y-82173122D01*
X218300768Y-82173122D02*
X218348387Y-82149313D01*
X218348387Y-82149313D02*
X218419816Y-82149313D01*
X218419816Y-82149313D02*
X218467435Y-82173122D01*
X218467435Y-82173122D02*
X218491244Y-82196932D01*
X218491244Y-82196932D02*
X218515054Y-82244551D01*
X218515054Y-82244551D02*
X218515054Y-82435027D01*
X218253149Y-81982646D02*
X218253149Y-81673122D01*
X218253149Y-81673122D02*
X218443625Y-81839789D01*
X218443625Y-81839789D02*
X218443625Y-81768360D01*
X218443625Y-81768360D02*
X218467435Y-81720741D01*
X218467435Y-81720741D02*
X218491244Y-81696932D01*
X218491244Y-81696932D02*
X218538863Y-81673122D01*
X218538863Y-81673122D02*
X218657911Y-81673122D01*
X218657911Y-81673122D02*
X218705530Y-81696932D01*
X218705530Y-81696932D02*
X218729340Y-81720741D01*
X218729340Y-81720741D02*
X218753149Y-81768360D01*
X218753149Y-81768360D02*
X218753149Y-81911217D01*
X218753149Y-81911217D02*
X218729340Y-81958836D01*
X218729340Y-81958836D02*
X218705530Y-81982646D01*
D10*
X210059305Y-61871809D02*
X210059305Y-60871809D01*
X210059305Y-60871809D02*
X210297400Y-60871809D01*
X210297400Y-60871809D02*
X210440257Y-60919428D01*
X210440257Y-60919428D02*
X210535495Y-61014666D01*
X210535495Y-61014666D02*
X210583114Y-61109904D01*
X210583114Y-61109904D02*
X210630733Y-61300380D01*
X210630733Y-61300380D02*
X210630733Y-61443237D01*
X210630733Y-61443237D02*
X210583114Y-61633713D01*
X210583114Y-61633713D02*
X210535495Y-61728951D01*
X210535495Y-61728951D02*
X210440257Y-61824190D01*
X210440257Y-61824190D02*
X210297400Y-61871809D01*
X210297400Y-61871809D02*
X210059305Y-61871809D01*
X211202162Y-61300380D02*
X211106924Y-61252761D01*
X211106924Y-61252761D02*
X211059305Y-61205142D01*
X211059305Y-61205142D02*
X211011686Y-61109904D01*
X211011686Y-61109904D02*
X211011686Y-61062285D01*
X211011686Y-61062285D02*
X211059305Y-60967047D01*
X211059305Y-60967047D02*
X211106924Y-60919428D01*
X211106924Y-60919428D02*
X211202162Y-60871809D01*
X211202162Y-60871809D02*
X211392638Y-60871809D01*
X211392638Y-60871809D02*
X211487876Y-60919428D01*
X211487876Y-60919428D02*
X211535495Y-60967047D01*
X211535495Y-60967047D02*
X211583114Y-61062285D01*
X211583114Y-61062285D02*
X211583114Y-61109904D01*
X211583114Y-61109904D02*
X211535495Y-61205142D01*
X211535495Y-61205142D02*
X211487876Y-61252761D01*
X211487876Y-61252761D02*
X211392638Y-61300380D01*
X211392638Y-61300380D02*
X211202162Y-61300380D01*
X211202162Y-61300380D02*
X211106924Y-61347999D01*
X211106924Y-61347999D02*
X211059305Y-61395618D01*
X211059305Y-61395618D02*
X211011686Y-61490856D01*
X211011686Y-61490856D02*
X211011686Y-61681332D01*
X211011686Y-61681332D02*
X211059305Y-61776570D01*
X211059305Y-61776570D02*
X211106924Y-61824190D01*
X211106924Y-61824190D02*
X211202162Y-61871809D01*
X211202162Y-61871809D02*
X211392638Y-61871809D01*
X211392638Y-61871809D02*
X211487876Y-61824190D01*
X211487876Y-61824190D02*
X211535495Y-61776570D01*
X211535495Y-61776570D02*
X211583114Y-61681332D01*
X211583114Y-61681332D02*
X211583114Y-61490856D01*
X211583114Y-61490856D02*
X211535495Y-61395618D01*
X211535495Y-61395618D02*
X211487876Y-61347999D01*
X211487876Y-61347999D02*
X211392638Y-61300380D01*
D12*
X217452149Y-74604418D02*
X217214054Y-74771084D01*
X217452149Y-74890132D02*
X216952149Y-74890132D01*
X216952149Y-74890132D02*
X216952149Y-74699656D01*
X216952149Y-74699656D02*
X216975959Y-74652037D01*
X216975959Y-74652037D02*
X216999768Y-74628227D01*
X216999768Y-74628227D02*
X217047387Y-74604418D01*
X217047387Y-74604418D02*
X217118816Y-74604418D01*
X217118816Y-74604418D02*
X217166435Y-74628227D01*
X217166435Y-74628227D02*
X217190244Y-74652037D01*
X217190244Y-74652037D02*
X217214054Y-74699656D01*
X217214054Y-74699656D02*
X217214054Y-74890132D01*
X217452149Y-74128227D02*
X217452149Y-74413941D01*
X217452149Y-74271084D02*
X216952149Y-74271084D01*
X216952149Y-74271084D02*
X217023578Y-74318703D01*
X217023578Y-74318703D02*
X217071197Y-74366322D01*
X217071197Y-74366322D02*
X217095006Y-74413941D01*
X216952149Y-73818704D02*
X216952149Y-73771085D01*
X216952149Y-73771085D02*
X216975959Y-73723466D01*
X216975959Y-73723466D02*
X216999768Y-73699656D01*
X216999768Y-73699656D02*
X217047387Y-73675847D01*
X217047387Y-73675847D02*
X217142625Y-73652037D01*
X217142625Y-73652037D02*
X217261673Y-73652037D01*
X217261673Y-73652037D02*
X217356911Y-73675847D01*
X217356911Y-73675847D02*
X217404530Y-73699656D01*
X217404530Y-73699656D02*
X217428340Y-73723466D01*
X217428340Y-73723466D02*
X217452149Y-73771085D01*
X217452149Y-73771085D02*
X217452149Y-73818704D01*
X217452149Y-73818704D02*
X217428340Y-73866323D01*
X217428340Y-73866323D02*
X217404530Y-73890132D01*
X217404530Y-73890132D02*
X217356911Y-73913942D01*
X217356911Y-73913942D02*
X217261673Y-73937751D01*
X217261673Y-73937751D02*
X217142625Y-73937751D01*
X217142625Y-73937751D02*
X217047387Y-73913942D01*
X217047387Y-73913942D02*
X216999768Y-73890132D01*
X216999768Y-73890132D02*
X216975959Y-73866323D01*
X216975959Y-73866323D02*
X216952149Y-73818704D01*
X215502149Y-75104418D02*
X215264054Y-75271084D01*
X215502149Y-75390132D02*
X215002149Y-75390132D01*
X215002149Y-75390132D02*
X215002149Y-75199656D01*
X215002149Y-75199656D02*
X215025959Y-75152037D01*
X215025959Y-75152037D02*
X215049768Y-75128227D01*
X215049768Y-75128227D02*
X215097387Y-75104418D01*
X215097387Y-75104418D02*
X215168816Y-75104418D01*
X215168816Y-75104418D02*
X215216435Y-75128227D01*
X215216435Y-75128227D02*
X215240244Y-75152037D01*
X215240244Y-75152037D02*
X215264054Y-75199656D01*
X215264054Y-75199656D02*
X215264054Y-75390132D01*
X215502149Y-74628227D02*
X215502149Y-74913941D01*
X215502149Y-74771084D02*
X215002149Y-74771084D01*
X215002149Y-74771084D02*
X215073578Y-74818703D01*
X215073578Y-74818703D02*
X215121197Y-74866322D01*
X215121197Y-74866322D02*
X215145006Y-74913941D01*
X215049768Y-74437751D02*
X215025959Y-74413942D01*
X215025959Y-74413942D02*
X215002149Y-74366323D01*
X215002149Y-74366323D02*
X215002149Y-74247275D01*
X215002149Y-74247275D02*
X215025959Y-74199656D01*
X215025959Y-74199656D02*
X215049768Y-74175847D01*
X215049768Y-74175847D02*
X215097387Y-74152037D01*
X215097387Y-74152037D02*
X215145006Y-74152037D01*
X215145006Y-74152037D02*
X215216435Y-74175847D01*
X215216435Y-74175847D02*
X215502149Y-74461561D01*
X215502149Y-74461561D02*
X215502149Y-74152037D01*
D10*
X116467971Y-80862295D02*
X116467971Y-80062295D01*
X116467971Y-80062295D02*
X116658447Y-80062295D01*
X116658447Y-80062295D02*
X116772733Y-80100390D01*
X116772733Y-80100390D02*
X116848923Y-80176580D01*
X116848923Y-80176580D02*
X116887018Y-80252771D01*
X116887018Y-80252771D02*
X116925114Y-80405152D01*
X116925114Y-80405152D02*
X116925114Y-80519438D01*
X116925114Y-80519438D02*
X116887018Y-80671819D01*
X116887018Y-80671819D02*
X116848923Y-80748009D01*
X116848923Y-80748009D02*
X116772733Y-80824200D01*
X116772733Y-80824200D02*
X116658447Y-80862295D01*
X116658447Y-80862295D02*
X116467971Y-80862295D01*
X117687018Y-80862295D02*
X117229875Y-80862295D01*
X117458447Y-80862295D02*
X117458447Y-80062295D01*
X117458447Y-80062295D02*
X117382256Y-80176580D01*
X117382256Y-80176580D02*
X117306066Y-80252771D01*
X117306066Y-80252771D02*
X117229875Y-80290866D01*
X118372733Y-80328961D02*
X118372733Y-80862295D01*
X118182257Y-80024200D02*
X117991780Y-80595628D01*
X117991780Y-80595628D02*
X118487019Y-80595628D01*
X166363095Y-68837809D02*
X166363095Y-67837809D01*
X166363095Y-68313999D02*
X166934523Y-68313999D01*
X166934523Y-68837809D02*
X166934523Y-67837809D01*
X167839285Y-67837809D02*
X167648809Y-67837809D01*
X167648809Y-67837809D02*
X167553571Y-67885428D01*
X167553571Y-67885428D02*
X167505952Y-67933047D01*
X167505952Y-67933047D02*
X167410714Y-68075904D01*
X167410714Y-68075904D02*
X167363095Y-68266380D01*
X167363095Y-68266380D02*
X167363095Y-68647332D01*
X167363095Y-68647332D02*
X167410714Y-68742570D01*
X167410714Y-68742570D02*
X167458333Y-68790190D01*
X167458333Y-68790190D02*
X167553571Y-68837809D01*
X167553571Y-68837809D02*
X167744047Y-68837809D01*
X167744047Y-68837809D02*
X167839285Y-68790190D01*
X167839285Y-68790190D02*
X167886904Y-68742570D01*
X167886904Y-68742570D02*
X167934523Y-68647332D01*
X167934523Y-68647332D02*
X167934523Y-68409237D01*
X167934523Y-68409237D02*
X167886904Y-68313999D01*
X167886904Y-68313999D02*
X167839285Y-68266380D01*
X167839285Y-68266380D02*
X167744047Y-68218761D01*
X167744047Y-68218761D02*
X167553571Y-68218761D01*
X167553571Y-68218761D02*
X167458333Y-68266380D01*
X167458333Y-68266380D02*
X167410714Y-68313999D01*
X167410714Y-68313999D02*
X167363095Y-68409237D01*
D12*
X221452149Y-74604418D02*
X221214054Y-74771084D01*
X221452149Y-74890132D02*
X220952149Y-74890132D01*
X220952149Y-74890132D02*
X220952149Y-74699656D01*
X220952149Y-74699656D02*
X220975959Y-74652037D01*
X220975959Y-74652037D02*
X220999768Y-74628227D01*
X220999768Y-74628227D02*
X221047387Y-74604418D01*
X221047387Y-74604418D02*
X221118816Y-74604418D01*
X221118816Y-74604418D02*
X221166435Y-74628227D01*
X221166435Y-74628227D02*
X221190244Y-74652037D01*
X221190244Y-74652037D02*
X221214054Y-74699656D01*
X221214054Y-74699656D02*
X221214054Y-74890132D01*
X221452149Y-74128227D02*
X221452149Y-74413941D01*
X221452149Y-74271084D02*
X220952149Y-74271084D01*
X220952149Y-74271084D02*
X221023578Y-74318703D01*
X221023578Y-74318703D02*
X221071197Y-74366322D01*
X221071197Y-74366322D02*
X221095006Y-74413941D01*
X221452149Y-73652037D02*
X221452149Y-73937751D01*
X221452149Y-73794894D02*
X220952149Y-73794894D01*
X220952149Y-73794894D02*
X221023578Y-73842513D01*
X221023578Y-73842513D02*
X221071197Y-73890132D01*
X221071197Y-73890132D02*
X221095006Y-73937751D01*
D10*
X188238095Y-75454819D02*
X188238095Y-74454819D01*
X188238095Y-74931009D02*
X188809523Y-74931009D01*
X188809523Y-75454819D02*
X188809523Y-74454819D01*
X189714285Y-74788152D02*
X189714285Y-75454819D01*
X189476190Y-74407200D02*
X189238095Y-75121485D01*
X189238095Y-75121485D02*
X189857142Y-75121485D01*
X144679895Y-84154819D02*
X144679895Y-83154819D01*
X144679895Y-83631009D02*
X145251323Y-83631009D01*
X145251323Y-84154819D02*
X145251323Y-83154819D01*
X145632276Y-83154819D02*
X146298942Y-83154819D01*
X146298942Y-83154819D02*
X145870371Y-84154819D01*
D12*
X213502149Y-74904418D02*
X213264054Y-75071084D01*
X213502149Y-75190132D02*
X213002149Y-75190132D01*
X213002149Y-75190132D02*
X213002149Y-74999656D01*
X213002149Y-74999656D02*
X213025959Y-74952037D01*
X213025959Y-74952037D02*
X213049768Y-74928227D01*
X213049768Y-74928227D02*
X213097387Y-74904418D01*
X213097387Y-74904418D02*
X213168816Y-74904418D01*
X213168816Y-74904418D02*
X213216435Y-74928227D01*
X213216435Y-74928227D02*
X213240244Y-74952037D01*
X213240244Y-74952037D02*
X213264054Y-74999656D01*
X213264054Y-74999656D02*
X213264054Y-75190132D01*
X213049768Y-74713941D02*
X213025959Y-74690132D01*
X213025959Y-74690132D02*
X213002149Y-74642513D01*
X213002149Y-74642513D02*
X213002149Y-74523465D01*
X213002149Y-74523465D02*
X213025959Y-74475846D01*
X213025959Y-74475846D02*
X213049768Y-74452037D01*
X213049768Y-74452037D02*
X213097387Y-74428227D01*
X213097387Y-74428227D02*
X213145006Y-74428227D01*
X213145006Y-74428227D02*
X213216435Y-74452037D01*
X213216435Y-74452037D02*
X213502149Y-74737751D01*
X213502149Y-74737751D02*
X213502149Y-74428227D01*
X213049768Y-74237751D02*
X213025959Y-74213942D01*
X213025959Y-74213942D02*
X213002149Y-74166323D01*
X213002149Y-74166323D02*
X213002149Y-74047275D01*
X213002149Y-74047275D02*
X213025959Y-73999656D01*
X213025959Y-73999656D02*
X213049768Y-73975847D01*
X213049768Y-73975847D02*
X213097387Y-73952037D01*
X213097387Y-73952037D02*
X213145006Y-73952037D01*
X213145006Y-73952037D02*
X213216435Y-73975847D01*
X213216435Y-73975847D02*
X213502149Y-74261561D01*
X213502149Y-74261561D02*
X213502149Y-73952037D01*
X233142666Y-61893129D02*
X232976000Y-61655034D01*
X232856952Y-61893129D02*
X232856952Y-61393129D01*
X232856952Y-61393129D02*
X233047428Y-61393129D01*
X233047428Y-61393129D02*
X233095047Y-61416939D01*
X233095047Y-61416939D02*
X233118857Y-61440748D01*
X233118857Y-61440748D02*
X233142666Y-61488367D01*
X233142666Y-61488367D02*
X233142666Y-61559796D01*
X233142666Y-61559796D02*
X233118857Y-61607415D01*
X233118857Y-61607415D02*
X233095047Y-61631224D01*
X233095047Y-61631224D02*
X233047428Y-61655034D01*
X233047428Y-61655034D02*
X232856952Y-61655034D01*
X233571238Y-61559796D02*
X233571238Y-61893129D01*
X233452190Y-61369320D02*
X233333143Y-61726462D01*
X233333143Y-61726462D02*
X233642666Y-61726462D01*
D10*
X212229819Y-81878228D02*
X211753628Y-82211561D01*
X212229819Y-82449656D02*
X211229819Y-82449656D01*
X211229819Y-82449656D02*
X211229819Y-82068704D01*
X211229819Y-82068704D02*
X211277438Y-81973466D01*
X211277438Y-81973466D02*
X211325057Y-81925847D01*
X211325057Y-81925847D02*
X211420295Y-81878228D01*
X211420295Y-81878228D02*
X211563152Y-81878228D01*
X211563152Y-81878228D02*
X211658390Y-81925847D01*
X211658390Y-81925847D02*
X211706009Y-81973466D01*
X211706009Y-81973466D02*
X211753628Y-82068704D01*
X211753628Y-82068704D02*
X211753628Y-82449656D01*
X211706009Y-81449656D02*
X211706009Y-81116323D01*
X212229819Y-80973466D02*
X212229819Y-81449656D01*
X212229819Y-81449656D02*
X211229819Y-81449656D01*
X211229819Y-81449656D02*
X211229819Y-80973466D01*
X212182200Y-80592513D02*
X212229819Y-80449656D01*
X212229819Y-80449656D02*
X212229819Y-80211561D01*
X212229819Y-80211561D02*
X212182200Y-80116323D01*
X212182200Y-80116323D02*
X212134580Y-80068704D01*
X212134580Y-80068704D02*
X212039342Y-80021085D01*
X212039342Y-80021085D02*
X211944104Y-80021085D01*
X211944104Y-80021085D02*
X211848866Y-80068704D01*
X211848866Y-80068704D02*
X211801247Y-80116323D01*
X211801247Y-80116323D02*
X211753628Y-80211561D01*
X211753628Y-80211561D02*
X211706009Y-80402037D01*
X211706009Y-80402037D02*
X211658390Y-80497275D01*
X211658390Y-80497275D02*
X211610771Y-80544894D01*
X211610771Y-80544894D02*
X211515533Y-80592513D01*
X211515533Y-80592513D02*
X211420295Y-80592513D01*
X211420295Y-80592513D02*
X211325057Y-80544894D01*
X211325057Y-80544894D02*
X211277438Y-80497275D01*
X211277438Y-80497275D02*
X211229819Y-80402037D01*
X211229819Y-80402037D02*
X211229819Y-80163942D01*
X211229819Y-80163942D02*
X211277438Y-80021085D01*
X212229819Y-79068704D02*
X212229819Y-79640132D01*
X212229819Y-79354418D02*
X211229819Y-79354418D01*
X211229819Y-79354418D02*
X211372676Y-79449656D01*
X211372676Y-79449656D02*
X211467914Y-79544894D01*
X211467914Y-79544894D02*
X211515533Y-79640132D01*
D12*
X195757749Y-65943018D02*
X195519654Y-66109684D01*
X195757749Y-66228732D02*
X195257749Y-66228732D01*
X195257749Y-66228732D02*
X195257749Y-66038256D01*
X195257749Y-66038256D02*
X195281559Y-65990637D01*
X195281559Y-65990637D02*
X195305368Y-65966827D01*
X195305368Y-65966827D02*
X195352987Y-65943018D01*
X195352987Y-65943018D02*
X195424416Y-65943018D01*
X195424416Y-65943018D02*
X195472035Y-65966827D01*
X195472035Y-65966827D02*
X195495844Y-65990637D01*
X195495844Y-65990637D02*
X195519654Y-66038256D01*
X195519654Y-66038256D02*
X195519654Y-66228732D01*
X195305368Y-65752541D02*
X195281559Y-65728732D01*
X195281559Y-65728732D02*
X195257749Y-65681113D01*
X195257749Y-65681113D02*
X195257749Y-65562065D01*
X195257749Y-65562065D02*
X195281559Y-65514446D01*
X195281559Y-65514446D02*
X195305368Y-65490637D01*
X195305368Y-65490637D02*
X195352987Y-65466827D01*
X195352987Y-65466827D02*
X195400606Y-65466827D01*
X195400606Y-65466827D02*
X195472035Y-65490637D01*
X195472035Y-65490637D02*
X195757749Y-65776351D01*
X195757749Y-65776351D02*
X195757749Y-65466827D01*
X195757749Y-65228732D02*
X195757749Y-65133494D01*
X195757749Y-65133494D02*
X195733940Y-65085875D01*
X195733940Y-65085875D02*
X195710130Y-65062066D01*
X195710130Y-65062066D02*
X195638701Y-65014447D01*
X195638701Y-65014447D02*
X195543463Y-64990637D01*
X195543463Y-64990637D02*
X195352987Y-64990637D01*
X195352987Y-64990637D02*
X195305368Y-65014447D01*
X195305368Y-65014447D02*
X195281559Y-65038256D01*
X195281559Y-65038256D02*
X195257749Y-65085875D01*
X195257749Y-65085875D02*
X195257749Y-65181113D01*
X195257749Y-65181113D02*
X195281559Y-65228732D01*
X195281559Y-65228732D02*
X195305368Y-65252542D01*
X195305368Y-65252542D02*
X195352987Y-65276351D01*
X195352987Y-65276351D02*
X195472035Y-65276351D01*
X195472035Y-65276351D02*
X195519654Y-65252542D01*
X195519654Y-65252542D02*
X195543463Y-65228732D01*
X195543463Y-65228732D02*
X195567273Y-65181113D01*
X195567273Y-65181113D02*
X195567273Y-65085875D01*
X195567273Y-65085875D02*
X195543463Y-65038256D01*
X195543463Y-65038256D02*
X195519654Y-65014447D01*
X195519654Y-65014447D02*
X195472035Y-64990637D01*
D10*
X188238095Y-10087809D02*
X188238095Y-9087809D01*
X188238095Y-9563999D02*
X188809523Y-9563999D01*
X188809523Y-10087809D02*
X188809523Y-9087809D01*
X189809523Y-10087809D02*
X189238095Y-10087809D01*
X189523809Y-10087809D02*
X189523809Y-9087809D01*
X189523809Y-9087809D02*
X189428571Y-9230666D01*
X189428571Y-9230666D02*
X189333333Y-9325904D01*
X189333333Y-9325904D02*
X189238095Y-9373523D01*
X133313095Y-70237809D02*
X133313095Y-69237809D01*
X133313095Y-69713999D02*
X133884523Y-69713999D01*
X133884523Y-70237809D02*
X133884523Y-69237809D01*
X134265476Y-69237809D02*
X134884523Y-69237809D01*
X134884523Y-69237809D02*
X134551190Y-69618761D01*
X134551190Y-69618761D02*
X134694047Y-69618761D01*
X134694047Y-69618761D02*
X134789285Y-69666380D01*
X134789285Y-69666380D02*
X134836904Y-69713999D01*
X134836904Y-69713999D02*
X134884523Y-69809237D01*
X134884523Y-69809237D02*
X134884523Y-70047332D01*
X134884523Y-70047332D02*
X134836904Y-70142570D01*
X134836904Y-70142570D02*
X134789285Y-70190190D01*
X134789285Y-70190190D02*
X134694047Y-70237809D01*
X134694047Y-70237809D02*
X134408333Y-70237809D01*
X134408333Y-70237809D02*
X134313095Y-70190190D01*
X134313095Y-70190190D02*
X134265476Y-70142570D01*
D12*
X211303149Y-59566323D02*
X211065054Y-59732989D01*
X211303149Y-59852037D02*
X210803149Y-59852037D01*
X210803149Y-59852037D02*
X210803149Y-59661561D01*
X210803149Y-59661561D02*
X210826959Y-59613942D01*
X210826959Y-59613942D02*
X210850768Y-59590132D01*
X210850768Y-59590132D02*
X210898387Y-59566323D01*
X210898387Y-59566323D02*
X210969816Y-59566323D01*
X210969816Y-59566323D02*
X211017435Y-59590132D01*
X211017435Y-59590132D02*
X211041244Y-59613942D01*
X211041244Y-59613942D02*
X211065054Y-59661561D01*
X211065054Y-59661561D02*
X211065054Y-59852037D01*
X210803149Y-59399656D02*
X210803149Y-59066323D01*
X210803149Y-59066323D02*
X211303149Y-59280608D01*
X179450949Y-72071018D02*
X179212854Y-72237684D01*
X179450949Y-72356732D02*
X178950949Y-72356732D01*
X178950949Y-72356732D02*
X178950949Y-72166256D01*
X178950949Y-72166256D02*
X178974759Y-72118637D01*
X178974759Y-72118637D02*
X178998568Y-72094827D01*
X178998568Y-72094827D02*
X179046187Y-72071018D01*
X179046187Y-72071018D02*
X179117616Y-72071018D01*
X179117616Y-72071018D02*
X179165235Y-72094827D01*
X179165235Y-72094827D02*
X179189044Y-72118637D01*
X179189044Y-72118637D02*
X179212854Y-72166256D01*
X179212854Y-72166256D02*
X179212854Y-72356732D01*
X178950949Y-71904351D02*
X178950949Y-71594827D01*
X178950949Y-71594827D02*
X179141425Y-71761494D01*
X179141425Y-71761494D02*
X179141425Y-71690065D01*
X179141425Y-71690065D02*
X179165235Y-71642446D01*
X179165235Y-71642446D02*
X179189044Y-71618637D01*
X179189044Y-71618637D02*
X179236663Y-71594827D01*
X179236663Y-71594827D02*
X179355711Y-71594827D01*
X179355711Y-71594827D02*
X179403330Y-71618637D01*
X179403330Y-71618637D02*
X179427140Y-71642446D01*
X179427140Y-71642446D02*
X179450949Y-71690065D01*
X179450949Y-71690065D02*
X179450949Y-71832922D01*
X179450949Y-71832922D02*
X179427140Y-71880541D01*
X179427140Y-71880541D02*
X179403330Y-71904351D01*
X178950949Y-71285304D02*
X178950949Y-71237685D01*
X178950949Y-71237685D02*
X178974759Y-71190066D01*
X178974759Y-71190066D02*
X178998568Y-71166256D01*
X178998568Y-71166256D02*
X179046187Y-71142447D01*
X179046187Y-71142447D02*
X179141425Y-71118637D01*
X179141425Y-71118637D02*
X179260473Y-71118637D01*
X179260473Y-71118637D02*
X179355711Y-71142447D01*
X179355711Y-71142447D02*
X179403330Y-71166256D01*
X179403330Y-71166256D02*
X179427140Y-71190066D01*
X179427140Y-71190066D02*
X179450949Y-71237685D01*
X179450949Y-71237685D02*
X179450949Y-71285304D01*
X179450949Y-71285304D02*
X179427140Y-71332923D01*
X179427140Y-71332923D02*
X179403330Y-71356732D01*
X179403330Y-71356732D02*
X179355711Y-71380542D01*
X179355711Y-71380542D02*
X179260473Y-71404351D01*
X179260473Y-71404351D02*
X179141425Y-71404351D01*
X179141425Y-71404351D02*
X179046187Y-71380542D01*
X179046187Y-71380542D02*
X178998568Y-71356732D01*
X178998568Y-71356732D02*
X178974759Y-71332923D01*
X178974759Y-71332923D02*
X178950949Y-71285304D01*
D10*
X194291324Y-80730885D02*
X194291324Y-79930885D01*
X194291324Y-79930885D02*
X194481800Y-79930885D01*
X194481800Y-79930885D02*
X194596086Y-79968980D01*
X194596086Y-79968980D02*
X194672276Y-80045170D01*
X194672276Y-80045170D02*
X194710371Y-80121361D01*
X194710371Y-80121361D02*
X194748467Y-80273742D01*
X194748467Y-80273742D02*
X194748467Y-80388028D01*
X194748467Y-80388028D02*
X194710371Y-80540409D01*
X194710371Y-80540409D02*
X194672276Y-80616599D01*
X194672276Y-80616599D02*
X194596086Y-80692790D01*
X194596086Y-80692790D02*
X194481800Y-80730885D01*
X194481800Y-80730885D02*
X194291324Y-80730885D01*
X195434181Y-80197551D02*
X195434181Y-80730885D01*
X195243705Y-79892790D02*
X195053228Y-80464218D01*
X195053228Y-80464218D02*
X195548467Y-80464218D01*
X204273114Y-62136609D02*
X204273114Y-61136609D01*
X204273114Y-61136609D02*
X204511209Y-61136609D01*
X204511209Y-61136609D02*
X204654066Y-61184228D01*
X204654066Y-61184228D02*
X204749304Y-61279466D01*
X204749304Y-61279466D02*
X204796923Y-61374704D01*
X204796923Y-61374704D02*
X204844542Y-61565180D01*
X204844542Y-61565180D02*
X204844542Y-61708037D01*
X204844542Y-61708037D02*
X204796923Y-61898513D01*
X204796923Y-61898513D02*
X204749304Y-61993751D01*
X204749304Y-61993751D02*
X204654066Y-62088990D01*
X204654066Y-62088990D02*
X204511209Y-62136609D01*
X204511209Y-62136609D02*
X204273114Y-62136609D01*
X205796923Y-62136609D02*
X205225495Y-62136609D01*
X205511209Y-62136609D02*
X205511209Y-61136609D01*
X205511209Y-61136609D02*
X205415971Y-61279466D01*
X205415971Y-61279466D02*
X205320733Y-61374704D01*
X205320733Y-61374704D02*
X205225495Y-61422323D01*
X206749304Y-62136609D02*
X206177876Y-62136609D01*
X206463590Y-62136609D02*
X206463590Y-61136609D01*
X206463590Y-61136609D02*
X206368352Y-61279466D01*
X206368352Y-61279466D02*
X206273114Y-61374704D01*
X206273114Y-61374704D02*
X206177876Y-61422323D01*
D12*
X223452149Y-74604418D02*
X223214054Y-74771084D01*
X223452149Y-74890132D02*
X222952149Y-74890132D01*
X222952149Y-74890132D02*
X222952149Y-74699656D01*
X222952149Y-74699656D02*
X222975959Y-74652037D01*
X222975959Y-74652037D02*
X222999768Y-74628227D01*
X222999768Y-74628227D02*
X223047387Y-74604418D01*
X223047387Y-74604418D02*
X223118816Y-74604418D01*
X223118816Y-74604418D02*
X223166435Y-74628227D01*
X223166435Y-74628227D02*
X223190244Y-74652037D01*
X223190244Y-74652037D02*
X223214054Y-74699656D01*
X223214054Y-74699656D02*
X223214054Y-74890132D01*
X223452149Y-74128227D02*
X223452149Y-74413941D01*
X223452149Y-74271084D02*
X222952149Y-74271084D01*
X222952149Y-74271084D02*
X223023578Y-74318703D01*
X223023578Y-74318703D02*
X223071197Y-74366322D01*
X223071197Y-74366322D02*
X223095006Y-74413941D01*
X223166435Y-73842513D02*
X223142625Y-73890132D01*
X223142625Y-73890132D02*
X223118816Y-73913942D01*
X223118816Y-73913942D02*
X223071197Y-73937751D01*
X223071197Y-73937751D02*
X223047387Y-73937751D01*
X223047387Y-73937751D02*
X222999768Y-73913942D01*
X222999768Y-73913942D02*
X222975959Y-73890132D01*
X222975959Y-73890132D02*
X222952149Y-73842513D01*
X222952149Y-73842513D02*
X222952149Y-73747275D01*
X222952149Y-73747275D02*
X222975959Y-73699656D01*
X222975959Y-73699656D02*
X222999768Y-73675847D01*
X222999768Y-73675847D02*
X223047387Y-73652037D01*
X223047387Y-73652037D02*
X223071197Y-73652037D01*
X223071197Y-73652037D02*
X223118816Y-73675847D01*
X223118816Y-73675847D02*
X223142625Y-73699656D01*
X223142625Y-73699656D02*
X223166435Y-73747275D01*
X223166435Y-73747275D02*
X223166435Y-73842513D01*
X223166435Y-73842513D02*
X223190244Y-73890132D01*
X223190244Y-73890132D02*
X223214054Y-73913942D01*
X223214054Y-73913942D02*
X223261673Y-73937751D01*
X223261673Y-73937751D02*
X223356911Y-73937751D01*
X223356911Y-73937751D02*
X223404530Y-73913942D01*
X223404530Y-73913942D02*
X223428340Y-73890132D01*
X223428340Y-73890132D02*
X223452149Y-73842513D01*
X223452149Y-73842513D02*
X223452149Y-73747275D01*
X223452149Y-73747275D02*
X223428340Y-73699656D01*
X223428340Y-73699656D02*
X223404530Y-73675847D01*
X223404530Y-73675847D02*
X223356911Y-73652037D01*
X223356911Y-73652037D02*
X223261673Y-73652037D01*
X223261673Y-73652037D02*
X223214054Y-73675847D01*
X223214054Y-73675847D02*
X223190244Y-73699656D01*
X223190244Y-73699656D02*
X223166435Y-73747275D01*
X225486066Y-57793129D02*
X225319400Y-57555034D01*
X225200352Y-57793129D02*
X225200352Y-57293129D01*
X225200352Y-57293129D02*
X225390828Y-57293129D01*
X225390828Y-57293129D02*
X225438447Y-57316939D01*
X225438447Y-57316939D02*
X225462257Y-57340748D01*
X225462257Y-57340748D02*
X225486066Y-57388367D01*
X225486066Y-57388367D02*
X225486066Y-57459796D01*
X225486066Y-57459796D02*
X225462257Y-57507415D01*
X225462257Y-57507415D02*
X225438447Y-57531224D01*
X225438447Y-57531224D02*
X225390828Y-57555034D01*
X225390828Y-57555034D02*
X225200352Y-57555034D01*
X225938447Y-57293129D02*
X225700352Y-57293129D01*
X225700352Y-57293129D02*
X225676543Y-57531224D01*
X225676543Y-57531224D02*
X225700352Y-57507415D01*
X225700352Y-57507415D02*
X225747971Y-57483605D01*
X225747971Y-57483605D02*
X225867019Y-57483605D01*
X225867019Y-57483605D02*
X225914638Y-57507415D01*
X225914638Y-57507415D02*
X225938447Y-57531224D01*
X225938447Y-57531224D02*
X225962257Y-57578843D01*
X225962257Y-57578843D02*
X225962257Y-57697891D01*
X225962257Y-57697891D02*
X225938447Y-57745510D01*
X225938447Y-57745510D02*
X225914638Y-57769320D01*
X225914638Y-57769320D02*
X225867019Y-57793129D01*
X225867019Y-57793129D02*
X225747971Y-57793129D01*
X225747971Y-57793129D02*
X225700352Y-57769320D01*
X225700352Y-57769320D02*
X225676543Y-57745510D01*
D10*
X166422295Y-10148222D02*
X166422295Y-9148222D01*
X166422295Y-9624412D02*
X166993723Y-9624412D01*
X166993723Y-10148222D02*
X166993723Y-9148222D01*
X167517533Y-10148222D02*
X167708009Y-10148222D01*
X167708009Y-10148222D02*
X167803247Y-10100603D01*
X167803247Y-10100603D02*
X167850866Y-10052983D01*
X167850866Y-10052983D02*
X167946104Y-9910126D01*
X167946104Y-9910126D02*
X167993723Y-9719650D01*
X167993723Y-9719650D02*
X167993723Y-9338698D01*
X167993723Y-9338698D02*
X167946104Y-9243460D01*
X167946104Y-9243460D02*
X167898485Y-9195841D01*
X167898485Y-9195841D02*
X167803247Y-9148222D01*
X167803247Y-9148222D02*
X167612771Y-9148222D01*
X167612771Y-9148222D02*
X167517533Y-9195841D01*
X167517533Y-9195841D02*
X167469914Y-9243460D01*
X167469914Y-9243460D02*
X167422295Y-9338698D01*
X167422295Y-9338698D02*
X167422295Y-9576793D01*
X167422295Y-9576793D02*
X167469914Y-9672031D01*
X167469914Y-9672031D02*
X167517533Y-9719650D01*
X167517533Y-9719650D02*
X167612771Y-9767269D01*
X167612771Y-9767269D02*
X167803247Y-9767269D01*
X167803247Y-9767269D02*
X167898485Y-9719650D01*
X167898485Y-9719650D02*
X167946104Y-9672031D01*
X167946104Y-9672031D02*
X167993723Y-9576793D01*
X112419419Y-74393941D02*
X111419419Y-74393941D01*
X112419419Y-73917751D02*
X111419419Y-73917751D01*
X111419419Y-73917751D02*
X112419419Y-73346323D01*
X112419419Y-73346323D02*
X111419419Y-73346323D01*
X112133704Y-72917751D02*
X112133704Y-72441561D01*
X112419419Y-73012989D02*
X111419419Y-72679656D01*
X111419419Y-72679656D02*
X112419419Y-72346323D01*
X111419419Y-72108227D02*
X111419419Y-71489180D01*
X111419419Y-71489180D02*
X111800371Y-71822513D01*
X111800371Y-71822513D02*
X111800371Y-71679656D01*
X111800371Y-71679656D02*
X111847990Y-71584418D01*
X111847990Y-71584418D02*
X111895609Y-71536799D01*
X111895609Y-71536799D02*
X111990847Y-71489180D01*
X111990847Y-71489180D02*
X112228942Y-71489180D01*
X112228942Y-71489180D02*
X112324180Y-71536799D01*
X112324180Y-71536799D02*
X112371800Y-71584418D01*
X112371800Y-71584418D02*
X112419419Y-71679656D01*
X112419419Y-71679656D02*
X112419419Y-71965370D01*
X112419419Y-71965370D02*
X112371800Y-72060608D01*
X112371800Y-72060608D02*
X112324180Y-72108227D01*
X111514657Y-71108227D02*
X111467038Y-71060608D01*
X111467038Y-71060608D02*
X111419419Y-70965370D01*
X111419419Y-70965370D02*
X111419419Y-70727275D01*
X111419419Y-70727275D02*
X111467038Y-70632037D01*
X111467038Y-70632037D02*
X111514657Y-70584418D01*
X111514657Y-70584418D02*
X111609895Y-70536799D01*
X111609895Y-70536799D02*
X111705133Y-70536799D01*
X111705133Y-70536799D02*
X111847990Y-70584418D01*
X111847990Y-70584418D02*
X112419419Y-71155846D01*
X112419419Y-71155846D02*
X112419419Y-70536799D01*
X111514657Y-70155846D02*
X111467038Y-70108227D01*
X111467038Y-70108227D02*
X111419419Y-70012989D01*
X111419419Y-70012989D02*
X111419419Y-69774894D01*
X111419419Y-69774894D02*
X111467038Y-69679656D01*
X111467038Y-69679656D02*
X111514657Y-69632037D01*
X111514657Y-69632037D02*
X111609895Y-69584418D01*
X111609895Y-69584418D02*
X111705133Y-69584418D01*
X111705133Y-69584418D02*
X111847990Y-69632037D01*
X111847990Y-69632037D02*
X112419419Y-70203465D01*
X112419419Y-70203465D02*
X112419419Y-69584418D01*
D12*
X210504571Y-56812520D02*
X210480762Y-56836330D01*
X210480762Y-56836330D02*
X210409333Y-56860139D01*
X210409333Y-56860139D02*
X210361714Y-56860139D01*
X210361714Y-56860139D02*
X210290286Y-56836330D01*
X210290286Y-56836330D02*
X210242667Y-56788710D01*
X210242667Y-56788710D02*
X210218857Y-56741091D01*
X210218857Y-56741091D02*
X210195048Y-56645853D01*
X210195048Y-56645853D02*
X210195048Y-56574425D01*
X210195048Y-56574425D02*
X210218857Y-56479187D01*
X210218857Y-56479187D02*
X210242667Y-56431568D01*
X210242667Y-56431568D02*
X210290286Y-56383949D01*
X210290286Y-56383949D02*
X210361714Y-56360139D01*
X210361714Y-56360139D02*
X210409333Y-56360139D01*
X210409333Y-56360139D02*
X210480762Y-56383949D01*
X210480762Y-56383949D02*
X210504571Y-56407758D01*
X210980762Y-56860139D02*
X210695048Y-56860139D01*
X210837905Y-56860139D02*
X210837905Y-56360139D01*
X210837905Y-56360139D02*
X210790286Y-56431568D01*
X210790286Y-56431568D02*
X210742667Y-56479187D01*
X210742667Y-56479187D02*
X210695048Y-56502996D01*
X211433142Y-56360139D02*
X211195047Y-56360139D01*
X211195047Y-56360139D02*
X211171238Y-56598234D01*
X211171238Y-56598234D02*
X211195047Y-56574425D01*
X211195047Y-56574425D02*
X211242666Y-56550615D01*
X211242666Y-56550615D02*
X211361714Y-56550615D01*
X211361714Y-56550615D02*
X211409333Y-56574425D01*
X211409333Y-56574425D02*
X211433142Y-56598234D01*
X211433142Y-56598234D02*
X211456952Y-56645853D01*
X211456952Y-56645853D02*
X211456952Y-56764901D01*
X211456952Y-56764901D02*
X211433142Y-56812520D01*
X211433142Y-56812520D02*
X211409333Y-56836330D01*
X211409333Y-56836330D02*
X211361714Y-56860139D01*
X211361714Y-56860139D02*
X211242666Y-56860139D01*
X211242666Y-56860139D02*
X211195047Y-56836330D01*
X211195047Y-56836330D02*
X211171238Y-56812520D01*
D10*
X232899095Y-54562782D02*
X233661000Y-54562782D01*
X233280047Y-54943735D02*
X233280047Y-54181830D01*
X234613380Y-53943735D02*
X234137190Y-53943735D01*
X234137190Y-53943735D02*
X234089571Y-54419925D01*
X234089571Y-54419925D02*
X234137190Y-54372306D01*
X234137190Y-54372306D02*
X234232428Y-54324687D01*
X234232428Y-54324687D02*
X234470523Y-54324687D01*
X234470523Y-54324687D02*
X234565761Y-54372306D01*
X234565761Y-54372306D02*
X234613380Y-54419925D01*
X234613380Y-54419925D02*
X234660999Y-54515163D01*
X234660999Y-54515163D02*
X234660999Y-54753258D01*
X234660999Y-54753258D02*
X234613380Y-54848496D01*
X234613380Y-54848496D02*
X234565761Y-54896116D01*
X234565761Y-54896116D02*
X234470523Y-54943735D01*
X234470523Y-54943735D02*
X234232428Y-54943735D01*
X234232428Y-54943735D02*
X234137190Y-54896116D01*
X234137190Y-54896116D02*
X234089571Y-54848496D01*
X234946714Y-53943735D02*
X235280047Y-54943735D01*
X235280047Y-54943735D02*
X235613380Y-53943735D01*
X236470523Y-54943735D02*
X235899095Y-54943735D01*
X236184809Y-54943735D02*
X236184809Y-53943735D01*
X236184809Y-53943735D02*
X236089571Y-54086592D01*
X236089571Y-54086592D02*
X235994333Y-54181830D01*
X235994333Y-54181830D02*
X235899095Y-54229449D01*
X215699819Y-57286323D02*
X216414104Y-57286323D01*
X216414104Y-57286323D02*
X216556961Y-57333942D01*
X216556961Y-57333942D02*
X216652200Y-57429180D01*
X216652200Y-57429180D02*
X216699819Y-57572037D01*
X216699819Y-57572037D02*
X216699819Y-57667275D01*
X216033152Y-56381561D02*
X216699819Y-56381561D01*
X215652200Y-56619656D02*
X216366485Y-56857751D01*
X216366485Y-56857751D02*
X216366485Y-56238704D01*
X149910371Y-80862295D02*
X149910371Y-80062295D01*
X149910371Y-80062295D02*
X150100847Y-80062295D01*
X150100847Y-80062295D02*
X150215133Y-80100390D01*
X150215133Y-80100390D02*
X150291323Y-80176580D01*
X150291323Y-80176580D02*
X150329418Y-80252771D01*
X150329418Y-80252771D02*
X150367514Y-80405152D01*
X150367514Y-80405152D02*
X150367514Y-80519438D01*
X150367514Y-80519438D02*
X150329418Y-80671819D01*
X150329418Y-80671819D02*
X150291323Y-80748009D01*
X150291323Y-80748009D02*
X150215133Y-80824200D01*
X150215133Y-80824200D02*
X150100847Y-80862295D01*
X150100847Y-80862295D02*
X149910371Y-80862295D01*
X151129418Y-80862295D02*
X150672275Y-80862295D01*
X150900847Y-80862295D02*
X150900847Y-80062295D01*
X150900847Y-80062295D02*
X150824656Y-80176580D01*
X150824656Y-80176580D02*
X150748466Y-80252771D01*
X150748466Y-80252771D02*
X150672275Y-80290866D01*
X151624657Y-80062295D02*
X151700847Y-80062295D01*
X151700847Y-80062295D02*
X151777038Y-80100390D01*
X151777038Y-80100390D02*
X151815133Y-80138485D01*
X151815133Y-80138485D02*
X151853228Y-80214676D01*
X151853228Y-80214676D02*
X151891323Y-80367057D01*
X151891323Y-80367057D02*
X151891323Y-80557533D01*
X151891323Y-80557533D02*
X151853228Y-80709914D01*
X151853228Y-80709914D02*
X151815133Y-80786104D01*
X151815133Y-80786104D02*
X151777038Y-80824200D01*
X151777038Y-80824200D02*
X151700847Y-80862295D01*
X151700847Y-80862295D02*
X151624657Y-80862295D01*
X151624657Y-80862295D02*
X151548466Y-80824200D01*
X151548466Y-80824200D02*
X151510371Y-80786104D01*
X151510371Y-80786104D02*
X151472276Y-80709914D01*
X151472276Y-80709914D02*
X151434180Y-80557533D01*
X151434180Y-80557533D02*
X151434180Y-80367057D01*
X151434180Y-80367057D02*
X151472276Y-80214676D01*
X151472276Y-80214676D02*
X151510371Y-80138485D01*
X151510371Y-80138485D02*
X151548466Y-80100390D01*
X151548466Y-80100390D02*
X151624657Y-80062295D01*
X172291324Y-80862295D02*
X172291324Y-80062295D01*
X172291324Y-80062295D02*
X172481800Y-80062295D01*
X172481800Y-80062295D02*
X172596086Y-80100390D01*
X172596086Y-80100390D02*
X172672276Y-80176580D01*
X172672276Y-80176580D02*
X172710371Y-80252771D01*
X172710371Y-80252771D02*
X172748467Y-80405152D01*
X172748467Y-80405152D02*
X172748467Y-80519438D01*
X172748467Y-80519438D02*
X172710371Y-80671819D01*
X172710371Y-80671819D02*
X172672276Y-80748009D01*
X172672276Y-80748009D02*
X172596086Y-80824200D01*
X172596086Y-80824200D02*
X172481800Y-80862295D01*
X172481800Y-80862295D02*
X172291324Y-80862295D01*
X173434181Y-80062295D02*
X173281800Y-80062295D01*
X173281800Y-80062295D02*
X173205609Y-80100390D01*
X173205609Y-80100390D02*
X173167514Y-80138485D01*
X173167514Y-80138485D02*
X173091324Y-80252771D01*
X173091324Y-80252771D02*
X173053228Y-80405152D01*
X173053228Y-80405152D02*
X173053228Y-80709914D01*
X173053228Y-80709914D02*
X173091324Y-80786104D01*
X173091324Y-80786104D02*
X173129419Y-80824200D01*
X173129419Y-80824200D02*
X173205609Y-80862295D01*
X173205609Y-80862295D02*
X173357990Y-80862295D01*
X173357990Y-80862295D02*
X173434181Y-80824200D01*
X173434181Y-80824200D02*
X173472276Y-80786104D01*
X173472276Y-80786104D02*
X173510371Y-80709914D01*
X173510371Y-80709914D02*
X173510371Y-80519438D01*
X173510371Y-80519438D02*
X173472276Y-80443247D01*
X173472276Y-80443247D02*
X173434181Y-80405152D01*
X173434181Y-80405152D02*
X173357990Y-80367057D01*
X173357990Y-80367057D02*
X173205609Y-80367057D01*
X173205609Y-80367057D02*
X173129419Y-80405152D01*
X173129419Y-80405152D02*
X173091324Y-80443247D01*
X173091324Y-80443247D02*
X173053228Y-80519438D01*
D14*
X207021238Y-59097907D02*
X207021238Y-59421717D01*
X207021238Y-59421717D02*
X207040285Y-59459812D01*
X207040285Y-59459812D02*
X207059333Y-59478860D01*
X207059333Y-59478860D02*
X207097428Y-59497907D01*
X207097428Y-59497907D02*
X207173619Y-59497907D01*
X207173619Y-59497907D02*
X207211714Y-59478860D01*
X207211714Y-59478860D02*
X207230761Y-59459812D01*
X207230761Y-59459812D02*
X207249809Y-59421717D01*
X207249809Y-59421717D02*
X207249809Y-59097907D01*
X207611714Y-59231240D02*
X207611714Y-59497907D01*
X207516476Y-59078860D02*
X207421238Y-59364574D01*
X207421238Y-59364574D02*
X207668857Y-59364574D01*
D12*
X207238549Y-82053218D02*
X207000454Y-82219884D01*
X207238549Y-82338932D02*
X206738549Y-82338932D01*
X206738549Y-82338932D02*
X206738549Y-82148456D01*
X206738549Y-82148456D02*
X206762359Y-82100837D01*
X206762359Y-82100837D02*
X206786168Y-82077027D01*
X206786168Y-82077027D02*
X206833787Y-82053218D01*
X206833787Y-82053218D02*
X206905216Y-82053218D01*
X206905216Y-82053218D02*
X206952835Y-82077027D01*
X206952835Y-82077027D02*
X206976644Y-82100837D01*
X206976644Y-82100837D02*
X207000454Y-82148456D01*
X207000454Y-82148456D02*
X207000454Y-82338932D01*
X206786168Y-81862741D02*
X206762359Y-81838932D01*
X206762359Y-81838932D02*
X206738549Y-81791313D01*
X206738549Y-81791313D02*
X206738549Y-81672265D01*
X206738549Y-81672265D02*
X206762359Y-81624646D01*
X206762359Y-81624646D02*
X206786168Y-81600837D01*
X206786168Y-81600837D02*
X206833787Y-81577027D01*
X206833787Y-81577027D02*
X206881406Y-81577027D01*
X206881406Y-81577027D02*
X206952835Y-81600837D01*
X206952835Y-81600837D02*
X207238549Y-81886551D01*
X207238549Y-81886551D02*
X207238549Y-81577027D01*
X207238549Y-81100837D02*
X207238549Y-81386551D01*
X207238549Y-81243694D02*
X206738549Y-81243694D01*
X206738549Y-81243694D02*
X206809978Y-81291313D01*
X206809978Y-81291313D02*
X206857597Y-81338932D01*
X206857597Y-81338932D02*
X206881406Y-81386551D01*
D10*
X138910371Y-80862295D02*
X138910371Y-80062295D01*
X138910371Y-80062295D02*
X139100847Y-80062295D01*
X139100847Y-80062295D02*
X139215133Y-80100390D01*
X139215133Y-80100390D02*
X139291323Y-80176580D01*
X139291323Y-80176580D02*
X139329418Y-80252771D01*
X139329418Y-80252771D02*
X139367514Y-80405152D01*
X139367514Y-80405152D02*
X139367514Y-80519438D01*
X139367514Y-80519438D02*
X139329418Y-80671819D01*
X139329418Y-80671819D02*
X139291323Y-80748009D01*
X139291323Y-80748009D02*
X139215133Y-80824200D01*
X139215133Y-80824200D02*
X139100847Y-80862295D01*
X139100847Y-80862295D02*
X138910371Y-80862295D01*
X140129418Y-80862295D02*
X139672275Y-80862295D01*
X139900847Y-80862295D02*
X139900847Y-80062295D01*
X139900847Y-80062295D02*
X139824656Y-80176580D01*
X139824656Y-80176580D02*
X139748466Y-80252771D01*
X139748466Y-80252771D02*
X139672275Y-80290866D01*
X140434180Y-80138485D02*
X140472276Y-80100390D01*
X140472276Y-80100390D02*
X140548466Y-80062295D01*
X140548466Y-80062295D02*
X140738942Y-80062295D01*
X140738942Y-80062295D02*
X140815133Y-80100390D01*
X140815133Y-80100390D02*
X140853228Y-80138485D01*
X140853228Y-80138485D02*
X140891323Y-80214676D01*
X140891323Y-80214676D02*
X140891323Y-80290866D01*
X140891323Y-80290866D02*
X140853228Y-80405152D01*
X140853228Y-80405152D02*
X140396085Y-80862295D01*
X140396085Y-80862295D02*
X140891323Y-80862295D01*
D15*
X198790000Y-83212990D02*
X199425000Y-83847990D01*
X179105000Y-83212990D02*
X198790000Y-83212990D01*
X199425000Y-83847990D02*
X199425000Y-85752990D01*
X199425000Y-85752990D02*
X179105000Y-85752990D01*
X179105000Y-85752990D02*
X179105000Y-83212990D01*
X225005000Y-61465980D02*
X226355000Y-61465980D01*
X225005000Y-63665980D02*
X225005000Y-61465980D01*
X225005000Y-63665980D02*
X225855000Y-63665980D01*
X225855000Y-63665980D02*
X226355000Y-63165980D01*
X226355000Y-63165980D02*
X226355000Y-61465980D01*
X226051000Y-79699990D02*
X228051000Y-79699990D01*
X226051000Y-80949990D02*
X226051000Y-79699990D01*
X228051000Y-79699990D02*
X228051000Y-80949990D01*
X228051000Y-80949990D02*
X226051000Y-80949990D01*
X226051000Y-77457990D02*
X228051000Y-77457990D01*
X226051000Y-78707990D02*
X226051000Y-77457990D01*
X228051000Y-77457990D02*
X228051000Y-78707990D01*
X228051000Y-78707990D02*
X226051000Y-78707990D01*
X226051000Y-73207990D02*
X228051000Y-73207990D01*
X226051000Y-74457990D02*
X226051000Y-73207990D01*
X228051000Y-73207990D02*
X228051000Y-74457990D01*
X228051000Y-74457990D02*
X226051000Y-74457990D01*
X226151000Y-68807990D02*
X228151000Y-68807990D01*
X226151000Y-70057990D02*
X226151000Y-68807990D01*
X228151000Y-68807990D02*
X228151000Y-70057990D01*
X228151000Y-70057990D02*
X226151000Y-70057990D01*
X227451000Y-82315980D02*
X228701000Y-82315980D01*
X227451000Y-84315980D02*
X227451000Y-82315980D01*
X228701000Y-82315980D02*
X228701000Y-84315980D01*
X228701000Y-84315980D02*
X227451000Y-84315980D01*
X225775000Y-64657990D02*
X227775000Y-64657990D01*
X225775000Y-65907990D02*
X225775000Y-64657990D01*
X227775000Y-64657990D02*
X227775000Y-65907990D01*
X227775000Y-65907990D02*
X225775000Y-65907990D01*
X224826000Y-58940980D02*
X226826000Y-58940980D01*
X224826000Y-60190980D02*
X224826000Y-58940980D01*
X226826000Y-58940980D02*
X226826000Y-60190980D01*
X226826000Y-60190980D02*
X224826000Y-60190980D01*
X221576000Y-81007990D02*
X223576000Y-81007990D01*
X221576000Y-82257990D02*
X221576000Y-81007990D01*
X223576000Y-81007990D02*
X223576000Y-82257990D01*
X223576000Y-82257990D02*
X221576000Y-82257990D01*
X226051000Y-75357990D02*
X228051000Y-75357990D01*
X226051000Y-76607990D02*
X226051000Y-75357990D01*
X228051000Y-75357990D02*
X228051000Y-76607990D01*
X228051000Y-76607990D02*
X226051000Y-76607990D01*
X225875000Y-66707990D02*
X227875000Y-66707990D01*
X225875000Y-67957990D02*
X225875000Y-66707990D01*
X227875000Y-66707990D02*
X227875000Y-67957990D01*
X227875000Y-67957990D02*
X225875000Y-67957990D01*
X215801000Y-81103480D02*
X217051000Y-81103480D01*
X215801000Y-83103480D02*
X215801000Y-81103480D01*
X217051000Y-81103480D02*
X217051000Y-83103480D01*
X217051000Y-83103480D02*
X215801000Y-83103480D01*
X228776000Y-58665980D02*
X231576000Y-58665980D01*
X228776000Y-60465980D02*
X228776000Y-58665980D01*
X229926000Y-59165980D02*
X230526000Y-59565980D01*
X229926000Y-59565980D02*
X229426000Y-59565980D01*
X229926000Y-59965980D02*
X229926000Y-59165980D01*
X230526000Y-59565980D02*
X229926000Y-59965980D01*
X230526000Y-59565980D02*
X230526000Y-59015980D01*
X230526000Y-59565980D02*
X230526000Y-60115980D01*
X230926000Y-59565980D02*
X230526000Y-59565980D01*
X231576000Y-58665980D02*
X231576000Y-60465980D01*
X231576000Y-60465980D02*
X228776000Y-60465980D01*
X220926000Y-78532990D02*
X223726000Y-78532990D01*
X220926000Y-80332990D02*
X220926000Y-78532990D01*
X221576000Y-79432990D02*
X221976000Y-79432990D01*
X221976000Y-79432990D02*
X221976000Y-78882990D01*
X221976000Y-79432990D02*
X221976000Y-79982990D01*
X221976000Y-79432990D02*
X222576000Y-79032990D01*
X222576000Y-79032990D02*
X222576000Y-79832990D01*
X222576000Y-79432990D02*
X223076000Y-79432990D01*
X222576000Y-79832990D02*
X221976000Y-79432990D01*
X223726000Y-78532990D02*
X223726000Y-80332990D01*
X223726000Y-80332990D02*
X220926000Y-80332990D01*
X220926000Y-76282990D02*
X223726000Y-76282990D01*
X220926000Y-78082990D02*
X220926000Y-76282990D01*
X222076000Y-76782990D02*
X222676000Y-77182990D01*
X222076000Y-77182990D02*
X221576000Y-77182990D01*
X222076000Y-77582990D02*
X222076000Y-76782990D01*
X222676000Y-77182990D02*
X222076000Y-77582990D01*
X222676000Y-77182990D02*
X222676000Y-76632990D01*
X222676000Y-77182990D02*
X222676000Y-77732990D01*
X223076000Y-77182990D02*
X222676000Y-77182990D01*
X223726000Y-76282990D02*
X223726000Y-78082990D01*
X223726000Y-78082990D02*
X220926000Y-78082990D01*
X207336200Y-69193790D02*
X209836200Y-69193790D01*
X207336200Y-72393790D02*
X207336200Y-69193790D01*
X209836200Y-69193790D02*
X209836200Y-72393790D01*
X209836200Y-72393790D02*
X207336200Y-72393790D01*
X228326000Y-61190980D02*
X230326000Y-61190980D01*
X228326000Y-62440980D02*
X228326000Y-61190980D01*
X230326000Y-61190980D02*
X230326000Y-62440980D01*
X230326000Y-62440980D02*
X228326000Y-62440980D01*
X226051000Y-71057990D02*
X228051000Y-71057990D01*
X226051000Y-72307990D02*
X226051000Y-71057990D01*
X228051000Y-71057990D02*
X228051000Y-72307990D01*
X228051000Y-72307990D02*
X226051000Y-72307990D01*
X233149000Y-63882990D02*
X235949000Y-63882990D01*
X233149000Y-78092990D02*
X233949000Y-77692990D01*
X233149000Y-80002990D02*
X233149000Y-63882990D01*
X233949000Y-77692990D02*
X233149000Y-77292990D01*
X235949000Y-63227990D02*
X237549000Y-63227990D01*
X235949000Y-63882990D02*
X235949000Y-63227990D01*
X235949000Y-80002990D02*
X233149000Y-80002990D01*
X235949000Y-80657990D02*
X235949000Y-80002990D01*
X237549000Y-63227990D02*
X237549000Y-80657990D01*
X237549000Y-80657990D02*
X235949000Y-80657990D01*
X229600000Y-63732990D02*
X230850000Y-63732990D01*
X229600000Y-65732990D02*
X229600000Y-63732990D01*
X230850000Y-63732990D02*
X230850000Y-65732990D01*
X230850000Y-65732990D02*
X229600000Y-65732990D01*
X159381800Y-78000000D02*
X159381800Y-83000000D01*
X159381800Y-83000000D02*
X164381800Y-83000000D01*
X164381800Y-78000000D02*
X159381800Y-78000000D01*
X164381800Y-82000000D02*
X163381800Y-83000000D01*
X164381800Y-83000000D02*
X164381800Y-78000000D01*
X163881800Y-80500000D02*
G75*
G02*
X159881800Y-80500000I-2000000J0D01*
G01*
X159881800Y-80500000D02*
G75*
G02*
X163881800Y-80500000I2000000J0D01*
G01*
X176160400Y-70012990D02*
X177410400Y-70012990D01*
X176160400Y-72012990D02*
X176160400Y-70012990D01*
X177410400Y-70012990D02*
X177410400Y-72012990D01*
X177410400Y-72012990D02*
X176160400Y-72012990D01*
X203135200Y-69256490D02*
X204385200Y-69256490D01*
X203135200Y-71256490D02*
X203135200Y-69256490D01*
X204385200Y-69256490D02*
X204385200Y-71256490D01*
X204385200Y-71256490D02*
X203135200Y-71256490D01*
X199382000Y-64910990D02*
X201382000Y-64910990D01*
X199382000Y-66160990D02*
X199382000Y-64910990D01*
X201382000Y-64910990D02*
X201382000Y-66160990D01*
X201382000Y-66160990D02*
X199382000Y-66160990D01*
X199229600Y-62751990D02*
X201229600Y-62751990D01*
X199229600Y-64001990D02*
X199229600Y-62751990D01*
X201229600Y-62751990D02*
X201229600Y-64001990D01*
X201229600Y-64001990D02*
X199229600Y-64001990D01*
D16*
X114450000Y-51500000D02*
X120750000Y-51500000D01*
X114450000Y-77500000D02*
X114450000Y-51500000D01*
X120750000Y-51500000D02*
X120750000Y-77500000D01*
X120750000Y-77500000D02*
X114450000Y-77500000D01*
D15*
X126381800Y-78000000D02*
X126381800Y-83000000D01*
X126381800Y-83000000D02*
X131381800Y-83000000D01*
X131381800Y-78000000D02*
X126381800Y-78000000D01*
X131381800Y-82000000D02*
X130381800Y-83000000D01*
X131381800Y-83000000D02*
X131381800Y-78000000D01*
X130881800Y-80500000D02*
G75*
G02*
X126881800Y-80500000I-2000000J0D01*
G01*
X126881800Y-80500000D02*
G75*
G02*
X130881800Y-80500000I2000000J0D01*
G01*
X203197000Y-65381190D02*
X204447000Y-65381190D01*
X203197000Y-67381190D02*
X203197000Y-65381190D01*
X204447000Y-65381190D02*
X204447000Y-67381190D01*
X204447000Y-67381190D02*
X203197000Y-67381190D01*
X181381800Y-77868590D02*
X181381800Y-82868590D01*
X181381800Y-82868590D02*
X186381800Y-82868590D01*
X186381800Y-77868590D02*
X181381800Y-77868590D01*
X186381800Y-81868590D02*
X185381800Y-82868590D01*
X186381800Y-82868590D02*
X186381800Y-77868590D01*
X185881800Y-80368590D02*
G75*
G02*
X181881800Y-80368590I-2000000J0D01*
G01*
X181881800Y-80368590D02*
G75*
G02*
X185881800Y-80368590I2000000J0D01*
G01*
X206345500Y-73877190D02*
X208345500Y-73877190D01*
X206345500Y-75127190D02*
X206345500Y-73877190D01*
X208345500Y-73877190D02*
X208345500Y-75127190D01*
X208345500Y-75127190D02*
X206345500Y-75127190D01*
X233386000Y-58405980D02*
X234656000Y-58405980D01*
X233386000Y-59045980D02*
X233386000Y-58405980D01*
X234656000Y-57455980D02*
X237196000Y-57455980D01*
X234656000Y-59045980D02*
X233386000Y-59045980D01*
X234656000Y-62535980D02*
X234656000Y-57455980D01*
X236246000Y-62535980D02*
X234656000Y-62535980D01*
X237196000Y-57455980D02*
X237196000Y-61585980D01*
X237196000Y-61585980D02*
X236246000Y-62535980D01*
X237196000Y-61585980D02*
X238466000Y-61585980D01*
X238466000Y-60945980D02*
X237196000Y-60945980D01*
X238466000Y-61585980D02*
X238466000Y-60945980D01*
X203326000Y-57853480D02*
X204576000Y-57853480D01*
X203326000Y-59853480D02*
X203326000Y-57853480D01*
X204576000Y-57853480D02*
X204576000Y-59853480D01*
X204576000Y-59853480D02*
X203326000Y-59853480D01*
X199617800Y-67834790D02*
X202117800Y-67834790D01*
X199617800Y-69434790D02*
X199617800Y-67834790D01*
X202117800Y-67834790D02*
X202517800Y-68234790D01*
X202517800Y-68234790D02*
X202517800Y-69434790D01*
X202517800Y-69434790D02*
X199617800Y-69434790D01*
X218650000Y-73282990D02*
X219900000Y-73282990D01*
X218650000Y-75282990D02*
X218650000Y-73282990D01*
X219900000Y-73282990D02*
X219900000Y-75282990D01*
X219900000Y-75282990D02*
X218650000Y-75282990D01*
X229576000Y-55565980D02*
X230826000Y-55565980D01*
X229576000Y-57565980D02*
X229576000Y-55565980D01*
X230826000Y-55565980D02*
X230826000Y-57565980D01*
X230826000Y-57565980D02*
X229576000Y-57565980D01*
X216537500Y-78507990D02*
X218537500Y-78507990D01*
X216537500Y-79757990D02*
X216537500Y-78507990D01*
X218537500Y-78507990D02*
X218537500Y-79757990D01*
X218537500Y-79757990D02*
X216537500Y-79757990D01*
X217901000Y-81065980D02*
X219151000Y-81065980D01*
X217901000Y-83065980D02*
X217901000Y-81065980D01*
X219151000Y-81065980D02*
X219151000Y-83065980D01*
X219151000Y-83065980D02*
X217901000Y-83065980D01*
D16*
X158450000Y-51500000D02*
X164750000Y-51500000D01*
X158450000Y-77500000D02*
X158450000Y-51500000D01*
X164750000Y-51500000D02*
X164750000Y-77500000D01*
X164750000Y-77500000D02*
X158450000Y-77500000D01*
D15*
X209397400Y-62516990D02*
X212197400Y-62516990D01*
X209397400Y-64316990D02*
X209397400Y-62516990D01*
X210047400Y-63416990D02*
X210447400Y-63416990D01*
X210447400Y-63416990D02*
X210447400Y-62866990D01*
X210447400Y-63416990D02*
X210447400Y-63966990D01*
X210447400Y-63416990D02*
X211047400Y-63016990D01*
X211047400Y-63016990D02*
X211047400Y-63816990D01*
X211047400Y-63416990D02*
X211547400Y-63416990D01*
X211047400Y-63816990D02*
X210447400Y-63416990D01*
X212197400Y-62516990D02*
X212197400Y-64316990D01*
X212197400Y-64316990D02*
X209397400Y-64316990D01*
D16*
X125450000Y-51500000D02*
X131750000Y-51500000D01*
X125450000Y-77500000D02*
X125450000Y-51500000D01*
X131750000Y-51500000D02*
X131750000Y-77500000D01*
X131750000Y-77500000D02*
X125450000Y-77500000D01*
D15*
X216600000Y-73282990D02*
X217850000Y-73282990D01*
X216600000Y-75282990D02*
X216600000Y-73282990D01*
X217850000Y-73282990D02*
X217850000Y-75282990D01*
X217850000Y-75282990D02*
X216600000Y-75282990D01*
D16*
X191450000Y-51500000D02*
X197750000Y-51500000D01*
X191450000Y-77500000D02*
X191450000Y-51500000D01*
X197750000Y-51500000D02*
X197750000Y-77500000D01*
X197750000Y-77500000D02*
X191450000Y-77500000D01*
D15*
X214650000Y-73782990D02*
X215900000Y-73782990D01*
X214650000Y-75782990D02*
X214650000Y-73782990D01*
X215900000Y-73782990D02*
X215900000Y-75782990D01*
X215900000Y-75782990D02*
X214650000Y-75782990D01*
X114939400Y-78000000D02*
X114939400Y-83000000D01*
X114939400Y-83000000D02*
X119939400Y-83000000D01*
X119939400Y-78000000D02*
X114939400Y-78000000D01*
X119939400Y-82000000D02*
X118939400Y-83000000D01*
X119939400Y-83000000D02*
X119939400Y-78000000D01*
X119439400Y-80500000D02*
G75*
G02*
X115439400Y-80500000I-2000000J0D01*
G01*
X115439400Y-80500000D02*
G75*
G02*
X119439400Y-80500000I2000000J0D01*
G01*
X220600000Y-73282990D02*
X221850000Y-73282990D01*
X220600000Y-75282990D02*
X220600000Y-73282990D01*
X221850000Y-73282990D02*
X221850000Y-75282990D01*
X221850000Y-75282990D02*
X220600000Y-75282990D01*
X212650000Y-73582990D02*
X213900000Y-73582990D01*
X212650000Y-75582990D02*
X212650000Y-73582990D01*
X213900000Y-73582990D02*
X213900000Y-75582990D01*
X213900000Y-75582990D02*
X212650000Y-75582990D01*
X232226000Y-61040980D02*
X234226000Y-61040980D01*
X232226000Y-62290980D02*
X232226000Y-61040980D01*
X234226000Y-61040980D02*
X234226000Y-62290980D01*
X234226000Y-62290980D02*
X232226000Y-62290980D01*
D16*
X136450000Y-51500000D02*
X142750000Y-51500000D01*
X136450000Y-77500000D02*
X136450000Y-51500000D01*
X142750000Y-51500000D02*
X142750000Y-77500000D01*
X142750000Y-77500000D02*
X136450000Y-77500000D01*
D15*
X210775000Y-79282990D02*
X211275000Y-78782990D01*
X210775000Y-82782990D02*
X210775000Y-79282990D01*
X211275000Y-78782990D02*
X212775000Y-78782990D01*
X212775000Y-78782990D02*
X212775000Y-82782990D01*
X212775000Y-82782990D02*
X210775000Y-82782990D01*
X194905600Y-64621590D02*
X196155600Y-64621590D01*
X194905600Y-66621590D02*
X194905600Y-64621590D01*
X196155600Y-64621590D02*
X196155600Y-66621590D01*
X196155600Y-66621590D02*
X194905600Y-66621590D01*
X210451000Y-58482990D02*
X211701000Y-58482990D01*
X210451000Y-60482990D02*
X210451000Y-58482990D01*
X211701000Y-58482990D02*
X211701000Y-60482990D01*
X211701000Y-60482990D02*
X210451000Y-60482990D01*
X178598800Y-70749590D02*
X179848800Y-70749590D01*
X178598800Y-72749590D02*
X178598800Y-70749590D01*
X179848800Y-70749590D02*
X179848800Y-72749590D01*
X179848800Y-72749590D02*
X178598800Y-72749590D01*
X192381800Y-77868590D02*
X192381800Y-82868590D01*
X192381800Y-82868590D02*
X197381800Y-82868590D01*
X197381800Y-77868590D02*
X192381800Y-77868590D01*
X197381800Y-81868590D02*
X196381800Y-82868590D01*
X197381800Y-82868590D02*
X197381800Y-77868590D01*
X196881800Y-80368590D02*
G75*
G02*
X192881800Y-80368590I-2000000J0D01*
G01*
X192881800Y-80368590D02*
G75*
G02*
X196881800Y-80368590I2000000J0D01*
G01*
X204087400Y-62781790D02*
X206887400Y-62781790D01*
X204087400Y-64581790D02*
X204087400Y-62781790D01*
X204737400Y-63681790D02*
X205137400Y-63681790D01*
X205137400Y-63681790D02*
X205137400Y-63131790D01*
X205137400Y-63681790D02*
X205137400Y-64231790D01*
X205137400Y-63681790D02*
X205737400Y-63281790D01*
X205737400Y-63281790D02*
X205737400Y-64081790D01*
X205737400Y-63681790D02*
X206237400Y-63681790D01*
X205737400Y-64081790D02*
X205137400Y-63681790D01*
X206887400Y-62781790D02*
X206887400Y-64581790D01*
X206887400Y-64581790D02*
X204087400Y-64581790D01*
D16*
X147450000Y-51500000D02*
X153750000Y-51500000D01*
X147450000Y-77500000D02*
X147450000Y-51500000D01*
X153750000Y-51500000D02*
X153750000Y-77500000D01*
X153750000Y-77500000D02*
X147450000Y-77500000D01*
D15*
X222600000Y-73282990D02*
X223850000Y-73282990D01*
X222600000Y-75282990D02*
X222600000Y-73282990D01*
X223850000Y-73282990D02*
X223850000Y-75282990D01*
X223850000Y-75282990D02*
X222600000Y-75282990D01*
X224569400Y-56940980D02*
X226569400Y-56940980D01*
X224569400Y-58190980D02*
X224569400Y-56940980D01*
X226569400Y-56940980D02*
X226569400Y-58190980D01*
X226569400Y-58190980D02*
X224569400Y-58190980D01*
X110694600Y-62487990D02*
X111329600Y-61852990D01*
X110694600Y-82172990D02*
X110694600Y-62487990D01*
X111329600Y-61852990D02*
X113234600Y-61852990D01*
X113234600Y-61852990D02*
X113234600Y-82172990D01*
X113234600Y-82172990D02*
X110694600Y-82172990D01*
X209826000Y-56007990D02*
X211826000Y-56007990D01*
X209826000Y-57257990D02*
X209826000Y-56007990D01*
X211826000Y-56007990D02*
X211826000Y-57257990D01*
X211826000Y-57257990D02*
X209826000Y-57257990D01*
D16*
X180450000Y-51500000D02*
X186750000Y-51500000D01*
X180450000Y-77500000D02*
X180450000Y-51500000D01*
X186750000Y-51500000D02*
X186750000Y-77500000D01*
X186750000Y-77500000D02*
X180450000Y-77500000D01*
D15*
X214975000Y-56317990D02*
X215610000Y-55682990D01*
X214975000Y-58222990D02*
X214975000Y-56317990D01*
X215610000Y-55682990D02*
X217515000Y-55682990D01*
X217515000Y-55682990D02*
X217515000Y-58222990D01*
X217515000Y-58222990D02*
X214975000Y-58222990D01*
X148381800Y-78000000D02*
X148381800Y-83000000D01*
X148381800Y-83000000D02*
X153381800Y-83000000D01*
X153381800Y-78000000D02*
X148381800Y-78000000D01*
X153381800Y-82000000D02*
X152381800Y-83000000D01*
X153381800Y-83000000D02*
X153381800Y-78000000D01*
X152881800Y-80500000D02*
G75*
G02*
X148881800Y-80500000I-2000000J0D01*
G01*
X148881800Y-80500000D02*
G75*
G02*
X152881800Y-80500000I2000000J0D01*
G01*
X170381800Y-78000000D02*
X170381800Y-83000000D01*
X170381800Y-83000000D02*
X175381800Y-83000000D01*
X175381800Y-78000000D02*
X170381800Y-78000000D01*
X175381800Y-82000000D02*
X174381800Y-83000000D01*
X175381800Y-83000000D02*
X175381800Y-78000000D01*
X174881800Y-80500000D02*
G75*
G02*
X170881800Y-80500000I-2000000J0D01*
G01*
X170881800Y-80500000D02*
G75*
G02*
X174881800Y-80500000I2000000J0D01*
G01*
X206526000Y-57865980D02*
X208126000Y-57865980D01*
X206526000Y-60765980D02*
X206526000Y-57865980D01*
X207726000Y-60765980D02*
X206526000Y-60765980D01*
X208126000Y-57865980D02*
X208126000Y-60365980D01*
X208126000Y-60365980D02*
X207726000Y-60765980D01*
X206386400Y-80731790D02*
X207636400Y-80731790D01*
X206386400Y-82731790D02*
X206386400Y-80731790D01*
X207636400Y-80731790D02*
X207636400Y-82731790D01*
X207636400Y-82731790D02*
X206386400Y-82731790D01*
X137381800Y-78000000D02*
X137381800Y-83000000D01*
X137381800Y-83000000D02*
X142381800Y-83000000D01*
X142381800Y-78000000D02*
X137381800Y-78000000D01*
X142381800Y-82000000D02*
X141381800Y-83000000D01*
X142381800Y-83000000D02*
X142381800Y-78000000D01*
X141881800Y-80500000D02*
G75*
G02*
X137881800Y-80500000I-2000000J0D01*
G01*
X137881800Y-80500000D02*
G75*
G02*
X141881800Y-80500000I2000000J0D01*
G01*
D16*
X169450000Y-51500000D02*
X175750000Y-51500000D01*
X169450000Y-77500000D02*
X169450000Y-51500000D01*
X175750000Y-51500000D02*
X175750000Y-77500000D01*
X175750000Y-77500000D02*
X169450000Y-77500000D01*
M02*
