G04 #@! TF.GenerationSoftware,KiCad,Pcbnew,8.0.5*
G04 #@! TF.CreationDate,2024-10-13T22:09:45+02:00*
G04 #@! TF.ProjectId,s3Basic,73334261-7369-4632-9e6b-696361645f70,rev?*
G04 #@! TF.SameCoordinates,Original*
G04 #@! TF.FileFunction,Soldermask,Bot*
G04 #@! TF.FilePolarity,Negative*
%FSLAX46Y46*%
G04 Gerber Fmt 4.6, Leading zero omitted, Abs format (unit mm)*
G04 Created by KiCad (PCBNEW 8.0.5) date 2024-10-13 22:09:45*
%MOMM*%
%LPD*%
G01*
G04 APERTURE LIST*
G04 Aperture macros list*
%AMRoundRect*
0 Rectangle with rounded corners*
0 $1 Rounding radius*
0 $2 $3 $4 $5 $6 $7 $8 $9 X,Y pos of 4 corners*
0 Add a 4 corners polygon primitive as box body*
4,1,4,$2,$3,$4,$5,$6,$7,$8,$9,$2,$3,0*
0 Add four circle primitives for the rounded corners*
1,1,$1+$1,$2,$3*
1,1,$1+$1,$4,$5*
1,1,$1+$1,$6,$7*
1,1,$1+$1,$8,$9*
0 Add four rect primitives between the rounded corners*
20,1,$1+$1,$2,$3,$4,$5,0*
20,1,$1+$1,$4,$5,$6,$7,0*
20,1,$1+$1,$6,$7,$8,$9,0*
20,1,$1+$1,$8,$9,$2,$3,0*%
%AMFreePoly0*
4,1,19,0.500000,-0.750000,0.000000,-0.750000,0.000000,-0.744911,-0.071157,-0.744911,-0.207708,-0.704816,-0.327430,-0.627875,-0.420627,-0.520320,-0.479746,-0.390866,-0.500000,-0.250000,-0.500000,0.250000,-0.479746,0.390866,-0.420627,0.520320,-0.327430,0.627875,-0.207708,0.704816,-0.071157,0.744911,0.000000,0.744911,0.000000,0.750000,0.500000,0.750000,0.500000,-0.750000,0.500000,-0.750000,
$1*%
%AMFreePoly1*
4,1,19,0.000000,0.744911,0.071157,0.744911,0.207708,0.704816,0.327430,0.627875,0.420627,0.520320,0.479746,0.390866,0.500000,0.250000,0.500000,-0.250000,0.479746,-0.390866,0.420627,-0.520320,0.327430,-0.627875,0.207708,-0.704816,0.071157,-0.744911,0.000000,-0.744911,0.000000,-0.750000,-0.500000,-0.750000,-0.500000,0.750000,0.000000,0.750000,0.000000,0.744911,0.000000,0.744911,
$1*%
G04 Aperture macros list end*
%ADD10R,1.700000X1.700000*%
%ADD11O,1.700000X1.700000*%
%ADD12C,1.000000*%
%ADD13C,2.200000*%
%ADD14C,2.859000*%
%ADD15RoundRect,0.082000X0.718000X-0.328000X0.718000X0.328000X-0.718000X0.328000X-0.718000X-0.328000X0*%
%ADD16R,1.350000X1.350000*%
%ADD17O,1.350000X1.350000*%
%ADD18R,2.500000X0.350000*%
%ADD19FreePoly0,90.000000*%
%ADD20FreePoly1,90.000000*%
%ADD21RoundRect,0.250000X0.450000X-0.350000X0.450000X0.350000X-0.450000X0.350000X-0.450000X-0.350000X0*%
%ADD22RoundRect,0.100000X-0.637500X-0.100000X0.637500X-0.100000X0.637500X0.100000X-0.637500X0.100000X0*%
%ADD23RoundRect,0.150000X-0.587500X-0.150000X0.587500X-0.150000X0.587500X0.150000X-0.587500X0.150000X0*%
%ADD24RoundRect,0.165000X-0.385000X-0.435000X0.385000X-0.435000X0.385000X0.435000X-0.385000X0.435000X0*%
%ADD25RoundRect,0.180000X-0.420000X-0.420000X0.420000X-0.420000X0.420000X0.420000X-0.420000X0.420000X0*%
%ADD26C,0.950000*%
%ADD27RoundRect,0.210000X-0.540000X-0.490000X0.540000X-0.490000X0.540000X0.490000X-0.540000X0.490000X0*%
%ADD28RoundRect,0.200000X0.275000X-0.200000X0.275000X0.200000X-0.275000X0.200000X-0.275000X-0.200000X0*%
%ADD29RoundRect,0.250000X0.337500X0.475000X-0.337500X0.475000X-0.337500X-0.475000X0.337500X-0.475000X0*%
%ADD30RoundRect,0.150000X-0.150000X0.587500X-0.150000X-0.587500X0.150000X-0.587500X0.150000X0.587500X0*%
%ADD31RoundRect,0.250000X0.475000X-0.337500X0.475000X0.337500X-0.475000X0.337500X-0.475000X-0.337500X0*%
%ADD32R,0.600000X0.250000*%
%ADD33R,0.250000X0.600000*%
%ADD34R,1.500000X1.500000*%
%ADD35C,0.750000*%
%ADD36O,1.200000X1.800000*%
%ADD37O,1.200000X2.000000*%
%ADD38R,0.300000X1.300000*%
%ADD39RoundRect,0.250000X0.350000X0.450000X-0.350000X0.450000X-0.350000X-0.450000X0.350000X-0.450000X0*%
%ADD40RoundRect,0.250000X-0.350000X-0.450000X0.350000X-0.450000X0.350000X0.450000X-0.350000X0.450000X0*%
%ADD41R,1.500000X0.900000*%
%ADD42R,0.900000X1.500000*%
%ADD43R,3.900000X3.900000*%
%ADD44RoundRect,0.100000X0.100000X-0.637500X0.100000X0.637500X-0.100000X0.637500X-0.100000X-0.637500X0*%
%ADD45O,1.200000X1.600000*%
%ADD46O,1.200000X1.200000*%
%ADD47R,1.000000X0.600000*%
%ADD48RoundRect,0.200000X0.200000X0.275000X-0.200000X0.275000X-0.200000X-0.275000X0.200000X-0.275000X0*%
%ADD49RoundRect,0.243750X-0.243750X-0.456250X0.243750X-0.456250X0.243750X0.456250X-0.243750X0.456250X0*%
G04 APERTURE END LIST*
D10*
X198155000Y-84482990D03*
D11*
X195615000Y-84482990D03*
X193075000Y-84482990D03*
X190535000Y-84482990D03*
X187995000Y-84482990D03*
X185455000Y-84482990D03*
X182915000Y-84482990D03*
X180375000Y-84482990D03*
D12*
X204325000Y-77582990D03*
D13*
X145162400Y-9596980D03*
X167463600Y-83700000D03*
D14*
X116000000Y-75600000D03*
X116000000Y-69300000D03*
X121100000Y-56600000D03*
X114300000Y-56600000D03*
D15*
X197600000Y-61132990D03*
X197600000Y-59632990D03*
X192400000Y-59632990D03*
X192400000Y-61132990D03*
X153600000Y-61132990D03*
X153600000Y-59632990D03*
X148400000Y-59632990D03*
X148400000Y-61132990D03*
D13*
X123300000Y-83700000D03*
D15*
X175100000Y-61132990D03*
X175100000Y-59632990D03*
X169900000Y-59632990D03*
X169900000Y-61132990D03*
D13*
X178131600Y-9632990D03*
D15*
X142100000Y-61132990D03*
X142100000Y-59632990D03*
X136900000Y-59632990D03*
X136900000Y-61132990D03*
X131600000Y-61132990D03*
X131600000Y-59632990D03*
X126400000Y-59632990D03*
X126400000Y-61132990D03*
D14*
X160000000Y-75600000D03*
X160000000Y-69300000D03*
X165100000Y-56600000D03*
X158300000Y-56600000D03*
D15*
X186600000Y-61132990D03*
X186600000Y-59632990D03*
X181400000Y-59632990D03*
X181400000Y-61132990D03*
D14*
X127000000Y-75600000D03*
X127000000Y-69300000D03*
X132100000Y-56600000D03*
X125300000Y-56600000D03*
X193000000Y-75600000D03*
X193000000Y-69300000D03*
X198100000Y-56600000D03*
X191300000Y-56600000D03*
D13*
X167125000Y-68382990D03*
X189000000Y-75000000D03*
X145441800Y-83700000D03*
D15*
X164100000Y-61132990D03*
X164100000Y-59632990D03*
X158900000Y-59632990D03*
X158900000Y-61132990D03*
D14*
X138000000Y-75600000D03*
X138000000Y-69300000D03*
X143100000Y-56600000D03*
X136300000Y-56600000D03*
D16*
X211775000Y-79782990D03*
D17*
X211775000Y-81782991D03*
D13*
X189000000Y-9632990D03*
X134075000Y-69782990D03*
D14*
X149000000Y-75600000D03*
X149000000Y-69300000D03*
X154100000Y-56600000D03*
X147300000Y-56600000D03*
D13*
X167184200Y-9693403D03*
D10*
X111964600Y-63122990D03*
D11*
X111964600Y-65662990D03*
X111964600Y-68202990D03*
X111964600Y-70742990D03*
X111964600Y-73282990D03*
X111964600Y-75822990D03*
X111964600Y-78362990D03*
X111964600Y-80902990D03*
D14*
X182000000Y-75600000D03*
X182000000Y-69300000D03*
X187100000Y-56600000D03*
X180300000Y-56600000D03*
D10*
X216245000Y-56952990D03*
D15*
X120016400Y-61132990D03*
X120016400Y-59632990D03*
X114816400Y-59632990D03*
X114816400Y-61132990D03*
D14*
X171000000Y-75600000D03*
X171000000Y-69300000D03*
X176100000Y-56600000D03*
X169300000Y-56600000D03*
D18*
X236450000Y-75415980D03*
X236450000Y-74715980D03*
X236450000Y-74015980D03*
X236450000Y-73315980D03*
X236450000Y-72615980D03*
X236450000Y-71915980D03*
X236450000Y-71215980D03*
X236450000Y-70515980D03*
X236450000Y-69815980D03*
X236450000Y-69115980D03*
X236450000Y-68415980D03*
X236450000Y-67715980D03*
D19*
X236451000Y-78582990D03*
D20*
X236451000Y-77282990D03*
D21*
X201625000Y-57582990D03*
X201625000Y-55582990D03*
D22*
X201288400Y-84854390D03*
X201288400Y-84204390D03*
X201288400Y-83554390D03*
X201288400Y-82904390D03*
X201288400Y-82254390D03*
X201288400Y-81604390D03*
X201288400Y-80954390D03*
X201288400Y-80304390D03*
X207013400Y-80304390D03*
X207013400Y-80954390D03*
X207013400Y-81604390D03*
X207013400Y-82254390D03*
X207013400Y-82904390D03*
X207013400Y-83554390D03*
X207013400Y-84204390D03*
X207013400Y-84854390D03*
D23*
X235875000Y-83082990D03*
X235875000Y-81182990D03*
X237750000Y-82132990D03*
D24*
X203901000Y-57232990D03*
X208001000Y-57232990D03*
D25*
X203751000Y-55632990D03*
D26*
X203751000Y-55682990D03*
D27*
X205951000Y-57857990D03*
D25*
X208151000Y-55632990D03*
D26*
X208151000Y-55682990D03*
D12*
X228035000Y-62782990D03*
D28*
X234075000Y-75857990D03*
X234075000Y-74207990D03*
D16*
X209297400Y-64916990D03*
D17*
X209297400Y-66916990D03*
D24*
X227901000Y-57232990D03*
X232001000Y-57232990D03*
D25*
X227751000Y-55632990D03*
D26*
X227751000Y-55682990D03*
D27*
X229951000Y-57857990D03*
D25*
X232151000Y-55632990D03*
D26*
X232151000Y-55682990D03*
D29*
X234362500Y-62122990D03*
X232287500Y-62122990D03*
D30*
X236176000Y-60065980D03*
X238076000Y-60065980D03*
X237126000Y-61940980D03*
D31*
X225604200Y-61874490D03*
X225604200Y-59799490D03*
D29*
X206575700Y-59922590D03*
X204500700Y-59922590D03*
D22*
X206366400Y-74724990D03*
X206366400Y-74074990D03*
X206366400Y-73424990D03*
X206366400Y-72774990D03*
X206366400Y-72124990D03*
X206366400Y-71474990D03*
X206366400Y-70824990D03*
X212091400Y-70824990D03*
X212091400Y-71474990D03*
X212091400Y-72124990D03*
X212091400Y-72774990D03*
X212091400Y-73424990D03*
X212091400Y-74074990D03*
X212091400Y-74724990D03*
D32*
X204113000Y-65840190D03*
X204113000Y-65341190D03*
X204113000Y-64840190D03*
X204113000Y-64341190D03*
D33*
X204865000Y-63592190D03*
X205365000Y-63592190D03*
X205865000Y-63592190D03*
X206365000Y-63592190D03*
D32*
X207113000Y-64342190D03*
X207113000Y-64842190D03*
X207113000Y-65342190D03*
X207113000Y-65840190D03*
D33*
X206365000Y-66592190D03*
X205865000Y-66592190D03*
X205365000Y-66592190D03*
X204865000Y-66592190D03*
D34*
X205613000Y-65092190D03*
D10*
X145137000Y-68111390D03*
D11*
X145137000Y-70651390D03*
X145137000Y-73191390D03*
X145137000Y-75731390D03*
D35*
X215051000Y-59598990D03*
X220851000Y-59598990D03*
D36*
X213626000Y-55898990D03*
D37*
X213626000Y-60098990D03*
D36*
X222276000Y-55898990D03*
D37*
X222276000Y-60098990D03*
D38*
X214601000Y-61166990D03*
X215401000Y-61166990D03*
X216701000Y-61166990D03*
X217701000Y-61166990D03*
X218201000Y-61166990D03*
X219201000Y-61166990D03*
X220501000Y-61166990D03*
X221301000Y-61166990D03*
X221001000Y-61166990D03*
X220201000Y-61166990D03*
X219701000Y-61166990D03*
X218701000Y-61166990D03*
X217201000Y-61166990D03*
X216201000Y-61166990D03*
X215701000Y-61166990D03*
X214901000Y-61166990D03*
D39*
X226226000Y-57665980D03*
X224226000Y-57665980D03*
D40*
X209826000Y-59065980D03*
X211826000Y-59065980D03*
D10*
X123039000Y-68558590D03*
D11*
X123039000Y-71098590D03*
X123039000Y-73638590D03*
X123039000Y-76178590D03*
X123039000Y-78718590D03*
D39*
X237826000Y-55565980D03*
X235826000Y-55565980D03*
D41*
X214801000Y-82015980D03*
X214801000Y-80745980D03*
X214801000Y-79475980D03*
X214801000Y-78205980D03*
X214801000Y-76935980D03*
X214801000Y-75665980D03*
X214801000Y-74395980D03*
X214801000Y-73125980D03*
X214801000Y-71855980D03*
X214801000Y-70585980D03*
X214801000Y-69315980D03*
X214801000Y-68045980D03*
X214801000Y-66775980D03*
X214801000Y-65505980D03*
D42*
X216566000Y-64255980D03*
X217836000Y-64255980D03*
X219106000Y-64255980D03*
X220376000Y-64255980D03*
X221646000Y-64255980D03*
X222916000Y-64255980D03*
X224186000Y-64255980D03*
X225456000Y-64255980D03*
X226726000Y-64255980D03*
X227996000Y-64255980D03*
X229266000Y-64255980D03*
X230536000Y-64255980D03*
D41*
X232301000Y-65505980D03*
X232301000Y-66775980D03*
X232301000Y-68045980D03*
X232301000Y-69315980D03*
X232301000Y-70585980D03*
X232301000Y-71855980D03*
X232301000Y-73125980D03*
X232301000Y-74395980D03*
X232301000Y-75665980D03*
X232301000Y-76935980D03*
X232301000Y-78205980D03*
X232301000Y-79475980D03*
X232301000Y-80745980D03*
X232301000Y-82015980D03*
D43*
X222051000Y-74295980D03*
D10*
X155855800Y-67237790D03*
D11*
X155855800Y-69777790D03*
X155855800Y-72317790D03*
X155855800Y-74857790D03*
X155855800Y-77397790D03*
D29*
X206575700Y-62005390D03*
X204500700Y-62005390D03*
D21*
X233926000Y-57365980D03*
X233926000Y-55365980D03*
D28*
X234087800Y-68304590D03*
X234087800Y-66654590D03*
D44*
X204327600Y-75485090D03*
X203677600Y-75485090D03*
X203027600Y-75485090D03*
X202377600Y-75485090D03*
X201727600Y-75485090D03*
X201077600Y-75485090D03*
X200427600Y-75485090D03*
X199777600Y-75485090D03*
X199127600Y-75485090D03*
X198477600Y-75485090D03*
X197827600Y-75485090D03*
X197177600Y-75485090D03*
X196527600Y-75485090D03*
X195877600Y-75485090D03*
X195877600Y-69760090D03*
X196527600Y-69760090D03*
X197177600Y-69760090D03*
X197827600Y-69760090D03*
X198477600Y-69760090D03*
X199127600Y-69760090D03*
X199777600Y-69760090D03*
X200427600Y-69760090D03*
X201077600Y-69760090D03*
X201727600Y-69760090D03*
X202377600Y-69760090D03*
X203027600Y-69760090D03*
X203677600Y-69760090D03*
X204327600Y-69760090D03*
D45*
X166397000Y-73689190D03*
D46*
X162597000Y-69889190D03*
X164197000Y-68289190D03*
X167997000Y-72089190D03*
D47*
X230226000Y-59750000D03*
X230226000Y-60700000D03*
X230226000Y-61650000D03*
X227626000Y-61650000D03*
X227626000Y-59750000D03*
D12*
X209625000Y-81682990D03*
D48*
X236150000Y-65232990D03*
X234500000Y-65232990D03*
D40*
X200474200Y-63122990D03*
X202474200Y-63122990D03*
D39*
X234576000Y-59232990D03*
X232576000Y-59232990D03*
D40*
X200169400Y-61141790D03*
X202169400Y-61141790D03*
D49*
X235638500Y-57565980D03*
X237513500Y-57565980D03*
D28*
X234125000Y-84682990D03*
X234125000Y-83032990D03*
M02*
