M48
; DRILL file {KiCad (7.0.0)} date Mon Aug 21 19:51:52 2023
; FORMAT={-:-/ absolute / inch / decimal}
; #@! TF.CreationDate,2023-08-21T19:51:52+02:00
; #@! TF.GenerationSoftware,Kicad,Pcbnew,(7.0.0)
; #@! TF.FileFunction,Plated,1,2,PTH
FMAT,2
INCH
; #@! TA.AperFunction,Plated,PTH,ViaDrill
T1C0.0157
; #@! TA.AperFunction,Plated,PTH,ComponentDrill
T2C0.0394
; #@! TA.AperFunction,Plated,PTH,ViaDrill
T3C0.0787
%
G90
G05
T1
X3.374Y-3.2598
X3.52Y-3.58
X3.5394Y-3.4134
X3.6Y-3.47
X3.671Y-3.543
X3.84Y-3.52
X3.95Y-3.24
X3.99Y-3.41
X3.99Y-3.5
X4.19Y-3.0
X4.21Y-3.22
X4.22Y-3.35
X4.235Y-3.492
X4.25Y-3.4228
X4.35Y-3.57
X4.5218Y-2.9898
X4.5282Y-3.1889
X4.5344Y-3.2278
X4.55Y-3.5
X4.55Y-3.56
X4.56Y-2.81
X4.56Y-3.0533
X4.56Y-3.1
X4.5696Y-3.1415
X4.64Y-2.86
X4.7171Y-3.2029
T2
X3.3543Y-3.4213
X3.4Y-2.7559
X3.4Y-2.8559
X3.4Y-2.9559
X3.4Y-3.0559
X3.4Y-3.1559
X3.5Y-2.7559
X3.5Y-2.8559
X3.5Y-2.9559
X3.5Y-3.0559
X3.5Y-3.1559
X4.0748Y-2.74
X4.1748Y-2.74
X4.2748Y-2.74
X4.3748Y-2.74
X4.4748Y-2.74
X4.5748Y-2.74
T3
X3.3937Y-3.55
X4.78Y-2.74
X4.78Y-3.55
T0
M30
