%TF.GenerationSoftware,KiCad,Pcbnew,(7.0.0)*%
%TF.CreationDate,2023-08-21T19:51:53+02:00*%
%TF.ProjectId,s3Basic,73334261-7369-4632-9e6b-696361645f70,rev?*%
%TF.SameCoordinates,Original*%
%TF.FileFunction,Drillmap*%
%TF.FilePolarity,Positive*%
%FSLAX45Y45*%
G04 Gerber Fmt 4.5, Leading zero omitted, Abs format (unit mm)*
G04 Created by KiCad (PCBNEW (7.0.0)) date 2023-08-21 19:51:53*
%MOMM*%
%LPD*%
G01*
G04 APERTURE LIST*
%ADD10C,0.150000*%
%ADD11C,0.200000*%
%ADD12C,0.040000*%
%ADD13C,0.100000*%
G04 APERTURE END LIST*
D10*
X8400000Y-9169400D02*
X12300000Y-9169400D01*
X12300000Y-6807200D02*
X12300000Y-9169400D01*
X8400000Y-9169400D02*
X8400000Y-6807200D01*
X8400000Y-6807200D02*
X12300000Y-6807200D01*
D11*
D12*
X8550000Y-8260000D02*
X8590000Y-8300000D01*
X8590000Y-8260000D02*
X8550000Y-8300000D01*
X8920800Y-9073200D02*
X8960800Y-9113200D01*
X8960800Y-9073200D02*
X8920800Y-9113200D01*
X8970000Y-8650000D02*
X9010000Y-8690000D01*
X9010000Y-8650000D02*
X8970000Y-8690000D01*
X9124000Y-8793800D02*
X9164000Y-8833800D01*
X9164000Y-8793800D02*
X9124000Y-8833800D01*
X9304319Y-8979269D02*
X9344319Y-9019269D01*
X9344319Y-8979269D02*
X9304319Y-9019269D01*
X9733600Y-8920800D02*
X9773600Y-8960800D01*
X9773600Y-8920800D02*
X9733600Y-8960800D01*
X10013000Y-8209600D02*
X10053000Y-8249600D01*
X10053000Y-8209600D02*
X10013000Y-8249600D01*
X10114600Y-8641400D02*
X10154600Y-8681400D01*
X10154600Y-8641400D02*
X10114600Y-8681400D01*
X10114600Y-8870000D02*
X10154600Y-8910000D01*
X10154600Y-8870000D02*
X10114600Y-8910000D01*
X10622600Y-7600000D02*
X10662600Y-7640000D01*
X10662600Y-7600000D02*
X10622600Y-7640000D01*
X10673400Y-8158800D02*
X10713400Y-8198800D01*
X10713400Y-8158800D02*
X10673400Y-8198800D01*
X10698800Y-8489000D02*
X10738800Y-8529000D01*
X10738800Y-8489000D02*
X10698800Y-8529000D01*
X10736900Y-8849600D02*
X10776900Y-8889600D01*
X10776900Y-8849600D02*
X10736900Y-8889600D01*
X10775000Y-8673800D02*
X10815000Y-8713800D01*
X10815000Y-8673800D02*
X10775000Y-8713800D01*
X11029000Y-9047800D02*
X11069000Y-9087800D01*
X11069000Y-9047800D02*
X11029000Y-9087800D01*
X11465412Y-7574176D02*
X11505412Y-7614176D01*
X11505412Y-7574176D02*
X11465412Y-7614176D01*
X11481745Y-8079804D02*
X11521745Y-8119804D01*
X11521745Y-8079804D02*
X11481745Y-8119804D01*
X11497352Y-8178579D02*
X11537352Y-8218579D01*
X11537352Y-8178579D02*
X11497352Y-8218579D01*
X11537000Y-8870000D02*
X11577000Y-8910000D01*
X11577000Y-8870000D02*
X11537000Y-8910000D01*
X11537000Y-9022400D02*
X11577000Y-9062400D01*
X11577000Y-9022400D02*
X11537000Y-9062400D01*
X11562400Y-7117400D02*
X11602400Y-7157400D01*
X11602400Y-7117400D02*
X11562400Y-7157400D01*
X11562400Y-7735400D02*
X11602400Y-7775400D01*
X11602400Y-7735400D02*
X11562400Y-7775400D01*
X11562400Y-7854000D02*
X11602400Y-7894000D01*
X11602400Y-7854000D02*
X11562400Y-7894000D01*
X11586771Y-7959408D02*
X11626771Y-7999408D01*
X11626771Y-7959408D02*
X11586771Y-7999408D01*
X11765600Y-7244400D02*
X11805600Y-7284400D01*
X11805600Y-7244400D02*
X11765600Y-7284400D01*
X11961400Y-8115400D02*
X12001400Y-8155400D01*
X12001400Y-8115400D02*
X11961400Y-8155400D01*
D13*
X8570000Y-8690000D02*
G75*
G03*
X8570000Y-8690000I-50000J0D01*
G01*
X8686000Y-7000000D02*
G75*
G03*
X8686000Y-7000000I-50000J0D01*
G01*
X8686000Y-7254000D02*
G75*
G03*
X8686000Y-7254000I-50000J0D01*
G01*
X8686000Y-7508000D02*
G75*
G03*
X8686000Y-7508000I-50000J0D01*
G01*
X8686000Y-7762000D02*
G75*
G03*
X8686000Y-7762000I-50000J0D01*
G01*
X8686000Y-8016000D02*
G75*
G03*
X8686000Y-8016000I-50000J0D01*
G01*
X8940000Y-7000000D02*
G75*
G03*
X8940000Y-7000000I-50000J0D01*
G01*
X8940000Y-7254000D02*
G75*
G03*
X8940000Y-7254000I-50000J0D01*
G01*
X8940000Y-7508000D02*
G75*
G03*
X8940000Y-7508000I-50000J0D01*
G01*
X8940000Y-7762000D02*
G75*
G03*
X8940000Y-7762000I-50000J0D01*
G01*
X8940000Y-8016000D02*
G75*
G03*
X8940000Y-8016000I-50000J0D01*
G01*
X10400000Y-6959600D02*
G75*
G03*
X10400000Y-6959600I-50000J0D01*
G01*
X10654000Y-6959600D02*
G75*
G03*
X10654000Y-6959600I-50000J0D01*
G01*
X10908000Y-6959600D02*
G75*
G03*
X10908000Y-6959600I-50000J0D01*
G01*
X11162000Y-6959600D02*
G75*
G03*
X11162000Y-6959600I-50000J0D01*
G01*
X11416000Y-6959600D02*
G75*
G03*
X11416000Y-6959600I-50000J0D01*
G01*
X11670000Y-6959600D02*
G75*
G03*
X11670000Y-6959600I-50000J0D01*
G01*
D11*
X8620000Y-8917000D02*
X8620000Y-9117000D01*
X8520000Y-9017000D02*
X8720000Y-9017000D01*
X12141200Y-6859600D02*
X12141200Y-7059600D01*
X12041200Y-6959600D02*
X12241200Y-6959600D01*
X12141200Y-8917000D02*
X12141200Y-9117000D01*
X12041200Y-9017000D02*
X12241200Y-9017000D01*
X8640119Y-9470376D02*
X8640119Y-9270376D01*
X8640119Y-9270376D02*
X8687738Y-9270376D01*
X8687738Y-9270376D02*
X8716310Y-9279900D01*
X8716310Y-9279900D02*
X8735357Y-9298948D01*
X8735357Y-9298948D02*
X8744881Y-9317995D01*
X8744881Y-9317995D02*
X8754405Y-9356090D01*
X8754405Y-9356090D02*
X8754405Y-9384662D01*
X8754405Y-9384662D02*
X8744881Y-9422757D01*
X8744881Y-9422757D02*
X8735357Y-9441805D01*
X8735357Y-9441805D02*
X8716310Y-9460852D01*
X8716310Y-9460852D02*
X8687738Y-9470376D01*
X8687738Y-9470376D02*
X8640119Y-9470376D01*
X8840119Y-9470376D02*
X8840119Y-9337043D01*
X8840119Y-9375138D02*
X8849643Y-9356090D01*
X8849643Y-9356090D02*
X8859167Y-9346567D01*
X8859167Y-9346567D02*
X8878214Y-9337043D01*
X8878214Y-9337043D02*
X8897262Y-9337043D01*
X8963929Y-9470376D02*
X8963929Y-9337043D01*
X8963929Y-9270376D02*
X8954405Y-9279900D01*
X8954405Y-9279900D02*
X8963929Y-9289424D01*
X8963929Y-9289424D02*
X8973452Y-9279900D01*
X8973452Y-9279900D02*
X8963929Y-9270376D01*
X8963929Y-9270376D02*
X8963929Y-9289424D01*
X9087738Y-9470376D02*
X9068690Y-9460852D01*
X9068690Y-9460852D02*
X9059167Y-9441805D01*
X9059167Y-9441805D02*
X9059167Y-9270376D01*
X9192500Y-9470376D02*
X9173452Y-9460852D01*
X9173452Y-9460852D02*
X9163929Y-9441805D01*
X9163929Y-9441805D02*
X9163929Y-9270376D01*
X9388690Y-9470376D02*
X9388690Y-9270376D01*
X9388690Y-9270376D02*
X9455357Y-9413233D01*
X9455357Y-9413233D02*
X9522024Y-9270376D01*
X9522024Y-9270376D02*
X9522024Y-9470376D01*
X9702976Y-9470376D02*
X9702976Y-9365614D01*
X9702976Y-9365614D02*
X9693452Y-9346567D01*
X9693452Y-9346567D02*
X9674405Y-9337043D01*
X9674405Y-9337043D02*
X9636309Y-9337043D01*
X9636309Y-9337043D02*
X9617262Y-9346567D01*
X9702976Y-9460852D02*
X9683929Y-9470376D01*
X9683929Y-9470376D02*
X9636309Y-9470376D01*
X9636309Y-9470376D02*
X9617262Y-9460852D01*
X9617262Y-9460852D02*
X9607738Y-9441805D01*
X9607738Y-9441805D02*
X9607738Y-9422757D01*
X9607738Y-9422757D02*
X9617262Y-9403710D01*
X9617262Y-9403710D02*
X9636309Y-9394186D01*
X9636309Y-9394186D02*
X9683929Y-9394186D01*
X9683929Y-9394186D02*
X9702976Y-9384662D01*
X9798214Y-9337043D02*
X9798214Y-9537043D01*
X9798214Y-9346567D02*
X9817262Y-9337043D01*
X9817262Y-9337043D02*
X9855357Y-9337043D01*
X9855357Y-9337043D02*
X9874405Y-9346567D01*
X9874405Y-9346567D02*
X9883929Y-9356090D01*
X9883929Y-9356090D02*
X9893452Y-9375138D01*
X9893452Y-9375138D02*
X9893452Y-9432281D01*
X9893452Y-9432281D02*
X9883929Y-9451329D01*
X9883929Y-9451329D02*
X9874405Y-9460852D01*
X9874405Y-9460852D02*
X9855357Y-9470376D01*
X9855357Y-9470376D02*
X9817262Y-9470376D01*
X9817262Y-9470376D02*
X9798214Y-9460852D01*
X9979167Y-9451329D02*
X9988690Y-9460852D01*
X9988690Y-9460852D02*
X9979167Y-9470376D01*
X9979167Y-9470376D02*
X9969643Y-9460852D01*
X9969643Y-9460852D02*
X9979167Y-9451329D01*
X9979167Y-9451329D02*
X9979167Y-9470376D01*
X9979167Y-9346567D02*
X9988690Y-9356090D01*
X9988690Y-9356090D02*
X9979167Y-9365614D01*
X9979167Y-9365614D02*
X9969643Y-9356090D01*
X9969643Y-9356090D02*
X9979167Y-9346567D01*
X9979167Y-9346567D02*
X9979167Y-9365614D01*
D12*
X8352500Y-9796900D02*
X8392500Y-9836900D01*
X8392500Y-9796900D02*
X8352500Y-9836900D01*
D11*
X8678214Y-9690376D02*
X8697262Y-9690376D01*
X8697262Y-9690376D02*
X8716310Y-9699900D01*
X8716310Y-9699900D02*
X8725833Y-9709424D01*
X8725833Y-9709424D02*
X8735357Y-9728471D01*
X8735357Y-9728471D02*
X8744881Y-9766567D01*
X8744881Y-9766567D02*
X8744881Y-9814186D01*
X8744881Y-9814186D02*
X8735357Y-9852281D01*
X8735357Y-9852281D02*
X8725833Y-9871329D01*
X8725833Y-9871329D02*
X8716310Y-9880852D01*
X8716310Y-9880852D02*
X8697262Y-9890376D01*
X8697262Y-9890376D02*
X8678214Y-9890376D01*
X8678214Y-9890376D02*
X8659167Y-9880852D01*
X8659167Y-9880852D02*
X8649643Y-9871329D01*
X8649643Y-9871329D02*
X8640119Y-9852281D01*
X8640119Y-9852281D02*
X8630595Y-9814186D01*
X8630595Y-9814186D02*
X8630595Y-9766567D01*
X8630595Y-9766567D02*
X8640119Y-9728471D01*
X8640119Y-9728471D02*
X8649643Y-9709424D01*
X8649643Y-9709424D02*
X8659167Y-9699900D01*
X8659167Y-9699900D02*
X8678214Y-9690376D01*
X8830595Y-9871329D02*
X8840119Y-9880852D01*
X8840119Y-9880852D02*
X8830595Y-9890376D01*
X8830595Y-9890376D02*
X8821071Y-9880852D01*
X8821071Y-9880852D02*
X8830595Y-9871329D01*
X8830595Y-9871329D02*
X8830595Y-9890376D01*
X9011548Y-9757043D02*
X9011548Y-9890376D01*
X8963929Y-9680852D02*
X8916310Y-9823710D01*
X8916310Y-9823710D02*
X9040119Y-9823710D01*
X9154405Y-9690376D02*
X9173452Y-9690376D01*
X9173452Y-9690376D02*
X9192500Y-9699900D01*
X9192500Y-9699900D02*
X9202024Y-9709424D01*
X9202024Y-9709424D02*
X9211548Y-9728471D01*
X9211548Y-9728471D02*
X9221071Y-9766567D01*
X9221071Y-9766567D02*
X9221071Y-9814186D01*
X9221071Y-9814186D02*
X9211548Y-9852281D01*
X9211548Y-9852281D02*
X9202024Y-9871329D01*
X9202024Y-9871329D02*
X9192500Y-9880852D01*
X9192500Y-9880852D02*
X9173452Y-9890376D01*
X9173452Y-9890376D02*
X9154405Y-9890376D01*
X9154405Y-9890376D02*
X9135357Y-9880852D01*
X9135357Y-9880852D02*
X9125833Y-9871329D01*
X9125833Y-9871329D02*
X9116310Y-9852281D01*
X9116310Y-9852281D02*
X9106786Y-9814186D01*
X9106786Y-9814186D02*
X9106786Y-9766567D01*
X9106786Y-9766567D02*
X9116310Y-9728471D01*
X9116310Y-9728471D02*
X9125833Y-9709424D01*
X9125833Y-9709424D02*
X9135357Y-9699900D01*
X9135357Y-9699900D02*
X9154405Y-9690376D01*
X9344881Y-9690376D02*
X9363929Y-9690376D01*
X9363929Y-9690376D02*
X9382976Y-9699900D01*
X9382976Y-9699900D02*
X9392500Y-9709424D01*
X9392500Y-9709424D02*
X9402024Y-9728471D01*
X9402024Y-9728471D02*
X9411548Y-9766567D01*
X9411548Y-9766567D02*
X9411548Y-9814186D01*
X9411548Y-9814186D02*
X9402024Y-9852281D01*
X9402024Y-9852281D02*
X9392500Y-9871329D01*
X9392500Y-9871329D02*
X9382976Y-9880852D01*
X9382976Y-9880852D02*
X9363929Y-9890376D01*
X9363929Y-9890376D02*
X9344881Y-9890376D01*
X9344881Y-9890376D02*
X9325833Y-9880852D01*
X9325833Y-9880852D02*
X9316310Y-9871329D01*
X9316310Y-9871329D02*
X9306786Y-9852281D01*
X9306786Y-9852281D02*
X9297262Y-9814186D01*
X9297262Y-9814186D02*
X9297262Y-9766567D01*
X9297262Y-9766567D02*
X9306786Y-9728471D01*
X9306786Y-9728471D02*
X9316310Y-9709424D01*
X9316310Y-9709424D02*
X9325833Y-9699900D01*
X9325833Y-9699900D02*
X9344881Y-9690376D01*
X9497262Y-9890376D02*
X9497262Y-9757043D01*
X9497262Y-9776090D02*
X9506786Y-9766567D01*
X9506786Y-9766567D02*
X9525833Y-9757043D01*
X9525833Y-9757043D02*
X9554405Y-9757043D01*
X9554405Y-9757043D02*
X9573452Y-9766567D01*
X9573452Y-9766567D02*
X9582976Y-9785614D01*
X9582976Y-9785614D02*
X9582976Y-9890376D01*
X9582976Y-9785614D02*
X9592500Y-9766567D01*
X9592500Y-9766567D02*
X9611548Y-9757043D01*
X9611548Y-9757043D02*
X9640119Y-9757043D01*
X9640119Y-9757043D02*
X9659167Y-9766567D01*
X9659167Y-9766567D02*
X9668691Y-9785614D01*
X9668691Y-9785614D02*
X9668691Y-9890376D01*
X9763929Y-9890376D02*
X9763929Y-9757043D01*
X9763929Y-9776090D02*
X9773452Y-9766567D01*
X9773452Y-9766567D02*
X9792500Y-9757043D01*
X9792500Y-9757043D02*
X9821072Y-9757043D01*
X9821072Y-9757043D02*
X9840119Y-9766567D01*
X9840119Y-9766567D02*
X9849643Y-9785614D01*
X9849643Y-9785614D02*
X9849643Y-9890376D01*
X9849643Y-9785614D02*
X9859167Y-9766567D01*
X9859167Y-9766567D02*
X9878214Y-9757043D01*
X9878214Y-9757043D02*
X9906786Y-9757043D01*
X9906786Y-9757043D02*
X9925833Y-9766567D01*
X9925833Y-9766567D02*
X9935357Y-9785614D01*
X9935357Y-9785614D02*
X9935357Y-9890376D01*
X10293452Y-9680852D02*
X10122024Y-9937995D01*
X10518214Y-9690376D02*
X10537262Y-9690376D01*
X10537262Y-9690376D02*
X10556310Y-9699900D01*
X10556310Y-9699900D02*
X10565833Y-9709424D01*
X10565833Y-9709424D02*
X10575357Y-9728471D01*
X10575357Y-9728471D02*
X10584881Y-9766567D01*
X10584881Y-9766567D02*
X10584881Y-9814186D01*
X10584881Y-9814186D02*
X10575357Y-9852281D01*
X10575357Y-9852281D02*
X10565833Y-9871329D01*
X10565833Y-9871329D02*
X10556310Y-9880852D01*
X10556310Y-9880852D02*
X10537262Y-9890376D01*
X10537262Y-9890376D02*
X10518214Y-9890376D01*
X10518214Y-9890376D02*
X10499167Y-9880852D01*
X10499167Y-9880852D02*
X10489643Y-9871329D01*
X10489643Y-9871329D02*
X10480119Y-9852281D01*
X10480119Y-9852281D02*
X10470595Y-9814186D01*
X10470595Y-9814186D02*
X10470595Y-9766567D01*
X10470595Y-9766567D02*
X10480119Y-9728471D01*
X10480119Y-9728471D02*
X10489643Y-9709424D01*
X10489643Y-9709424D02*
X10499167Y-9699900D01*
X10499167Y-9699900D02*
X10518214Y-9690376D01*
X10670595Y-9871329D02*
X10680119Y-9880852D01*
X10680119Y-9880852D02*
X10670595Y-9890376D01*
X10670595Y-9890376D02*
X10661072Y-9880852D01*
X10661072Y-9880852D02*
X10670595Y-9871329D01*
X10670595Y-9871329D02*
X10670595Y-9890376D01*
X10803929Y-9690376D02*
X10822976Y-9690376D01*
X10822976Y-9690376D02*
X10842024Y-9699900D01*
X10842024Y-9699900D02*
X10851548Y-9709424D01*
X10851548Y-9709424D02*
X10861072Y-9728471D01*
X10861072Y-9728471D02*
X10870595Y-9766567D01*
X10870595Y-9766567D02*
X10870595Y-9814186D01*
X10870595Y-9814186D02*
X10861072Y-9852281D01*
X10861072Y-9852281D02*
X10851548Y-9871329D01*
X10851548Y-9871329D02*
X10842024Y-9880852D01*
X10842024Y-9880852D02*
X10822976Y-9890376D01*
X10822976Y-9890376D02*
X10803929Y-9890376D01*
X10803929Y-9890376D02*
X10784881Y-9880852D01*
X10784881Y-9880852D02*
X10775357Y-9871329D01*
X10775357Y-9871329D02*
X10765833Y-9852281D01*
X10765833Y-9852281D02*
X10756310Y-9814186D01*
X10756310Y-9814186D02*
X10756310Y-9766567D01*
X10756310Y-9766567D02*
X10765833Y-9728471D01*
X10765833Y-9728471D02*
X10775357Y-9709424D01*
X10775357Y-9709424D02*
X10784881Y-9699900D01*
X10784881Y-9699900D02*
X10803929Y-9690376D01*
X11061072Y-9890376D02*
X10946786Y-9890376D01*
X11003929Y-9890376D02*
X11003929Y-9690376D01*
X11003929Y-9690376D02*
X10984881Y-9718948D01*
X10984881Y-9718948D02*
X10965833Y-9737995D01*
X10965833Y-9737995D02*
X10946786Y-9747519D01*
X11242024Y-9690376D02*
X11146786Y-9690376D01*
X11146786Y-9690376D02*
X11137262Y-9785614D01*
X11137262Y-9785614D02*
X11146786Y-9776090D01*
X11146786Y-9776090D02*
X11165833Y-9766567D01*
X11165833Y-9766567D02*
X11213452Y-9766567D01*
X11213452Y-9766567D02*
X11232500Y-9776090D01*
X11232500Y-9776090D02*
X11242024Y-9785614D01*
X11242024Y-9785614D02*
X11251548Y-9804662D01*
X11251548Y-9804662D02*
X11251548Y-9852281D01*
X11251548Y-9852281D02*
X11242024Y-9871329D01*
X11242024Y-9871329D02*
X11232500Y-9880852D01*
X11232500Y-9880852D02*
X11213452Y-9890376D01*
X11213452Y-9890376D02*
X11165833Y-9890376D01*
X11165833Y-9890376D02*
X11146786Y-9880852D01*
X11146786Y-9880852D02*
X11137262Y-9871329D01*
X11318214Y-9690376D02*
X11451548Y-9690376D01*
X11451548Y-9690376D02*
X11365833Y-9890376D01*
X11518214Y-9690376D02*
X11518214Y-9728471D01*
X11594405Y-9690376D02*
X11594405Y-9728471D01*
X11857262Y-9966567D02*
X11847738Y-9957043D01*
X11847738Y-9957043D02*
X11828691Y-9928471D01*
X11828691Y-9928471D02*
X11819167Y-9909424D01*
X11819167Y-9909424D02*
X11809643Y-9880852D01*
X11809643Y-9880852D02*
X11800119Y-9833233D01*
X11800119Y-9833233D02*
X11800119Y-9795138D01*
X11800119Y-9795138D02*
X11809643Y-9747519D01*
X11809643Y-9747519D02*
X11819167Y-9718948D01*
X11819167Y-9718948D02*
X11828691Y-9699900D01*
X11828691Y-9699900D02*
X11847738Y-9671329D01*
X11847738Y-9671329D02*
X11857262Y-9661805D01*
X11923929Y-9709424D02*
X11933452Y-9699900D01*
X11933452Y-9699900D02*
X11952500Y-9690376D01*
X11952500Y-9690376D02*
X12000119Y-9690376D01*
X12000119Y-9690376D02*
X12019167Y-9699900D01*
X12019167Y-9699900D02*
X12028691Y-9709424D01*
X12028691Y-9709424D02*
X12038214Y-9728471D01*
X12038214Y-9728471D02*
X12038214Y-9747519D01*
X12038214Y-9747519D02*
X12028691Y-9776090D01*
X12028691Y-9776090D02*
X11914405Y-9890376D01*
X11914405Y-9890376D02*
X12038214Y-9890376D01*
X12209643Y-9690376D02*
X12171548Y-9690376D01*
X12171548Y-9690376D02*
X12152500Y-9699900D01*
X12152500Y-9699900D02*
X12142976Y-9709424D01*
X12142976Y-9709424D02*
X12123929Y-9737995D01*
X12123929Y-9737995D02*
X12114405Y-9776090D01*
X12114405Y-9776090D02*
X12114405Y-9852281D01*
X12114405Y-9852281D02*
X12123929Y-9871329D01*
X12123929Y-9871329D02*
X12133452Y-9880852D01*
X12133452Y-9880852D02*
X12152500Y-9890376D01*
X12152500Y-9890376D02*
X12190595Y-9890376D01*
X12190595Y-9890376D02*
X12209643Y-9880852D01*
X12209643Y-9880852D02*
X12219167Y-9871329D01*
X12219167Y-9871329D02*
X12228691Y-9852281D01*
X12228691Y-9852281D02*
X12228691Y-9804662D01*
X12228691Y-9804662D02*
X12219167Y-9785614D01*
X12219167Y-9785614D02*
X12209643Y-9776090D01*
X12209643Y-9776090D02*
X12190595Y-9766567D01*
X12190595Y-9766567D02*
X12152500Y-9766567D01*
X12152500Y-9766567D02*
X12133452Y-9776090D01*
X12133452Y-9776090D02*
X12123929Y-9785614D01*
X12123929Y-9785614D02*
X12114405Y-9804662D01*
X12434405Y-9890376D02*
X12434405Y-9690376D01*
X12520119Y-9890376D02*
X12520119Y-9785614D01*
X12520119Y-9785614D02*
X12510595Y-9766567D01*
X12510595Y-9766567D02*
X12491548Y-9757043D01*
X12491548Y-9757043D02*
X12462976Y-9757043D01*
X12462976Y-9757043D02*
X12443929Y-9766567D01*
X12443929Y-9766567D02*
X12434405Y-9776090D01*
X12643929Y-9890376D02*
X12624881Y-9880852D01*
X12624881Y-9880852D02*
X12615357Y-9871329D01*
X12615357Y-9871329D02*
X12605833Y-9852281D01*
X12605833Y-9852281D02*
X12605833Y-9795138D01*
X12605833Y-9795138D02*
X12615357Y-9776090D01*
X12615357Y-9776090D02*
X12624881Y-9766567D01*
X12624881Y-9766567D02*
X12643929Y-9757043D01*
X12643929Y-9757043D02*
X12672500Y-9757043D01*
X12672500Y-9757043D02*
X12691548Y-9766567D01*
X12691548Y-9766567D02*
X12701072Y-9776090D01*
X12701072Y-9776090D02*
X12710595Y-9795138D01*
X12710595Y-9795138D02*
X12710595Y-9852281D01*
X12710595Y-9852281D02*
X12701072Y-9871329D01*
X12701072Y-9871329D02*
X12691548Y-9880852D01*
X12691548Y-9880852D02*
X12672500Y-9890376D01*
X12672500Y-9890376D02*
X12643929Y-9890376D01*
X12824881Y-9890376D02*
X12805833Y-9880852D01*
X12805833Y-9880852D02*
X12796310Y-9861805D01*
X12796310Y-9861805D02*
X12796310Y-9690376D01*
X12977262Y-9880852D02*
X12958214Y-9890376D01*
X12958214Y-9890376D02*
X12920119Y-9890376D01*
X12920119Y-9890376D02*
X12901072Y-9880852D01*
X12901072Y-9880852D02*
X12891548Y-9861805D01*
X12891548Y-9861805D02*
X12891548Y-9785614D01*
X12891548Y-9785614D02*
X12901072Y-9766567D01*
X12901072Y-9766567D02*
X12920119Y-9757043D01*
X12920119Y-9757043D02*
X12958214Y-9757043D01*
X12958214Y-9757043D02*
X12977262Y-9766567D01*
X12977262Y-9766567D02*
X12986786Y-9785614D01*
X12986786Y-9785614D02*
X12986786Y-9804662D01*
X12986786Y-9804662D02*
X12891548Y-9823710D01*
X13062976Y-9880852D02*
X13082024Y-9890376D01*
X13082024Y-9890376D02*
X13120119Y-9890376D01*
X13120119Y-9890376D02*
X13139167Y-9880852D01*
X13139167Y-9880852D02*
X13148691Y-9861805D01*
X13148691Y-9861805D02*
X13148691Y-9852281D01*
X13148691Y-9852281D02*
X13139167Y-9833233D01*
X13139167Y-9833233D02*
X13120119Y-9823710D01*
X13120119Y-9823710D02*
X13091548Y-9823710D01*
X13091548Y-9823710D02*
X13072500Y-9814186D01*
X13072500Y-9814186D02*
X13062976Y-9795138D01*
X13062976Y-9795138D02*
X13062976Y-9785614D01*
X13062976Y-9785614D02*
X13072500Y-9766567D01*
X13072500Y-9766567D02*
X13091548Y-9757043D01*
X13091548Y-9757043D02*
X13120119Y-9757043D01*
X13120119Y-9757043D02*
X13139167Y-9766567D01*
X13215357Y-9966567D02*
X13224881Y-9957043D01*
X13224881Y-9957043D02*
X13243929Y-9928471D01*
X13243929Y-9928471D02*
X13253453Y-9909424D01*
X13253453Y-9909424D02*
X13262976Y-9880852D01*
X13262976Y-9880852D02*
X13272500Y-9833233D01*
X13272500Y-9833233D02*
X13272500Y-9795138D01*
X13272500Y-9795138D02*
X13262976Y-9747519D01*
X13262976Y-9747519D02*
X13253453Y-9718948D01*
X13253453Y-9718948D02*
X13243929Y-9699900D01*
X13243929Y-9699900D02*
X13224881Y-9671329D01*
X13224881Y-9671329D02*
X13215357Y-9661805D01*
D13*
X8392500Y-10080900D02*
G75*
G03*
X8392500Y-10080900I-50000J0D01*
G01*
D11*
X8744881Y-10154376D02*
X8630595Y-10154376D01*
X8687738Y-10154376D02*
X8687738Y-9954376D01*
X8687738Y-9954376D02*
X8668690Y-9982948D01*
X8668690Y-9982948D02*
X8649643Y-10001995D01*
X8649643Y-10001995D02*
X8630595Y-10011519D01*
X8830595Y-10135329D02*
X8840119Y-10144852D01*
X8840119Y-10144852D02*
X8830595Y-10154376D01*
X8830595Y-10154376D02*
X8821071Y-10144852D01*
X8821071Y-10144852D02*
X8830595Y-10135329D01*
X8830595Y-10135329D02*
X8830595Y-10154376D01*
X8963929Y-9954376D02*
X8982976Y-9954376D01*
X8982976Y-9954376D02*
X9002024Y-9963900D01*
X9002024Y-9963900D02*
X9011548Y-9973424D01*
X9011548Y-9973424D02*
X9021071Y-9992471D01*
X9021071Y-9992471D02*
X9030595Y-10030567D01*
X9030595Y-10030567D02*
X9030595Y-10078186D01*
X9030595Y-10078186D02*
X9021071Y-10116281D01*
X9021071Y-10116281D02*
X9011548Y-10135329D01*
X9011548Y-10135329D02*
X9002024Y-10144852D01*
X9002024Y-10144852D02*
X8982976Y-10154376D01*
X8982976Y-10154376D02*
X8963929Y-10154376D01*
X8963929Y-10154376D02*
X8944881Y-10144852D01*
X8944881Y-10144852D02*
X8935357Y-10135329D01*
X8935357Y-10135329D02*
X8925833Y-10116281D01*
X8925833Y-10116281D02*
X8916310Y-10078186D01*
X8916310Y-10078186D02*
X8916310Y-10030567D01*
X8916310Y-10030567D02*
X8925833Y-9992471D01*
X8925833Y-9992471D02*
X8935357Y-9973424D01*
X8935357Y-9973424D02*
X8944881Y-9963900D01*
X8944881Y-9963900D02*
X8963929Y-9954376D01*
X9154405Y-9954376D02*
X9173452Y-9954376D01*
X9173452Y-9954376D02*
X9192500Y-9963900D01*
X9192500Y-9963900D02*
X9202024Y-9973424D01*
X9202024Y-9973424D02*
X9211548Y-9992471D01*
X9211548Y-9992471D02*
X9221071Y-10030567D01*
X9221071Y-10030567D02*
X9221071Y-10078186D01*
X9221071Y-10078186D02*
X9211548Y-10116281D01*
X9211548Y-10116281D02*
X9202024Y-10135329D01*
X9202024Y-10135329D02*
X9192500Y-10144852D01*
X9192500Y-10144852D02*
X9173452Y-10154376D01*
X9173452Y-10154376D02*
X9154405Y-10154376D01*
X9154405Y-10154376D02*
X9135357Y-10144852D01*
X9135357Y-10144852D02*
X9125833Y-10135329D01*
X9125833Y-10135329D02*
X9116310Y-10116281D01*
X9116310Y-10116281D02*
X9106786Y-10078186D01*
X9106786Y-10078186D02*
X9106786Y-10030567D01*
X9106786Y-10030567D02*
X9116310Y-9992471D01*
X9116310Y-9992471D02*
X9125833Y-9973424D01*
X9125833Y-9973424D02*
X9135357Y-9963900D01*
X9135357Y-9963900D02*
X9154405Y-9954376D01*
X9344881Y-9954376D02*
X9363929Y-9954376D01*
X9363929Y-9954376D02*
X9382976Y-9963900D01*
X9382976Y-9963900D02*
X9392500Y-9973424D01*
X9392500Y-9973424D02*
X9402024Y-9992471D01*
X9402024Y-9992471D02*
X9411548Y-10030567D01*
X9411548Y-10030567D02*
X9411548Y-10078186D01*
X9411548Y-10078186D02*
X9402024Y-10116281D01*
X9402024Y-10116281D02*
X9392500Y-10135329D01*
X9392500Y-10135329D02*
X9382976Y-10144852D01*
X9382976Y-10144852D02*
X9363929Y-10154376D01*
X9363929Y-10154376D02*
X9344881Y-10154376D01*
X9344881Y-10154376D02*
X9325833Y-10144852D01*
X9325833Y-10144852D02*
X9316310Y-10135329D01*
X9316310Y-10135329D02*
X9306786Y-10116281D01*
X9306786Y-10116281D02*
X9297262Y-10078186D01*
X9297262Y-10078186D02*
X9297262Y-10030567D01*
X9297262Y-10030567D02*
X9306786Y-9992471D01*
X9306786Y-9992471D02*
X9316310Y-9973424D01*
X9316310Y-9973424D02*
X9325833Y-9963900D01*
X9325833Y-9963900D02*
X9344881Y-9954376D01*
X9497262Y-10154376D02*
X9497262Y-10021043D01*
X9497262Y-10040090D02*
X9506786Y-10030567D01*
X9506786Y-10030567D02*
X9525833Y-10021043D01*
X9525833Y-10021043D02*
X9554405Y-10021043D01*
X9554405Y-10021043D02*
X9573452Y-10030567D01*
X9573452Y-10030567D02*
X9582976Y-10049614D01*
X9582976Y-10049614D02*
X9582976Y-10154376D01*
X9582976Y-10049614D02*
X9592500Y-10030567D01*
X9592500Y-10030567D02*
X9611548Y-10021043D01*
X9611548Y-10021043D02*
X9640119Y-10021043D01*
X9640119Y-10021043D02*
X9659167Y-10030567D01*
X9659167Y-10030567D02*
X9668691Y-10049614D01*
X9668691Y-10049614D02*
X9668691Y-10154376D01*
X9763929Y-10154376D02*
X9763929Y-10021043D01*
X9763929Y-10040090D02*
X9773452Y-10030567D01*
X9773452Y-10030567D02*
X9792500Y-10021043D01*
X9792500Y-10021043D02*
X9821072Y-10021043D01*
X9821072Y-10021043D02*
X9840119Y-10030567D01*
X9840119Y-10030567D02*
X9849643Y-10049614D01*
X9849643Y-10049614D02*
X9849643Y-10154376D01*
X9849643Y-10049614D02*
X9859167Y-10030567D01*
X9859167Y-10030567D02*
X9878214Y-10021043D01*
X9878214Y-10021043D02*
X9906786Y-10021043D01*
X9906786Y-10021043D02*
X9925833Y-10030567D01*
X9925833Y-10030567D02*
X9935357Y-10049614D01*
X9935357Y-10049614D02*
X9935357Y-10154376D01*
X10293452Y-9944852D02*
X10122024Y-10201995D01*
X10518214Y-9954376D02*
X10537262Y-9954376D01*
X10537262Y-9954376D02*
X10556310Y-9963900D01*
X10556310Y-9963900D02*
X10565833Y-9973424D01*
X10565833Y-9973424D02*
X10575357Y-9992471D01*
X10575357Y-9992471D02*
X10584881Y-10030567D01*
X10584881Y-10030567D02*
X10584881Y-10078186D01*
X10584881Y-10078186D02*
X10575357Y-10116281D01*
X10575357Y-10116281D02*
X10565833Y-10135329D01*
X10565833Y-10135329D02*
X10556310Y-10144852D01*
X10556310Y-10144852D02*
X10537262Y-10154376D01*
X10537262Y-10154376D02*
X10518214Y-10154376D01*
X10518214Y-10154376D02*
X10499167Y-10144852D01*
X10499167Y-10144852D02*
X10489643Y-10135329D01*
X10489643Y-10135329D02*
X10480119Y-10116281D01*
X10480119Y-10116281D02*
X10470595Y-10078186D01*
X10470595Y-10078186D02*
X10470595Y-10030567D01*
X10470595Y-10030567D02*
X10480119Y-9992471D01*
X10480119Y-9992471D02*
X10489643Y-9973424D01*
X10489643Y-9973424D02*
X10499167Y-9963900D01*
X10499167Y-9963900D02*
X10518214Y-9954376D01*
X10670595Y-10135329D02*
X10680119Y-10144852D01*
X10680119Y-10144852D02*
X10670595Y-10154376D01*
X10670595Y-10154376D02*
X10661072Y-10144852D01*
X10661072Y-10144852D02*
X10670595Y-10135329D01*
X10670595Y-10135329D02*
X10670595Y-10154376D01*
X10803929Y-9954376D02*
X10822976Y-9954376D01*
X10822976Y-9954376D02*
X10842024Y-9963900D01*
X10842024Y-9963900D02*
X10851548Y-9973424D01*
X10851548Y-9973424D02*
X10861072Y-9992471D01*
X10861072Y-9992471D02*
X10870595Y-10030567D01*
X10870595Y-10030567D02*
X10870595Y-10078186D01*
X10870595Y-10078186D02*
X10861072Y-10116281D01*
X10861072Y-10116281D02*
X10851548Y-10135329D01*
X10851548Y-10135329D02*
X10842024Y-10144852D01*
X10842024Y-10144852D02*
X10822976Y-10154376D01*
X10822976Y-10154376D02*
X10803929Y-10154376D01*
X10803929Y-10154376D02*
X10784881Y-10144852D01*
X10784881Y-10144852D02*
X10775357Y-10135329D01*
X10775357Y-10135329D02*
X10765833Y-10116281D01*
X10765833Y-10116281D02*
X10756310Y-10078186D01*
X10756310Y-10078186D02*
X10756310Y-10030567D01*
X10756310Y-10030567D02*
X10765833Y-9992471D01*
X10765833Y-9992471D02*
X10775357Y-9973424D01*
X10775357Y-9973424D02*
X10784881Y-9963900D01*
X10784881Y-9963900D02*
X10803929Y-9954376D01*
X10937262Y-9954376D02*
X11061072Y-9954376D01*
X11061072Y-9954376D02*
X10994405Y-10030567D01*
X10994405Y-10030567D02*
X11022976Y-10030567D01*
X11022976Y-10030567D02*
X11042024Y-10040090D01*
X11042024Y-10040090D02*
X11051548Y-10049614D01*
X11051548Y-10049614D02*
X11061072Y-10068662D01*
X11061072Y-10068662D02*
X11061072Y-10116281D01*
X11061072Y-10116281D02*
X11051548Y-10135329D01*
X11051548Y-10135329D02*
X11042024Y-10144852D01*
X11042024Y-10144852D02*
X11022976Y-10154376D01*
X11022976Y-10154376D02*
X10965833Y-10154376D01*
X10965833Y-10154376D02*
X10946786Y-10144852D01*
X10946786Y-10144852D02*
X10937262Y-10135329D01*
X11156310Y-10154376D02*
X11194405Y-10154376D01*
X11194405Y-10154376D02*
X11213452Y-10144852D01*
X11213452Y-10144852D02*
X11222976Y-10135329D01*
X11222976Y-10135329D02*
X11242024Y-10106757D01*
X11242024Y-10106757D02*
X11251548Y-10068662D01*
X11251548Y-10068662D02*
X11251548Y-9992471D01*
X11251548Y-9992471D02*
X11242024Y-9973424D01*
X11242024Y-9973424D02*
X11232500Y-9963900D01*
X11232500Y-9963900D02*
X11213452Y-9954376D01*
X11213452Y-9954376D02*
X11175357Y-9954376D01*
X11175357Y-9954376D02*
X11156310Y-9963900D01*
X11156310Y-9963900D02*
X11146786Y-9973424D01*
X11146786Y-9973424D02*
X11137262Y-9992471D01*
X11137262Y-9992471D02*
X11137262Y-10040090D01*
X11137262Y-10040090D02*
X11146786Y-10059138D01*
X11146786Y-10059138D02*
X11156310Y-10068662D01*
X11156310Y-10068662D02*
X11175357Y-10078186D01*
X11175357Y-10078186D02*
X11213452Y-10078186D01*
X11213452Y-10078186D02*
X11232500Y-10068662D01*
X11232500Y-10068662D02*
X11242024Y-10059138D01*
X11242024Y-10059138D02*
X11251548Y-10040090D01*
X11422976Y-10021043D02*
X11422976Y-10154376D01*
X11375357Y-9944852D02*
X11327738Y-10087710D01*
X11327738Y-10087710D02*
X11451548Y-10087710D01*
X11518214Y-9954376D02*
X11518214Y-9992471D01*
X11594405Y-9954376D02*
X11594405Y-9992471D01*
X11857262Y-10230567D02*
X11847738Y-10221043D01*
X11847738Y-10221043D02*
X11828691Y-10192471D01*
X11828691Y-10192471D02*
X11819167Y-10173424D01*
X11819167Y-10173424D02*
X11809643Y-10144852D01*
X11809643Y-10144852D02*
X11800119Y-10097233D01*
X11800119Y-10097233D02*
X11800119Y-10059138D01*
X11800119Y-10059138D02*
X11809643Y-10011519D01*
X11809643Y-10011519D02*
X11819167Y-9982948D01*
X11819167Y-9982948D02*
X11828691Y-9963900D01*
X11828691Y-9963900D02*
X11847738Y-9935329D01*
X11847738Y-9935329D02*
X11857262Y-9925805D01*
X12038214Y-10154376D02*
X11923929Y-10154376D01*
X11981071Y-10154376D02*
X11981071Y-9954376D01*
X11981071Y-9954376D02*
X11962024Y-9982948D01*
X11962024Y-9982948D02*
X11942976Y-10001995D01*
X11942976Y-10001995D02*
X11923929Y-10011519D01*
X12104881Y-9954376D02*
X12238214Y-9954376D01*
X12238214Y-9954376D02*
X12152500Y-10154376D01*
X12434405Y-10154376D02*
X12434405Y-9954376D01*
X12520119Y-10154376D02*
X12520119Y-10049614D01*
X12520119Y-10049614D02*
X12510595Y-10030567D01*
X12510595Y-10030567D02*
X12491548Y-10021043D01*
X12491548Y-10021043D02*
X12462976Y-10021043D01*
X12462976Y-10021043D02*
X12443929Y-10030567D01*
X12443929Y-10030567D02*
X12434405Y-10040090D01*
X12643929Y-10154376D02*
X12624881Y-10144852D01*
X12624881Y-10144852D02*
X12615357Y-10135329D01*
X12615357Y-10135329D02*
X12605833Y-10116281D01*
X12605833Y-10116281D02*
X12605833Y-10059138D01*
X12605833Y-10059138D02*
X12615357Y-10040090D01*
X12615357Y-10040090D02*
X12624881Y-10030567D01*
X12624881Y-10030567D02*
X12643929Y-10021043D01*
X12643929Y-10021043D02*
X12672500Y-10021043D01*
X12672500Y-10021043D02*
X12691548Y-10030567D01*
X12691548Y-10030567D02*
X12701072Y-10040090D01*
X12701072Y-10040090D02*
X12710595Y-10059138D01*
X12710595Y-10059138D02*
X12710595Y-10116281D01*
X12710595Y-10116281D02*
X12701072Y-10135329D01*
X12701072Y-10135329D02*
X12691548Y-10144852D01*
X12691548Y-10144852D02*
X12672500Y-10154376D01*
X12672500Y-10154376D02*
X12643929Y-10154376D01*
X12824881Y-10154376D02*
X12805833Y-10144852D01*
X12805833Y-10144852D02*
X12796310Y-10125805D01*
X12796310Y-10125805D02*
X12796310Y-9954376D01*
X12977262Y-10144852D02*
X12958214Y-10154376D01*
X12958214Y-10154376D02*
X12920119Y-10154376D01*
X12920119Y-10154376D02*
X12901072Y-10144852D01*
X12901072Y-10144852D02*
X12891548Y-10125805D01*
X12891548Y-10125805D02*
X12891548Y-10049614D01*
X12891548Y-10049614D02*
X12901072Y-10030567D01*
X12901072Y-10030567D02*
X12920119Y-10021043D01*
X12920119Y-10021043D02*
X12958214Y-10021043D01*
X12958214Y-10021043D02*
X12977262Y-10030567D01*
X12977262Y-10030567D02*
X12986786Y-10049614D01*
X12986786Y-10049614D02*
X12986786Y-10068662D01*
X12986786Y-10068662D02*
X12891548Y-10087710D01*
X13062976Y-10144852D02*
X13082024Y-10154376D01*
X13082024Y-10154376D02*
X13120119Y-10154376D01*
X13120119Y-10154376D02*
X13139167Y-10144852D01*
X13139167Y-10144852D02*
X13148691Y-10125805D01*
X13148691Y-10125805D02*
X13148691Y-10116281D01*
X13148691Y-10116281D02*
X13139167Y-10097233D01*
X13139167Y-10097233D02*
X13120119Y-10087710D01*
X13120119Y-10087710D02*
X13091548Y-10087710D01*
X13091548Y-10087710D02*
X13072500Y-10078186D01*
X13072500Y-10078186D02*
X13062976Y-10059138D01*
X13062976Y-10059138D02*
X13062976Y-10049614D01*
X13062976Y-10049614D02*
X13072500Y-10030567D01*
X13072500Y-10030567D02*
X13091548Y-10021043D01*
X13091548Y-10021043D02*
X13120119Y-10021043D01*
X13120119Y-10021043D02*
X13139167Y-10030567D01*
X13215357Y-10230567D02*
X13224881Y-10221043D01*
X13224881Y-10221043D02*
X13243929Y-10192471D01*
X13243929Y-10192471D02*
X13253453Y-10173424D01*
X13253453Y-10173424D02*
X13262976Y-10144852D01*
X13262976Y-10144852D02*
X13272500Y-10097233D01*
X13272500Y-10097233D02*
X13272500Y-10059138D01*
X13272500Y-10059138D02*
X13262976Y-10011519D01*
X13262976Y-10011519D02*
X13253453Y-9982948D01*
X13253453Y-9982948D02*
X13243929Y-9963900D01*
X13243929Y-9963900D02*
X13224881Y-9935329D01*
X13224881Y-9935329D02*
X13215357Y-9925805D01*
X8292500Y-10244900D02*
X8292500Y-10444900D01*
X8192500Y-10344900D02*
X8392500Y-10344900D01*
X8630595Y-10237424D02*
X8640119Y-10227900D01*
X8640119Y-10227900D02*
X8659167Y-10218376D01*
X8659167Y-10218376D02*
X8706786Y-10218376D01*
X8706786Y-10218376D02*
X8725833Y-10227900D01*
X8725833Y-10227900D02*
X8735357Y-10237424D01*
X8735357Y-10237424D02*
X8744881Y-10256471D01*
X8744881Y-10256471D02*
X8744881Y-10275519D01*
X8744881Y-10275519D02*
X8735357Y-10304090D01*
X8735357Y-10304090D02*
X8621071Y-10418376D01*
X8621071Y-10418376D02*
X8744881Y-10418376D01*
X8830595Y-10399329D02*
X8840119Y-10408852D01*
X8840119Y-10408852D02*
X8830595Y-10418376D01*
X8830595Y-10418376D02*
X8821071Y-10408852D01*
X8821071Y-10408852D02*
X8830595Y-10399329D01*
X8830595Y-10399329D02*
X8830595Y-10418376D01*
X8963929Y-10218376D02*
X8982976Y-10218376D01*
X8982976Y-10218376D02*
X9002024Y-10227900D01*
X9002024Y-10227900D02*
X9011548Y-10237424D01*
X9011548Y-10237424D02*
X9021071Y-10256471D01*
X9021071Y-10256471D02*
X9030595Y-10294567D01*
X9030595Y-10294567D02*
X9030595Y-10342186D01*
X9030595Y-10342186D02*
X9021071Y-10380281D01*
X9021071Y-10380281D02*
X9011548Y-10399329D01*
X9011548Y-10399329D02*
X9002024Y-10408852D01*
X9002024Y-10408852D02*
X8982976Y-10418376D01*
X8982976Y-10418376D02*
X8963929Y-10418376D01*
X8963929Y-10418376D02*
X8944881Y-10408852D01*
X8944881Y-10408852D02*
X8935357Y-10399329D01*
X8935357Y-10399329D02*
X8925833Y-10380281D01*
X8925833Y-10380281D02*
X8916310Y-10342186D01*
X8916310Y-10342186D02*
X8916310Y-10294567D01*
X8916310Y-10294567D02*
X8925833Y-10256471D01*
X8925833Y-10256471D02*
X8935357Y-10237424D01*
X8935357Y-10237424D02*
X8944881Y-10227900D01*
X8944881Y-10227900D02*
X8963929Y-10218376D01*
X9154405Y-10218376D02*
X9173452Y-10218376D01*
X9173452Y-10218376D02*
X9192500Y-10227900D01*
X9192500Y-10227900D02*
X9202024Y-10237424D01*
X9202024Y-10237424D02*
X9211548Y-10256471D01*
X9211548Y-10256471D02*
X9221071Y-10294567D01*
X9221071Y-10294567D02*
X9221071Y-10342186D01*
X9221071Y-10342186D02*
X9211548Y-10380281D01*
X9211548Y-10380281D02*
X9202024Y-10399329D01*
X9202024Y-10399329D02*
X9192500Y-10408852D01*
X9192500Y-10408852D02*
X9173452Y-10418376D01*
X9173452Y-10418376D02*
X9154405Y-10418376D01*
X9154405Y-10418376D02*
X9135357Y-10408852D01*
X9135357Y-10408852D02*
X9125833Y-10399329D01*
X9125833Y-10399329D02*
X9116310Y-10380281D01*
X9116310Y-10380281D02*
X9106786Y-10342186D01*
X9106786Y-10342186D02*
X9106786Y-10294567D01*
X9106786Y-10294567D02*
X9116310Y-10256471D01*
X9116310Y-10256471D02*
X9125833Y-10237424D01*
X9125833Y-10237424D02*
X9135357Y-10227900D01*
X9135357Y-10227900D02*
X9154405Y-10218376D01*
X9344881Y-10218376D02*
X9363929Y-10218376D01*
X9363929Y-10218376D02*
X9382976Y-10227900D01*
X9382976Y-10227900D02*
X9392500Y-10237424D01*
X9392500Y-10237424D02*
X9402024Y-10256471D01*
X9402024Y-10256471D02*
X9411548Y-10294567D01*
X9411548Y-10294567D02*
X9411548Y-10342186D01*
X9411548Y-10342186D02*
X9402024Y-10380281D01*
X9402024Y-10380281D02*
X9392500Y-10399329D01*
X9392500Y-10399329D02*
X9382976Y-10408852D01*
X9382976Y-10408852D02*
X9363929Y-10418376D01*
X9363929Y-10418376D02*
X9344881Y-10418376D01*
X9344881Y-10418376D02*
X9325833Y-10408852D01*
X9325833Y-10408852D02*
X9316310Y-10399329D01*
X9316310Y-10399329D02*
X9306786Y-10380281D01*
X9306786Y-10380281D02*
X9297262Y-10342186D01*
X9297262Y-10342186D02*
X9297262Y-10294567D01*
X9297262Y-10294567D02*
X9306786Y-10256471D01*
X9306786Y-10256471D02*
X9316310Y-10237424D01*
X9316310Y-10237424D02*
X9325833Y-10227900D01*
X9325833Y-10227900D02*
X9344881Y-10218376D01*
X9497262Y-10418376D02*
X9497262Y-10285043D01*
X9497262Y-10304090D02*
X9506786Y-10294567D01*
X9506786Y-10294567D02*
X9525833Y-10285043D01*
X9525833Y-10285043D02*
X9554405Y-10285043D01*
X9554405Y-10285043D02*
X9573452Y-10294567D01*
X9573452Y-10294567D02*
X9582976Y-10313614D01*
X9582976Y-10313614D02*
X9582976Y-10418376D01*
X9582976Y-10313614D02*
X9592500Y-10294567D01*
X9592500Y-10294567D02*
X9611548Y-10285043D01*
X9611548Y-10285043D02*
X9640119Y-10285043D01*
X9640119Y-10285043D02*
X9659167Y-10294567D01*
X9659167Y-10294567D02*
X9668691Y-10313614D01*
X9668691Y-10313614D02*
X9668691Y-10418376D01*
X9763929Y-10418376D02*
X9763929Y-10285043D01*
X9763929Y-10304090D02*
X9773452Y-10294567D01*
X9773452Y-10294567D02*
X9792500Y-10285043D01*
X9792500Y-10285043D02*
X9821072Y-10285043D01*
X9821072Y-10285043D02*
X9840119Y-10294567D01*
X9840119Y-10294567D02*
X9849643Y-10313614D01*
X9849643Y-10313614D02*
X9849643Y-10418376D01*
X9849643Y-10313614D02*
X9859167Y-10294567D01*
X9859167Y-10294567D02*
X9878214Y-10285043D01*
X9878214Y-10285043D02*
X9906786Y-10285043D01*
X9906786Y-10285043D02*
X9925833Y-10294567D01*
X9925833Y-10294567D02*
X9935357Y-10313614D01*
X9935357Y-10313614D02*
X9935357Y-10418376D01*
X10293452Y-10208852D02*
X10122024Y-10465995D01*
X10518214Y-10218376D02*
X10537262Y-10218376D01*
X10537262Y-10218376D02*
X10556310Y-10227900D01*
X10556310Y-10227900D02*
X10565833Y-10237424D01*
X10565833Y-10237424D02*
X10575357Y-10256471D01*
X10575357Y-10256471D02*
X10584881Y-10294567D01*
X10584881Y-10294567D02*
X10584881Y-10342186D01*
X10584881Y-10342186D02*
X10575357Y-10380281D01*
X10575357Y-10380281D02*
X10565833Y-10399329D01*
X10565833Y-10399329D02*
X10556310Y-10408852D01*
X10556310Y-10408852D02*
X10537262Y-10418376D01*
X10537262Y-10418376D02*
X10518214Y-10418376D01*
X10518214Y-10418376D02*
X10499167Y-10408852D01*
X10499167Y-10408852D02*
X10489643Y-10399329D01*
X10489643Y-10399329D02*
X10480119Y-10380281D01*
X10480119Y-10380281D02*
X10470595Y-10342186D01*
X10470595Y-10342186D02*
X10470595Y-10294567D01*
X10470595Y-10294567D02*
X10480119Y-10256471D01*
X10480119Y-10256471D02*
X10489643Y-10237424D01*
X10489643Y-10237424D02*
X10499167Y-10227900D01*
X10499167Y-10227900D02*
X10518214Y-10218376D01*
X10670595Y-10399329D02*
X10680119Y-10408852D01*
X10680119Y-10408852D02*
X10670595Y-10418376D01*
X10670595Y-10418376D02*
X10661072Y-10408852D01*
X10661072Y-10408852D02*
X10670595Y-10399329D01*
X10670595Y-10399329D02*
X10670595Y-10418376D01*
X10803929Y-10218376D02*
X10822976Y-10218376D01*
X10822976Y-10218376D02*
X10842024Y-10227900D01*
X10842024Y-10227900D02*
X10851548Y-10237424D01*
X10851548Y-10237424D02*
X10861072Y-10256471D01*
X10861072Y-10256471D02*
X10870595Y-10294567D01*
X10870595Y-10294567D02*
X10870595Y-10342186D01*
X10870595Y-10342186D02*
X10861072Y-10380281D01*
X10861072Y-10380281D02*
X10851548Y-10399329D01*
X10851548Y-10399329D02*
X10842024Y-10408852D01*
X10842024Y-10408852D02*
X10822976Y-10418376D01*
X10822976Y-10418376D02*
X10803929Y-10418376D01*
X10803929Y-10418376D02*
X10784881Y-10408852D01*
X10784881Y-10408852D02*
X10775357Y-10399329D01*
X10775357Y-10399329D02*
X10765833Y-10380281D01*
X10765833Y-10380281D02*
X10756310Y-10342186D01*
X10756310Y-10342186D02*
X10756310Y-10294567D01*
X10756310Y-10294567D02*
X10765833Y-10256471D01*
X10765833Y-10256471D02*
X10775357Y-10237424D01*
X10775357Y-10237424D02*
X10784881Y-10227900D01*
X10784881Y-10227900D02*
X10803929Y-10218376D01*
X10937262Y-10218376D02*
X11070595Y-10218376D01*
X11070595Y-10218376D02*
X10984881Y-10418376D01*
X11175357Y-10304090D02*
X11156310Y-10294567D01*
X11156310Y-10294567D02*
X11146786Y-10285043D01*
X11146786Y-10285043D02*
X11137262Y-10265995D01*
X11137262Y-10265995D02*
X11137262Y-10256471D01*
X11137262Y-10256471D02*
X11146786Y-10237424D01*
X11146786Y-10237424D02*
X11156310Y-10227900D01*
X11156310Y-10227900D02*
X11175357Y-10218376D01*
X11175357Y-10218376D02*
X11213452Y-10218376D01*
X11213452Y-10218376D02*
X11232500Y-10227900D01*
X11232500Y-10227900D02*
X11242024Y-10237424D01*
X11242024Y-10237424D02*
X11251548Y-10256471D01*
X11251548Y-10256471D02*
X11251548Y-10265995D01*
X11251548Y-10265995D02*
X11242024Y-10285043D01*
X11242024Y-10285043D02*
X11232500Y-10294567D01*
X11232500Y-10294567D02*
X11213452Y-10304090D01*
X11213452Y-10304090D02*
X11175357Y-10304090D01*
X11175357Y-10304090D02*
X11156310Y-10313614D01*
X11156310Y-10313614D02*
X11146786Y-10323138D01*
X11146786Y-10323138D02*
X11137262Y-10342186D01*
X11137262Y-10342186D02*
X11137262Y-10380281D01*
X11137262Y-10380281D02*
X11146786Y-10399329D01*
X11146786Y-10399329D02*
X11156310Y-10408852D01*
X11156310Y-10408852D02*
X11175357Y-10418376D01*
X11175357Y-10418376D02*
X11213452Y-10418376D01*
X11213452Y-10418376D02*
X11232500Y-10408852D01*
X11232500Y-10408852D02*
X11242024Y-10399329D01*
X11242024Y-10399329D02*
X11251548Y-10380281D01*
X11251548Y-10380281D02*
X11251548Y-10342186D01*
X11251548Y-10342186D02*
X11242024Y-10323138D01*
X11242024Y-10323138D02*
X11232500Y-10313614D01*
X11232500Y-10313614D02*
X11213452Y-10304090D01*
X11318214Y-10218376D02*
X11451548Y-10218376D01*
X11451548Y-10218376D02*
X11365833Y-10418376D01*
X11518214Y-10218376D02*
X11518214Y-10256471D01*
X11594405Y-10218376D02*
X11594405Y-10256471D01*
X11857262Y-10494567D02*
X11847738Y-10485043D01*
X11847738Y-10485043D02*
X11828691Y-10456471D01*
X11828691Y-10456471D02*
X11819167Y-10437424D01*
X11819167Y-10437424D02*
X11809643Y-10408852D01*
X11809643Y-10408852D02*
X11800119Y-10361233D01*
X11800119Y-10361233D02*
X11800119Y-10323138D01*
X11800119Y-10323138D02*
X11809643Y-10275519D01*
X11809643Y-10275519D02*
X11819167Y-10246948D01*
X11819167Y-10246948D02*
X11828691Y-10227900D01*
X11828691Y-10227900D02*
X11847738Y-10199329D01*
X11847738Y-10199329D02*
X11857262Y-10189805D01*
X11914405Y-10218376D02*
X12038214Y-10218376D01*
X12038214Y-10218376D02*
X11971548Y-10294567D01*
X11971548Y-10294567D02*
X12000119Y-10294567D01*
X12000119Y-10294567D02*
X12019167Y-10304090D01*
X12019167Y-10304090D02*
X12028691Y-10313614D01*
X12028691Y-10313614D02*
X12038214Y-10332662D01*
X12038214Y-10332662D02*
X12038214Y-10380281D01*
X12038214Y-10380281D02*
X12028691Y-10399329D01*
X12028691Y-10399329D02*
X12019167Y-10408852D01*
X12019167Y-10408852D02*
X12000119Y-10418376D01*
X12000119Y-10418376D02*
X11942976Y-10418376D01*
X11942976Y-10418376D02*
X11923929Y-10408852D01*
X11923929Y-10408852D02*
X11914405Y-10399329D01*
X12243929Y-10418376D02*
X12243929Y-10218376D01*
X12329643Y-10418376D02*
X12329643Y-10313614D01*
X12329643Y-10313614D02*
X12320119Y-10294567D01*
X12320119Y-10294567D02*
X12301072Y-10285043D01*
X12301072Y-10285043D02*
X12272500Y-10285043D01*
X12272500Y-10285043D02*
X12253452Y-10294567D01*
X12253452Y-10294567D02*
X12243929Y-10304090D01*
X12453452Y-10418376D02*
X12434405Y-10408852D01*
X12434405Y-10408852D02*
X12424881Y-10399329D01*
X12424881Y-10399329D02*
X12415357Y-10380281D01*
X12415357Y-10380281D02*
X12415357Y-10323138D01*
X12415357Y-10323138D02*
X12424881Y-10304090D01*
X12424881Y-10304090D02*
X12434405Y-10294567D01*
X12434405Y-10294567D02*
X12453452Y-10285043D01*
X12453452Y-10285043D02*
X12482024Y-10285043D01*
X12482024Y-10285043D02*
X12501072Y-10294567D01*
X12501072Y-10294567D02*
X12510595Y-10304090D01*
X12510595Y-10304090D02*
X12520119Y-10323138D01*
X12520119Y-10323138D02*
X12520119Y-10380281D01*
X12520119Y-10380281D02*
X12510595Y-10399329D01*
X12510595Y-10399329D02*
X12501072Y-10408852D01*
X12501072Y-10408852D02*
X12482024Y-10418376D01*
X12482024Y-10418376D02*
X12453452Y-10418376D01*
X12634405Y-10418376D02*
X12615357Y-10408852D01*
X12615357Y-10408852D02*
X12605833Y-10389805D01*
X12605833Y-10389805D02*
X12605833Y-10218376D01*
X12786786Y-10408852D02*
X12767738Y-10418376D01*
X12767738Y-10418376D02*
X12729643Y-10418376D01*
X12729643Y-10418376D02*
X12710595Y-10408852D01*
X12710595Y-10408852D02*
X12701072Y-10389805D01*
X12701072Y-10389805D02*
X12701072Y-10313614D01*
X12701072Y-10313614D02*
X12710595Y-10294567D01*
X12710595Y-10294567D02*
X12729643Y-10285043D01*
X12729643Y-10285043D02*
X12767738Y-10285043D01*
X12767738Y-10285043D02*
X12786786Y-10294567D01*
X12786786Y-10294567D02*
X12796310Y-10313614D01*
X12796310Y-10313614D02*
X12796310Y-10332662D01*
X12796310Y-10332662D02*
X12701072Y-10351710D01*
X12872500Y-10408852D02*
X12891548Y-10418376D01*
X12891548Y-10418376D02*
X12929643Y-10418376D01*
X12929643Y-10418376D02*
X12948691Y-10408852D01*
X12948691Y-10408852D02*
X12958214Y-10389805D01*
X12958214Y-10389805D02*
X12958214Y-10380281D01*
X12958214Y-10380281D02*
X12948691Y-10361233D01*
X12948691Y-10361233D02*
X12929643Y-10351710D01*
X12929643Y-10351710D02*
X12901072Y-10351710D01*
X12901072Y-10351710D02*
X12882024Y-10342186D01*
X12882024Y-10342186D02*
X12872500Y-10323138D01*
X12872500Y-10323138D02*
X12872500Y-10313614D01*
X12872500Y-10313614D02*
X12882024Y-10294567D01*
X12882024Y-10294567D02*
X12901072Y-10285043D01*
X12901072Y-10285043D02*
X12929643Y-10285043D01*
X12929643Y-10285043D02*
X12948691Y-10294567D01*
X13024881Y-10494567D02*
X13034405Y-10485043D01*
X13034405Y-10485043D02*
X13053453Y-10456471D01*
X13053453Y-10456471D02*
X13062976Y-10437424D01*
X13062976Y-10437424D02*
X13072500Y-10408852D01*
X13072500Y-10408852D02*
X13082024Y-10361233D01*
X13082024Y-10361233D02*
X13082024Y-10323138D01*
X13082024Y-10323138D02*
X13072500Y-10275519D01*
X13072500Y-10275519D02*
X13062976Y-10246948D01*
X13062976Y-10246948D02*
X13053453Y-10227900D01*
X13053453Y-10227900D02*
X13034405Y-10199329D01*
X13034405Y-10199329D02*
X13024881Y-10189805D01*
M02*
