<?xml version="1.0" standalone="no"?>
 <!DOCTYPE svg PUBLIC "-//W3C//DTD SVG 1.1//EN" 
 "http://www.w3.org/Graphics/SVG/1.1/DTD/svg11.dtd"> 
<svg
  xmlns:svg="http://www.w3.org/2000/svg"
  xmlns="http://www.w3.org/2000/svg"
  xmlns:xlink="http://www.w3.org/1999/xlink"
  version="1.1"
  width="297.002200mm" height="210.007200mm" viewBox="0.000000 0.000000 297.002200 210.007200">
<title>SVG Image created as s3Basic-F_Silkscreen.svg date 2023/08/21 19:51:55 </title>
  <desc>Image generated by PCBNEW </desc>
<g style="fill:#000000; fill-opacity:1.000000;stroke:#000000; stroke-opacity:1.000000;
stroke-linecap:round; stroke-linejoin:round;"
 transform="translate(0 0) scale(1 1)">
</g>
<g style="fill:#000000; fill-opacity:0.0; 
stroke:#000000; stroke-width:0.000000; stroke-opacity:1; 
stroke-linecap:round; stroke-linejoin:round;">
</g>
<g style="fill:#000000; fill-opacity:0.0; 
stroke:#000000; stroke-width:0.150000; stroke-opacity:1; 
stroke-linecap:round; stroke-linejoin:round;">
<text x="120.650000" y="74.922000"
textLength="2.222619" font-size="1.333333" lengthAdjust="spacingAndGlyphs"
text-anchor="middle" opacity="0">NC</text>
<g class="stroked-text"><desc>NC</desc>
<path d="M119.864286 74.789380
L119.864286 73.789380
" />
<path d="M119.864286 73.789380
L120.435714 74.789380
" />
<path d="M120.435714 74.789380
L120.435714 73.789380
" />
<path d="M121.483333 74.694142
L121.435714 74.741761
" />
<path d="M121.435714 74.741761
L121.292857 74.789380
" />
<path d="M121.292857 74.789380
L121.197619 74.789380
" />
<path d="M121.197619 74.789380
L121.054762 74.741761
" />
<path d="M121.054762 74.741761
L120.959524 74.646523
" />
<path d="M120.959524 74.646523
L120.911905 74.551285
" />
<path d="M120.911905 74.551285
L120.864286 74.360809
" />
<path d="M120.864286 74.360809
L120.864286 74.217952
" />
<path d="M120.864286 74.217952
L120.911905 74.027476
" />
<path d="M120.911905 74.027476
L120.959524 73.932238
" />
<path d="M120.959524 73.932238
L121.054762 73.837000
" />
<path d="M121.054762 73.837000
L121.197619 73.789380
" />
<path d="M121.197619 73.789380
L121.292857 73.789380
" />
<path d="M121.292857 73.789380
L121.435714 73.837000
" />
<path d="M121.435714 73.837000
L121.483333 73.884619
" />
</g><text x="120.904000" y="86.098000"
textLength="1.127381" font-size="1.333333" lengthAdjust="spacingAndGlyphs"
text-anchor="middle" opacity="0">1</text>
<g class="stroked-text"><desc>1</desc>
<path d="M121.189714 85.965380
L120.618286 85.965380
" />
<path d="M120.904000 85.965380
L120.904000 84.965380
" />
<path d="M120.904000 84.965380
L120.808762 85.108238
" />
<path d="M120.808762 85.108238
L120.713524 85.203476
" />
<path d="M120.713524 85.203476
L120.618286 85.251095
" />
</g><text x="114.554000" y="83.050000"
textLength="1.984524" font-size="1.333333" lengthAdjust="spacingAndGlyphs"
text-anchor="middle" opacity="0">3V</text>
<g class="stroked-text"><desc>3V</desc>
<path d="M113.792095 81.917380
L114.411142 81.917380
" />
<path d="M114.411142 81.917380
L114.077809 82.298333
" />
<path d="M114.077809 82.298333
L114.220666 82.298333
" />
<path d="M114.220666 82.298333
L114.315904 82.345952
" />
<path d="M114.315904 82.345952
L114.363523 82.393571
" />
<path d="M114.363523 82.393571
L114.411142 82.488809
" />
<path d="M114.411142 82.488809
L114.411142 82.726904
" />
<path d="M114.411142 82.726904
L114.363523 82.822142
" />
<path d="M114.363523 82.822142
L114.315904 82.869761
" />
<path d="M114.315904 82.869761
L114.220666 82.917380
" />
<path d="M114.220666 82.917380
L113.934952 82.917380
" />
<path d="M113.934952 82.917380
L113.839714 82.869761
" />
<path d="M113.839714 82.869761
L113.792095 82.822142
" />
<path d="M114.696857 81.917380
L115.030190 82.917380
" />
<path d="M115.030190 82.917380
L115.363523 81.917380
" />
</g><text x="113.792000" y="81.526000"
textLength="3.794047" font-size="1.333333" lengthAdjust="spacingAndGlyphs"
text-anchor="middle" opacity="0">MOSI</text>
<g class="stroked-text"><desc>MOSI</desc>
<path d="M112.220572 81.393380
L112.220572 80.393380
" />
<path d="M112.220572 80.393380
L112.553905 81.107666
" />
<path d="M112.553905 81.107666
L112.887238 80.393380
" />
<path d="M112.887238 80.393380
L112.887238 81.393380
" />
<path d="M113.553905 80.393380
L113.744381 80.393380
" />
<path d="M113.744381 80.393380
L113.839619 80.441000
" />
<path d="M113.839619 80.441000
L113.934857 80.536238
" />
<path d="M113.934857 80.536238
L113.982476 80.726714
" />
<path d="M113.982476 80.726714
L113.982476 81.060047
" />
<path d="M113.982476 81.060047
L113.934857 81.250523
" />
<path d="M113.934857 81.250523
L113.839619 81.345761
" />
<path d="M113.839619 81.345761
L113.744381 81.393380
" />
<path d="M113.744381 81.393380
L113.553905 81.393380
" />
<path d="M113.553905 81.393380
L113.458667 81.345761
" />
<path d="M113.458667 81.345761
L113.363429 81.250523
" />
<path d="M113.363429 81.250523
L113.315810 81.060047
" />
<path d="M113.315810 81.060047
L113.315810 80.726714
" />
<path d="M113.315810 80.726714
L113.363429 80.536238
" />
<path d="M113.363429 80.536238
L113.458667 80.441000
" />
<path d="M113.458667 80.441000
L113.553905 80.393380
" />
<path d="M114.363429 81.345761
L114.506286 81.393380
" />
<path d="M114.506286 81.393380
L114.744381 81.393380
" />
<path d="M114.744381 81.393380
L114.839619 81.345761
" />
<path d="M114.839619 81.345761
L114.887238 81.298142
" />
<path d="M114.887238 81.298142
L114.934857 81.202904
" />
<path d="M114.934857 81.202904
L114.934857 81.107666
" />
<path d="M114.934857 81.107666
L114.887238 81.012428
" />
<path d="M114.887238 81.012428
L114.839619 80.964809
" />
<path d="M114.839619 80.964809
L114.744381 80.917190
" />
<path d="M114.744381 80.917190
L114.553905 80.869571
" />
<path d="M114.553905 80.869571
L114.458667 80.821952
" />
<path d="M114.458667 80.821952
L114.411048 80.774333
" />
<path d="M114.411048 80.774333
L114.363429 80.679095
" />
<path d="M114.363429 80.679095
L114.363429 80.583857
" />
<path d="M114.363429 80.583857
L114.411048 80.488619
" />
<path d="M114.411048 80.488619
L114.458667 80.441000
" />
<path d="M114.458667 80.441000
L114.553905 80.393380
" />
<path d="M114.553905 80.393380
L114.792000 80.393380
" />
<path d="M114.792000 80.393380
L114.934857 80.441000
" />
<path d="M115.363429 81.393380
L115.363429 80.393380
" />
</g><text x="113.284000" y="80.256000"
textLength="2.984524" font-size="1.333333" lengthAdjust="spacingAndGlyphs"
text-anchor="middle" opacity="0">CLK</text>
<g class="stroked-text"><desc>CLK</desc>
<path d="M112.688761 80.028142
L112.641142 80.075761
" />
<path d="M112.641142 80.075761
L112.498285 80.123380
" />
<path d="M112.498285 80.123380
L112.403047 80.123380
" />
<path d="M112.403047 80.123380
L112.260190 80.075761
" />
<path d="M112.260190 80.075761
L112.164952 79.980523
" />
<path d="M112.164952 79.980523
L112.117333 79.885285
" />
<path d="M112.117333 79.885285
L112.069714 79.694809
" />
<path d="M112.069714 79.694809
L112.069714 79.551952
" />
<path d="M112.069714 79.551952
L112.117333 79.361476
" />
<path d="M112.117333 79.361476
L112.164952 79.266238
" />
<path d="M112.164952 79.266238
L112.260190 79.171000
" />
<path d="M112.260190 79.171000
L112.403047 79.123380
" />
<path d="M112.403047 79.123380
L112.498285 79.123380
" />
<path d="M112.498285 79.123380
L112.641142 79.171000
" />
<path d="M112.641142 79.171000
L112.688761 79.218619
" />
<path d="M113.593523 80.123380
L113.117333 80.123380
" />
<path d="M113.117333 80.123380
L113.117333 79.123380
" />
<path d="M113.926857 80.123380
L113.926857 79.123380
" />
<path d="M114.498285 80.123380
L114.069714 79.551952
" />
<path d="M114.498285 79.123380
L113.926857 79.694809
" />
</g><text x="116.332000" y="79.240000"
textLength="2.127381" font-size="1.333333" lengthAdjust="spacingAndGlyphs"
text-anchor="middle" opacity="0">CS</text>
<g class="stroked-text"><desc>CS</desc>
<path d="M116.165333 79.012142
L116.117714 79.059761
" />
<path d="M116.117714 79.059761
L115.974857 79.107380
" />
<path d="M115.974857 79.107380
L115.879619 79.107380
" />
<path d="M115.879619 79.107380
L115.736762 79.059761
" />
<path d="M115.736762 79.059761
L115.641524 78.964523
" />
<path d="M115.641524 78.964523
L115.593905 78.869285
" />
<path d="M115.593905 78.869285
L115.546286 78.678809
" />
<path d="M115.546286 78.678809
L115.546286 78.535952
" />
<path d="M115.546286 78.535952
L115.593905 78.345476
" />
<path d="M115.593905 78.345476
L115.641524 78.250238
" />
<path d="M115.641524 78.250238
L115.736762 78.155000
" />
<path d="M115.736762 78.155000
L115.879619 78.107380
" />
<path d="M115.879619 78.107380
L115.974857 78.107380
" />
<path d="M115.974857 78.107380
L116.117714 78.155000
" />
<path d="M116.117714 78.155000
L116.165333 78.202619
" />
<path d="M116.546286 79.059761
L116.689143 79.107380
" />
<path d="M116.689143 79.107380
L116.927238 79.107380
" />
<path d="M116.927238 79.107380
L117.022476 79.059761
" />
<path d="M117.022476 79.059761
L117.070095 79.012142
" />
<path d="M117.070095 79.012142
L117.117714 78.916904
" />
<path d="M117.117714 78.916904
L117.117714 78.821666
" />
<path d="M117.117714 78.821666
L117.070095 78.726428
" />
<path d="M117.070095 78.726428
L117.022476 78.678809
" />
<path d="M117.022476 78.678809
L116.927238 78.631190
" />
<path d="M116.927238 78.631190
L116.736762 78.583571
" />
<path d="M116.736762 78.583571
L116.641524 78.535952
" />
<path d="M116.641524 78.535952
L116.593905 78.488333
" />
<path d="M116.593905 78.488333
L116.546286 78.393095
" />
<path d="M116.546286 78.393095
L116.546286 78.297857
" />
<path d="M116.546286 78.297857
L116.593905 78.202619
" />
<path d="M116.593905 78.202619
L116.641524 78.155000
" />
<path d="M116.641524 78.155000
L116.736762 78.107380
" />
<path d="M116.736762 78.107380
L116.974857 78.107380
" />
<path d="M116.974857 78.107380
L117.117714 78.155000
" />
</g><text x="113.792000" y="78.224000"
textLength="2.175000" font-size="1.333333" lengthAdjust="spacingAndGlyphs"
text-anchor="middle" opacity="0">DC</text>
<g class="stroked-text"><desc>DC</desc>
<path d="M113.030095 78.091380
L113.030095 77.091380
" />
<path d="M113.030095 77.091380
L113.268190 77.091380
" />
<path d="M113.268190 77.091380
L113.411047 77.139000
" />
<path d="M113.411047 77.139000
L113.506285 77.234238
" />
<path d="M113.506285 77.234238
L113.553904 77.329476
" />
<path d="M113.553904 77.329476
L113.601523 77.519952
" />
<path d="M113.601523 77.519952
L113.601523 77.662809
" />
<path d="M113.601523 77.662809
L113.553904 77.853285
" />
<path d="M113.553904 77.853285
L113.506285 77.948523
" />
<path d="M113.506285 77.948523
L113.411047 78.043761
" />
<path d="M113.411047 78.043761
L113.268190 78.091380
" />
<path d="M113.268190 78.091380
L113.030095 78.091380
" />
<path d="M114.601523 77.996142
L114.553904 78.043761
" />
<path d="M114.553904 78.043761
L114.411047 78.091380
" />
<path d="M114.411047 78.091380
L114.315809 78.091380
" />
<path d="M114.315809 78.091380
L114.172952 78.043761
" />
<path d="M114.172952 78.043761
L114.077714 77.948523
" />
<path d="M114.077714 77.948523
L114.030095 77.853285
" />
<path d="M114.030095 77.853285
L113.982476 77.662809
" />
<path d="M113.982476 77.662809
L113.982476 77.519952
" />
<path d="M113.982476 77.519952
L114.030095 77.329476
" />
<path d="M114.030095 77.329476
L114.077714 77.234238
" />
<path d="M114.077714 77.234238
L114.172952 77.139000
" />
<path d="M114.172952 77.139000
L114.315809 77.091380
" />
<path d="M114.315809 77.091380
L114.411047 77.091380
" />
<path d="M114.411047 77.091380
L114.553904 77.139000
" />
<path d="M114.553904 77.139000
L114.601523 77.186619
" />
</g><text x="112.268000" y="76.954000"
textLength="2.889286" font-size="1.333333" lengthAdjust="spacingAndGlyphs"
text-anchor="middle" opacity="0">RST</text>
<g class="stroked-text"><desc>RST</desc>
<path d="M111.720380 76.821380
L111.387047 76.345190
" />
<path d="M111.148952 76.821380
L111.148952 75.821380
" />
<path d="M111.148952 75.821380
L111.529904 75.821380
" />
<path d="M111.529904 75.821380
L111.625142 75.869000
" />
<path d="M111.625142 75.869000
L111.672761 75.916619
" />
<path d="M111.672761 75.916619
L111.720380 76.011857
" />
<path d="M111.720380 76.011857
L111.720380 76.154714
" />
<path d="M111.720380 76.154714
L111.672761 76.249952
" />
<path d="M111.672761 76.249952
L111.625142 76.297571
" />
<path d="M111.625142 76.297571
L111.529904 76.345190
" />
<path d="M111.529904 76.345190
L111.148952 76.345190
" />
<path d="M112.101333 76.773761
L112.244190 76.821380
" />
<path d="M112.244190 76.821380
L112.482285 76.821380
" />
<path d="M112.482285 76.821380
L112.577523 76.773761
" />
<path d="M112.577523 76.773761
L112.625142 76.726142
" />
<path d="M112.625142 76.726142
L112.672761 76.630904
" />
<path d="M112.672761 76.630904
L112.672761 76.535666
" />
<path d="M112.672761 76.535666
L112.625142 76.440428
" />
<path d="M112.625142 76.440428
L112.577523 76.392809
" />
<path d="M112.577523 76.392809
L112.482285 76.345190
" />
<path d="M112.482285 76.345190
L112.291809 76.297571
" />
<path d="M112.291809 76.297571
L112.196571 76.249952
" />
<path d="M112.196571 76.249952
L112.148952 76.202333
" />
<path d="M112.148952 76.202333
L112.101333 76.107095
" />
<path d="M112.101333 76.107095
L112.101333 76.011857
" />
<path d="M112.101333 76.011857
L112.148952 75.916619
" />
<path d="M112.148952 75.916619
L112.196571 75.869000
" />
<path d="M112.196571 75.869000
L112.291809 75.821380
" />
<path d="M112.291809 75.821380
L112.529904 75.821380
" />
<path d="M112.529904 75.821380
L112.672761 75.869000
" />
<path d="M112.958476 75.821380
L113.529904 75.821380
" />
<path d="M113.244190 76.821380
L113.244190 75.821380
" />
</g><text x="115.316000" y="75.684000"
textLength="4.032143" font-size="1.333333" lengthAdjust="spacingAndGlyphs"
text-anchor="middle" opacity="0">BUSY</text>
<g class="stroked-text"><desc>BUSY</desc>
<path d="M113.958857 75.027571
L114.101714 75.075190
" />
<path d="M114.101714 75.075190
L114.149333 75.122809
" />
<path d="M114.149333 75.122809
L114.196952 75.218047
" />
<path d="M114.196952 75.218047
L114.196952 75.360904
" />
<path d="M114.196952 75.360904
L114.149333 75.456142
" />
<path d="M114.149333 75.456142
L114.101714 75.503761
" />
<path d="M114.101714 75.503761
L114.006476 75.551380
" />
<path d="M114.006476 75.551380
L113.625524 75.551380
" />
<path d="M113.625524 75.551380
L113.625524 74.551380
" />
<path d="M113.625524 74.551380
L113.958857 74.551380
" />
<path d="M113.958857 74.551380
L114.054095 74.599000
" />
<path d="M114.054095 74.599000
L114.101714 74.646619
" />
<path d="M114.101714 74.646619
L114.149333 74.741857
" />
<path d="M114.149333 74.741857
L114.149333 74.837095
" />
<path d="M114.149333 74.837095
L114.101714 74.932333
" />
<path d="M114.101714 74.932333
L114.054095 74.979952
" />
<path d="M114.054095 74.979952
L113.958857 75.027571
" />
<path d="M113.958857 75.027571
L113.625524 75.027571
" />
<path d="M114.625524 74.551380
L114.625524 75.360904
" />
<path d="M114.625524 75.360904
L114.673143 75.456142
" />
<path d="M114.673143 75.456142
L114.720762 75.503761
" />
<path d="M114.720762 75.503761
L114.816000 75.551380
" />
<path d="M114.816000 75.551380
L115.006476 75.551380
" />
<path d="M115.006476 75.551380
L115.101714 75.503761
" />
<path d="M115.101714 75.503761
L115.149333 75.456142
" />
<path d="M115.149333 75.456142
L115.196952 75.360904
" />
<path d="M115.196952 75.360904
L115.196952 74.551380
" />
<path d="M115.625524 75.503761
L115.768381 75.551380
" />
<path d="M115.768381 75.551380
L116.006476 75.551380
" />
<path d="M116.006476 75.551380
L116.101714 75.503761
" />
<path d="M116.101714 75.503761
L116.149333 75.456142
" />
<path d="M116.149333 75.456142
L116.196952 75.360904
" />
<path d="M116.196952 75.360904
L116.196952 75.265666
" />
<path d="M116.196952 75.265666
L116.149333 75.170428
" />
<path d="M116.149333 75.170428
L116.101714 75.122809
" />
<path d="M116.101714 75.122809
L116.006476 75.075190
" />
<path d="M116.006476 75.075190
L115.816000 75.027571
" />
<path d="M115.816000 75.027571
L115.720762 74.979952
" />
<path d="M115.720762 74.979952
L115.673143 74.932333
" />
<path d="M115.673143 74.932333
L115.625524 74.837095
" />
<path d="M115.625524 74.837095
L115.625524 74.741857
" />
<path d="M115.625524 74.741857
L115.673143 74.646619
" />
<path d="M115.673143 74.646619
L115.720762 74.599000
" />
<path d="M115.720762 74.599000
L115.816000 74.551380
" />
<path d="M115.816000 74.551380
L116.054095 74.551380
" />
<path d="M116.054095 74.551380
L116.196952 74.599000
" />
<path d="M116.816000 75.075190
L116.816000 75.551380
" />
<path d="M116.482667 74.551380
L116.816000 75.075190
" />
<path d="M116.816000 75.075190
L117.149333 74.551380
" />
</g><text x="111.506000" y="73.398000"
textLength="5.984523" font-size="1.333333" lengthAdjust="spacingAndGlyphs"
text-anchor="middle" opacity="0">@Spizig</text>
<g class="stroked-text"><desc>@Spizig</desc>
<path d="M109.458381 72.789190
L109.410762 72.741571
" />
<path d="M109.410762 72.741571
L109.315524 72.693952
" />
<path d="M109.315524 72.693952
L109.220286 72.693952
" />
<path d="M109.220286 72.693952
L109.125048 72.741571
" />
<path d="M109.125048 72.741571
L109.077429 72.789190
" />
<path d="M109.077429 72.789190
L109.029810 72.884428
" />
<path d="M109.029810 72.884428
L109.029810 72.979666
" />
<path d="M109.029810 72.979666
L109.077429 73.074904
" />
<path d="M109.077429 73.074904
L109.125048 73.122523
" />
<path d="M109.125048 73.122523
L109.220286 73.170142
" />
<path d="M109.220286 73.170142
L109.315524 73.170142
" />
<path d="M109.315524 73.170142
L109.410762 73.122523
" />
<path d="M109.410762 73.122523
L109.458381 73.074904
" />
<path d="M109.458381 72.693952
L109.458381 73.074904
" />
<path d="M109.458381 73.074904
L109.506000 73.122523
" />
<path d="M109.506000 73.122523
L109.553619 73.122523
" />
<path d="M109.553619 73.122523
L109.648858 73.074904
" />
<path d="M109.648858 73.074904
L109.696477 72.979666
" />
<path d="M109.696477 72.979666
L109.696477 72.741571
" />
<path d="M109.696477 72.741571
L109.601239 72.598714
" />
<path d="M109.601239 72.598714
L109.458381 72.503476
" />
<path d="M109.458381 72.503476
L109.267905 72.455857
" />
<path d="M109.267905 72.455857
L109.077429 72.503476
" />
<path d="M109.077429 72.503476
L108.934572 72.598714
" />
<path d="M108.934572 72.598714
L108.839334 72.741571
" />
<path d="M108.839334 72.741571
L108.791715 72.932047
" />
<path d="M108.791715 72.932047
L108.839334 73.122523
" />
<path d="M108.839334 73.122523
L108.934572 73.265380
" />
<path d="M108.934572 73.265380
L109.077429 73.360619
" />
<path d="M109.077429 73.360619
L109.267905 73.408238
" />
<path d="M109.267905 73.408238
L109.458381 73.360619
" />
<path d="M109.458381 73.360619
L109.601239 73.265380
" />
<path d="M110.077429 73.217761
L110.220286 73.265380
" />
<path d="M110.220286 73.265380
L110.458381 73.265380
" />
<path d="M110.458381 73.265380
L110.553619 73.217761
" />
<path d="M110.553619 73.217761
L110.601238 73.170142
" />
<path d="M110.601238 73.170142
L110.648857 73.074904
" />
<path d="M110.648857 73.074904
L110.648857 72.979666
" />
<path d="M110.648857 72.979666
L110.601238 72.884428
" />
<path d="M110.601238 72.884428
L110.553619 72.836809
" />
<path d="M110.553619 72.836809
L110.458381 72.789190
" />
<path d="M110.458381 72.789190
L110.267905 72.741571
" />
<path d="M110.267905 72.741571
L110.172667 72.693952
" />
<path d="M110.172667 72.693952
L110.125048 72.646333
" />
<path d="M110.125048 72.646333
L110.077429 72.551095
" />
<path d="M110.077429 72.551095
L110.077429 72.455857
" />
<path d="M110.077429 72.455857
L110.125048 72.360619
" />
<path d="M110.125048 72.360619
L110.172667 72.313000
" />
<path d="M110.172667 72.313000
L110.267905 72.265380
" />
<path d="M110.267905 72.265380
L110.506000 72.265380
" />
<path d="M110.506000 72.265380
L110.648857 72.313000
" />
<path d="M111.077429 72.598714
L111.077429 73.598714
" />
<path d="M111.077429 72.646333
L111.172667 72.598714
" />
<path d="M111.172667 72.598714
L111.363143 72.598714
" />
<path d="M111.363143 72.598714
L111.458381 72.646333
" />
<path d="M111.458381 72.646333
L111.506000 72.693952
" />
<path d="M111.506000 72.693952
L111.553619 72.789190
" />
<path d="M111.553619 72.789190
L111.553619 73.074904
" />
<path d="M111.553619 73.074904
L111.506000 73.170142
" />
<path d="M111.506000 73.170142
L111.458381 73.217761
" />
<path d="M111.458381 73.217761
L111.363143 73.265380
" />
<path d="M111.363143 73.265380
L111.172667 73.265380
" />
<path d="M111.172667 73.265380
L111.077429 73.217761
" />
<path d="M111.982191 73.265380
L111.982191 72.598714
" />
<path d="M111.982191 72.265380
L111.934572 72.313000
" />
<path d="M111.934572 72.313000
L111.982191 72.360619
" />
<path d="M111.982191 72.360619
L112.029810 72.313000
" />
<path d="M112.029810 72.313000
L111.982191 72.265380
" />
<path d="M111.982191 72.265380
L111.982191 72.360619
" />
<path d="M112.363143 72.598714
L112.886952 72.598714
" />
<path d="M112.886952 72.598714
L112.363143 73.265380
" />
<path d="M112.363143 73.265380
L112.886952 73.265380
" />
<path d="M113.267905 73.265380
L113.267905 72.598714
" />
<path d="M113.267905 72.265380
L113.220286 72.313000
" />
<path d="M113.220286 72.313000
L113.267905 72.360619
" />
<path d="M113.267905 72.360619
L113.315524 72.313000
" />
<path d="M113.315524 72.313000
L113.267905 72.265380
" />
<path d="M113.267905 72.265380
L113.267905 72.360619
" />
<path d="M114.172666 72.598714
L114.172666 73.408238
" />
<path d="M114.172666 73.408238
L114.125047 73.503476
" />
<path d="M114.125047 73.503476
L114.077428 73.551095
" />
<path d="M114.077428 73.551095
L113.982190 73.598714
" />
<path d="M113.982190 73.598714
L113.839333 73.598714
" />
<path d="M113.839333 73.598714
L113.744095 73.551095
" />
<path d="M114.172666 73.217761
L114.077428 73.265380
" />
<path d="M114.077428 73.265380
L113.886952 73.265380
" />
<path d="M113.886952 73.265380
L113.791714 73.217761
" />
<path d="M113.791714 73.217761
L113.744095 73.170142
" />
<path d="M113.744095 73.170142
L113.696476 73.074904
" />
<path d="M113.696476 73.074904
L113.696476 72.789190
" />
<path d="M113.696476 72.789190
L113.744095 72.693952
" />
<path d="M113.744095 72.693952
L113.791714 72.646333
" />
<path d="M113.791714 72.646333
L113.886952 72.598714
" />
<path d="M113.886952 72.598714
L114.077428 72.598714
" />
<path d="M114.077428 72.598714
L114.172666 72.646333
" />
</g><g transform="rotate(-90.000000 91.000000 72.600000)">
<text x="91.000000" y="73.100000"
textLength="1.984524" font-size="1.333333" lengthAdjust="spacingAndGlyphs"
text-anchor="middle" opacity="0">3V</text>
</g>
<g class="stroked-text"><desc>3V</desc>
<path d="M90.367380 73.361904
L90.367380 72.742857
" />
<path d="M90.367380 72.742857
L90.748333 73.076190
" />
<path d="M90.748333 73.076190
L90.748333 72.933333
" />
<path d="M90.748333 72.933333
L90.795952 72.838095
" />
<path d="M90.795952 72.838095
L90.843571 72.790476
" />
<path d="M90.843571 72.790476
L90.938809 72.742857
" />
<path d="M90.938809 72.742857
L91.176904 72.742857
" />
<path d="M91.176904 72.742857
L91.272142 72.790476
" />
<path d="M91.272142 72.790476
L91.319761 72.838095
" />
<path d="M91.319761 72.838095
L91.367380 72.933333
" />
<path d="M91.367380 72.933333
L91.367380 73.219047
" />
<path d="M91.367380 73.219047
L91.319761 73.314285
" />
<path d="M91.319761 73.314285
L91.272142 73.361904
" />
<path d="M90.367380 72.457142
L91.367380 72.123809
" />
<path d="M91.367380 72.123809
L90.367380 71.790476
" />
</g><g transform="rotate(-90.000000 91.000000 75.080000)">
<text x="91.000000" y="75.580000"
textLength="2.127381" font-size="1.333333" lengthAdjust="spacingAndGlyphs"
text-anchor="middle" opacity="0">CS</text>
</g>
<g class="stroked-text"><desc>CS</desc>
<path d="M91.272142 75.246666
L91.319761 75.294285
" />
<path d="M91.319761 75.294285
L91.367380 75.437142
" />
<path d="M91.367380 75.437142
L91.367380 75.532380
" />
<path d="M91.367380 75.532380
L91.319761 75.675237
" />
<path d="M91.319761 75.675237
L91.224523 75.770475
" />
<path d="M91.224523 75.770475
L91.129285 75.818094
" />
<path d="M91.129285 75.818094
L90.938809 75.865713
" />
<path d="M90.938809 75.865713
L90.795952 75.865713
" />
<path d="M90.795952 75.865713
L90.605476 75.818094
" />
<path d="M90.605476 75.818094
L90.510238 75.770475
" />
<path d="M90.510238 75.770475
L90.415000 75.675237
" />
<path d="M90.415000 75.675237
L90.367380 75.532380
" />
<path d="M90.367380 75.532380
L90.367380 75.437142
" />
<path d="M90.367380 75.437142
L90.415000 75.294285
" />
<path d="M90.415000 75.294285
L90.462619 75.246666
" />
<path d="M91.319761 74.865713
L91.367380 74.722856
" />
<path d="M91.367380 74.722856
L91.367380 74.484761
" />
<path d="M91.367380 74.484761
L91.319761 74.389523
" />
<path d="M91.319761 74.389523
L91.272142 74.341904
" />
<path d="M91.272142 74.341904
L91.176904 74.294285
" />
<path d="M91.176904 74.294285
L91.081666 74.294285
" />
<path d="M91.081666 74.294285
L90.986428 74.341904
" />
<path d="M90.986428 74.341904
L90.938809 74.389523
" />
<path d="M90.938809 74.389523
L90.891190 74.484761
" />
<path d="M90.891190 74.484761
L90.843571 74.675237
" />
<path d="M90.843571 74.675237
L90.795952 74.770475
" />
<path d="M90.795952 74.770475
L90.748333 74.818094
" />
<path d="M90.748333 74.818094
L90.653095 74.865713
" />
<path d="M90.653095 74.865713
L90.557857 74.865713
" />
<path d="M90.557857 74.865713
L90.462619 74.818094
" />
<path d="M90.462619 74.818094
L90.415000 74.770475
" />
<path d="M90.415000 74.770475
L90.367380 74.675237
" />
<path d="M90.367380 74.675237
L90.367380 74.437142
" />
<path d="M90.367380 74.437142
L90.415000 74.294285
" />
</g><g transform="rotate(-90.000000 91.000000 77.500000)">
<text x="91.000000" y="78.000000"
textLength="2.365476" font-size="1.333333" lengthAdjust="spacingAndGlyphs"
text-anchor="middle" opacity="0">MO</text>
</g>
<g class="stroked-text"><desc>MO</desc>
<path d="M91.367380 78.357142
L90.367380 78.357142
" />
<path d="M90.367380 78.357142
L91.081666 78.023809
" />
<path d="M91.081666 78.023809
L90.367380 77.690476
" />
<path d="M90.367380 77.690476
L91.367380 77.690476
" />
<path d="M90.367380 77.023809
L90.367380 76.833333
" />
<path d="M90.367380 76.833333
L90.415000 76.738095
" />
<path d="M90.415000 76.738095
L90.510238 76.642857
" />
<path d="M90.510238 76.642857
L90.700714 76.595238
" />
<path d="M90.700714 76.595238
L91.034047 76.595238
" />
<path d="M91.034047 76.595238
L91.224523 76.642857
" />
<path d="M91.224523 76.642857
L91.319761 76.738095
" />
<path d="M91.319761 76.738095
L91.367380 76.833333
" />
<path d="M91.367380 76.833333
L91.367380 77.023809
" />
<path d="M91.367380 77.023809
L91.319761 77.119047
" />
<path d="M91.319761 77.119047
L91.224523 77.214285
" />
<path d="M91.224523 77.214285
L91.034047 77.261904
" />
<path d="M91.034047 77.261904
L90.700714 77.261904
" />
<path d="M90.700714 77.261904
L90.510238 77.214285
" />
<path d="M90.510238 77.214285
L90.415000 77.119047
" />
<path d="M90.415000 77.119047
L90.367380 77.023809
" />
</g><text x="90.500000" y="80.800000"
textLength="1.651190" font-size="1.333333" lengthAdjust="spacingAndGlyphs"
text-anchor="middle" opacity="0">IR</text>
<g class="stroked-text"><desc>IR</desc>
<path d="M90.000000 80.667380
L90.000000 79.667380
" />
<path d="M91.047618 80.667380
L90.714285 80.191190
" />
<path d="M90.476190 80.667380
L90.476190 79.667380
" />
<path d="M90.476190 79.667380
L90.857142 79.667380
" />
<path d="M90.857142 79.667380
L90.952380 79.715000
" />
<path d="M90.952380 79.715000
L90.999999 79.762619
" />
<path d="M90.999999 79.762619
L91.047618 79.857857
" />
<path d="M91.047618 79.857857
L91.047618 80.000714
" />
<path d="M91.047618 80.000714
L90.999999 80.095952
" />
<path d="M90.999999 80.095952
L90.952380 80.143571
" />
<path d="M90.952380 80.143571
L90.857142 80.191190
" />
<path d="M90.857142 80.191190
L90.476190 80.191190
" />
</g><g transform="rotate(-90.000000 84.836000 80.264000)">
<text x="84.836000" y="80.764000"
textLength="2.746428" font-size="1.333333" lengthAdjust="spacingAndGlyphs"
text-anchor="middle" opacity="0">MIS</text>
</g>
<g class="stroked-text"><desc>MIS</desc>
<path d="M85.203380 81.311618
L84.203380 81.311618
" />
<path d="M84.203380 81.311618
L84.917666 80.978285
" />
<path d="M84.917666 80.978285
L84.203380 80.644952
" />
<path d="M84.203380 80.644952
L85.203380 80.644952
" />
<path d="M85.203380 80.168761
L84.203380 80.168761
" />
<path d="M85.155761 79.740190
L85.203380 79.597333
" />
<path d="M85.203380 79.597333
L85.203380 79.359238
" />
<path d="M85.203380 79.359238
L85.155761 79.264000
" />
<path d="M85.155761 79.264000
L85.108142 79.216381
" />
<path d="M85.108142 79.216381
L85.012904 79.168762
" />
<path d="M85.012904 79.168762
L84.917666 79.168762
" />
<path d="M84.917666 79.168762
L84.822428 79.216381
" />
<path d="M84.822428 79.216381
L84.774809 79.264000
" />
<path d="M84.774809 79.264000
L84.727190 79.359238
" />
<path d="M84.727190 79.359238
L84.679571 79.549714
" />
<path d="M84.679571 79.549714
L84.631952 79.644952
" />
<path d="M84.631952 79.644952
L84.584333 79.692571
" />
<path d="M84.584333 79.692571
L84.489095 79.740190
" />
<path d="M84.489095 79.740190
L84.393857 79.740190
" />
<path d="M84.393857 79.740190
L84.298619 79.692571
" />
<path d="M84.298619 79.692571
L84.251000 79.644952
" />
<path d="M84.251000 79.644952
L84.203380 79.549714
" />
<path d="M84.203380 79.549714
L84.203380 79.311619
" />
<path d="M84.203380 79.311619
L84.251000 79.168762
" />
</g><g transform="rotate(-90.000000 84.800000 77.700000)">
<text x="84.800000" y="78.200000"
textLength="2.175000" font-size="1.333333" lengthAdjust="spacingAndGlyphs"
text-anchor="middle" opacity="0">CK</text>
</g>
<g class="stroked-text"><desc>CK</desc>
<path d="M85.072142 77.890476
L85.119761 77.938095
" />
<path d="M85.119761 77.938095
L85.167380 78.080952
" />
<path d="M85.167380 78.080952
L85.167380 78.176190
" />
<path d="M85.167380 78.176190
L85.119761 78.319047
" />
<path d="M85.119761 78.319047
L85.024523 78.414285
" />
<path d="M85.024523 78.414285
L84.929285 78.461904
" />
<path d="M84.929285 78.461904
L84.738809 78.509523
" />
<path d="M84.738809 78.509523
L84.595952 78.509523
" />
<path d="M84.595952 78.509523
L84.405476 78.461904
" />
<path d="M84.405476 78.461904
L84.310238 78.414285
" />
<path d="M84.310238 78.414285
L84.215000 78.319047
" />
<path d="M84.215000 78.319047
L84.167380 78.176190
" />
<path d="M84.167380 78.176190
L84.167380 78.080952
" />
<path d="M84.167380 78.080952
L84.215000 77.938095
" />
<path d="M84.215000 77.938095
L84.262619 77.890476
" />
<path d="M85.167380 77.461904
L84.167380 77.461904
" />
<path d="M85.167380 76.890476
L84.595952 77.319047
" />
<path d="M84.167380 76.890476
L84.738809 77.461904
" />
</g><g transform="rotate(-90.000000 84.836000 75.184000)">
<text x="84.836000" y="75.684000"
textLength="2.079762" font-size="1.333333" lengthAdjust="spacingAndGlyphs"
text-anchor="middle" opacity="0">CE</text>
</g>
<g class="stroked-text"><desc>CE</desc>
<path d="M85.108142 75.326857
L85.155761 75.374476
" />
<path d="M85.155761 75.374476
L85.203380 75.517333
" />
<path d="M85.203380 75.517333
L85.203380 75.612571
" />
<path d="M85.203380 75.612571
L85.155761 75.755428
" />
<path d="M85.155761 75.755428
L85.060523 75.850666
" />
<path d="M85.060523 75.850666
L84.965285 75.898285
" />
<path d="M84.965285 75.898285
L84.774809 75.945904
" />
<path d="M84.774809 75.945904
L84.631952 75.945904
" />
<path d="M84.631952 75.945904
L84.441476 75.898285
" />
<path d="M84.441476 75.898285
L84.346238 75.850666
" />
<path d="M84.346238 75.850666
L84.251000 75.755428
" />
<path d="M84.251000 75.755428
L84.203380 75.612571
" />
<path d="M84.203380 75.612571
L84.203380 75.517333
" />
<path d="M84.203380 75.517333
L84.251000 75.374476
" />
<path d="M84.251000 75.374476
L84.298619 75.326857
" />
<path d="M84.679571 74.898285
L84.679571 74.564952
" />
<path d="M85.203380 74.422095
L85.203380 74.898285
" />
<path d="M85.203380 74.898285
L84.203380 74.898285
" />
<path d="M84.203380 74.898285
L84.203380 74.422095
" />
</g><g transform="rotate(-90.000000 84.836000 72.390000)">
<text x="84.836000" y="72.890000"
textLength="2.175000" font-size="1.333333" lengthAdjust="spacingAndGlyphs"
text-anchor="middle" opacity="0">GD</text>
</g>
<g class="stroked-text"><desc>GD</desc>
<path d="M84.251000 72.628095
L84.203380 72.723333
" />
<path d="M84.203380 72.723333
L84.203380 72.866190
" />
<path d="M84.203380 72.866190
L84.251000 73.009047
" />
<path d="M84.251000 73.009047
L84.346238 73.104285
" />
<path d="M84.346238 73.104285
L84.441476 73.151904
" />
<path d="M84.441476 73.151904
L84.631952 73.199523
" />
<path d="M84.631952 73.199523
L84.774809 73.199523
" />
<path d="M84.774809 73.199523
L84.965285 73.151904
" />
<path d="M84.965285 73.151904
L85.060523 73.104285
" />
<path d="M85.060523 73.104285
L85.155761 73.009047
" />
<path d="M85.155761 73.009047
L85.203380 72.866190
" />
<path d="M85.203380 72.866190
L85.203380 72.770952
" />
<path d="M85.203380 72.770952
L85.155761 72.628095
" />
<path d="M85.155761 72.628095
L85.108142 72.580476
" />
<path d="M85.108142 72.580476
L84.774809 72.580476
" />
<path d="M84.774809 72.580476
L84.774809 72.770952
" />
<path d="M85.203380 72.151904
L84.203380 72.151904
" />
<path d="M84.203380 72.151904
L84.203380 71.913809
" />
<path d="M84.203380 71.913809
L84.251000 71.770952
" />
<path d="M84.251000 71.770952
L84.346238 71.675714
" />
<path d="M84.346238 71.675714
L84.441476 71.628095
" />
<path d="M84.441476 71.628095
L84.631952 71.580476
" />
<path d="M84.631952 71.580476
L84.774809 71.580476
" />
<path d="M84.774809 71.580476
L84.965285 71.628095
" />
<path d="M84.965285 71.628095
L85.060523 71.675714
" />
<path d="M85.060523 71.675714
L85.155761 71.770952
" />
<path d="M85.155761 71.770952
L85.203380 71.913809
" />
<path d="M85.203380 71.913809
L85.203380 72.151904
" />
</g><g transform="rotate(-90.000000 84.836000 69.850000)">
<text x="84.836000" y="70.350000"
textLength="2.413095" font-size="1.333333" lengthAdjust="spacingAndGlyphs"
text-anchor="middle" opacity="0">D-</text>
</g>
<g class="stroked-text"><desc>D-</desc>
<path d="M85.203380 70.730951
L84.203380 70.730951
" />
<path d="M84.203380 70.730951
L84.203380 70.492856
" />
<path d="M84.203380 70.492856
L84.251000 70.349999
" />
<path d="M84.251000 70.349999
L84.346238 70.254761
" />
<path d="M84.346238 70.254761
L84.441476 70.207142
" />
<path d="M84.441476 70.207142
L84.631952 70.159523
" />
<path d="M84.631952 70.159523
L84.774809 70.159523
" />
<path d="M84.774809 70.159523
L84.965285 70.207142
" />
<path d="M84.965285 70.207142
L85.060523 70.254761
" />
<path d="M85.060523 70.254761
L85.155761 70.349999
" />
<path d="M85.155761 70.349999
L85.203380 70.492856
" />
<path d="M85.203380 70.492856
L85.203380 70.730951
" />
<path d="M84.822428 69.730951
L84.822428 68.969047
" />
</g><text x="113.792000" y="71.620000"
textLength="2.175000" font-size="1.333333" lengthAdjust="spacingAndGlyphs"
text-anchor="middle" opacity="0">GD</text>
<g class="stroked-text"><desc>GD</desc>
<path d="M113.553904 70.535000
L113.458666 70.487380
" />
<path d="M113.458666 70.487380
L113.315809 70.487380
" />
<path d="M113.315809 70.487380
L113.172952 70.535000
" />
<path d="M113.172952 70.535000
L113.077714 70.630238
" />
<path d="M113.077714 70.630238
L113.030095 70.725476
" />
<path d="M113.030095 70.725476
L112.982476 70.915952
" />
<path d="M112.982476 70.915952
L112.982476 71.058809
" />
<path d="M112.982476 71.058809
L113.030095 71.249285
" />
<path d="M113.030095 71.249285
L113.077714 71.344523
" />
<path d="M113.077714 71.344523
L113.172952 71.439761
" />
<path d="M113.172952 71.439761
L113.315809 71.487380
" />
<path d="M113.315809 71.487380
L113.411047 71.487380
" />
<path d="M113.411047 71.487380
L113.553904 71.439761
" />
<path d="M113.553904 71.439761
L113.601523 71.392142
" />
<path d="M113.601523 71.392142
L113.601523 71.058809
" />
<path d="M113.601523 71.058809
L113.411047 71.058809
" />
<path d="M114.030095 71.487380
L114.030095 70.487380
" />
<path d="M114.030095 70.487380
L114.268190 70.487380
" />
<path d="M114.268190 70.487380
L114.411047 70.535000
" />
<path d="M114.411047 70.535000
L114.506285 70.630238
" />
<path d="M114.506285 70.630238
L114.553904 70.725476
" />
<path d="M114.553904 70.725476
L114.601523 70.915952
" />
<path d="M114.601523 70.915952
L114.601523 71.058809
" />
<path d="M114.601523 71.058809
L114.553904 71.249285
" />
<path d="M114.553904 71.249285
L114.506285 71.344523
" />
<path d="M114.506285 71.344523
L114.411047 71.439761
" />
<path d="M114.411047 71.439761
L114.268190 71.487380
" />
<path d="M114.268190 71.487380
L114.030095 71.487380
" />
</g><text x="111.252000" y="71.620000"
textLength="2.555952" font-size="1.333333" lengthAdjust="spacingAndGlyphs"
text-anchor="middle" opacity="0">I48</text>
<g class="stroked-text"><desc>I48</desc>
<path d="M110.299619 71.487380
L110.299619 70.487380
" />
<path d="M111.204380 70.820714
L111.204380 71.487380
" />
<path d="M110.966285 70.439761
L110.728190 71.154047
" />
<path d="M110.728190 71.154047
L111.347237 71.154047
" />
<path d="M111.871047 70.915952
L111.775809 70.868333
" />
<path d="M111.775809 70.868333
L111.728190 70.820714
" />
<path d="M111.728190 70.820714
L111.680571 70.725476
" />
<path d="M111.680571 70.725476
L111.680571 70.677857
" />
<path d="M111.680571 70.677857
L111.728190 70.582619
" />
<path d="M111.728190 70.582619
L111.775809 70.535000
" />
<path d="M111.775809 70.535000
L111.871047 70.487380
" />
<path d="M111.871047 70.487380
L112.061523 70.487380
" />
<path d="M112.061523 70.487380
L112.156761 70.535000
" />
<path d="M112.156761 70.535000
L112.204380 70.582619
" />
<path d="M112.204380 70.582619
L112.251999 70.677857
" />
<path d="M112.251999 70.677857
L112.251999 70.725476
" />
<path d="M112.251999 70.725476
L112.204380 70.820714
" />
<path d="M112.204380 70.820714
L112.156761 70.868333
" />
<path d="M112.156761 70.868333
L112.061523 70.915952
" />
<path d="M112.061523 70.915952
L111.871047 70.915952
" />
<path d="M111.871047 70.915952
L111.775809 70.963571
" />
<path d="M111.775809 70.963571
L111.728190 71.011190
" />
<path d="M111.728190 71.011190
L111.680571 71.106428
" />
<path d="M111.680571 71.106428
L111.680571 71.296904
" />
<path d="M111.680571 71.296904
L111.728190 71.392142
" />
<path d="M111.728190 71.392142
L111.775809 71.439761
" />
<path d="M111.775809 71.439761
L111.871047 71.487380
" />
<path d="M111.871047 71.487380
L112.061523 71.487380
" />
<path d="M112.061523 71.487380
L112.156761 71.439761
" />
<path d="M112.156761 71.439761
L112.204380 71.392142
" />
<path d="M112.204380 71.392142
L112.251999 71.296904
" />
<path d="M112.251999 71.296904
L112.251999 71.106428
" />
<path d="M112.251999 71.106428
L112.204380 71.011190
" />
<path d="M112.204380 71.011190
L112.156761 70.963571
" />
<path d="M112.156761 70.963571
L112.061523 70.915952
" />
</g><text x="108.712000" y="71.620000"
textLength="2.555952" font-size="1.333333" lengthAdjust="spacingAndGlyphs"
text-anchor="middle" opacity="0">I47</text>
<g class="stroked-text"><desc>I47</desc>
<path d="M107.759619 71.487380
L107.759619 70.487380
" />
<path d="M108.664380 70.820714
L108.664380 71.487380
" />
<path d="M108.426285 70.439761
L108.188190 71.154047
" />
<path d="M108.188190 71.154047
L108.807237 71.154047
" />
<path d="M109.092952 70.487380
L109.759618 70.487380
" />
<path d="M109.759618 70.487380
L109.331047 71.487380
" />
</g><text x="106.172000" y="71.620000"
textLength="2.555952" font-size="1.333333" lengthAdjust="spacingAndGlyphs"
text-anchor="middle" opacity="0">I21</text>
<g class="stroked-text"><desc>I21</desc>
<path d="M105.219619 71.487380
L105.219619 70.487380
" />
<path d="M105.648190 70.582619
L105.695809 70.535000
" />
<path d="M105.695809 70.535000
L105.791047 70.487380
" />
<path d="M105.791047 70.487380
L106.029142 70.487380
" />
<path d="M106.029142 70.487380
L106.124380 70.535000
" />
<path d="M106.124380 70.535000
L106.171999 70.582619
" />
<path d="M106.171999 70.582619
L106.219618 70.677857
" />
<path d="M106.219618 70.677857
L106.219618 70.773095
" />
<path d="M106.219618 70.773095
L106.171999 70.915952
" />
<path d="M106.171999 70.915952
L105.600571 71.487380
" />
<path d="M105.600571 71.487380
L106.219618 71.487380
" />
<path d="M107.171999 71.487380
L106.600571 71.487380
" />
<path d="M106.886285 71.487380
L106.886285 70.487380
" />
<path d="M106.886285 70.487380
L106.791047 70.630238
" />
<path d="M106.791047 70.630238
L106.695809 70.725476
" />
<path d="M106.695809 70.725476
L106.600571 70.773095
" />
</g><text x="103.632000" y="71.620000"
textLength="2.555952" font-size="1.333333" lengthAdjust="spacingAndGlyphs"
text-anchor="middle" opacity="0">I14</text>
<g class="stroked-text"><desc>I14</desc>
<path d="M102.679619 71.487380
L102.679619 70.487380
" />
<path d="M103.679618 71.487380
L103.108190 71.487380
" />
<path d="M103.393904 71.487380
L103.393904 70.487380
" />
<path d="M103.393904 70.487380
L103.298666 70.630238
" />
<path d="M103.298666 70.630238
L103.203428 70.725476
" />
<path d="M103.203428 70.725476
L103.108190 70.773095
" />
<path d="M104.536761 70.820714
L104.536761 71.487380
" />
<path d="M104.298666 70.439761
L104.060571 71.154047
" />
<path d="M104.060571 71.154047
L104.679618 71.154047
" />
</g><text x="117.500000" y="91.000000"
textLength="5.032143" font-size="1.333333" lengthAdjust="spacingAndGlyphs"
text-anchor="middle" opacity="0">09/23</text>
<g class="stroked-text"><desc>09/23</desc>
<path d="M115.500000 89.867380
L115.595238 89.867380
" />
<path d="M115.595238 89.867380
L115.690476 89.915000
" />
<path d="M115.690476 89.915000
L115.738095 89.962619
" />
<path d="M115.738095 89.962619
L115.785714 90.057857
" />
<path d="M115.785714 90.057857
L115.833333 90.248333
" />
<path d="M115.833333 90.248333
L115.833333 90.486428
" />
<path d="M115.833333 90.486428
L115.785714 90.676904
" />
<path d="M115.785714 90.676904
L115.738095 90.772142
" />
<path d="M115.738095 90.772142
L115.690476 90.819761
" />
<path d="M115.690476 90.819761
L115.595238 90.867380
" />
<path d="M115.595238 90.867380
L115.500000 90.867380
" />
<path d="M115.500000 90.867380
L115.404762 90.819761
" />
<path d="M115.404762 90.819761
L115.357143 90.772142
" />
<path d="M115.357143 90.772142
L115.309524 90.676904
" />
<path d="M115.309524 90.676904
L115.261905 90.486428
" />
<path d="M115.261905 90.486428
L115.261905 90.248333
" />
<path d="M115.261905 90.248333
L115.309524 90.057857
" />
<path d="M115.309524 90.057857
L115.357143 89.962619
" />
<path d="M115.357143 89.962619
L115.404762 89.915000
" />
<path d="M115.404762 89.915000
L115.500000 89.867380
" />
<path d="M116.309524 90.867380
L116.500000 90.867380
" />
<path d="M116.500000 90.867380
L116.595238 90.819761
" />
<path d="M116.595238 90.819761
L116.642857 90.772142
" />
<path d="M116.642857 90.772142
L116.738095 90.629285
" />
<path d="M116.738095 90.629285
L116.785714 90.438809
" />
<path d="M116.785714 90.438809
L116.785714 90.057857
" />
<path d="M116.785714 90.057857
L116.738095 89.962619
" />
<path d="M116.738095 89.962619
L116.690476 89.915000
" />
<path d="M116.690476 89.915000
L116.595238 89.867380
" />
<path d="M116.595238 89.867380
L116.404762 89.867380
" />
<path d="M116.404762 89.867380
L116.309524 89.915000
" />
<path d="M116.309524 89.915000
L116.261905 89.962619
" />
<path d="M116.261905 89.962619
L116.214286 90.057857
" />
<path d="M116.214286 90.057857
L116.214286 90.295952
" />
<path d="M116.214286 90.295952
L116.261905 90.391190
" />
<path d="M116.261905 90.391190
L116.309524 90.438809
" />
<path d="M116.309524 90.438809
L116.404762 90.486428
" />
<path d="M116.404762 90.486428
L116.595238 90.486428
" />
<path d="M116.595238 90.486428
L116.690476 90.438809
" />
<path d="M116.690476 90.438809
L116.738095 90.391190
" />
<path d="M116.738095 90.391190
L116.785714 90.295952
" />
<path d="M117.928571 89.819761
L117.071429 91.105476
" />
<path d="M118.214286 89.962619
L118.261905 89.915000
" />
<path d="M118.261905 89.915000
L118.357143 89.867380
" />
<path d="M118.357143 89.867380
L118.595238 89.867380
" />
<path d="M118.595238 89.867380
L118.690476 89.915000
" />
<path d="M118.690476 89.915000
L118.738095 89.962619
" />
<path d="M118.738095 89.962619
L118.785714 90.057857
" />
<path d="M118.785714 90.057857
L118.785714 90.153095
" />
<path d="M118.785714 90.153095
L118.738095 90.295952
" />
<path d="M118.738095 90.295952
L118.166667 90.867380
" />
<path d="M118.166667 90.867380
L118.785714 90.867380
" />
<path d="M119.119048 89.867380
L119.738095 89.867380
" />
<path d="M119.738095 89.867380
L119.404762 90.248333
" />
<path d="M119.404762 90.248333
L119.547619 90.248333
" />
<path d="M119.547619 90.248333
L119.642857 90.295952
" />
<path d="M119.642857 90.295952
L119.690476 90.343571
" />
<path d="M119.690476 90.343571
L119.738095 90.438809
" />
<path d="M119.738095 90.438809
L119.738095 90.676904
" />
<path d="M119.738095 90.676904
L119.690476 90.772142
" />
<path d="M119.690476 90.772142
L119.642857 90.819761
" />
<path d="M119.642857 90.819761
L119.547619 90.867380
" />
<path d="M119.547619 90.867380
L119.261905 90.867380
" />
<path d="M119.261905 90.867380
L119.166667 90.819761
" />
<path d="M119.166667 90.819761
L119.119048 90.772142
" />
</g><text x="116.332000" y="71.800000"
textLength="1.984524" font-size="1.333333" lengthAdjust="spacingAndGlyphs"
text-anchor="middle" opacity="0">3V</text>
<g class="stroked-text"><desc>3V</desc>
<path d="M115.570095 70.667380
L116.189142 70.667380
" />
<path d="M116.189142 70.667380
L115.855809 71.048333
" />
<path d="M115.855809 71.048333
L115.998666 71.048333
" />
<path d="M115.998666 71.048333
L116.093904 71.095952
" />
<path d="M116.093904 71.095952
L116.141523 71.143571
" />
<path d="M116.141523 71.143571
L116.189142 71.238809
" />
<path d="M116.189142 71.238809
L116.189142 71.476904
" />
<path d="M116.189142 71.476904
L116.141523 71.572142
" />
<path d="M116.141523 71.572142
L116.093904 71.619761
" />
<path d="M116.093904 71.619761
L115.998666 71.667380
" />
<path d="M115.998666 71.667380
L115.712952 71.667380
" />
<path d="M115.712952 71.667380
L115.617714 71.619761
" />
<path d="M115.617714 71.619761
L115.570095 71.572142
" />
<path d="M116.474857 70.667380
L116.808190 71.667380
" />
<path d="M116.808190 71.667380
L117.141523 70.667380
" />
</g><g transform="rotate(-90.000000 91.000000 69.700000)">
<text x="91.000000" y="70.200000"
textLength="2.413095" font-size="1.333333" lengthAdjust="spacingAndGlyphs"
text-anchor="middle" opacity="0">D+</text>
</g>
<g class="stroked-text"><desc>D+</desc>
<path d="M91.367380 70.580951
L90.367380 70.580951
" />
<path d="M90.367380 70.580951
L90.367380 70.342856
" />
<path d="M90.367380 70.342856
L90.415000 70.199999
" />
<path d="M90.415000 70.199999
L90.510238 70.104761
" />
<path d="M90.510238 70.104761
L90.605476 70.057142
" />
<path d="M90.605476 70.057142
L90.795952 70.009523
" />
<path d="M90.795952 70.009523
L90.938809 70.009523
" />
<path d="M90.938809 70.009523
L91.129285 70.057142
" />
<path d="M91.129285 70.057142
L91.224523 70.104761
" />
<path d="M91.224523 70.104761
L91.319761 70.199999
" />
<path d="M91.319761 70.199999
L91.367380 70.342856
" />
<path d="M91.367380 70.342856
L91.367380 70.580951
" />
<path d="M90.986428 69.580951
L90.986428 68.819047
" />
<path d="M91.367380 69.199999
L90.605476 69.199999
" />
</g><text x="105.216000" y="76.446000"
textLength="1.127381" font-size="1.333333" lengthAdjust="spacingAndGlyphs"
text-anchor="middle" opacity="0">3</text>
<g class="stroked-text"><desc>3</desc>
<path d="M104.882667 75.313380
L105.501714 75.313380
" />
<path d="M105.501714 75.313380
L105.168381 75.694333
" />
<path d="M105.168381 75.694333
L105.311238 75.694333
" />
<path d="M105.311238 75.694333
L105.406476 75.741952
" />
<path d="M105.406476 75.741952
L105.454095 75.789571
" />
<path d="M105.454095 75.789571
L105.501714 75.884809
" />
<path d="M105.501714 75.884809
L105.501714 76.122904
" />
<path d="M105.501714 76.122904
L105.454095 76.218142
" />
<path d="M105.454095 76.218142
L105.406476 76.265761
" />
<path d="M105.406476 76.265761
L105.311238 76.313380
" />
<path d="M105.311238 76.313380
L105.025524 76.313380
" />
<path d="M105.025524 76.313380
L104.930286 76.265761
" />
<path d="M104.930286 76.265761
L104.882667 76.218142
" />
</g><text x="100.016000" y="76.446000"
textLength="1.127381" font-size="1.333333" lengthAdjust="spacingAndGlyphs"
text-anchor="middle" opacity="0">1</text>
<g class="stroked-text"><desc>1</desc>
<path d="M100.301714 76.313380
L99.730286 76.313380
" />
<path d="M100.016000 76.313380
L100.016000 75.313380
" />
<path d="M100.016000 75.313380
L99.920762 75.456238
" />
<path d="M99.920762 75.456238
L99.825524 75.551476
" />
<path d="M99.825524 75.551476
L99.730286 75.599095
" />
</g></g>
<g style="fill:#000000; fill-opacity:0.0; 
stroke:#000000; stroke-width:0.120000; stroke-opacity:1; 
stroke-linecap:round; stroke-linejoin:round;">
<path d="M101.450000 71.292000
L101.450000 69.882000
" />
<path d="M99.130000 69.882000
L99.130000 71.912000
" />
<path d="M99.130000 69.882000
L99.790000 69.882000
" />
<path d="M100.790000 69.882000
L101.450000 69.882000
" />
<path d="M90.725252 89.135000
L90.202748 89.135000
" />
<path d="M90.725252 87.665000
L90.202748 87.665000
" />
<path d="M86.927064 83.935000
L86.472936 83.935000
" />
<path d="M86.927064 82.465000
L86.472936 82.465000
" />
<path d="M92.024000 84.328000
L92.024000 82.528000
" />
<path d="M92.024000 84.328000
L92.024000 85.128000
" />
<path d="M88.904000 84.328000
L88.904000 83.528000
" />
<path d="M88.904000 84.328000
L88.904000 85.128000
" />
<path d="M90.725252 91.159000
L90.202748 91.159000
" />
<path d="M90.725252 89.689000
L90.202748 89.689000
" />
<path d="M109.934748 87.657000
L110.457252 87.657000
" />
<path d="M109.934748 89.127000
L110.457252 89.127000
" />
<path d="M109.934748 84.355000
L110.457252 84.355000
" />
<path d="M109.934748 85.825000
L110.457252 85.825000
" />
<path d="M109.934748 81.053000
L110.457252 81.053000
" />
<path d="M109.934748 82.523000
L110.457252 82.523000
" />
<path d="M110.188748 77.497000
L110.711252 77.497000
" />
<path d="M110.188748 78.967000
L110.711252 78.967000
" />
<path d="M104.538748 87.665000
L105.061252 87.665000
" />
<path d="M104.538748 89.135000
L105.061252 89.135000
" />
<path d="M104.854748 72.163000
L105.377252 72.163000
" />
<path d="M104.854748 73.633000
L105.377252 73.633000
" />
<path d="M93.151000 70.858748
L93.151000 71.381252
" />
<path d="M91.681000 70.858748
L91.681000 71.381252
" />
<path d="M104.538748 85.365000
L105.061252 85.365000
" />
<path d="M104.538748 86.835000
L105.061252 86.835000
" />
<path d="M104.854748 82.577000
L105.377252 82.577000
" />
<path d="M104.854748 84.047000
L105.377252 84.047000
" />
<path d="M110.188748 73.941000
L110.711252 73.941000
" />
<path d="M110.188748 75.411000
L110.711252 75.411000
" />
<path d="M95.979252 72.363000
L95.456748 72.363000
" />
<path d="M95.979252 70.893000
L95.456748 70.893000
" />
<path d="M91.670000 78.196000
L93.670000 78.196000
" />
<path d="M91.670000 78.196000
L91.670000 74.296000
" />
<path d="M93.670000 78.196000
L93.670000 74.296000
" />
<path d="M94.992000 88.400000
L94.992000 90.400000
" />
<path d="M94.992000 88.400000
L98.892000 88.400000
" />
<path d="M94.992000 90.400000
L98.892000 90.400000
" />
<path d="M99.492000 87.900000
L99.492000 85.900000
" />
<path d="M99.492000 87.900000
L95.592000 87.900000
" />
<path d="M99.492000 85.900000
L95.592000 85.900000
" />
<path d="M98.134000 81.439936
L98.134000 82.644064
" />
<path d="M95.414000 81.439936
L95.414000 82.644064
" />
<path d="M98.485064 75.919000
L98.030936 75.919000
" />
<path d="M98.485064 74.449000
L98.030936 74.449000
" />
<path d="M98.485064 77.951000
L98.030936 77.951000
" />
<path d="M98.485064 76.481000
L98.030936 76.481000
" />
<path d="M92.429000 80.002748
L92.429000 80.525252
" />
<path d="M90.959000 80.002748
L90.959000 80.525252
" />
<path d="M104.854748 79.021000
L105.377252 79.021000
" />
<path d="M104.854748 80.491000
L105.377252 80.491000
" />
<path d="M121.888000 88.835000
L122.488000 88.835000
" />
<path d="M121.888000 88.725000
L121.888000 88.835000
" />
<path d="M119.298000 85.960000
L119.698000 85.760000
" />
<path d="M119.698000 85.760000
L119.298000 85.560000
" />
<path d="M119.298000 85.560000
L119.298000 85.960000
" />
<path d="M121.888000 71.295000
L121.888000 71.185000
" />
<path d="M121.888000 71.185000
L122.488000 71.185000
" />
<path d="M85.030000 68.670000
L86.360000 68.670000
" />
<path d="M85.030000 70.000000
L85.030000 68.670000
" />
<path d="M85.030000 71.270000
L85.030000 81.490000
" />
<path d="M85.030000 71.270000
L87.630000 71.270000
" />
<path d="M85.030000 81.490000
L90.230000 81.490000
" />
<path d="M87.630000 68.670000
L90.230000 68.670000
" />
<path d="M87.630000 71.270000
L87.630000 68.670000
" />
<path d="M90.230000 68.670000
L90.230000 81.490000
" />
<path d="M100.566000 76.246000
L100.566000 75.646000
" />
<path d="M101.216000 74.946000
L104.016000 74.946000
" />
<path d="M104.016000 76.946000
L101.216000 76.946000
" />
<path d="M104.666000 75.646000
L104.666000 76.246000
" />
<path d="M101.266000 74.946000 A0.699999 0.699999 0.0 0 0 100.566000 75.646000" />
<path d="M100.566000 76.246000 A0.699999 0.699999 0.0 0 0 101.266000 76.946000" />
<path d="M104.666000 75.646000 A0.700000 0.700000 0.0 0 0 103.966000 74.946000" />
<path d="M103.966000 76.946000 A0.700000 0.700000 0.0 0 0 104.666000 76.246000" />
<path d="M100.611000 79.491064
L100.611000 79.036936
" />
<path d="M102.081000 79.491064
L102.081000 79.036936
" />
<path d="M86.470000 88.170000
L85.200000 88.170000
" />
<path d="M86.470000 86.900000
L86.470000 88.170000
" />
<path d="M84.090000 87.280000
L83.760000 87.280000
" />
<path d="M84.090000 86.520000
L83.760000 86.520000
" />
<path d="M83.760000 88.230000
L83.760000 85.570000
" />
<path d="M83.760000 85.570000
L81.100000 85.570000
" />
<path d="M81.100000 88.230000
L83.760000 88.230000
" />
<path d="M81.100000 87.280000
L75.100000 87.280000
" />
<path d="M81.100000 87.220000
L75.100000 87.220000
" />
<path d="M81.100000 87.100000
L75.100000 87.100000
" />
<path d="M81.100000 86.980000
L75.100000 86.980000
" />
<path d="M81.100000 86.860000
L75.100000 86.860000
" />
<path d="M81.100000 86.740000
L75.100000 86.740000
" />
<path d="M81.100000 86.620000
L75.100000 86.620000
" />
<path d="M81.100000 85.570000
L81.100000 88.230000
" />
<path d="M75.100000 87.280000
L75.100000 86.520000
" />
<path d="M75.100000 86.520000
L81.100000 86.520000
" />
<g >
</g>
<g >
</g>
<g >
</g>
<g >
</g>
<g >
</g>
<g >
</g>
<g >
</g>
<g >
</g>
<g >
</g>
<g >
</g>
<g >
</g>
<g >
</g>
<g >
</g>
<g >
</g>
<g >
</g>
<g >
</g>
<g >
</g>
<g >
</g>
<g >
</g>
<g >
</g>
<g >
</g>
<g >
</g>
<g >
</g>
<g >
</g>
<g >
</g>
<g >
</g>
<g >
</g>
<g >
</g>
<g >
</g>
<g >
</g>
<g >
</g>
<g >
</g>
<g >
</g>
<g >
</g>
<g >
</g>
<g >
</g>
<g >
</g>
<g >
</g>
<g >
</g>
<g >
</g>
<g >
</g>
<g >
</g>
<g >
</g>
<g >
</g>
<g >
</g>
<g >
</g>
<g >
</g>
<g >
</g>
<g >
</g>
</g> 
</svg>
