<?xml version="1.0" standalone="no"?>
 <!DOCTYPE svg PUBLIC "-//W3C//DTD SVG 1.1//EN" 
 "http://www.w3.org/Graphics/SVG/1.1/DTD/svg11.dtd"> 
<svg
  xmlns:svg="http://www.w3.org/2000/svg"
  xmlns="http://www.w3.org/2000/svg"
  xmlns:xlink="http://www.w3.org/1999/xlink"
  version="1.1"
  width="297.002200mm" height="210.007200mm" viewBox="0.000000 0.000000 297.002200 210.007200">
<title>SVG Image created as s3Basic-B_Mask.svg date 2023/08/21 19:51:55 </title>
  <desc>Image generated by PCBNEW </desc>
<g style="fill:#000000; fill-opacity:1.000000;stroke:#000000; stroke-opacity:1.000000;
stroke-linecap:round; stroke-linejoin:round;"
 transform="translate(0 0) scale(1 1)">
</g>
<g style="fill:#000000; fill-opacity:0.0; 
stroke:#000000; stroke-width:0.000000; stroke-opacity:1; 
stroke-linecap:round; stroke-linejoin:round;">
<g >
</g>
<g >
</g>
<g >
</g>
<g >
</g>
<g >
</g>
<g >
</g>
<g >
</g>
<g >
</g>
<g >
</g>
<g >
</g>
<g >
</g>
<g >
</g>
<g >
</g>
<g >
</g>
<g >
</g>
<g >
</g>
<g >
</g>
<g >
</g>
<g >
</g>
<g >
</g>
<g >
</g>
<g >
</g>
<g >
</g>
<g >
</g>
<g >
</g>
<g >
</g>
<g style="fill:#000000; fill-opacity:0.0; 
stroke:#000000; stroke-width:0.000000; stroke-opacity:1; 
stroke-linecap:round; stroke-linejoin:round;">
</g>
<g style="fill:#000000; fill-opacity:0.0; 
stroke:#000000; stroke-width:0.000000; stroke-opacity:1; 
stroke-linecap:round; stroke-linejoin:round;">
</g>
<g style="fill:#000000; fill-opacity:1.000000; 
stroke:#000000; stroke-width:0.000000; stroke-opacity:1; 
stroke-linecap:round; stroke-linejoin:round;">
<path style="fill:#000000; fill-opacity:1.000000; 
stroke:#000000; stroke-width:0.000000; stroke-opacity:1; 
stroke-linecap:round; stroke-linejoin:round;fill-rule:evenodd;"
d="M 85.510000,70.850000
85.510000,69.150000
87.210000,69.150000
87.210000,70.850000
Z" /> 
<circle cx="88.900000" cy="70.000000" r="0.850000" /> 
<circle cx="86.360000" cy="72.540000" r="0.850000" /> 
<circle cx="88.900000" cy="72.540000" r="0.850000" /> 
<circle cx="86.360000" cy="75.080000" r="0.850000" /> 
<circle cx="88.900000" cy="75.080000" r="0.850000" /> 
<circle cx="86.360000" cy="77.620000" r="0.850000" /> 
<circle cx="88.900000" cy="77.620000" r="0.850000" /> 
<circle cx="86.360000" cy="80.160000" r="0.850000" /> 
<circle cx="88.900000" cy="80.160000" r="0.850000" /> 
</g>
<g >
</g>
<g >
</g>
<g >
</g>
<g style="fill:#000000; fill-opacity:1.000000; 
stroke:#000000; stroke-width:0.000000; stroke-opacity:1; 
stroke-linecap:round; stroke-linejoin:round;">
<path style="fill:#000000; fill-opacity:1.000000; 
stroke:#000000; stroke-width:0.000000; stroke-opacity:1; 
stroke-linecap:round; stroke-linejoin:round;fill-rule:evenodd;"
d="M 86.050000,86.050000
86.050000,87.750000
84.350000,87.750000
84.350000,86.050000
Z" /> 
</g>
<g >
</g>
<g style="fill:#000000; fill-opacity:1.000000; 
stroke:#000000; stroke-width:0.000000; stroke-opacity:1; 
stroke-linecap:round; stroke-linejoin:round;">
<path style="fill:#000000; fill-opacity:1.000000; 
stroke:#000000; stroke-width:0.000000; stroke-opacity:1; 
stroke-linecap:round; stroke-linejoin:round;fill-rule:evenodd;"
d="M 115.754000,86.914000
115.754000,85.914000
118.264000,85.914000
118.264000,86.914000
Z" /> 
<path style="fill:#000000; fill-opacity:1.000000; 
stroke:#000000; stroke-width:0.000000; stroke-opacity:1; 
stroke-linecap:round; stroke-linejoin:round;fill-rule:evenodd;"
d="M 119.064000,84.374000
119.064000,83.374000
121.574000,83.374000
121.574000,84.374000
Z" /> 
<path style="fill:#000000; fill-opacity:1.000000; 
stroke:#000000; stroke-width:0.000000; stroke-opacity:1; 
stroke-linecap:round; stroke-linejoin:round;fill-rule:evenodd;"
d="M 115.754000,81.834000
115.754000,80.834000
118.264000,80.834000
118.264000,81.834000
Z" /> 
<path style="fill:#000000; fill-opacity:1.000000; 
stroke:#000000; stroke-width:0.000000; stroke-opacity:1; 
stroke-linecap:round; stroke-linejoin:round;fill-rule:evenodd;"
d="M 119.064000,79.294000
119.064000,78.294000
121.574000,78.294000
121.574000,79.294000
Z" /> 
<path style="fill:#000000; fill-opacity:1.000000; 
stroke:#000000; stroke-width:0.000000; stroke-opacity:1; 
stroke-linecap:round; stroke-linejoin:round;fill-rule:evenodd;"
d="M 115.754000,76.754000
115.754000,75.754000
118.264000,75.754000
118.264000,76.754000
Z" /> 
<path style="fill:#000000; fill-opacity:1.000000; 
stroke:#000000; stroke-width:0.000000; stroke-opacity:1; 
stroke-linecap:round; stroke-linejoin:round;fill-rule:evenodd;"
d="M 119.064000,74.214000
119.064000,73.214000
121.574000,73.214000
121.574000,74.214000
Z" /> 
</g>
<g >
</g>
<g style="fill:#000000; fill-opacity:1.000000; 
stroke:#000000; stroke-width:0.000000; stroke-opacity:1; 
stroke-linecap:round; stroke-linejoin:round;">
<path style="fill:#000000; fill-opacity:1.000000; 
stroke:#000000; stroke-width:0.000000; stroke-opacity:1; 
stroke-linecap:round; stroke-linejoin:round;fill-rule:evenodd;"
d="M 89.825000,89.200000
89.813582,89.257403
89.781066,89.306066
89.732403,89.338582
89.675000,89.350000
89.375000,89.350000
89.317597,89.338582
89.268934,89.306066
89.236418,89.257403
89.225000,89.200000
89.225000,87.800000
89.236418,87.742597
89.268934,87.693934
89.317597,87.661418
89.375000,87.650000
89.675000,87.650000
89.732403,87.661418
89.781066,87.693934
89.813582,87.742597
89.825000,87.800000
Z" /> 
<path style="fill:#000000; fill-opacity:1.000000; 
stroke:#000000; stroke-width:0.000000; stroke-opacity:1; 
stroke-linecap:round; stroke-linejoin:round;fill-rule:evenodd;"
d="M 88.575000,89.200000
88.563582,89.257403
88.531066,89.306066
88.482403,89.338582
88.425000,89.350000
88.125000,89.350000
88.067597,89.338582
88.018934,89.306066
87.986418,89.257403
87.975000,89.200000
87.975000,87.800000
87.986418,87.742597
88.018934,87.693934
88.067597,87.661418
88.125000,87.650000
88.425000,87.650000
88.482403,87.661418
88.531066,87.693934
88.563582,87.742597
88.575000,87.800000
Z" /> 
<path style="fill:#000000; fill-opacity:1.000000; 
stroke:#000000; stroke-width:0.000000; stroke-opacity:1; 
stroke-linecap:round; stroke-linejoin:round;fill-rule:evenodd;"
d="M 91.875000,92.800000
91.855970,92.895671
91.801777,92.976777
91.720671,93.030970
91.625000,93.050000
91.125000,93.050000
91.029329,93.030970
90.948223,92.976777
90.894030,92.895671
90.875000,92.800000
90.875000,90.600000
90.894030,90.504329
90.948223,90.423223
91.029329,90.369030
91.125000,90.350000
91.625000,90.350000
91.720671,90.369030
91.801777,90.423223
91.855970,90.504329
91.875000,90.600000
Z" /> 
<path style="fill:#000000; fill-opacity:1.000000; 
stroke:#000000; stroke-width:0.000000; stroke-opacity:1; 
stroke-linecap:round; stroke-linejoin:round;fill-rule:evenodd;"
d="M 86.925000,92.800000
86.905970,92.895671
86.851777,92.976777
86.770671,93.030970
86.675000,93.050000
86.175000,93.050000
86.079329,93.030970
85.998223,92.976777
85.944030,92.895671
85.925000,92.800000
85.925000,90.600000
85.944030,90.504329
85.998223,90.423223
86.079329,90.369030
86.175000,90.350000
86.675000,90.350000
86.770671,90.369030
86.851777,90.423223
86.905970,90.504329
86.925000,90.600000
Z" /> 
</g>
<g >
</g>
<g style="fill:#000000; fill-opacity:1.000000; 
stroke:#000000; stroke-width:0.000000; stroke-opacity:1; 
stroke-linecap:round; stroke-linejoin:round;">
<path style="fill:#000000; fill-opacity:1.000000; 
stroke:#000000; stroke-width:0.000000; stroke-opacity:1; 
stroke-linecap:round; stroke-linejoin:round;fill-rule:evenodd;"
d="M 117.050000,70.446000
115.350000,70.446000
115.350000,68.746000
117.050000,68.746000
Z" /> 
<circle cx="113.660000" cy="69.596000" r="0.850000" /> 
<circle cx="111.120000" cy="69.596000" r="0.850000" /> 
<circle cx="108.580000" cy="69.596000" r="0.850000" /> 
<circle cx="106.040000" cy="69.596000" r="0.850000" /> 
<circle cx="103.500000" cy="69.596000" r="0.850000" /> 
</g>
<g >
</g>
<g style="fill:#000000; fill-opacity:1.000000; 
stroke:#000000; stroke-width:0.000000; stroke-opacity:1; 
stroke-linecap:round; stroke-linejoin:round;">
<path style="fill:#000000; fill-opacity:1.000000; 
stroke:#000000; stroke-width:0.000000; stroke-opacity:1; 
stroke-linecap:round; stroke-linejoin:round;fill-rule:evenodd;"
d="M 95.148000,90.910000
95.148000,90.010000
96.648000,90.010000
96.648000,90.910000
Z" /> 
<path style="fill:#000000; fill-opacity:1.000000; 
stroke:#000000; stroke-width:0.000000; stroke-opacity:1; 
stroke-linecap:round; stroke-linejoin:round;fill-rule:evenodd;"
d="M 95.148000,89.640000
95.148000,88.740000
96.648000,88.740000
96.648000,89.640000
Z" /> 
<path style="fill:#000000; fill-opacity:1.000000; 
stroke:#000000; stroke-width:0.000000; stroke-opacity:1; 
stroke-linecap:round; stroke-linejoin:round;fill-rule:evenodd;"
d="M 95.148000,88.370000
95.148000,87.470000
96.648000,87.470000
96.648000,88.370000
Z" /> 
<path style="fill:#000000; fill-opacity:1.000000; 
stroke:#000000; stroke-width:0.000000; stroke-opacity:1; 
stroke-linecap:round; stroke-linejoin:round;fill-rule:evenodd;"
d="M 95.148000,87.100000
95.148000,86.200000
96.648000,86.200000
96.648000,87.100000
Z" /> 
<path style="fill:#000000; fill-opacity:1.000000; 
stroke:#000000; stroke-width:0.000000; stroke-opacity:1; 
stroke-linecap:round; stroke-linejoin:round;fill-rule:evenodd;"
d="M 95.148000,85.830000
95.148000,84.930000
96.648000,84.930000
96.648000,85.830000
Z" /> 
<path style="fill:#000000; fill-opacity:1.000000; 
stroke:#000000; stroke-width:0.000000; stroke-opacity:1; 
stroke-linecap:round; stroke-linejoin:round;fill-rule:evenodd;"
d="M 95.148000,84.560000
95.148000,83.660000
96.648000,83.660000
96.648000,84.560000
Z" /> 
<path style="fill:#000000; fill-opacity:1.000000; 
stroke:#000000; stroke-width:0.000000; stroke-opacity:1; 
stroke-linecap:round; stroke-linejoin:round;fill-rule:evenodd;"
d="M 95.148000,83.290000
95.148000,82.390000
96.648000,82.390000
96.648000,83.290000
Z" /> 
<path style="fill:#000000; fill-opacity:1.000000; 
stroke:#000000; stroke-width:0.000000; stroke-opacity:1; 
stroke-linecap:round; stroke-linejoin:round;fill-rule:evenodd;"
d="M 95.148000,82.020000
95.148000,81.120000
96.648000,81.120000
96.648000,82.020000
Z" /> 
<path style="fill:#000000; fill-opacity:1.000000; 
stroke:#000000; stroke-width:0.000000; stroke-opacity:1; 
stroke-linecap:round; stroke-linejoin:round;fill-rule:evenodd;"
d="M 95.148000,80.750000
95.148000,79.850000
96.648000,79.850000
96.648000,80.750000
Z" /> 
<path style="fill:#000000; fill-opacity:1.000000; 
stroke:#000000; stroke-width:0.000000; stroke-opacity:1; 
stroke-linecap:round; stroke-linejoin:round;fill-rule:evenodd;"
d="M 95.148000,79.480000
95.148000,78.580000
96.648000,78.580000
96.648000,79.480000
Z" /> 
<path style="fill:#000000; fill-opacity:1.000000; 
stroke:#000000; stroke-width:0.000000; stroke-opacity:1; 
stroke-linecap:round; stroke-linejoin:round;fill-rule:evenodd;"
d="M 95.148000,78.210000
95.148000,77.310000
96.648000,77.310000
96.648000,78.210000
Z" /> 
<path style="fill:#000000; fill-opacity:1.000000; 
stroke:#000000; stroke-width:0.000000; stroke-opacity:1; 
stroke-linecap:round; stroke-linejoin:round;fill-rule:evenodd;"
d="M 95.148000,76.940000
95.148000,76.040000
96.648000,76.040000
96.648000,76.940000
Z" /> 
<path style="fill:#000000; fill-opacity:1.000000; 
stroke:#000000; stroke-width:0.000000; stroke-opacity:1; 
stroke-linecap:round; stroke-linejoin:round;fill-rule:evenodd;"
d="M 95.148000,75.670000
95.148000,74.770000
96.648000,74.770000
96.648000,75.670000
Z" /> 
<path style="fill:#000000; fill-opacity:1.000000; 
stroke:#000000; stroke-width:0.000000; stroke-opacity:1; 
stroke-linecap:round; stroke-linejoin:round;fill-rule:evenodd;"
d="M 95.148000,74.400000
95.148000,73.500000
96.648000,73.500000
96.648000,74.400000
Z" /> 
<path style="fill:#000000; fill-opacity:1.000000; 
stroke:#000000; stroke-width:0.000000; stroke-opacity:1; 
stroke-linecap:round; stroke-linejoin:round;fill-rule:evenodd;"
d="M 97.213000,71.950000
98.113000,71.950000
98.113000,73.450000
97.213000,73.450000
Z" /> 
<path style="fill:#000000; fill-opacity:1.000000; 
stroke:#000000; stroke-width:0.000000; stroke-opacity:1; 
stroke-linecap:round; stroke-linejoin:round;fill-rule:evenodd;"
d="M 98.483000,71.950000
99.383000,71.950000
99.383000,73.450000
98.483000,73.450000
Z" /> 
<path style="fill:#000000; fill-opacity:1.000000; 
stroke:#000000; stroke-width:0.000000; stroke-opacity:1; 
stroke-linecap:round; stroke-linejoin:round;fill-rule:evenodd;"
d="M 99.753000,71.950000
100.653000,71.950000
100.653000,73.450000
99.753000,73.450000
Z" /> 
<path style="fill:#000000; fill-opacity:1.000000; 
stroke:#000000; stroke-width:0.000000; stroke-opacity:1; 
stroke-linecap:round; stroke-linejoin:round;fill-rule:evenodd;"
d="M 101.023000,71.950000
101.923000,71.950000
101.923000,73.450000
101.023000,73.450000
Z" /> 
<path style="fill:#000000; fill-opacity:1.000000; 
stroke:#000000; stroke-width:0.000000; stroke-opacity:1; 
stroke-linecap:round; stroke-linejoin:round;fill-rule:evenodd;"
d="M 102.293000,71.950000
103.193000,71.950000
103.193000,73.450000
102.293000,73.450000
Z" /> 
<path style="fill:#000000; fill-opacity:1.000000; 
stroke:#000000; stroke-width:0.000000; stroke-opacity:1; 
stroke-linecap:round; stroke-linejoin:round;fill-rule:evenodd;"
d="M 103.563000,71.950000
104.463000,71.950000
104.463000,73.450000
103.563000,73.450000
Z" /> 
<path style="fill:#000000; fill-opacity:1.000000; 
stroke:#000000; stroke-width:0.000000; stroke-opacity:1; 
stroke-linecap:round; stroke-linejoin:round;fill-rule:evenodd;"
d="M 104.833000,71.950000
105.733000,71.950000
105.733000,73.450000
104.833000,73.450000
Z" /> 
<path style="fill:#000000; fill-opacity:1.000000; 
stroke:#000000; stroke-width:0.000000; stroke-opacity:1; 
stroke-linecap:round; stroke-linejoin:round;fill-rule:evenodd;"
d="M 106.103000,71.950000
107.003000,71.950000
107.003000,73.450000
106.103000,73.450000
Z" /> 
<path style="fill:#000000; fill-opacity:1.000000; 
stroke:#000000; stroke-width:0.000000; stroke-opacity:1; 
stroke-linecap:round; stroke-linejoin:round;fill-rule:evenodd;"
d="M 107.373000,71.950000
108.273000,71.950000
108.273000,73.450000
107.373000,73.450000
Z" /> 
<path style="fill:#000000; fill-opacity:1.000000; 
stroke:#000000; stroke-width:0.000000; stroke-opacity:1; 
stroke-linecap:round; stroke-linejoin:round;fill-rule:evenodd;"
d="M 108.643000,71.950000
109.543000,71.950000
109.543000,73.450000
108.643000,73.450000
Z" /> 
<path style="fill:#000000; fill-opacity:1.000000; 
stroke:#000000; stroke-width:0.000000; stroke-opacity:1; 
stroke-linecap:round; stroke-linejoin:round;fill-rule:evenodd;"
d="M 109.913000,71.950000
110.813000,71.950000
110.813000,73.450000
109.913000,73.450000
Z" /> 
<path style="fill:#000000; fill-opacity:1.000000; 
stroke:#000000; stroke-width:0.000000; stroke-opacity:1; 
stroke-linecap:round; stroke-linejoin:round;fill-rule:evenodd;"
d="M 111.183000,71.950000
112.083000,71.950000
112.083000,73.450000
111.183000,73.450000
Z" /> 
<path style="fill:#000000; fill-opacity:1.000000; 
stroke:#000000; stroke-width:0.000000; stroke-opacity:1; 
stroke-linecap:round; stroke-linejoin:round;fill-rule:evenodd;"
d="M 114.148000,73.500000
114.148000,74.400000
112.648000,74.400000
112.648000,73.500000
Z" /> 
<path style="fill:#000000; fill-opacity:1.000000; 
stroke:#000000; stroke-width:0.000000; stroke-opacity:1; 
stroke-linecap:round; stroke-linejoin:round;fill-rule:evenodd;"
d="M 114.148000,74.770000
114.148000,75.670000
112.648000,75.670000
112.648000,74.770000
Z" /> 
<path style="fill:#000000; fill-opacity:1.000000; 
stroke:#000000; stroke-width:0.000000; stroke-opacity:1; 
stroke-linecap:round; stroke-linejoin:round;fill-rule:evenodd;"
d="M 114.148000,76.040000
114.148000,76.940000
112.648000,76.940000
112.648000,76.040000
Z" /> 
<path style="fill:#000000; fill-opacity:1.000000; 
stroke:#000000; stroke-width:0.000000; stroke-opacity:1; 
stroke-linecap:round; stroke-linejoin:round;fill-rule:evenodd;"
d="M 114.148000,77.310000
114.148000,78.210000
112.648000,78.210000
112.648000,77.310000
Z" /> 
<path style="fill:#000000; fill-opacity:1.000000; 
stroke:#000000; stroke-width:0.000000; stroke-opacity:1; 
stroke-linecap:round; stroke-linejoin:round;fill-rule:evenodd;"
d="M 114.148000,78.580000
114.148000,79.480000
112.648000,79.480000
112.648000,78.580000
Z" /> 
<path style="fill:#000000; fill-opacity:1.000000; 
stroke:#000000; stroke-width:0.000000; stroke-opacity:1; 
stroke-linecap:round; stroke-linejoin:round;fill-rule:evenodd;"
d="M 114.148000,79.850000
114.148000,80.750000
112.648000,80.750000
112.648000,79.850000
Z" /> 
<path style="fill:#000000; fill-opacity:1.000000; 
stroke:#000000; stroke-width:0.000000; stroke-opacity:1; 
stroke-linecap:round; stroke-linejoin:round;fill-rule:evenodd;"
d="M 114.148000,81.120000
114.148000,82.020000
112.648000,82.020000
112.648000,81.120000
Z" /> 
<path style="fill:#000000; fill-opacity:1.000000; 
stroke:#000000; stroke-width:0.000000; stroke-opacity:1; 
stroke-linecap:round; stroke-linejoin:round;fill-rule:evenodd;"
d="M 114.148000,82.390000
114.148000,83.290000
112.648000,83.290000
112.648000,82.390000
Z" /> 
<path style="fill:#000000; fill-opacity:1.000000; 
stroke:#000000; stroke-width:0.000000; stroke-opacity:1; 
stroke-linecap:round; stroke-linejoin:round;fill-rule:evenodd;"
d="M 114.148000,83.660000
114.148000,84.560000
112.648000,84.560000
112.648000,83.660000
Z" /> 
<path style="fill:#000000; fill-opacity:1.000000; 
stroke:#000000; stroke-width:0.000000; stroke-opacity:1; 
stroke-linecap:round; stroke-linejoin:round;fill-rule:evenodd;"
d="M 114.148000,84.930000
114.148000,85.830000
112.648000,85.830000
112.648000,84.930000
Z" /> 
<path style="fill:#000000; fill-opacity:1.000000; 
stroke:#000000; stroke-width:0.000000; stroke-opacity:1; 
stroke-linecap:round; stroke-linejoin:round;fill-rule:evenodd;"
d="M 114.148000,86.200000
114.148000,87.100000
112.648000,87.100000
112.648000,86.200000
Z" /> 
<path style="fill:#000000; fill-opacity:1.000000; 
stroke:#000000; stroke-width:0.000000; stroke-opacity:1; 
stroke-linecap:round; stroke-linejoin:round;fill-rule:evenodd;"
d="M 114.148000,87.470000
114.148000,88.370000
112.648000,88.370000
112.648000,87.470000
Z" /> 
<path style="fill:#000000; fill-opacity:1.000000; 
stroke:#000000; stroke-width:0.000000; stroke-opacity:1; 
stroke-linecap:round; stroke-linejoin:round;fill-rule:evenodd;"
d="M 114.148000,88.740000
114.148000,89.640000
112.648000,89.640000
112.648000,88.740000
Z" /> 
<path style="fill:#000000; fill-opacity:1.000000; 
stroke:#000000; stroke-width:0.000000; stroke-opacity:1; 
stroke-linecap:round; stroke-linejoin:round;fill-rule:evenodd;"
d="M 114.148000,90.010000
114.148000,90.910000
112.648000,90.910000
112.648000,90.010000
Z" /> 
<path style="fill:#000000; fill-opacity:1.000000; 
stroke:#000000; stroke-width:0.000000; stroke-opacity:1; 
stroke-linecap:round; stroke-linejoin:round;fill-rule:evenodd;"
d="M 102.198000,80.890000
102.198000,81.790000
101.298000,81.790000
101.298000,80.890000
Z" /> 
<path style="fill:#000000; fill-opacity:1.000000; 
stroke:#000000; stroke-width:0.000000; stroke-opacity:1; 
stroke-linecap:round; stroke-linejoin:round;fill-rule:evenodd;"
d="M 102.198000,82.290000
102.198000,83.190000
101.298000,83.190000
101.298000,82.290000
Z" /> 
<path style="fill:#000000; fill-opacity:1.000000; 
stroke:#000000; stroke-width:0.000000; stroke-opacity:1; 
stroke-linecap:round; stroke-linejoin:round;fill-rule:evenodd;"
d="M 102.198000,83.690000
102.198000,84.590000
101.298000,84.590000
101.298000,83.690000
Z" /> 
<path style="fill:#000000; fill-opacity:1.000000; 
stroke:#000000; stroke-width:0.000000; stroke-opacity:1; 
stroke-linecap:round; stroke-linejoin:round;fill-rule:evenodd;"
d="M 103.598000,80.890000
103.598000,81.790000
102.698000,81.790000
102.698000,80.890000
Z" /> 
<path style="fill:#000000; fill-opacity:1.000000; 
stroke:#000000; stroke-width:0.000000; stroke-opacity:1; 
stroke-linecap:round; stroke-linejoin:round;fill-rule:evenodd;"
d="M 103.598000,82.290000
103.598000,83.190000
102.698000,83.190000
102.698000,82.290000
Z" /> 
<path style="fill:#000000; fill-opacity:1.000000; 
stroke:#000000; stroke-width:0.000000; stroke-opacity:1; 
stroke-linecap:round; stroke-linejoin:round;fill-rule:evenodd;"
d="M 103.598000,83.690000
103.598000,84.590000
102.698000,84.590000
102.698000,83.690000
Z" /> 
<path style="fill:#000000; fill-opacity:1.000000; 
stroke:#000000; stroke-width:0.000000; stroke-opacity:1; 
stroke-linecap:round; stroke-linejoin:round;fill-rule:evenodd;"
d="M 104.998000,80.890000
104.998000,81.790000
104.098000,81.790000
104.098000,80.890000
Z" /> 
<path style="fill:#000000; fill-opacity:1.000000; 
stroke:#000000; stroke-width:0.000000; stroke-opacity:1; 
stroke-linecap:round; stroke-linejoin:round;fill-rule:evenodd;"
d="M 104.998000,82.290000
104.998000,83.190000
104.098000,83.190000
104.098000,82.290000
Z" /> 
<path style="fill:#000000; fill-opacity:1.000000; 
stroke:#000000; stroke-width:0.000000; stroke-opacity:1; 
stroke-linecap:round; stroke-linejoin:round;fill-rule:evenodd;"
d="M 104.998000,83.690000
104.998000,84.590000
104.098000,84.590000
104.098000,83.690000
Z" /> 
</g>
<g >
</g>
<g style="fill:#000000; fill-opacity:1.000000; 
stroke:#000000; stroke-width:0.000000; stroke-opacity:1; 
stroke-linecap:round; stroke-linejoin:round;">
<path style="fill:#000000; fill-opacity:1.000000; 
stroke:#000000; stroke-width:0.000000; stroke-opacity:1; 
stroke-linecap:round; stroke-linejoin:round;fill-rule:evenodd;"
d="M 90.675000,86.125000
90.694030,86.029329
90.748223,85.948223
90.829329,85.894030
90.925000,85.875000
91.600000,85.875000
91.695671,85.894030
91.776777,85.948223
91.830970,86.029329
91.850000,86.125000
91.850000,87.075000
91.830970,87.170671
91.776777,87.251777
91.695671,87.305970
91.600000,87.325000
90.925000,87.325000
90.829329,87.305970
90.748223,87.251777
90.694030,87.170671
90.675000,87.075000
Z" /> 
<path style="fill:#000000; fill-opacity:1.000000; 
stroke:#000000; stroke-width:0.000000; stroke-opacity:1; 
stroke-linecap:round; stroke-linejoin:round;fill-rule:evenodd;"
d="M 92.750000,86.125000
92.769030,86.029329
92.823223,85.948223
92.904329,85.894030
93.000000,85.875000
93.675000,85.875000
93.770671,85.894030
93.851777,85.948223
93.905970,86.029329
93.925000,86.125000
93.925000,87.075000
93.905970,87.170671
93.851777,87.251777
93.770671,87.305970
93.675000,87.325000
93.000000,87.325000
92.904329,87.305970
92.823223,87.251777
92.769030,87.170671
92.750000,87.075000
Z" /> 
</g>
<g >
</g>
<g style="fill:#000000; fill-opacity:1.000000; 
stroke:#000000; stroke-width:0.000000; stroke-opacity:1; 
stroke-linecap:round; stroke-linejoin:round;">
<path style="fill:#000000; fill-opacity:1.000000; 
stroke:#000000; stroke-width:0.000000; stroke-opacity:1; 
stroke-linecap:round; stroke-linejoin:round;fill-rule:evenodd;"
d="M 92.997000,91.225000
92.901329,91.205970
92.820223,91.151777
92.766030,91.070671
92.747000,90.975000
92.747000,90.300000
92.766030,90.204329
92.820223,90.123223
92.901329,90.069030
92.997000,90.050000
93.947000,90.050000
94.042671,90.069030
94.123777,90.123223
94.177970,90.204329
94.197000,90.300000
94.197000,90.975000
94.177970,91.070671
94.123777,91.151777
94.042671,91.205970
93.947000,91.225000
Z" /> 
<path style="fill:#000000; fill-opacity:1.000000; 
stroke:#000000; stroke-width:0.000000; stroke-opacity:1; 
stroke-linecap:round; stroke-linejoin:round;fill-rule:evenodd;"
d="M 92.997000,89.150000
92.901329,89.130970
92.820223,89.076777
92.766030,88.995671
92.747000,88.900000
92.747000,88.225000
92.766030,88.129329
92.820223,88.048223
92.901329,87.994030
92.997000,87.975000
93.947000,87.975000
94.042671,87.994030
94.123777,88.048223
94.177970,88.129329
94.197000,88.225000
94.197000,88.900000
94.177970,88.995671
94.123777,89.076777
94.042671,89.130970
93.947000,89.150000
Z" /> 
</g>
<g >
</g>
<g style="fill:#000000; fill-opacity:1.000000; 
stroke:#000000; stroke-width:0.000000; stroke-opacity:1; 
stroke-linecap:round; stroke-linejoin:round;">
<path style="fill:#000000; fill-opacity:1.000000; 
stroke:#000000; stroke-width:0.000000; stroke-opacity:1; 
stroke-linecap:round; stroke-linejoin:round;fill-rule:evenodd;"
d="M 116.510000,89.212000
116.529030,89.116329
116.583223,89.035223
116.664329,88.981030
116.760000,88.962000
117.460000,88.962000
117.555671,88.981030
117.636777,89.035223
117.690970,89.116329
117.710000,89.212000
117.710000,90.112000
117.690970,90.207671
117.636777,90.288777
117.555671,90.342970
117.460000,90.362000
116.760000,90.362000
116.664329,90.342970
116.583223,90.288777
116.529030,90.207671
116.510000,90.112000
Z" /> 
<path style="fill:#000000; fill-opacity:1.000000; 
stroke:#000000; stroke-width:0.000000; stroke-opacity:1; 
stroke-linecap:round; stroke-linejoin:round;fill-rule:evenodd;"
d="M 118.510000,89.212000
118.529030,89.116329
118.583223,89.035223
118.664329,88.981030
118.760000,88.962000
119.460000,88.962000
119.555671,88.981030
119.636777,89.035223
119.690970,89.116329
119.710000,89.212000
119.710000,90.112000
119.690970,90.207671
119.636777,90.288777
119.555671,90.342970
119.460000,90.362000
118.760000,90.362000
118.664329,90.342970
118.583223,90.288777
118.529030,90.207671
118.510000,90.112000
Z" /> 
</g>
<g >
</g>
<g style="fill:#000000; fill-opacity:1.000000; 
stroke:#000000; stroke-width:0.000000; stroke-opacity:1; 
stroke-linecap:round; stroke-linejoin:round;">
<path style="fill:#000000; fill-opacity:1.000000; 
stroke:#000000; stroke-width:0.000000; stroke-opacity:1; 
stroke-linecap:round; stroke-linejoin:round;fill-rule:evenodd;"
d="M 119.550000,68.400000
119.645671,68.419030
119.726777,68.473223
119.780970,68.554329
119.800000,68.650000
119.800000,69.350000
119.780970,69.445671
119.726777,69.526777
119.645671,69.580970
119.550000,69.600000
118.650000,69.600000
118.554329,69.580970
118.473223,69.526777
118.419030,69.445671
118.400000,69.350000
118.400000,68.650000
118.419030,68.554329
118.473223,68.473223
118.554329,68.419030
118.650000,68.400000
Z" /> 
<path style="fill:#000000; fill-opacity:1.000000; 
stroke:#000000; stroke-width:0.000000; stroke-opacity:1; 
stroke-linecap:round; stroke-linejoin:round;fill-rule:evenodd;"
d="M 119.550000,70.400000
119.645671,70.419030
119.726777,70.473223
119.780970,70.554329
119.800000,70.650000
119.800000,71.350000
119.780970,71.445671
119.726777,71.526777
119.645671,71.580970
119.550000,71.600000
118.650000,71.600000
118.554329,71.580970
118.473223,71.526777
118.419030,71.445671
118.400000,71.350000
118.400000,70.650000
118.419030,70.554329
118.473223,70.473223
118.554329,70.419030
118.650000,70.400000
Z" /> 
</g>
<g >
</g>
<g style="fill:#000000; fill-opacity:1.000000; 
stroke:#000000; stroke-width:0.000000; stroke-opacity:1; 
stroke-linecap:round; stroke-linejoin:round;">
<path style="fill:#000000; fill-opacity:1.000000; 
stroke:#000000; stroke-width:0.000000; stroke-opacity:1; 
stroke-linecap:round; stroke-linejoin:round;fill-rule:evenodd;"
d="M 90.025000,83.456250
90.006446,83.549529
89.953607,83.628607
89.874529,83.681446
89.781250,83.700000
89.293750,83.700000
89.200471,83.681446
89.121393,83.628607
89.068554,83.549529
89.050000,83.456250
89.050000,82.543750
89.068554,82.450471
89.121393,82.371393
89.200471,82.318554
89.293750,82.300000
89.781250,82.300000
89.874529,82.318554
89.953607,82.371393
90.006446,82.450471
90.025000,82.543750
Z" /> 
<path style="fill:#000000; fill-opacity:1.000000; 
stroke:#000000; stroke-width:0.000000; stroke-opacity:1; 
stroke-linecap:round; stroke-linejoin:round;fill-rule:evenodd;"
d="M 88.150000,83.456250
88.131446,83.549529
88.078607,83.628607
87.999529,83.681446
87.906250,83.700000
87.418750,83.700000
87.325471,83.681446
87.246393,83.628607
87.193554,83.549529
87.175000,83.456250
87.175000,82.543750
87.193554,82.450471
87.246393,82.371393
87.325471,82.318554
87.418750,82.300000
87.906250,82.300000
87.999529,82.318554
88.078607,82.371393
88.131446,82.450471
88.150000,82.543750
Z" /> 
</g>
<g >
</g>
<g style="fill:#000000; fill-opacity:1.000000; 
stroke:#000000; stroke-width:0.000000; stroke-opacity:1; 
stroke-linecap:round; stroke-linejoin:round;">
<path style="fill:#000000; fill-opacity:1.000000; 
stroke:#000000; stroke-width:0.000000; stroke-opacity:1; 
stroke-linecap:round; stroke-linejoin:round;fill-rule:evenodd;"
d="M 93.900000,83.050000
93.880970,83.145671
93.826777,83.226777
93.745671,83.280970
93.650000,83.300000
92.950000,83.300000
92.854329,83.280970
92.773223,83.226777
92.719030,83.145671
92.700000,83.050000
92.700000,82.150000
92.719030,82.054329
92.773223,81.973223
92.854329,81.919030
92.950000,81.900000
93.650000,81.900000
93.745671,81.919030
93.826777,81.973223
93.880970,82.054329
93.900000,82.150000
Z" /> 
<path style="fill:#000000; fill-opacity:1.000000; 
stroke:#000000; stroke-width:0.000000; stroke-opacity:1; 
stroke-linecap:round; stroke-linejoin:round;fill-rule:evenodd;"
d="M 91.900000,83.050000
91.880970,83.145671
91.826777,83.226777
91.745671,83.280970
91.650000,83.300000
90.950000,83.300000
90.854329,83.280970
90.773223,83.226777
90.719030,83.145671
90.700000,83.050000
90.700000,82.150000
90.719030,82.054329
90.773223,81.973223
90.854329,81.919030
90.950000,81.900000
91.650000,81.900000
91.745671,81.919030
91.826777,81.973223
91.880970,82.054329
91.900000,82.150000
Z" /> 
</g>
<g >
</g>
<g style="fill:#000000; fill-opacity:1.000000; 
stroke:#000000; stroke-width:0.000000; stroke-opacity:1; 
stroke-linecap:round; stroke-linejoin:round;">
<path style="fill:#000000; fill-opacity:1.000000; 
stroke:#000000; stroke-width:0.000000; stroke-opacity:1; 
stroke-linecap:round; stroke-linejoin:round;fill-rule:evenodd;"
d="M 86.250000,82.300000
86.345671,82.319030
86.426777,82.373223
86.480970,82.454329
86.500000,82.550000
86.500000,83.250000
86.480970,83.345671
86.426777,83.426777
86.345671,83.480970
86.250000,83.500000
85.350000,83.500000
85.254329,83.480970
85.173223,83.426777
85.119030,83.345671
85.100000,83.250000
85.100000,82.550000
85.119030,82.454329
85.173223,82.373223
85.254329,82.319030
85.350000,82.300000
Z" /> 
<path style="fill:#000000; fill-opacity:1.000000; 
stroke:#000000; stroke-width:0.000000; stroke-opacity:1; 
stroke-linecap:round; stroke-linejoin:round;fill-rule:evenodd;"
d="M 86.250000,84.300000
86.345671,84.319030
86.426777,84.373223
86.480970,84.454329
86.500000,84.550000
86.500000,85.250000
86.480970,85.345671
86.426777,85.426777
86.345671,85.480970
86.250000,85.500000
85.350000,85.500000
85.254329,85.480970
85.173223,85.426777
85.119030,85.345671
85.100000,85.250000
85.100000,84.550000
85.119030,84.454329
85.173223,84.373223
85.254329,84.319030
85.350000,84.300000
Z" /> 
</g>
<g >
</g>
<g style="fill:#000000; fill-opacity:1.000000; 
stroke:#000000; stroke-width:0.000000; stroke-opacity:1; 
stroke-linecap:round; stroke-linejoin:round;">
<path style="fill:#000000; fill-opacity:1.000000; 
stroke:#000000; stroke-width:0.000000; stroke-opacity:1; 
stroke-linecap:round; stroke-linejoin:round;fill-rule:evenodd;"
d="M 95.603000,69.139750
95.621554,69.046471
95.674393,68.967393
95.753471,68.914554
95.846750,68.896000
96.334250,68.896000
96.427529,68.914554
96.506607,68.967393
96.559446,69.046471
96.578000,69.139750
96.578000,70.052250
96.559446,70.145529
96.506607,70.224607
96.427529,70.277446
96.334250,70.296000
95.846750,70.296000
95.753471,70.277446
95.674393,70.224607
95.621554,70.145529
95.603000,70.052250
Z" /> 
<path style="fill:#000000; fill-opacity:1.000000; 
stroke:#000000; stroke-width:0.000000; stroke-opacity:1; 
stroke-linecap:round; stroke-linejoin:round;fill-rule:evenodd;"
d="M 97.478000,69.139750
97.496554,69.046471
97.549393,68.967393
97.628471,68.914554
97.721750,68.896000
98.209250,68.896000
98.302529,68.914554
98.381607,68.967393
98.434446,69.046471
98.453000,69.139750
98.453000,70.052250
98.434446,70.145529
98.381607,70.224607
98.302529,70.277446
98.209250,70.296000
97.721750,70.296000
97.628471,70.277446
97.549393,70.224607
97.496554,70.145529
97.478000,70.052250
Z" /> 
</g>
<g >
</g>
<g style="fill:#000000; fill-opacity:1.000000; 
stroke:#000000; stroke-width:0.000000; stroke-opacity:1; 
stroke-linecap:round; stroke-linejoin:round;">
<path style="fill:#000000; fill-opacity:1.000000; 
stroke:#000000; stroke-width:0.000000; stroke-opacity:1; 
stroke-linecap:round; stroke-linejoin:round;fill-rule:evenodd;"
d="M 91.715001,69.146000
91.734031,69.050329
91.788224,68.969223
91.869330,68.915030
91.965001,68.896000
92.665001,68.896000
92.760672,68.915030
92.841778,68.969223
92.895971,69.050329
92.915001,69.146000
92.915001,70.046000
92.895971,70.141671
92.841778,70.222777
92.760672,70.276970
92.665001,70.296000
91.965001,70.296000
91.869330,70.276970
91.788224,70.222777
91.734031,70.141671
91.715001,70.046000
Z" /> 
<path style="fill:#000000; fill-opacity:1.000000; 
stroke:#000000; stroke-width:0.000000; stroke-opacity:1; 
stroke-linecap:round; stroke-linejoin:round;fill-rule:evenodd;"
d="M 93.715001,69.146000
93.734031,69.050329
93.788224,68.969223
93.869330,68.915030
93.965001,68.896000
94.665001,68.896000
94.760672,68.915030
94.841778,68.969223
94.895971,69.050329
94.915001,69.146000
94.915001,70.046000
94.895971,70.141671
94.841778,70.222777
94.760672,70.276970
94.665001,70.296000
93.965001,70.296000
93.869330,70.276970
93.788224,70.222777
93.734031,70.141671
93.715001,70.046000
Z" /> 
</g>
<g >
</g>
<g style="fill:#000000; fill-opacity:1.000000; 
stroke:#000000; stroke-width:0.000000; stroke-opacity:1; 
stroke-linecap:round; stroke-linejoin:round;">
<path style="fill:#000000; fill-opacity:1.000000; 
stroke:#000000; stroke-width:0.000000; stroke-opacity:1; 
stroke-linecap:round; stroke-linejoin:round;fill-rule:evenodd;"
d="M 91.700000,71.450000
91.719030,71.354329
91.773223,71.273223
91.854329,71.219030
91.950000,71.200000
92.650000,71.200000
92.745671,71.219030
92.826777,71.273223
92.880970,71.354329
92.900000,71.450000
92.900000,72.350000
92.880970,72.445671
92.826777,72.526777
92.745671,72.580970
92.650000,72.600000
91.950000,72.600000
91.854329,72.580970
91.773223,72.526777
91.719030,72.445671
91.700000,72.350000
Z" /> 
<path style="fill:#000000; fill-opacity:1.000000; 
stroke:#000000; stroke-width:0.000000; stroke-opacity:1; 
stroke-linecap:round; stroke-linejoin:round;fill-rule:evenodd;"
d="M 93.700000,71.450000
93.719030,71.354329
93.773223,71.273223
93.854329,71.219030
93.950000,71.200000
94.650000,71.200000
94.745671,71.219030
94.826777,71.273223
94.880970,71.354329
94.900000,71.450000
94.900000,72.350000
94.880970,72.445671
94.826777,72.526777
94.745671,72.580970
94.650000,72.600000
93.950000,72.600000
93.854329,72.580970
93.773223,72.526777
93.719030,72.445671
93.700000,72.350000
Z" /> 
</g>
<g >
</g>
<g style="fill:#000000; fill-opacity:1.000000; 
stroke:#000000; stroke-width:0.000000; stroke-opacity:1; 
stroke-linecap:round; stroke-linejoin:round;">
<path style="fill:#000000; fill-opacity:1.000000; 
stroke:#000000; stroke-width:0.000000; stroke-opacity:1; 
stroke-linecap:round; stroke-linejoin:round;fill-rule:evenodd;"
d="M 100.088000,70.092000
100.088000,68.592000
101.588000,68.592000
101.588000,70.092000
Z" /> 
</g>
<g >
</g>
<g style="fill:#000000; fill-opacity:1.000000; 
stroke:#000000; stroke-width:0.000000; stroke-opacity:1; 
stroke-linecap:round; stroke-linejoin:round;">
<path style="fill:#000000; fill-opacity:1.000000; 
stroke:#000000; stroke-width:0.000000; stroke-opacity:1; 
stroke-linecap:round; stroke-linejoin:round;fill-rule:evenodd;"
d="M 93.900000,85.050000
93.880970,85.145671
93.826777,85.226777
93.745671,85.280970
93.650000,85.300000
92.950000,85.300000
92.854329,85.280970
92.773223,85.226777
92.719030,85.145671
92.700000,85.050000
92.700000,84.150000
92.719030,84.054329
92.773223,83.973223
92.854329,83.919030
92.950000,83.900000
93.650000,83.900000
93.745671,83.919030
93.826777,83.973223
93.880970,84.054329
93.900000,84.150000
Z" /> 
<path style="fill:#000000; fill-opacity:1.000000; 
stroke:#000000; stroke-width:0.000000; stroke-opacity:1; 
stroke-linecap:round; stroke-linejoin:round;fill-rule:evenodd;"
d="M 91.900000,85.050000
91.880970,85.145671
91.826777,85.226777
91.745671,85.280970
91.650000,85.300000
90.950000,85.300000
90.854329,85.280970
90.773223,85.226777
90.719030,85.145671
90.700000,85.050000
90.700000,84.150000
90.719030,84.054329
90.773223,83.973223
90.854329,83.919030
90.950000,83.900000
91.650000,83.900000
91.745671,83.919030
91.826777,83.973223
91.880970,84.054329
91.900000,84.150000
Z" /> 
</g>
<g >
</g>
<g style="fill:#000000; fill-opacity:1.000000; 
stroke:#000000; stroke-width:0.000000; stroke-opacity:1; 
stroke-linecap:round; stroke-linejoin:round;">
<path style="fill:#000000; fill-opacity:1.000000; 
stroke:#000000; stroke-width:0.000000; stroke-opacity:1; 
stroke-linecap:round; stroke-linejoin:round;fill-rule:evenodd;"
d="M 90.025000,85.656250
90.006446,85.749529
89.953607,85.828607
89.874529,85.881446
89.781250,85.900000
89.293750,85.900000
89.200471,85.881446
89.121393,85.828607
89.068554,85.749529
89.050000,85.656250
89.050000,84.743750
89.068554,84.650471
89.121393,84.571393
89.200471,84.518554
89.293750,84.500000
89.781250,84.500000
89.874529,84.518554
89.953607,84.571393
90.006446,84.650471
90.025000,84.743750
Z" /> 
<path style="fill:#000000; fill-opacity:1.000000; 
stroke:#000000; stroke-width:0.000000; stroke-opacity:1; 
stroke-linecap:round; stroke-linejoin:round;fill-rule:evenodd;"
d="M 88.150000,85.656250
88.131446,85.749529
88.078607,85.828607
87.999529,85.881446
87.906250,85.900000
87.418750,85.900000
87.325471,85.881446
87.246393,85.828607
87.193554,85.749529
87.175000,85.656250
87.175000,84.743750
87.193554,84.650471
87.246393,84.571393
87.325471,84.518554
87.418750,84.500000
87.906250,84.500000
87.999529,84.518554
88.078607,84.571393
88.131446,84.650471
88.150000,84.743750
Z" /> 
</g>
<g >
</g>
<g >
</g>
<g >
</g>
</g> 
</svg>
