<?xml version="1.0" standalone="no"?>
 <!DOCTYPE svg PUBLIC "-//W3C//DTD SVG 1.1//EN" 
 "http://www.w3.org/Graphics/SVG/1.1/DTD/svg11.dtd"> 
<svg
  xmlns:svg="http://www.w3.org/2000/svg"
  xmlns="http://www.w3.org/2000/svg"
  xmlns:xlink="http://www.w3.org/1999/xlink"
  version="1.1"
  width="297.002200mm" height="210.007200mm" viewBox="0.000000 0.000000 297.002200 210.007200">
<title>SVG Image created as s3Basic-F_Mask.svg date 2023/08/21 19:51:55 </title>
  <desc>Image generated by PCBNEW </desc>
<g style="fill:#000000; fill-opacity:1.000000;stroke:#000000; stroke-opacity:1.000000;
stroke-linecap:round; stroke-linejoin:round;"
 transform="translate(0 0) scale(1 1)">
</g>
<g style="fill:#000000; fill-opacity:0.0; 
stroke:#000000; stroke-width:0.000000; stroke-opacity:1; 
stroke-linecap:round; stroke-linejoin:round;">
<g >
</g>
<g style="fill:#000000; fill-opacity:0.0; 
stroke:#000000; stroke-width:0.000000; stroke-opacity:1; 
stroke-linecap:round; stroke-linejoin:round;">
</g>
<g style="fill:#000000; fill-opacity:1.000000; 
stroke:#000000; stroke-width:0.000000; stroke-opacity:1; 
stroke-linecap:round; stroke-linejoin:round;">
<path style="fill:#000000; fill-opacity:1.000000; 
stroke:#000000; stroke-width:0.000000; stroke-opacity:1; 
stroke-linecap:round; stroke-linejoin:round;fill-rule:evenodd;"
d="M 99.415000,71.962000
99.415000,71.262000
99.865000,71.262000
99.865000,71.962000
Z" /> 
<path style="fill:#000000; fill-opacity:1.000000; 
stroke:#000000; stroke-width:0.000000; stroke-opacity:1; 
stroke-linecap:round; stroke-linejoin:round;fill-rule:evenodd;"
d="M 100.715000,71.962000
100.715000,71.262000
101.165000,71.262000
101.165000,71.962000
Z" /> 
<path style="fill:#000000; fill-opacity:1.000000; 
stroke:#000000; stroke-width:0.000000; stroke-opacity:1; 
stroke-linecap:round; stroke-linejoin:round;fill-rule:evenodd;"
d="M 100.065000,69.962000
100.065000,69.262000
100.515000,69.262000
100.515000,69.962000
Z" /> 
</g>
<g >
</g>
<g style="fill:#000000; fill-opacity:1.000000; 
stroke:#000000; stroke-width:0.000000; stroke-opacity:1; 
stroke-linecap:round; stroke-linejoin:round;">
<path style="fill:#000000; fill-opacity:1.000000; 
stroke:#000000; stroke-width:0.000000; stroke-opacity:1; 
stroke-linecap:round; stroke-linejoin:round;fill-rule:evenodd;"
d="M 92.089000,88.875000
92.069970,88.970671
92.015777,89.051777
91.934671,89.105970
91.839000,89.125000
91.164000,89.125000
91.068329,89.105970
90.987223,89.051777
90.933030,88.970671
90.914000,88.875000
90.914000,87.925000
90.933030,87.829329
90.987223,87.748223
91.068329,87.694030
91.164000,87.675000
91.839000,87.675000
91.934671,87.694030
92.015777,87.748223
92.069970,87.829329
92.089000,87.925000
Z" /> 
<path style="fill:#000000; fill-opacity:1.000000; 
stroke:#000000; stroke-width:0.000000; stroke-opacity:1; 
stroke-linecap:round; stroke-linejoin:round;fill-rule:evenodd;"
d="M 90.014000,88.875000
89.994970,88.970671
89.940777,89.051777
89.859671,89.105970
89.764000,89.125000
89.089000,89.125000
88.993329,89.105970
88.912223,89.051777
88.858030,88.970671
88.839000,88.875000
88.839000,87.925000
88.858030,87.829329
88.912223,87.748223
88.993329,87.694030
89.089000,87.675000
89.764000,87.675000
89.859671,87.694030
89.940777,87.748223
89.994970,87.829329
90.014000,87.925000
Z" /> 
</g>
<g >
</g>
<g style="fill:#000000; fill-opacity:1.000000; 
stroke:#000000; stroke-width:0.000000; stroke-opacity:1; 
stroke-linecap:round; stroke-linejoin:round;">
<path style="fill:#000000; fill-opacity:1.000000; 
stroke:#000000; stroke-width:0.000000; stroke-opacity:1; 
stroke-linecap:round; stroke-linejoin:round;fill-rule:evenodd;"
d="M 88.300000,83.650001
88.280970,83.745671
88.226777,83.826777
88.145671,83.880970
88.050000,83.899999
87.349999,83.900000
87.254329,83.880970
87.173223,83.826777
87.119030,83.745671
87.100001,83.650000
87.100000,82.749999
87.119030,82.654329
87.173223,82.573223
87.254329,82.519030
87.350000,82.500001
88.050001,82.500000
88.145671,82.519030
88.226777,82.573223
88.280970,82.654329
88.299999,82.750000
Z" /> 
<path style="fill:#000000; fill-opacity:1.000000; 
stroke:#000000; stroke-width:0.000000; stroke-opacity:1; 
stroke-linecap:round; stroke-linejoin:round;fill-rule:evenodd;"
d="M 86.300000,83.650001
86.280970,83.745671
86.226777,83.826777
86.145671,83.880970
86.050000,83.899999
85.349999,83.900000
85.254329,83.880970
85.173223,83.826777
85.119030,83.745671
85.100001,83.650000
85.100000,82.749999
85.119030,82.654329
85.173223,82.573223
85.254329,82.519030
85.350000,82.500001
86.050001,82.500000
86.145671,82.519030
86.226777,82.573223
86.280970,82.654329
86.299999,82.750000
Z" /> 
</g>
<g >
</g>
<g style="fill:#000000; fill-opacity:1.000000; 
stroke:#000000; stroke-width:0.000000; stroke-opacity:1; 
stroke-linecap:round; stroke-linejoin:round;">
<path style="fill:#000000; fill-opacity:1.000000; 
stroke:#000000; stroke-width:0.000000; stroke-opacity:1; 
stroke-linecap:round; stroke-linejoin:round;fill-rule:evenodd;"
d="M 91.564000,82.528000
91.621403,82.539418
91.670066,82.571934
91.702582,82.620597
91.714000,82.678000
91.714000,83.703000
91.702582,83.760403
91.670066,83.809066
91.621403,83.841582
91.564000,83.853000
91.264000,83.853000
91.206597,83.841582
91.157934,83.809066
91.125418,83.760403
91.114000,83.703000
91.114000,82.678000
91.125418,82.620597
91.157934,82.571934
91.206597,82.539418
91.264000,82.528000
Z" /> 
<path style="fill:#000000; fill-opacity:1.000000; 
stroke:#000000; stroke-width:0.000000; stroke-opacity:1; 
stroke-linecap:round; stroke-linejoin:round;fill-rule:evenodd;"
d="M 90.614000,82.528000
90.671403,82.539418
90.720066,82.571934
90.752582,82.620597
90.764000,82.678000
90.764000,83.703000
90.752582,83.760403
90.720066,83.809066
90.671403,83.841582
90.614000,83.853000
90.314000,83.853000
90.256597,83.841582
90.207934,83.809066
90.175418,83.760403
90.164000,83.703000
90.164000,82.678000
90.175418,82.620597
90.207934,82.571934
90.256597,82.539418
90.314000,82.528000
Z" /> 
<path style="fill:#000000; fill-opacity:1.000000; 
stroke:#000000; stroke-width:0.000000; stroke-opacity:1; 
stroke-linecap:round; stroke-linejoin:round;fill-rule:evenodd;"
d="M 89.664000,82.528000
89.721403,82.539418
89.770066,82.571934
89.802582,82.620597
89.814000,82.678000
89.814000,83.703000
89.802582,83.760403
89.770066,83.809066
89.721403,83.841582
89.664000,83.853000
89.364000,83.853000
89.306597,83.841582
89.257934,83.809066
89.225418,83.760403
89.214000,83.703000
89.214000,82.678000
89.225418,82.620597
89.257934,82.571934
89.306597,82.539418
89.364000,82.528000
Z" /> 
<path style="fill:#000000; fill-opacity:1.000000; 
stroke:#000000; stroke-width:0.000000; stroke-opacity:1; 
stroke-linecap:round; stroke-linejoin:round;fill-rule:evenodd;"
d="M 89.664000,84.803000
89.721403,84.814418
89.770066,84.846934
89.802582,84.895597
89.814000,84.953000
89.814000,85.978000
89.802582,86.035403
89.770066,86.084066
89.721403,86.116582
89.664000,86.128000
89.364000,86.128000
89.306597,86.116582
89.257934,86.084066
89.225418,86.035403
89.214000,85.978000
89.214000,84.953000
89.225418,84.895597
89.257934,84.846934
89.306597,84.814418
89.364000,84.803000
Z" /> 
<path style="fill:#000000; fill-opacity:1.000000; 
stroke:#000000; stroke-width:0.000000; stroke-opacity:1; 
stroke-linecap:round; stroke-linejoin:round;fill-rule:evenodd;"
d="M 91.564000,84.803000
91.621403,84.814418
91.670066,84.846934
91.702582,84.895597
91.714000,84.953000
91.714000,85.978000
91.702582,86.035403
91.670066,86.084066
91.621403,86.116582
91.564000,86.128000
91.264000,86.128000
91.206597,86.116582
91.157934,86.084066
91.125418,86.035403
91.114000,85.978000
91.114000,84.953000
91.125418,84.895597
91.157934,84.846934
91.206597,84.814418
91.264000,84.803000
Z" /> 
</g>
<g >
</g>
<g style="fill:#000000; fill-opacity:1.000000; 
stroke:#000000; stroke-width:0.000000; stroke-opacity:1; 
stroke-linecap:round; stroke-linejoin:round;">
<path style="fill:#000000; fill-opacity:1.000000; 
stroke:#000000; stroke-width:0.000000; stroke-opacity:1; 
stroke-linecap:round; stroke-linejoin:round;fill-rule:evenodd;"
d="M 92.089000,90.899000
92.069970,90.994671
92.015777,91.075777
91.934671,91.129970
91.839000,91.149000
91.164000,91.149000
91.068329,91.129970
90.987223,91.075777
90.933030,90.994671
90.914000,90.899000
90.914000,89.949000
90.933030,89.853329
90.987223,89.772223
91.068329,89.718030
91.164000,89.699000
91.839000,89.699000
91.934671,89.718030
92.015777,89.772223
92.069970,89.853329
92.089000,89.949000
Z" /> 
<path style="fill:#000000; fill-opacity:1.000000; 
stroke:#000000; stroke-width:0.000000; stroke-opacity:1; 
stroke-linecap:round; stroke-linejoin:round;fill-rule:evenodd;"
d="M 90.014000,90.899000
89.994970,90.994671
89.940777,91.075777
89.859671,91.129970
89.764000,91.149000
89.089000,91.149000
88.993329,91.129970
88.912223,91.075777
88.858030,90.994671
88.839000,90.899000
88.839000,89.949000
88.858030,89.853329
88.912223,89.772223
88.993329,89.718030
89.089000,89.699000
89.764000,89.699000
89.859671,89.718030
89.940777,89.772223
89.994970,89.853329
90.014000,89.949000
Z" /> 
</g>
<g >
</g>
<g style="fill:#000000; fill-opacity:1.000000; 
stroke:#000000; stroke-width:0.000000; stroke-opacity:1; 
stroke-linecap:round; stroke-linejoin:round;">
<path style="fill:#000000; fill-opacity:1.000000; 
stroke:#000000; stroke-width:0.000000; stroke-opacity:1; 
stroke-linecap:round; stroke-linejoin:round;fill-rule:evenodd;"
d="M 108.571000,87.917000
108.590030,87.821329
108.644223,87.740223
108.725329,87.686030
108.821000,87.667000
109.496000,87.667000
109.591671,87.686030
109.672777,87.740223
109.726970,87.821329
109.746000,87.917000
109.746000,88.867000
109.726970,88.962671
109.672777,89.043777
109.591671,89.097970
109.496000,89.117000
108.821000,89.117000
108.725329,89.097970
108.644223,89.043777
108.590030,88.962671
108.571000,88.867000
Z" /> 
<path style="fill:#000000; fill-opacity:1.000000; 
stroke:#000000; stroke-width:0.000000; stroke-opacity:1; 
stroke-linecap:round; stroke-linejoin:round;fill-rule:evenodd;"
d="M 110.646000,87.917000
110.665030,87.821329
110.719223,87.740223
110.800329,87.686030
110.896000,87.667000
111.571000,87.667000
111.666671,87.686030
111.747777,87.740223
111.801970,87.821329
111.821000,87.917000
111.821000,88.867000
111.801970,88.962671
111.747777,89.043777
111.666671,89.097970
111.571000,89.117000
110.896000,89.117000
110.800329,89.097970
110.719223,89.043777
110.665030,88.962671
110.646000,88.867000
Z" /> 
</g>
<g >
</g>
<g style="fill:#000000; fill-opacity:1.000000; 
stroke:#000000; stroke-width:0.000000; stroke-opacity:1; 
stroke-linecap:round; stroke-linejoin:round;">
<path style="fill:#000000; fill-opacity:1.000000; 
stroke:#000000; stroke-width:0.000000; stroke-opacity:1; 
stroke-linecap:round; stroke-linejoin:round;fill-rule:evenodd;"
d="M 108.571000,84.615000
108.590030,84.519329
108.644223,84.438223
108.725329,84.384030
108.821000,84.365000
109.496000,84.365000
109.591671,84.384030
109.672777,84.438223
109.726970,84.519329
109.746000,84.615000
109.746000,85.565000
109.726970,85.660671
109.672777,85.741777
109.591671,85.795970
109.496000,85.815000
108.821000,85.815000
108.725329,85.795970
108.644223,85.741777
108.590030,85.660671
108.571000,85.565000
Z" /> 
<path style="fill:#000000; fill-opacity:1.000000; 
stroke:#000000; stroke-width:0.000000; stroke-opacity:1; 
stroke-linecap:round; stroke-linejoin:round;fill-rule:evenodd;"
d="M 110.646000,84.615000
110.665030,84.519329
110.719223,84.438223
110.800329,84.384030
110.896000,84.365000
111.571000,84.365000
111.666671,84.384030
111.747777,84.438223
111.801970,84.519329
111.821000,84.615000
111.821000,85.565000
111.801970,85.660671
111.747777,85.741777
111.666671,85.795970
111.571000,85.815000
110.896000,85.815000
110.800329,85.795970
110.719223,85.741777
110.665030,85.660671
110.646000,85.565000
Z" /> 
</g>
<g >
</g>
<g style="fill:#000000; fill-opacity:1.000000; 
stroke:#000000; stroke-width:0.000000; stroke-opacity:1; 
stroke-linecap:round; stroke-linejoin:round;">
<path style="fill:#000000; fill-opacity:1.000000; 
stroke:#000000; stroke-width:0.000000; stroke-opacity:1; 
stroke-linecap:round; stroke-linejoin:round;fill-rule:evenodd;"
d="M 108.571000,81.313000
108.590030,81.217329
108.644223,81.136223
108.725329,81.082030
108.821000,81.063000
109.496000,81.063000
109.591671,81.082030
109.672777,81.136223
109.726970,81.217329
109.746000,81.313000
109.746000,82.263000
109.726970,82.358671
109.672777,82.439777
109.591671,82.493970
109.496000,82.513000
108.821000,82.513000
108.725329,82.493970
108.644223,82.439777
108.590030,82.358671
108.571000,82.263000
Z" /> 
<path style="fill:#000000; fill-opacity:1.000000; 
stroke:#000000; stroke-width:0.000000; stroke-opacity:1; 
stroke-linecap:round; stroke-linejoin:round;fill-rule:evenodd;"
d="M 110.646000,81.313000
110.665030,81.217329
110.719223,81.136223
110.800329,81.082030
110.896000,81.063000
111.571000,81.063000
111.666671,81.082030
111.747777,81.136223
111.801970,81.217329
111.821000,81.313000
111.821000,82.263000
111.801970,82.358671
111.747777,82.439777
111.666671,82.493970
111.571000,82.513000
110.896000,82.513000
110.800329,82.493970
110.719223,82.439777
110.665030,82.358671
110.646000,82.263000
Z" /> 
</g>
<g >
</g>
<g style="fill:#000000; fill-opacity:1.000000; 
stroke:#000000; stroke-width:0.000000; stroke-opacity:1; 
stroke-linecap:round; stroke-linejoin:round;">
<path style="fill:#000000; fill-opacity:1.000000; 
stroke:#000000; stroke-width:0.000000; stroke-opacity:1; 
stroke-linecap:round; stroke-linejoin:round;fill-rule:evenodd;"
d="M 108.825000,77.757000
108.844030,77.661329
108.898223,77.580223
108.979329,77.526030
109.075000,77.507000
109.750000,77.507000
109.845671,77.526030
109.926777,77.580223
109.980970,77.661329
110.000000,77.757000
110.000000,78.707000
109.980970,78.802671
109.926777,78.883777
109.845671,78.937970
109.750000,78.957000
109.075000,78.957000
108.979329,78.937970
108.898223,78.883777
108.844030,78.802671
108.825000,78.707000
Z" /> 
<path style="fill:#000000; fill-opacity:1.000000; 
stroke:#000000; stroke-width:0.000000; stroke-opacity:1; 
stroke-linecap:round; stroke-linejoin:round;fill-rule:evenodd;"
d="M 110.900000,77.757000
110.919030,77.661329
110.973223,77.580223
111.054329,77.526030
111.150000,77.507000
111.825000,77.507000
111.920671,77.526030
112.001777,77.580223
112.055970,77.661329
112.075000,77.757000
112.075000,78.707000
112.055970,78.802671
112.001777,78.883777
111.920671,78.937970
111.825000,78.957000
111.150000,78.957000
111.054329,78.937970
110.973223,78.883777
110.919030,78.802671
110.900000,78.707000
Z" /> 
</g>
<g >
</g>
<g style="fill:#000000; fill-opacity:1.000000; 
stroke:#000000; stroke-width:0.000000; stroke-opacity:1; 
stroke-linecap:round; stroke-linejoin:round;">
<path style="fill:#000000; fill-opacity:1.000000; 
stroke:#000000; stroke-width:0.000000; stroke-opacity:1; 
stroke-linecap:round; stroke-linejoin:round;fill-rule:evenodd;"
d="M 103.175000,87.925000
103.194030,87.829329
103.248223,87.748223
103.329329,87.694030
103.425000,87.675000
104.100000,87.675000
104.195671,87.694030
104.276777,87.748223
104.330970,87.829329
104.350000,87.925000
104.350000,88.875000
104.330970,88.970671
104.276777,89.051777
104.195671,89.105970
104.100000,89.125000
103.425000,89.125000
103.329329,89.105970
103.248223,89.051777
103.194030,88.970671
103.175000,88.875000
Z" /> 
<path style="fill:#000000; fill-opacity:1.000000; 
stroke:#000000; stroke-width:0.000000; stroke-opacity:1; 
stroke-linecap:round; stroke-linejoin:round;fill-rule:evenodd;"
d="M 105.250000,87.925000
105.269030,87.829329
105.323223,87.748223
105.404329,87.694030
105.500000,87.675000
106.175000,87.675000
106.270671,87.694030
106.351777,87.748223
106.405970,87.829329
106.425000,87.925000
106.425000,88.875000
106.405970,88.970671
106.351777,89.051777
106.270671,89.105970
106.175000,89.125000
105.500000,89.125000
105.404329,89.105970
105.323223,89.051777
105.269030,88.970671
105.250000,88.875000
Z" /> 
</g>
<g >
</g>
<g style="fill:#000000; fill-opacity:1.000000; 
stroke:#000000; stroke-width:0.000000; stroke-opacity:1; 
stroke-linecap:round; stroke-linejoin:round;">
<path style="fill:#000000; fill-opacity:1.000000; 
stroke:#000000; stroke-width:0.000000; stroke-opacity:1; 
stroke-linecap:round; stroke-linejoin:round;fill-rule:evenodd;"
d="M 103.491000,72.423000
103.510030,72.327329
103.564223,72.246223
103.645329,72.192030
103.741000,72.173000
104.416000,72.173000
104.511671,72.192030
104.592777,72.246223
104.646970,72.327329
104.666000,72.423000
104.666000,73.373000
104.646970,73.468671
104.592777,73.549777
104.511671,73.603970
104.416000,73.623000
103.741000,73.623000
103.645329,73.603970
103.564223,73.549777
103.510030,73.468671
103.491000,73.373000
Z" /> 
<path style="fill:#000000; fill-opacity:1.000000; 
stroke:#000000; stroke-width:0.000000; stroke-opacity:1; 
stroke-linecap:round; stroke-linejoin:round;fill-rule:evenodd;"
d="M 105.566000,72.423000
105.585030,72.327329
105.639223,72.246223
105.720329,72.192030
105.816000,72.173000
106.491000,72.173000
106.586671,72.192030
106.667777,72.246223
106.721970,72.327329
106.741000,72.423000
106.741000,73.373000
106.721970,73.468671
106.667777,73.549777
106.586671,73.603970
106.491000,73.623000
105.816000,73.623000
105.720329,73.603970
105.639223,73.549777
105.585030,73.468671
105.566000,73.373000
Z" /> 
</g>
<g >
</g>
<g style="fill:#000000; fill-opacity:1.000000; 
stroke:#000000; stroke-width:0.000000; stroke-opacity:1; 
stroke-linecap:round; stroke-linejoin:round;">
<path style="fill:#000000; fill-opacity:1.000000; 
stroke:#000000; stroke-width:0.000000; stroke-opacity:1; 
stroke-linecap:round; stroke-linejoin:round;fill-rule:evenodd;"
d="M 92.891000,69.495000
92.986671,69.514030
93.067777,69.568223
93.121970,69.649329
93.141000,69.745000
93.141000,70.420000
93.121970,70.515671
93.067777,70.596777
92.986671,70.650970
92.891000,70.670000
91.941000,70.670000
91.845329,70.650970
91.764223,70.596777
91.710030,70.515671
91.691000,70.420000
91.691000,69.745000
91.710030,69.649329
91.764223,69.568223
91.845329,69.514030
91.941000,69.495000
Z" /> 
<path style="fill:#000000; fill-opacity:1.000000; 
stroke:#000000; stroke-width:0.000000; stroke-opacity:1; 
stroke-linecap:round; stroke-linejoin:round;fill-rule:evenodd;"
d="M 92.891000,71.570000
92.986671,71.589030
93.067777,71.643223
93.121970,71.724329
93.141000,71.820000
93.141000,72.495000
93.121970,72.590671
93.067777,72.671777
92.986671,72.725970
92.891000,72.745000
91.941000,72.745000
91.845329,72.725970
91.764223,72.671777
91.710030,72.590671
91.691000,72.495000
91.691000,71.820000
91.710030,71.724329
91.764223,71.643223
91.845329,71.589030
91.941000,71.570000
Z" /> 
</g>
<g >
</g>
<g style="fill:#000000; fill-opacity:1.000000; 
stroke:#000000; stroke-width:0.000000; stroke-opacity:1; 
stroke-linecap:round; stroke-linejoin:round;">
<path style="fill:#000000; fill-opacity:1.000000; 
stroke:#000000; stroke-width:0.000000; stroke-opacity:1; 
stroke-linecap:round; stroke-linejoin:round;fill-rule:evenodd;"
d="M 103.175000,85.625000
103.194030,85.529329
103.248223,85.448223
103.329329,85.394030
103.425000,85.375000
104.100000,85.375000
104.195671,85.394030
104.276777,85.448223
104.330970,85.529329
104.350000,85.625000
104.350000,86.575000
104.330970,86.670671
104.276777,86.751777
104.195671,86.805970
104.100000,86.825000
103.425000,86.825000
103.329329,86.805970
103.248223,86.751777
103.194030,86.670671
103.175000,86.575000
Z" /> 
<path style="fill:#000000; fill-opacity:1.000000; 
stroke:#000000; stroke-width:0.000000; stroke-opacity:1; 
stroke-linecap:round; stroke-linejoin:round;fill-rule:evenodd;"
d="M 105.250000,85.625000
105.269030,85.529329
105.323223,85.448223
105.404329,85.394030
105.500000,85.375000
106.175000,85.375000
106.270671,85.394030
106.351777,85.448223
106.405970,85.529329
106.425000,85.625000
106.425000,86.575000
106.405970,86.670671
106.351777,86.751777
106.270671,86.805970
106.175000,86.825000
105.500000,86.825000
105.404329,86.805970
105.323223,86.751777
105.269030,86.670671
105.250000,86.575000
Z" /> 
</g>
<g >
</g>
<g style="fill:#000000; fill-opacity:1.000000; 
stroke:#000000; stroke-width:0.000000; stroke-opacity:1; 
stroke-linecap:round; stroke-linejoin:round;">
<path style="fill:#000000; fill-opacity:1.000000; 
stroke:#000000; stroke-width:0.000000; stroke-opacity:1; 
stroke-linecap:round; stroke-linejoin:round;fill-rule:evenodd;"
d="M 103.491000,82.837000
103.510030,82.741329
103.564223,82.660223
103.645329,82.606030
103.741000,82.587000
104.416000,82.587000
104.511671,82.606030
104.592777,82.660223
104.646970,82.741329
104.666000,82.837000
104.666000,83.787000
104.646970,83.882671
104.592777,83.963777
104.511671,84.017970
104.416000,84.037000
103.741000,84.037000
103.645329,84.017970
103.564223,83.963777
103.510030,83.882671
103.491000,83.787000
Z" /> 
<path style="fill:#000000; fill-opacity:1.000000; 
stroke:#000000; stroke-width:0.000000; stroke-opacity:1; 
stroke-linecap:round; stroke-linejoin:round;fill-rule:evenodd;"
d="M 105.566000,82.837000
105.585030,82.741329
105.639223,82.660223
105.720329,82.606030
105.816000,82.587000
106.491000,82.587000
106.586671,82.606030
106.667777,82.660223
106.721970,82.741329
106.741000,82.837000
106.741000,83.787000
106.721970,83.882671
106.667777,83.963777
106.586671,84.017970
106.491000,84.037000
105.816000,84.037000
105.720329,84.017970
105.639223,83.963777
105.585030,83.882671
105.566000,83.787000
Z" /> 
</g>
<g >
</g>
<g style="fill:#000000; fill-opacity:1.000000; 
stroke:#000000; stroke-width:0.000000; stroke-opacity:1; 
stroke-linecap:round; stroke-linejoin:round;">
<path style="fill:#000000; fill-opacity:1.000000; 
stroke:#000000; stroke-width:0.000000; stroke-opacity:1; 
stroke-linecap:round; stroke-linejoin:round;fill-rule:evenodd;"
d="M 108.825000,74.201000
108.844030,74.105329
108.898223,74.024223
108.979329,73.970030
109.075000,73.951000
109.750000,73.951000
109.845671,73.970030
109.926777,74.024223
109.980970,74.105329
110.000000,74.201000
110.000000,75.151000
109.980970,75.246671
109.926777,75.327777
109.845671,75.381970
109.750000,75.401000
109.075000,75.401000
108.979329,75.381970
108.898223,75.327777
108.844030,75.246671
108.825000,75.151000
Z" /> 
<path style="fill:#000000; fill-opacity:1.000000; 
stroke:#000000; stroke-width:0.000000; stroke-opacity:1; 
stroke-linecap:round; stroke-linejoin:round;fill-rule:evenodd;"
d="M 110.900000,74.201000
110.919030,74.105329
110.973223,74.024223
111.054329,73.970030
111.150000,73.951000
111.825000,73.951000
111.920671,73.970030
112.001777,74.024223
112.055970,74.105329
112.075000,74.201000
112.075000,75.151000
112.055970,75.246671
112.001777,75.327777
111.920671,75.381970
111.825000,75.401000
111.150000,75.401000
111.054329,75.381970
110.973223,75.327777
110.919030,75.246671
110.900000,75.151000
Z" /> 
</g>
<g >
</g>
<g style="fill:#000000; fill-opacity:1.000000; 
stroke:#000000; stroke-width:0.000000; stroke-opacity:1; 
stroke-linecap:round; stroke-linejoin:round;">
<path style="fill:#000000; fill-opacity:1.000000; 
stroke:#000000; stroke-width:0.000000; stroke-opacity:1; 
stroke-linecap:round; stroke-linejoin:round;fill-rule:evenodd;"
d="M 97.343000,72.103000
97.323970,72.198671
97.269777,72.279777
97.188671,72.333970
97.093000,72.353000
96.418000,72.353000
96.322329,72.333970
96.241223,72.279777
96.187030,72.198671
96.168000,72.103000
96.168000,71.153000
96.187030,71.057329
96.241223,70.976223
96.322329,70.922030
96.418000,70.903000
97.093000,70.903000
97.188671,70.922030
97.269777,70.976223
97.323970,71.057329
97.343000,71.153000
Z" /> 
<path style="fill:#000000; fill-opacity:1.000000; 
stroke:#000000; stroke-width:0.000000; stroke-opacity:1; 
stroke-linecap:round; stroke-linejoin:round;fill-rule:evenodd;"
d="M 95.268000,72.103000
95.248970,72.198671
95.194777,72.279777
95.113671,72.333970
95.018000,72.353000
94.343000,72.353000
94.247329,72.333970
94.166223,72.279777
94.112030,72.198671
94.093000,72.103000
94.093000,71.153000
94.112030,71.057329
94.166223,70.976223
94.247329,70.922030
94.343000,70.903000
95.018000,70.903000
95.113671,70.922030
95.194777,70.976223
95.248970,71.057329
95.268000,71.153000
Z" /> 
</g>
<g >
</g>
<g style="fill:#000000; fill-opacity:1.000000; 
stroke:#000000; stroke-width:0.000000; stroke-opacity:1; 
stroke-linecap:round; stroke-linejoin:round;">
<path style="fill:#000000; fill-opacity:1.000000; 
stroke:#000000; stroke-width:0.000000; stroke-opacity:1; 
stroke-linecap:round; stroke-linejoin:round;fill-rule:evenodd;"
d="M 93.270000,78.046000
92.070000,78.046000
92.070000,77.146000
93.270000,77.146000
Z" /> 
<path style="fill:#000000; fill-opacity:1.000000; 
stroke:#000000; stroke-width:0.000000; stroke-opacity:1; 
stroke-linecap:round; stroke-linejoin:round;fill-rule:evenodd;"
d="M 93.270000,74.746000
92.070000,74.746000
92.070000,73.846000
93.270000,73.846000
Z" /> 
</g>
<g >
</g>
<g style="fill:#000000; fill-opacity:1.000000; 
stroke:#000000; stroke-width:0.000000; stroke-opacity:1; 
stroke-linecap:round; stroke-linejoin:round;">
<path style="fill:#000000; fill-opacity:1.000000; 
stroke:#000000; stroke-width:0.000000; stroke-opacity:1; 
stroke-linecap:round; stroke-linejoin:round;fill-rule:evenodd;"
d="M 95.142000,90.000000
95.142000,88.800000
96.042000,88.800000
96.042000,90.000000
Z" /> 
<path style="fill:#000000; fill-opacity:1.000000; 
stroke:#000000; stroke-width:0.000000; stroke-opacity:1; 
stroke-linecap:round; stroke-linejoin:round;fill-rule:evenodd;"
d="M 98.442000,90.000000
98.442000,88.800000
99.342000,88.800000
99.342000,90.000000
Z" /> 
</g>
<g >
</g>
<g style="fill:#000000; fill-opacity:1.000000; 
stroke:#000000; stroke-width:0.000000; stroke-opacity:1; 
stroke-linecap:round; stroke-linejoin:round;">
<path style="fill:#000000; fill-opacity:1.000000; 
stroke:#000000; stroke-width:0.000000; stroke-opacity:1; 
stroke-linecap:round; stroke-linejoin:round;fill-rule:evenodd;"
d="M 99.342000,86.300000
99.342000,87.500000
98.442000,87.500000
98.442000,86.300000
Z" /> 
<path style="fill:#000000; fill-opacity:1.000000; 
stroke:#000000; stroke-width:0.000000; stroke-opacity:1; 
stroke-linecap:round; stroke-linejoin:round;fill-rule:evenodd;"
d="M 96.042000,86.300000
96.042000,87.500000
95.142000,87.500000
95.142000,86.300000
Z" /> 
</g>
<g >
</g>
<g style="fill:#000000; fill-opacity:1.000000; 
stroke:#000000; stroke-width:0.000000; stroke-opacity:1; 
stroke-linecap:round; stroke-linejoin:round;">
<path style="fill:#000000; fill-opacity:1.000000; 
stroke:#000000; stroke-width:0.000000; stroke-opacity:1; 
stroke-linecap:round; stroke-linejoin:round;fill-rule:evenodd;"
d="M 97.849000,80.017000
97.944671,80.036030
98.025777,80.090223
98.079970,80.171329
98.099000,80.267000
98.099000,81.017000
98.079970,81.112671
98.025777,81.193777
97.944671,81.247970
97.849000,81.267000
95.699000,81.267000
95.603329,81.247970
95.522223,81.193777
95.468030,81.112671
95.449000,81.017000
95.449000,80.267000
95.468030,80.171329
95.522223,80.090223
95.603329,80.036030
95.699000,80.017000
Z" /> 
<path style="fill:#000000; fill-opacity:1.000000; 
stroke:#000000; stroke-width:0.000000; stroke-opacity:1; 
stroke-linecap:round; stroke-linejoin:round;fill-rule:evenodd;"
d="M 97.849000,82.817000
97.944671,82.836030
98.025777,82.890223
98.079970,82.971329
98.099000,83.067000
98.099000,83.817000
98.079970,83.912671
98.025777,83.993777
97.944671,84.047970
97.849000,84.067000
95.699000,84.067000
95.603329,84.047970
95.522223,83.993777
95.468030,83.912671
95.449000,83.817000
95.449000,83.067000
95.468030,82.971329
95.522223,82.890223
95.603329,82.836030
95.699000,82.817000
Z" /> 
</g>
<g >
</g>
<g style="fill:#000000; fill-opacity:1.000000; 
stroke:#000000; stroke-width:0.000000; stroke-opacity:1; 
stroke-linecap:round; stroke-linejoin:round;">
<path style="fill:#000000; fill-opacity:1.000000; 
stroke:#000000; stroke-width:0.000000; stroke-opacity:1; 
stroke-linecap:round; stroke-linejoin:round;fill-rule:evenodd;"
d="M 99.858000,75.634001
99.838970,75.729671
99.784777,75.810777
99.703671,75.864970
99.608000,75.883999
98.907999,75.884000
98.812329,75.864970
98.731223,75.810777
98.677030,75.729671
98.658001,75.634000
98.658000,74.733999
98.677030,74.638329
98.731223,74.557223
98.812329,74.503030
98.908000,74.484001
99.608001,74.484000
99.703671,74.503030
99.784777,74.557223
99.838970,74.638329
99.857999,74.734000
Z" /> 
<path style="fill:#000000; fill-opacity:1.000000; 
stroke:#000000; stroke-width:0.000000; stroke-opacity:1; 
stroke-linecap:round; stroke-linejoin:round;fill-rule:evenodd;"
d="M 97.858000,75.634001
97.838970,75.729671
97.784777,75.810777
97.703671,75.864970
97.608000,75.883999
96.907999,75.884000
96.812329,75.864970
96.731223,75.810777
96.677030,75.729671
96.658001,75.634000
96.658000,74.733999
96.677030,74.638329
96.731223,74.557223
96.812329,74.503030
96.908000,74.484001
97.608001,74.484000
97.703671,74.503030
97.784777,74.557223
97.838970,74.638329
97.857999,74.734000
Z" /> 
</g>
<g >
</g>
<g style="fill:#000000; fill-opacity:1.000000; 
stroke:#000000; stroke-width:0.000000; stroke-opacity:1; 
stroke-linecap:round; stroke-linejoin:round;">
<path style="fill:#000000; fill-opacity:1.000000; 
stroke:#000000; stroke-width:0.000000; stroke-opacity:1; 
stroke-linecap:round; stroke-linejoin:round;fill-rule:evenodd;"
d="M 99.858000,77.666001
99.838970,77.761671
99.784777,77.842777
99.703671,77.896970
99.608000,77.915999
98.907999,77.916000
98.812329,77.896970
98.731223,77.842777
98.677030,77.761671
98.658001,77.666000
98.658000,76.765999
98.677030,76.670329
98.731223,76.589223
98.812329,76.535030
98.908000,76.516001
99.608001,76.516000
99.703671,76.535030
99.784777,76.589223
99.838970,76.670329
99.857999,76.766000
Z" /> 
<path style="fill:#000000; fill-opacity:1.000000; 
stroke:#000000; stroke-width:0.000000; stroke-opacity:1; 
stroke-linecap:round; stroke-linejoin:round;fill-rule:evenodd;"
d="M 97.858000,77.666001
97.838970,77.761671
97.784777,77.842777
97.703671,77.896970
97.608000,77.915999
96.907999,77.916000
96.812329,77.896970
96.731223,77.842777
96.677030,77.761671
96.658001,77.666000
96.658000,76.765999
96.677030,76.670329
96.731223,76.589223
96.812329,76.535030
96.908000,76.516001
97.608001,76.516000
97.703671,76.535030
97.784777,76.589223
97.838970,76.670329
97.857999,76.766000
Z" /> 
</g>
<g >
</g>
<g style="fill:#000000; fill-opacity:1.000000; 
stroke:#000000; stroke-width:0.000000; stroke-opacity:1; 
stroke-linecap:round; stroke-linejoin:round;">
<path style="fill:#000000; fill-opacity:1.000000; 
stroke:#000000; stroke-width:0.000000; stroke-opacity:1; 
stroke-linecap:round; stroke-linejoin:round;fill-rule:evenodd;"
d="M 92.169000,78.639000
92.264671,78.658030
92.345777,78.712223
92.399970,78.793329
92.419000,78.889000
92.419000,79.564000
92.399970,79.659671
92.345777,79.740777
92.264671,79.794970
92.169000,79.814000
91.219000,79.814000
91.123329,79.794970
91.042223,79.740777
90.988030,79.659671
90.969000,79.564000
90.969000,78.889000
90.988030,78.793329
91.042223,78.712223
91.123329,78.658030
91.219000,78.639000
Z" /> 
<path style="fill:#000000; fill-opacity:1.000000; 
stroke:#000000; stroke-width:0.000000; stroke-opacity:1; 
stroke-linecap:round; stroke-linejoin:round;fill-rule:evenodd;"
d="M 92.169000,80.714000
92.264671,80.733030
92.345777,80.787223
92.399970,80.868329
92.419000,80.964000
92.419000,81.639000
92.399970,81.734671
92.345777,81.815777
92.264671,81.869970
92.169000,81.889000
91.219000,81.889000
91.123329,81.869970
91.042223,81.815777
90.988030,81.734671
90.969000,81.639000
90.969000,80.964000
90.988030,80.868329
91.042223,80.787223
91.123329,80.733030
91.219000,80.714000
Z" /> 
</g>
<g >
</g>
<g style="fill:#000000; fill-opacity:1.000000; 
stroke:#000000; stroke-width:0.000000; stroke-opacity:1; 
stroke-linecap:round; stroke-linejoin:round;">
<path style="fill:#000000; fill-opacity:1.000000; 
stroke:#000000; stroke-width:0.000000; stroke-opacity:1; 
stroke-linecap:round; stroke-linejoin:round;fill-rule:evenodd;"
d="M 103.491000,79.281000
103.510030,79.185329
103.564223,79.104223
103.645329,79.050030
103.741000,79.031000
104.416000,79.031000
104.511671,79.050030
104.592777,79.104223
104.646970,79.185329
104.666000,79.281000
104.666000,80.231000
104.646970,80.326671
104.592777,80.407777
104.511671,80.461970
104.416000,80.481000
103.741000,80.481000
103.645329,80.461970
103.564223,80.407777
103.510030,80.326671
103.491000,80.231000
Z" /> 
<path style="fill:#000000; fill-opacity:1.000000; 
stroke:#000000; stroke-width:0.000000; stroke-opacity:1; 
stroke-linecap:round; stroke-linejoin:round;fill-rule:evenodd;"
d="M 105.566000,79.281000
105.585030,79.185329
105.639223,79.104223
105.720329,79.050030
105.816000,79.031000
106.491000,79.031000
106.586671,79.050030
106.667777,79.104223
106.721970,79.185329
106.741000,79.281000
106.741000,80.231000
106.721970,80.326671
106.667777,80.407777
106.586671,80.461970
106.491000,80.481000
105.816000,80.481000
105.720329,80.461970
105.639223,80.407777
105.585030,80.326671
105.566000,80.231000
Z" /> 
</g>
<g >
</g>
<g style="fill:#000000; fill-opacity:1.000000; 
stroke:#000000; stroke-width:0.000000; stroke-opacity:1; 
stroke-linecap:round; stroke-linejoin:round;">
<path style="fill:#000000; fill-opacity:1.000000; 
stroke:#000000; stroke-width:0.000000; stroke-opacity:1; 
stroke-linecap:round; stroke-linejoin:round;fill-rule:evenodd;"
d="M 119.048000,85.910000
117.948000,85.910000
117.948000,85.610000
119.048000,85.610000
Z" /> 
<path style="fill:#000000; fill-opacity:1.000000; 
stroke:#000000; stroke-width:0.000000; stroke-opacity:1; 
stroke-linecap:round; stroke-linejoin:round;fill-rule:evenodd;"
d="M 119.048000,85.410000
117.948000,85.410000
117.948000,85.110000
119.048000,85.110000
Z" /> 
<path style="fill:#000000; fill-opacity:1.000000; 
stroke:#000000; stroke-width:0.000000; stroke-opacity:1; 
stroke-linecap:round; stroke-linejoin:round;fill-rule:evenodd;"
d="M 119.048000,84.910000
117.948000,84.910000
117.948000,84.610000
119.048000,84.610000
Z" /> 
<path style="fill:#000000; fill-opacity:1.000000; 
stroke:#000000; stroke-width:0.000000; stroke-opacity:1; 
stroke-linecap:round; stroke-linejoin:round;fill-rule:evenodd;"
d="M 119.048000,84.410000
117.948000,84.410000
117.948000,84.110000
119.048000,84.110000
Z" /> 
<path style="fill:#000000; fill-opacity:1.000000; 
stroke:#000000; stroke-width:0.000000; stroke-opacity:1; 
stroke-linecap:round; stroke-linejoin:round;fill-rule:evenodd;"
d="M 119.048000,83.910000
117.948000,83.910000
117.948000,83.610000
119.048000,83.610000
Z" /> 
<path style="fill:#000000; fill-opacity:1.000000; 
stroke:#000000; stroke-width:0.000000; stroke-opacity:1; 
stroke-linecap:round; stroke-linejoin:round;fill-rule:evenodd;"
d="M 119.048000,83.410000
117.948000,83.410000
117.948000,83.110000
119.048000,83.110000
Z" /> 
<path style="fill:#000000; fill-opacity:1.000000; 
stroke:#000000; stroke-width:0.000000; stroke-opacity:1; 
stroke-linecap:round; stroke-linejoin:round;fill-rule:evenodd;"
d="M 119.048000,82.910000
117.948000,82.910000
117.948000,82.610000
119.048000,82.610000
Z" /> 
<path style="fill:#000000; fill-opacity:1.000000; 
stroke:#000000; stroke-width:0.000000; stroke-opacity:1; 
stroke-linecap:round; stroke-linejoin:round;fill-rule:evenodd;"
d="M 119.048000,82.410000
117.948000,82.410000
117.948000,82.110000
119.048000,82.110000
Z" /> 
<path style="fill:#000000; fill-opacity:1.000000; 
stroke:#000000; stroke-width:0.000000; stroke-opacity:1; 
stroke-linecap:round; stroke-linejoin:round;fill-rule:evenodd;"
d="M 119.048000,81.910000
117.948000,81.910000
117.948000,81.610000
119.048000,81.610000
Z" /> 
<path style="fill:#000000; fill-opacity:1.000000; 
stroke:#000000; stroke-width:0.000000; stroke-opacity:1; 
stroke-linecap:round; stroke-linejoin:round;fill-rule:evenodd;"
d="M 119.048000,81.410000
117.948000,81.410000
117.948000,81.110000
119.048000,81.110000
Z" /> 
<path style="fill:#000000; fill-opacity:1.000000; 
stroke:#000000; stroke-width:0.000000; stroke-opacity:1; 
stroke-linecap:round; stroke-linejoin:round;fill-rule:evenodd;"
d="M 119.048000,80.910000
117.948000,80.910000
117.948000,80.610000
119.048000,80.610000
Z" /> 
<path style="fill:#000000; fill-opacity:1.000000; 
stroke:#000000; stroke-width:0.000000; stroke-opacity:1; 
stroke-linecap:round; stroke-linejoin:round;fill-rule:evenodd;"
d="M 119.048000,80.410000
117.948000,80.410000
117.948000,80.110000
119.048000,80.110000
Z" /> 
<path style="fill:#000000; fill-opacity:1.000000; 
stroke:#000000; stroke-width:0.000000; stroke-opacity:1; 
stroke-linecap:round; stroke-linejoin:round;fill-rule:evenodd;"
d="M 119.048000,79.910000
117.948000,79.910000
117.948000,79.610000
119.048000,79.610000
Z" /> 
<path style="fill:#000000; fill-opacity:1.000000; 
stroke:#000000; stroke-width:0.000000; stroke-opacity:1; 
stroke-linecap:round; stroke-linejoin:round;fill-rule:evenodd;"
d="M 119.048000,79.410000
117.948000,79.410000
117.948000,79.110000
119.048000,79.110000
Z" /> 
<path style="fill:#000000; fill-opacity:1.000000; 
stroke:#000000; stroke-width:0.000000; stroke-opacity:1; 
stroke-linecap:round; stroke-linejoin:round;fill-rule:evenodd;"
d="M 119.048000,78.910000
117.948000,78.910000
117.948000,78.610000
119.048000,78.610000
Z" /> 
<path style="fill:#000000; fill-opacity:1.000000; 
stroke:#000000; stroke-width:0.000000; stroke-opacity:1; 
stroke-linecap:round; stroke-linejoin:round;fill-rule:evenodd;"
d="M 119.048000,78.410000
117.948000,78.410000
117.948000,78.110000
119.048000,78.110000
Z" /> 
<path style="fill:#000000; fill-opacity:1.000000; 
stroke:#000000; stroke-width:0.000000; stroke-opacity:1; 
stroke-linecap:round; stroke-linejoin:round;fill-rule:evenodd;"
d="M 119.048000,77.910000
117.948000,77.910000
117.948000,77.610000
119.048000,77.610000
Z" /> 
<path style="fill:#000000; fill-opacity:1.000000; 
stroke:#000000; stroke-width:0.000000; stroke-opacity:1; 
stroke-linecap:round; stroke-linejoin:round;fill-rule:evenodd;"
d="M 119.048000,77.410000
117.948000,77.410000
117.948000,77.110000
119.048000,77.110000
Z" /> 
<path style="fill:#000000; fill-opacity:1.000000; 
stroke:#000000; stroke-width:0.000000; stroke-opacity:1; 
stroke-linecap:round; stroke-linejoin:round;fill-rule:evenodd;"
d="M 119.048000,76.910000
117.948000,76.910000
117.948000,76.610000
119.048000,76.610000
Z" /> 
<path style="fill:#000000; fill-opacity:1.000000; 
stroke:#000000; stroke-width:0.000000; stroke-opacity:1; 
stroke-linecap:round; stroke-linejoin:round;fill-rule:evenodd;"
d="M 119.048000,76.410000
117.948000,76.410000
117.948000,76.110000
119.048000,76.110000
Z" /> 
<path style="fill:#000000; fill-opacity:1.000000; 
stroke:#000000; stroke-width:0.000000; stroke-opacity:1; 
stroke-linecap:round; stroke-linejoin:round;fill-rule:evenodd;"
d="M 119.048000,75.910000
117.948000,75.910000
117.948000,75.610000
119.048000,75.610000
Z" /> 
<path style="fill:#000000; fill-opacity:1.000000; 
stroke:#000000; stroke-width:0.000000; stroke-opacity:1; 
stroke-linecap:round; stroke-linejoin:round;fill-rule:evenodd;"
d="M 119.048000,75.410000
117.948000,75.410000
117.948000,75.110000
119.048000,75.110000
Z" /> 
<path style="fill:#000000; fill-opacity:1.000000; 
stroke:#000000; stroke-width:0.000000; stroke-opacity:1; 
stroke-linecap:round; stroke-linejoin:round;fill-rule:evenodd;"
d="M 119.048000,74.910000
117.948000,74.910000
117.948000,74.610000
119.048000,74.610000
Z" /> 
<path style="fill:#000000; fill-opacity:1.000000; 
stroke:#000000; stroke-width:0.000000; stroke-opacity:1; 
stroke-linecap:round; stroke-linejoin:round;fill-rule:evenodd;"
d="M 119.048000,74.410000
117.948000,74.410000
117.948000,74.110000
119.048000,74.110000
Z" /> 
<path style="fill:#000000; fill-opacity:1.000000; 
stroke:#000000; stroke-width:0.000000; stroke-opacity:1; 
stroke-linecap:round; stroke-linejoin:round;fill-rule:evenodd;"
d="M 121.748000,88.580000
118.648000,88.580000
118.648000,86.280000
121.748000,86.280000
Z" /> 
<path style="fill:#000000; fill-opacity:1.000000; 
stroke:#000000; stroke-width:0.000000; stroke-opacity:1; 
stroke-linecap:round; stroke-linejoin:round;fill-rule:evenodd;"
d="M 121.748000,73.740000
118.648000,73.740000
118.648000,71.440000
121.748000,71.440000
Z" /> 
</g>
<g >
</g>
<g style="fill:#000000; fill-opacity:1.000000; 
stroke:#000000; stroke-width:0.000000; stroke-opacity:1; 
stroke-linecap:round; stroke-linejoin:round;">
<path style="fill:#000000; fill-opacity:1.000000; 
stroke:#000000; stroke-width:0.000000; stroke-opacity:1; 
stroke-linecap:round; stroke-linejoin:round;fill-rule:evenodd;"
d="M 85.510000,70.850000
85.510000,69.150000
87.210000,69.150000
87.210000,70.850000
Z" /> 
<circle cx="88.900000" cy="70.000000" r="0.850000" /> 
<circle cx="86.360000" cy="72.540000" r="0.850000" /> 
<circle cx="88.900000" cy="72.540000" r="0.850000" /> 
<circle cx="86.360000" cy="75.080000" r="0.850000" /> 
<circle cx="88.900000" cy="75.080000" r="0.850000" /> 
<circle cx="86.360000" cy="77.620000" r="0.850000" /> 
<circle cx="88.900000" cy="77.620000" r="0.850000" /> 
<circle cx="86.360000" cy="80.160000" r="0.850000" /> 
<circle cx="88.900000" cy="80.160000" r="0.850000" /> 
</g>
<g >
</g>
<g style="fill:#000000; fill-opacity:1.000000; 
stroke:#000000; stroke-width:0.000000; stroke-opacity:1; 
stroke-linecap:round; stroke-linejoin:round;">
<path style="fill:#000000; fill-opacity:1.000000; 
stroke:#000000; stroke-width:0.000000; stroke-opacity:1; 
stroke-linecap:round; stroke-linejoin:round;fill-rule:evenodd;"
d="M 101.866000,76.696000
101.316000,76.696000
101.316000,76.690911
101.244843,76.690911
101.108292,76.650816
100.988570,76.573875
100.895373,76.466320
100.836254,76.336866
100.816000,76.196000
100.816000,75.696000
100.836254,75.555134
100.895373,75.425680
100.988570,75.318125
101.108292,75.241184
101.244843,75.201089
101.316000,75.201089
101.316000,75.196000
101.866000,75.196000
Z" /> 
<path style="fill:#000000; fill-opacity:1.000000; 
stroke:#000000; stroke-width:0.000000; stroke-opacity:1; 
stroke-linecap:round; stroke-linejoin:round;fill-rule:evenodd;"
d="M 102.116000,76.696000
102.116000,75.196000
103.116000,75.196000
103.116000,76.696000
Z" /> 
<path style="fill:#000000; fill-opacity:1.000000; 
stroke:#000000; stroke-width:0.000000; stroke-opacity:1; 
stroke-linecap:round; stroke-linejoin:round;fill-rule:evenodd;"
d="M 103.916000,75.201089
103.987157,75.201089
104.123708,75.241184
104.243430,75.318125
104.336627,75.425680
104.395746,75.555134
104.416000,75.696000
104.416000,76.196000
104.395746,76.336866
104.336627,76.466320
104.243430,76.573875
104.123708,76.650816
103.987157,76.690911
103.916000,76.690911
103.916000,76.696000
103.366000,76.696000
103.366000,75.196000
103.916000,75.196000
Z" /> 
</g>
<g >
</g>
<g style="fill:#000000; fill-opacity:1.000000; 
stroke:#000000; stroke-width:0.000000; stroke-opacity:1; 
stroke-linecap:round; stroke-linejoin:round;">
<path style="fill:#000000; fill-opacity:1.000000; 
stroke:#000000; stroke-width:0.000000; stroke-opacity:1; 
stroke-linecap:round; stroke-linejoin:round;fill-rule:evenodd;"
d="M 100.896000,80.864000
100.800329,80.844970
100.719223,80.790777
100.665030,80.709671
100.646000,80.614000
100.646000,79.914000
100.665030,79.818329
100.719223,79.737223
100.800329,79.683030
100.896000,79.664000
101.796000,79.664000
101.891671,79.683030
101.972777,79.737223
102.026970,79.818329
102.046000,79.914000
102.046000,80.614000
102.026970,80.709671
101.972777,80.790777
101.891671,80.844970
101.796000,80.864000
Z" /> 
<path style="fill:#000000; fill-opacity:1.000000; 
stroke:#000000; stroke-width:0.000000; stroke-opacity:1; 
stroke-linecap:round; stroke-linejoin:round;fill-rule:evenodd;"
d="M 100.896000,78.864000
100.800329,78.844970
100.719223,78.790777
100.665030,78.709671
100.646000,78.614000
100.646000,77.914000
100.665030,77.818329
100.719223,77.737223
100.800329,77.683030
100.896000,77.664000
101.796000,77.664000
101.891671,77.683030
101.972777,77.737223
102.026970,77.818329
102.046000,77.914000
102.046000,78.614000
102.026970,78.709671
101.972777,78.790777
101.891671,78.844970
101.796000,78.864000
Z" /> 
</g>
<g >
</g>
<g style="fill:#000000; fill-opacity:1.000000; 
stroke:#000000; stroke-width:0.000000; stroke-opacity:1; 
stroke-linecap:round; stroke-linejoin:round;">
<path style="fill:#000000; fill-opacity:1.000000; 
stroke:#000000; stroke-width:0.000000; stroke-opacity:1; 
stroke-linecap:round; stroke-linejoin:round;fill-rule:evenodd;"
d="M 86.050000,86.050000
86.050000,87.750000
84.350000,87.750000
84.350000,86.050000
Z" /> 
</g>
<g >
</g>
<g >
</g>
<g >
</g>
<g style="fill:#000000; fill-opacity:1.000000; 
stroke:#000000; stroke-width:0.000000; stroke-opacity:1; 
stroke-linecap:round; stroke-linejoin:round;">
<path style="fill:#000000; fill-opacity:1.000000; 
stroke:#000000; stroke-width:0.000000; stroke-opacity:1; 
stroke-linecap:round; stroke-linejoin:round;fill-rule:evenodd;"
d="M 117.050000,70.446000
115.350000,70.446000
115.350000,68.746000
117.050000,68.746000
Z" /> 
<circle cx="113.660000" cy="69.596000" r="0.850000" /> 
<circle cx="111.120000" cy="69.596000" r="0.850000" /> 
<circle cx="108.580000" cy="69.596000" r="0.850000" /> 
<circle cx="106.040000" cy="69.596000" r="0.850000" /> 
<circle cx="103.500000" cy="69.596000" r="0.850000" /> 
</g>
<g >
</g>
<g >
</g>
<g >
</g>
<g >
</g>
<g >
</g>
<g >
</g>
<g >
</g>
<g >
</g>
<g >
</g>
<g >
</g>
<g >
</g>
<g >
</g>
<g >
</g>
<g >
</g>
<g >
</g>
<g >
</g>
<g >
</g>
</g> 
</svg>
